<svg fill="none" height="160" viewBox="0 0 160 160" width="160" xmlns="http://www.w3.org/2000/svg"><rect fill="#fee2e2" height="160" rx="80" width="160"/><path clip-rule="evenodd" d="m59.6053 89.9908c-1.3381 2.0101-3.0522 3.7821-5.0512 5.2315.9301 2.0764 1.4459 4.3683 1.4459 6.7777 0 .09-.0007.181-.0022.271 3.7911.694 7.1475 2.682 9.6232 5.504 3.39-4.155 8.3514-6.775 13.879-6.775.3355 0 .6689.009 1 .028.3311-.019.6645-.028 1-.028 5.5276 0 10.489 2.62 13.879 6.775 2.4757-2.822 5.832-4.81 9.623-5.504-.001-.09-.002-.181-.002-.271 0-1.31.152-2.5855.441-3.8103-2.904 1.6053-6.2494 2.5203-9.8107 2.5203-3.2645 0-6.3478-.7688-9.0757-2.1334-2.728 1.3646-5.8113 2.1334-9.0757 2.1334-7.7635 0-14.5025-4.3473-17.8736-10.7192zm65.3827 28.8382c8.486-1.173 15.012-8.261 15.012-16.829 0-4.0031-1.424-7.6827-3.807-10.5872 2.395-3.2868 3.807-7.3243 3.807-11.6884 0-11.038-9.03-19.9861-20.168-19.9861-4.846 0-9.293 1.6939-12.771 4.5169-3.249-2.2187-7.1868-3.5177-11.4307-3.5177-3.2645 0-6.3478.7686-9.0757 2.1331-2.728-1.3645-5.8113-2.1331-9.0757-2.1331-7.2715 0-13.6442 3.8135-17.1926 9.5324-3.596-6.2659-10.7084-10.5316-18.895-10.5316-11.8141 0-21.3913 8.8836-21.3913 19.842 0 4.5984 1.6863 8.8314 4.5167 12.196-2.2078 2.8452-3.5167 6.3858-3.5167 10.2237 0 8.568 6.5255 15.656 15.0122 16.829-.0081.223-.0122.446-.0122.671 0 9.665 7.6112 17.5 17 17.5 4.3714 0 8.3574-1.699 11.3693-4.49 3.3486 5.135 8.8773 8.49 15.1307 8.49.3355 0 .6689-.01 1-.029.3311.019.6645.029 1 .029 6.2534 0 11.7821-3.355 15.1307-8.49 3.0119 2.791 6.9983 4.49 11.3693 4.49 9.389 0 17-7.835 17-17.5 0-.225-.004-.448-.012-.671z" fill="#f5f5f5" fill-rule="evenodd"/><path clip-rule="evenodd" d="m120.489 117.083c7.638-1.054 13.511-7.421 13.511-15.118 0-3.5959-1.282-6.9014-3.426-9.5106 2.156-2.9527 3.426-6.5797 3.426-10.5001 0-9.9159-8.127-17.9543-18.151-17.9543-4.362 0-8.364 1.5217-11.494 4.0577-2.924-1.9931-6.4682-3.1601-10.2878-3.1601-2.938 0-5.7129.6905-8.1681 1.9163-2.4551-1.2258-5.2301-1.9163-8.1681-1.9163-6.5443 0-12.2797 3.4258-15.4733 8.5633-3.2364-5.6288-9.6376-9.4609-17.0055-9.4609-10.6327 0-19.2522 7.9805-19.2522 17.8248 0 4.1309 1.5177 7.9336 4.065 10.9562-1.987 2.5559-3.165 5.7365-3.165 9.184 0 7.697 5.873 14.064 13.511 15.118-.0073.2-.011.401-.011.603 0 8.682 6.85 15.721 15.3 15.721 3.9342 0 7.5216-1.526 10.2323-4.033 3.0138 4.613 7.9897 7.626 13.6177 7.626.3019 0 .602-.009.9-.026.298.017.598.026.9.026 5.628 0 10.6039-3.013 13.6177-7.626 2.7107 2.507 6.2983 4.033 10.2323 4.033 8.45 0 15.3-7.039 15.3-15.721 0-.202-.004-.403-.011-.603zm-58.8442-25.906c-1.2043 1.8057-2.747 3.3975-4.5462 4.6996.8372 1.8653 1.3014 3.9242 1.3014 6.0884 0 .081-.0007.162-.002.244 3.412.623 6.4328 2.409 8.6609 4.944 3.051-3.732 7.5162-6.086 12.4911-6.086.3019 0 .602.008.9.025.298-.017.598-.025.9-.025 4.9749 0 9.4401 2.354 12.4911 6.086 2.2281-2.535 5.2489-4.321 8.6609-4.944-.001-.082-.002-.163-.002-.244 0-1.177.137-2.3224.397-3.4226-2.613 1.4421-5.6246 2.2636-8.8298 2.2636-2.938 0-5.7129-.69-8.1681-1.9161-2.4551 1.2261-5.2301 1.9161-8.1681 1.9161-6.9872 0-13.0522-3.9049-16.0862-9.629z" fill="#fff" fill-rule="evenodd"/><path d="m23.5061 53.8715c-.2821-1.0597.3704-2.0934 1.4504-2.2842 3.3271-.5875 10.4572-1.2684 16.3596 2.1097 7.994 4.5753 10.7089 14.8636 10.7089 14.8636s-10.9991 4.1862-18.9932-.3891c-5.9985-3.4331-8.6005-10.824-9.5257-14.3z" fill="#ffedd5"/><path d="m134.089 53.8715c.282-1.0597-.37-2.0934-1.45-2.2842-3.327-.5875-10.457-1.2684-16.36 2.1097-7.994 4.5753-10.709 14.8636-10.709 14.8636s10.999 4.1862 18.993-.3891c5.999-3.4331 8.601-10.824 9.526-14.3z" fill="#ffedd5"/><path d="m28.3296 56.6279c-.313-1.051.3424-2.0857 1.4277-2.2432 2.4097-.3495 6.6974-.5508 10.3005 1.5114 5.342 3.0574 7.1563 9.9327 7.1563 9.9327s-7.3503 2.7974-12.6924-.26c-3.6828-2.1078-5.4498-6.4481-6.1921-8.9409z" fill="#fed7aa"/><path d="m129.682 57.0078c.313-1.051-.342-2.0857-1.428-2.2432-2.409-.3495-6.697-.5508-10.3 1.5114-5.342 3.0574-7.156 9.9327-7.156 9.9327s7.35 2.7974 12.692-.26c3.683-2.1079 5.45-6.4481 6.192-8.9409z" fill="#fed7aa"/><path d="m40.5384 87.3629c-1.3689 17.6001 12.5438 32.6371 30.1973 32.6371h16.5141c17.6592 0 31.5732-15.045 30.1962-32.6504l-2.848-36.4047c-.924-11.8228-10.788-20.9449-22.6467-20.9449h-25.9332c-11.8627 0-21.7281 9.1279-22.6479 20.9548z" fill="#ffedd5"/><ellipse cx="60" cy="89.5" fill="#292524" rx="4" ry="4.5"/><circle cx="61.75" cy="87.75" fill="#fff" r=".75"/><ellipse cx="4" cy="4.5" fill="#292524" rx="4" ry="4.5" transform="matrix(-1 0 0 1 104 85)"/><circle cx=".75" cy=".75" fill="#fff" r=".75" transform="matrix(-1 0 0 1 102.5 87)"/><rect fill="#292524" height="7.21125" rx=".832068" width="1.66414" x="80.9924" y="98.1348"/><path d="m87.714 95.4191c0-1.5526-2.6223-2.8113-5.857-2.8113s-5.857 1.2587-5.857 2.8113c0 1.5527 2.6223 5.2419 5.857 5.2419s5.857-3.6892 5.857-5.2419z" fill="#292524"/><circle cx="78.5625" cy="95.1695" fill="#fff" r="1.09818"/><path clip-rule="evenodd" d="m69.6286 18c-4.5502 0-8.4365 2.6647-9.98 6.4202-1.3557-.583-2.8639-.9081-4.453-.9081-5.8578 0-10.6152 4.4162-10.6904 9.8906-5.6634 1.6855-9.5052 4.9612-9.5052 8.7259 0 2.721 2.0068 5.1864 5.2577 6.9807-.7135 1.3435-1.1148 2.8582-1.1148 4.4608 0 5.5351 4.7866 10.0222 10.6912 10.0222 1.5892 0 3.0974-.3251 4.4531-.9081 1.5434 3.7556 5.4298 6.4202 9.98 6.4202 2.9793 0 5.674-1.1424 7.6128-2.9854 1.9496 1.9397 4.7153 3.1507 7.7827 3.1507 2.8286 0 5.4006-1.0298 7.3128-2.7112 1.8906 1.5834 4.3855 2.5459 7.1202 2.5459 4.4754 0 8.3083-2.5778 9.9023-6.2359 1.234.4668 2.583.7238 3.996.7238 5.905 0 10.692-4.4871 10.692-10.0222 0-1.5646-.383-3.0454-1.065-4.3648 2.703-1.8186 4.379-4.3512 4.379-7.1522 0-4.1161-3.62-7.6526-8.797-9.1954-.371-5.2195-5.005-9.3456-10.667-9.3456-1.413 0-2.7623.257-3.997.7238-1.5934-3.6581-5.4266-6.2359-9.902-6.2359-4.1381 0-7.7271 2.2039-9.5042 5.4278-1.7771-3.2239-5.3661-5.4278-9.5042-5.4278z" fill="#f5f5f5" fill-rule="evenodd"/><path clip-rule="evenodd" d="m70.7222 21.1602c-3.9893 0-7.3966 2.3362-8.7497 5.6288-1.1886-.5112-2.5109-.7962-3.9042-.7962-5.1357 0-9.3066 3.8718-9.3725 8.6713-4.9652 1.4777-8.3334 4.3496-8.3334 7.6503 0 2.3855 1.7594 4.547 4.6095 6.1201-.6255 1.1778-.9773 2.5058-.9773 3.9108 0 4.8528 4.1965 8.7867 9.3732 8.7867 1.3933 0 2.7156-.285 3.9042-.7962 1.3532 3.2926 4.7604 5.6289 8.7498 5.6289 2.612 0 4.9745-1.0016 6.6742-2.6174 1.7093 1.7006 4.134 2.7622 6.8233 2.7622 2.4799 0 4.7349-.9028 6.4114-2.3769 1.6575 1.3882 3.8449 2.232 6.2425 2.232 3.9237 0 7.2843-2.26 8.6818-5.4671 1.082.4092 2.265.6345 3.503.6345 5.177 0 9.374-3.934 9.374-8.7867 0-1.3717-.336-2.6699-.934-3.8267 2.37-1.5944 3.84-3.8148 3.84-6.2704 0-3.6087-3.174-6.7093-7.713-8.0619-.326-4.5761-4.388-8.1935-9.3524-8.1935-1.2388 0-2.4214.2253-3.5039.6346-1.397-3.2072-4.7576-5.4672-8.6813-5.4672-3.628 0-6.7746 1.9321-8.3326 4.7587-1.558-2.8266-4.7046-4.7587-8.3326-4.7587z" fill="#fff" fill-rule="evenodd"/><circle cx="56" cy="102" fill="#fecaca" r="5"/><circle cx="105" cy="102" fill="#fecaca" r="5"/><path d="m68.3862 55.8244c.1239-.0712.2456-.1489.3646-.2331 2.0346-1.4399 2.5246-4.2454 1.0944-6.2663s-4.239-2.4919-6.2735-1.0521c-.1976.1398-.3805.2925-.5486.456-.1251-1.741-1.2285-3.3286-2.9373-3.9559-2.3116-.8486-4.856.3815-5.6829 2.7474-.4409 1.2614-.3046 2.5909.2689 3.6859-.1834-.0226-.3701-.0345-.5593-.035-2.5063-.007-4.5126 1.9834-4.4811 4.4456.0314 2.4623 2.0887 4.4641 4.595 4.4711.1352.0003.269-.0051.4012-.0161-.0544.1209-.104.2453-.1486.373-.827 2.3659.3766 4.9718 2.6882 5.8204s4.856-.3815 5.6829-2.7475c.0735-.2101.1309-.4221.1729-.6346.8189.7388 1.9078 1.1919 3.098 1.1953 2.5063.007 4.5126-1.9834 4.4811-4.4457-.0205-1.6086-.9057-3.0207-2.2159-3.8084z" fill="#ffce05"/><circle cx="61.056" cy="55.8557" fill="#fb923c" r="3.38163" transform="matrix(.18450373 .98283181 -.98283181 .18450373 104.687699 -14.457664)"/></svg>