 <svg width="68" height="76" viewBox="0 0 68 76" fill="none" xmlns="http://www.w3.org/2000/svg">
        <path
          d="M5.5126 37.0281C4.39215 36.7956 3.37288 36.2124 2.59977 35.3615C2.45271 35.2065 2.31437 35.0433 2.18539 34.8726C2.07658 34.7398 1.97488 34.6012 1.8807 34.4575L1.85938 34.4267L1.89594 34.3929L2.35297 33.9901L2.68813 33.6826C2.82829 33.8886 2.97149 34.0947 3.12079 34.2976C3.7597 35.1698 4.47892 35.979 5.26885 36.7145L5.5126 37.0281Z"
          fill="#E9E0FF"
        />
        <path
          d="M12.5972 37.5139C12.3778 37.763 12.1706 38.0213 11.9878 38.2949C10.5862 40.2014 9.64776 42.6183 9.07495 45.0813C9.03534 45.2473 8.99573 45.4195 8.96221 45.5855L8.8312 45.6317L8.66666 45.6809C8.59659 45.7024 8.50213 45.7793 8.39244 46.0376C8.11822 45.8838 7.83182 45.7301 7.53627 45.5855C7.24072 45.441 6.8629 45.2473 6.50032 45.0843C5.74459 44.7426 4.97049 44.4439 4.18164 44.1895C4.51935 44.2022 4.85743 44.1785 5.19016 44.1188C5.51551 44.0667 5.83359 43.9759 6.13774 43.8482C8.74893 42.8028 10.2998 39.5095 10.4034 36.6252C10.4179 36.2652 10.4077 35.9046 10.3729 35.546C10.3493 35.2708 10.3076 34.9976 10.248 34.728C10.6621 35.0767 11.0549 35.4505 11.4241 35.8473C11.8903 36.3449 12.2851 36.9058 12.5972 37.5139Z"
          fill="#E9E0FF"
        />
        <path
          d="M8.26668 45.7764C7.7091 45.6534 7.15761 45.5058 6.60613 45.3397C6.04943 45.1721 5.50221 44.974 4.9669 44.7463C4.69238 44.6288 4.42391 44.4974 4.16252 44.3527C3.88455 44.1974 3.62229 44.0152 3.37947 43.8084C3.24499 43.6884 3.12345 43.5544 3.01689 43.4087C2.95566 43.3227 2.90261 43.2311 2.85845 43.135C2.80881 43.026 2.772 42.9114 2.74876 42.7937C2.74876 42.7629 2.74876 42.726 2.74876 42.7015V42.6215C2.74876 42.5692 2.74876 42.5139 2.74876 42.4616C2.73557 42.3504 2.73048 42.2384 2.73353 42.1264C2.7463 42.0223 2.7677 41.9195 2.79751 41.819C2.81016 41.7642 2.8275 41.7107 2.84931 41.6591C2.84931 41.6345 2.86759 41.6068 2.87978 41.5791L2.90111 41.5391V41.5145V41.4869C2.98845 41.331 3.10669 41.1949 3.24845 41.0871C3.37197 40.9956 3.51004 40.9259 3.65674 40.8811C3.78799 40.838 3.92418 40.8122 4.06197 40.8042C4.129 40.8042 4.19603 40.8042 4.26307 40.8042C4.33344 40.8062 4.40365 40.8124 4.4733 40.8227L4.25393 41.6252C3.66577 41.24 3.11671 40.7971 2.6147 40.303C2.07975 39.7774 1.61845 39.1804 1.2436 38.5288C1.04213 38.1736 0.879679 37.7972 0.759142 37.4065C0.622543 36.9748 0.569781 36.5207 0.60375 36.0689C0.629163 35.8249 0.69186 35.5863 0.789611 35.3616C0.870652 35.1512 0.982609 34.9542 1.12172 34.7774C1.3638 34.4711 1.66165 34.2144 1.99923 34.021L1.84993 34.636C1.64882 34.2404 1.47967 33.829 1.34414 33.406C1.19841 32.9621 1.09636 32.5048 1.03946 32.0407C0.982778 31.5402 1.01268 31.0335 1.12782 30.5432C1.15857 30.4179 1.19724 30.2946 1.2436 30.1743C1.26797 30.1128 1.29235 30.0543 1.31977 29.9959C1.33112 29.9674 1.34435 29.9396 1.35938 29.9129L1.37766 29.876L1.40813 29.8268V29.8053C1.47821 29.6884 1.54524 29.5931 1.61532 29.4978C1.6854 29.4024 1.76157 29.3194 1.84079 29.2364C1.99447 29.0766 2.16511 28.9343 2.34962 28.8121C2.43997 28.7525 2.53355 28.6981 2.62993 28.6491L2.78532 28.5968C2.83791 28.5731 2.89183 28.5526 2.94681 28.5353C3.35825 28.4189 3.79507 28.4318 4.19908 28.5722C4.57731 28.6964 4.93864 28.8679 5.27463 29.0827C5.60584 29.2937 5.92336 29.5258 6.22526 29.7776C6.8316 30.2859 7.4027 30.8355 7.93457 31.4227C8.20574 31.7302 8.46778 32.013 8.72676 32.3144C8.98575 32.6157 9.23559 32.9294 9.48544 33.2369C10.4893 34.5087 11.425 35.8338 12.2886 37.2066C12.3295 37.2738 12.3473 37.3528 12.339 37.4312C12.3307 37.5097 12.2969 37.5832 12.2429 37.6401C12.2194 37.6633 12.1912 37.6809 12.1602 37.6918C12.1292 37.7026 12.0962 37.7064 12.0636 37.7029C12.031 37.6994 11.9996 37.6886 11.9716 37.6714C11.9436 37.6541 11.9197 37.6309 11.9016 37.6032C11.4324 36.9637 10.9571 36.3241 10.4665 35.706C9.97599 35.088 9.48848 34.4761 8.9827 33.8611C8.00848 32.6819 6.93056 31.5941 5.76214 30.6109C5.4848 30.3861 5.19264 30.1807 4.88768 29.9959C4.60711 29.8166 4.30508 29.674 3.98885 29.5716C3.72115 29.4744 3.43154 29.4563 3.154 29.5193C3.12161 29.5278 3.09001 29.5391 3.05954 29.5531L2.95595 29.5992C2.88892 29.6361 2.82189 29.673 2.7579 29.7161C2.62387 29.8042 2.50018 29.9073 2.38923 30.0236C2.33149 30.0804 2.27755 30.141 2.22774 30.205C2.17782 30.2653 2.13201 30.329 2.09063 30.3956L2.0754 30.4264C2.06444 30.4439 2.05525 30.4624 2.04798 30.4817C2.0297 30.5186 2.01446 30.5555 1.99923 30.5924C1.9683 30.6697 1.94185 30.7488 1.92001 30.8292C1.8297 31.1823 1.80287 31.5489 1.84079 31.9116C1.91881 32.6977 2.1247 33.4654 2.45017 34.1839V34.2085C2.4936 34.3067 2.5031 34.4168 2.47713 34.521C2.45116 34.6253 2.39123 34.7178 2.30696 34.7835H2.28868C2.03519 34.9339 1.81111 35.1298 1.62751 35.3616C1.45033 35.5874 1.34421 35.8616 1.32282 36.1488C1.30486 36.4702 1.34513 36.7922 1.44165 37.099C1.54363 37.4202 1.67949 37.7295 1.84688 38.0214C2.17948 38.6058 2.58951 39.1417 3.06564 39.6142C3.5319 40.0741 4.04221 40.4861 4.58908 40.8442C4.6736 40.9105 4.73365 41.0035 4.75961 41.1083C4.78557 41.2131 4.77595 41.3237 4.73229 41.4223C4.70563 41.4963 4.65422 41.5586 4.58691 41.5985C4.51961 41.6383 4.44064 41.6532 4.36361 41.6406C4.3203 41.6321 4.27656 41.6259 4.2326 41.6222C4.18491 41.6191 4.13708 41.6191 4.08939 41.6222C3.99673 41.6215 3.90443 41.6339 3.81517 41.6591C3.73408 41.6802 3.65691 41.7145 3.58666 41.7605C3.52418 41.8056 3.47047 41.8619 3.42822 41.9266L3.44345 41.8989L3.42822 41.9296L3.41298 41.9635L3.38556 42.0434C3.36813 42.102 3.35389 42.1616 3.34291 42.2218C3.33826 42.2852 3.33826 42.3489 3.34291 42.4124C3.33986 42.4451 3.33986 42.4781 3.34291 42.5108V42.56C3.34291 42.5754 3.34291 42.5815 3.34291 42.5938C3.35126 42.6412 3.36453 42.6876 3.38251 42.7322C3.40692 42.7856 3.43544 42.837 3.46783 42.8859C3.54107 42.9972 3.62585 43.1003 3.72072 43.1934C3.92718 43.3816 4.15173 43.5484 4.39104 43.6916C4.63664 43.8495 4.89096 43.9933 5.15276 44.1221C5.66515 44.3658 6.19111 44.5794 6.728 44.7616C7.26121 44.9492 7.80355 45.1153 8.3459 45.2598C8.40569 45.2821 8.45538 45.3256 8.48567 45.3822C8.51595 45.4388 8.52476 45.5046 8.51043 45.5673C8.50896 45.5975 8.50136 45.6271 8.48811 45.6542C8.47486 45.6814 8.45624 45.7055 8.4334 45.7251C8.41056 45.7447 8.38398 45.7593 8.35531 45.7681C8.32663 45.777 8.29647 45.7798 8.26668 45.7764Z"
          fill="#020202"
        />
        <path
          d="M12.8406 36.8591C11.9629 35.4732 11.015 34.1339 10.0009 32.8463C9.72367 32.4988 9.47078 32.1913 9.22398 31.8992C8.97718 31.6071 8.68163 31.2842 8.41655 30.9767C7.86459 30.3688 7.27211 29.7997 6.64326 29.2732C6.31921 29.001 5.97717 28.7514 5.61951 28.526C5.23919 28.282 4.82965 28.0877 4.40075 27.948C3.86774 27.7663 3.29227 27.7545 2.75238 27.9141C2.67031 27.9385 2.58991 27.9683 2.51168 28.0033L2.33801 28.0833C2.24965 28.1325 2.12168 28.2001 2.00285 28.277C1.78156 28.4284 1.57723 28.6037 1.39347 28.7997C1.2994 28.897 1.2109 28.9997 1.12839 29.1072C1.0338 29.2266 0.948244 29.353 0.872453 29.4854L0.805422 29.6115C0.787315 29.6444 0.771039 29.6782 0.756671 29.713C0.721996 29.7828 0.691473 29.8547 0.665265 29.9282C0.609492 30.0717 0.562682 30.2185 0.525108 30.3679C0.391539 30.9273 0.357495 31.5062 0.42456 32.0776C0.480069 32.5845 0.587279 33.0842 0.744484 33.5689C0.799328 33.7349 0.854172 33.901 0.912063 34.0578C0.808398 34.1608 0.711697 34.2707 0.622608 34.3868C0.266536 34.8515 0.0545276 35.4121 0.0132301 35.9981C-0.0292427 36.5274 0.0307798 37.0601 0.18995 37.5663C0.324382 37.9999 0.505214 38.4175 0.729249 38.8116C1.13065 39.5159 1.62809 40.1597 2.20699 40.7242C2.29535 40.8134 2.38371 40.8964 2.47512 40.9825L2.31059 41.3146C2.31059 41.3515 2.28012 41.3853 2.26488 41.4253C2.23898 41.4935 2.2176 41.5633 2.2009 41.6344C2.1573 41.7728 2.1257 41.9148 2.10644 42.0587C2.09083 42.1945 2.08371 42.3311 2.08512 42.4677V42.5353C2.08172 42.5855 2.08172 42.6359 2.08512 42.686V42.7567C2.08512 42.7906 2.08512 42.8336 2.1034 42.8767V42.9074C2.13665 43.0762 2.18985 43.2403 2.26184 43.3963C2.32381 43.5261 2.39616 43.6505 2.47816 43.7684C2.61411 43.9556 2.77048 44.1269 2.94434 44.2788C3.22065 44.5136 3.51974 44.7197 3.83708 44.8938C4.11874 45.0509 4.40862 45.1926 4.70544 45.3181C5.26258 45.5546 5.8322 45.7599 6.4117 45.9331C6.97537 46.1053 7.55124 46.2406 8.12405 46.3851C8.18412 46.3985 8.24537 46.4057 8.30687 46.4067C8.46964 46.4057 8.62855 46.3565 8.7639 46.2652C8.86594 46.1988 8.95326 46.1118 9.02038 46.0096C9.0875 45.9075 9.13296 45.7925 9.1539 45.6718C9.18828 45.4718 9.15501 45.2661 9.05945 45.0875C9.00506 44.9802 8.92895 44.8856 8.83605 44.8099C8.74315 44.7341 8.63553 44.6789 8.52015 44.6478C7.98999 44.5033 7.46288 44.3403 6.94795 44.1651C6.64326 44.0605 6.37818 43.959 6.12225 43.8576C5.86631 43.7561 5.65302 43.6608 5.43974 43.5501C5.17771 43.424 4.95224 43.301 4.75419 43.1811C4.55127 43.061 4.36133 42.9198 4.18747 42.7598C4.12931 42.7054 4.07627 42.6457 4.02903 42.5815L3.99856 42.5292V42.4339C3.99553 42.4032 3.99553 42.3723 3.99856 42.3416C3.99544 42.3192 3.99544 42.2964 3.99856 42.274C4.03082 42.2683 4.06381 42.2683 4.09606 42.274H4.46474L4.76943 42.2555C4.89147 42.2107 5.00354 42.142 5.09922 42.0533C5.1949 41.9647 5.27231 41.8578 5.32701 41.7389C5.32815 41.7277 5.32815 41.7164 5.32701 41.7051C5.40638 41.5264 5.43694 41.3295 5.41551 41.1349C5.39408 40.9402 5.32144 40.7549 5.20513 40.5982L4.99794 40.4075L4.78161 40.2445C4.33152 39.9353 3.90941 39.5864 3.5202 39.2021C3.08523 38.7672 2.712 38.2736 2.41113 37.7354C2.26475 37.4799 2.14722 37.2086 2.06074 36.9267C1.98987 36.7128 1.95687 36.488 1.96324 36.2625L2.10644 35.8874L2.28926 35.5983C2.38482 35.5092 2.48892 35.4299 2.60004 35.3616L2.63051 35.34L2.67621 35.3093C2.83668 35.2011 2.96432 35.0502 3.04499 34.8732C3.12566 34.6963 3.15621 34.5003 3.13325 34.3069C3.12449 34.1824 3.09353 34.0605 3.04184 33.9471C2.96262 33.7565 2.88645 33.5689 2.82246 33.3813L2.66402 32.9016C2.57126 32.569 2.51005 32.2282 2.48121 31.8838C2.45348 31.5915 2.47303 31.2966 2.5391 31.0106C2.55738 30.9521 2.57567 30.8999 2.59395 30.8476L2.6366 30.7554V30.7246C2.66098 30.6877 2.69145 30.6477 2.72801 30.6016C2.7614 30.5578 2.79699 30.5157 2.83465 30.4755C2.91908 30.3946 3.00975 30.3206 3.10582 30.2541C3.1471 30.2281 3.18983 30.2045 3.23379 30.1834L3.3252 30.1342H3.35567C3.50757 30.1016 3.66564 30.1156 3.80966 30.1742C4.06719 30.2589 4.31372 30.3746 4.54396 30.5186C4.82527 30.6937 5.09591 30.8857 5.35443 31.0936C6.48728 32.0529 7.5325 33.1128 8.47749 34.2608C8.91624 34.7712 9.37023 35.3247 9.95219 36.0688L10.3879 36.6346C10.7566 37.1112 11.0948 37.5571 11.372 37.9507C11.4433 38.0495 11.5344 38.132 11.6394 38.193C11.7444 38.2539 11.8609 38.2918 11.9814 38.3043H12.0241C12.1485 38.3157 12.2738 38.2999 12.3916 38.258C12.5094 38.2161 12.6168 38.149 12.7066 38.0613C12.8603 37.9058 12.9573 37.7022 12.9816 37.4838C13.006 37.2655 12.9563 37.0452 12.8406 36.8591Z"
          fill="black"
        />
        <path
          d="M10.3944 36.6345C10.2847 39.5188 8.73386 42.812 6.12876 43.8575C5.88806 43.7591 5.65954 43.6607 5.44626 43.55C5.18423 43.4239 4.95876 43.3009 4.76071 43.181C4.55779 43.0609 4.36785 42.9197 4.19399 42.7597C4.13583 42.7054 4.08279 42.6457 4.03555 42.5814L4.00508 42.5291V42.4338C4.00205 42.4031 4.00205 42.3722 4.00508 42.3416C4.00195 42.3191 4.00195 42.2963 4.00508 42.2739C4.03734 42.2682 4.07033 42.2682 4.10258 42.2739H4.47126L4.77594 42.2555C4.89799 42.2106 5.01006 42.1419 5.10574 42.0532C5.20142 41.9646 5.27883 41.8578 5.33353 41.7389C5.33467 41.7276 5.33467 41.7163 5.33353 41.705C5.4129 41.5263 5.44346 41.3294 5.42203 41.1348C5.4006 40.9402 5.32796 40.7548 5.21165 40.5981L5.00446 40.4074L4.78813 40.2445C4.33804 39.9352 3.91593 39.5864 3.52672 39.2021C3.0896 38.7675 2.7143 38.2739 2.41156 37.7353C2.26518 37.4798 2.14764 37.2086 2.06116 36.9266C1.9903 36.7127 1.95729 36.4879 1.96366 36.2624L2.10687 35.8873L2.28968 35.5983C2.38524 35.5091 2.48935 35.4298 2.60046 35.3615C3.37358 36.2123 4.39284 36.7955 5.51329 37.0281L5.28173 36.7206C4.4918 35.9851 3.77258 35.1759 3.13367 34.3037C3.12492 34.1792 3.09395 34.0573 3.04226 33.944C2.96304 33.7533 2.88687 33.5657 2.82289 33.3782L2.66445 32.9016C2.57169 32.5689 2.51047 32.2281 2.48164 31.8838C2.4539 31.5914 2.47345 31.2965 2.53953 31.0105C2.55781 30.9521 2.57609 30.8998 2.59437 30.8475L2.63703 30.7553V30.7245C2.6614 30.6876 2.69187 30.6477 2.72843 30.6015C2.76182 30.5577 2.79742 30.5156 2.83508 30.4755C2.9195 30.3945 3.01018 30.3205 3.10625 30.2541C3.14752 30.228 3.19025 30.2044 3.23422 30.1833L3.32562 30.1341H3.35609C3.50799 30.1016 3.66607 30.1155 3.81008 30.1741C4.06762 30.2588 4.31415 30.3745 4.54438 30.5185C4.82569 30.6936 5.09634 30.8857 5.35485 31.0935C6.48771 32.0528 7.53292 33.1128 8.47792 34.2607C8.91667 34.7711 9.37066 35.3246 9.95261 36.0687L10.3944 36.6345Z"
          fill="white"
        />
        <path
          d="M61.9023 37.0281C63.0237 36.7958 64.044 36.2126 64.8182 35.3615C64.9643 35.2065 65.1016 35.0432 65.2295 34.8726C65.3383 34.7398 65.44 34.6012 65.5342 34.4575L65.5556 34.4267C65.5403 34.4267 65.5312 34.4021 65.516 34.3929L65.062 33.9901L64.7268 33.6826C64.5867 33.8886 64.4434 34.0947 64.2911 34.2976C63.6531 35.1705 62.9338 35.9798 62.143 36.7145L61.9023 37.0281Z"
          fill="#E9E0FF"
        />
        <path
          d="M54.8184 37.5139C55.0347 37.763 55.2449 38.0213 55.4277 38.2949C56.8324 40.2014 57.7708 42.6183 58.3436 45.0813C58.3832 45.2473 58.4198 45.4195 58.4563 45.5855L58.5843 45.6317L58.7488 45.6809C58.8189 45.7024 58.9134 45.7793 59.0261 46.0376C59.2973 45.8838 59.5867 45.7301 59.8792 45.5855C60.1717 45.441 60.5557 45.2473 60.9152 45.0843C61.6713 44.7436 62.4454 44.4449 63.2339 44.1895C62.8972 44.2022 62.5601 44.1785 62.2284 44.1188C61.9021 44.0667 61.583 43.9759 61.2778 43.8482C58.6696 42.8028 57.1188 39.5095 57.0121 36.6252C56.9986 36.2651 57.0098 35.9045 57.0456 35.546C57.0678 35.2706 57.1095 34.9973 57.1706 34.728C56.7564 35.0767 56.3637 35.4505 55.9945 35.8473C55.5272 36.3447 55.1313 36.9057 54.8184 37.5139Z"
          fill="#E9E0FF"
        />
        <path
          d="M59.15 45.7762C59.7045 45.6532 60.259 45.5056 60.8105 45.3395C61.3671 45.1714 61.9143 44.9733 62.4498 44.7461C62.7179 44.6292 62.9891 44.5001 63.2541 44.3525C63.5312 44.1973 63.7924 44.015 64.0341 43.8082C64.1696 43.6883 64.2922 43.5543 64.3998 43.4085C64.4588 43.3211 64.5117 43.2296 64.5582 43.1348C64.6078 43.0258 64.6447 42.9112 64.6679 42.7935C64.6679 42.7627 64.6679 42.7258 64.6679 42.7012V42.6213C64.6679 42.569 64.6679 42.5137 64.6679 42.4614C64.669 42.3526 64.6639 42.2437 64.6527 42.1355C64.6393 42.0264 64.6179 41.9185 64.5887 41.8126C64.5887 41.7572 64.5552 41.705 64.5369 41.6527L64.5034 41.5728L64.4851 41.5328V41.5082V41.4805C64.3968 41.3253 64.2787 41.1894 64.1377 41.0808C64.0142 40.9892 63.8761 40.9195 63.7294 40.8747C63.5972 40.8317 63.4599 40.8058 63.3212 40.7979C63.2541 40.7979 63.1871 40.7979 63.1201 40.7979C63.0507 40.8 62.9815 40.8061 62.9129 40.8163L63.1323 41.6189C63.7194 41.2336 64.2675 40.7907 64.7684 40.2967C65.3043 39.7718 65.7657 39.1748 66.1395 38.5224C66.3422 38.1679 66.5047 37.7914 66.624 37.4001C66.7601 36.9684 66.8139 36.5145 66.7824 36.0625C66.7619 35.8236 66.7086 35.5886 66.624 35.3645C66.5406 35.1552 66.4288 34.9586 66.2919 34.7803C66.0485 34.4753 65.7509 34.2188 65.4144 34.0238L65.5606 34.6388C65.763 34.2438 65.9322 33.8324 66.0664 33.4089C66.215 32.9658 66.3171 32.5082 66.3711 32.0436C66.4288 31.5432 66.4 31.0365 66.2858 30.5461C66.254 30.4207 66.2143 30.2974 66.167 30.1771C66.1457 30.1164 66.1213 30.0569 66.0938 29.9988L66.0542 29.9158L66.0359 29.8789L66.0146 29.8389V29.8174C65.9527 29.7101 65.8835 29.6074 65.8074 29.5099C65.7373 29.4176 65.6612 29.3315 65.585 29.2485C65.4303 29.0886 65.2586 28.9463 65.0731 28.8242C64.9842 28.764 64.8916 28.7095 64.7959 28.6612L64.6283 28.5966C64.5767 28.5729 64.5238 28.5524 64.4698 28.5351C64.0574 28.4186 63.6196 28.4315 63.2145 28.572C62.834 28.691 62.4696 28.8573 62.1298 29.0671C61.7976 29.2781 61.4791 29.5102 61.1761 29.762C60.5705 30.2711 59.9995 30.8207 59.4668 31.4071C59.1987 31.7146 58.9336 31.9975 58.6747 32.2988C58.4157 32.6002 58.1658 32.9138 57.916 33.2213C56.9147 34.4983 55.9821 35.8286 55.122 37.2064C55.0806 37.2732 55.0624 37.3521 55.0701 37.4305C55.0778 37.5089 55.1111 37.5826 55.1646 37.6399C55.1881 37.6631 55.2163 37.6807 55.2473 37.6916C55.2783 37.7024 55.3113 37.7062 55.3439 37.7027C55.3765 37.6992 55.4079 37.6884 55.4359 37.6712C55.4639 37.6539 55.4878 37.6307 55.5059 37.603C55.9751 36.9635 56.4504 36.3239 56.9379 35.7058C57.4254 35.0878 57.916 34.4759 58.4248 33.8609C59.3988 32.6825 60.4756 31.5947 61.6423 30.6107C61.9207 30.3873 62.2128 30.1819 62.5168 29.9957C62.8022 29.8154 63.1094 29.6728 63.4309 29.5714C63.6976 29.4748 63.9861 29.4566 64.2627 29.5191L64.3541 29.5529L64.4577 29.599C64.5247 29.6359 64.5917 29.6728 64.6587 29.7159C64.7918 29.804 64.9145 29.9072 65.0244 30.0234C65.0831 30.0802 65.1381 30.1408 65.1889 30.2048C65.2369 30.2659 65.2816 30.3295 65.323 30.3954L65.3412 30.4262L65.3687 30.4815C65.387 30.5184 65.4022 30.5553 65.4174 30.5922C65.4483 30.6695 65.4748 30.7486 65.4966 30.829C65.5839 31.1826 65.6107 31.5487 65.5759 31.9114C65.4977 32.6975 65.2918 33.4652 64.9665 34.1837V34.2083C64.9214 34.3062 64.911 34.4168 64.937 34.5215C64.9631 34.6262 65.0241 34.7186 65.1097 34.7833H65.1249C65.379 34.9329 65.6032 35.129 65.7861 35.3614C65.9646 35.5865 66.0709 35.8611 66.0908 36.1486C66.1118 36.4701 66.0714 36.7926 65.972 37.0988C65.8723 37.4204 65.7374 37.7298 65.5698 38.0212C65.2314 38.6067 64.8152 39.1426 64.3327 39.614C63.8666 40.074 63.3562 40.486 62.8093 40.844C62.7234 40.9092 62.6624 41.0022 62.6363 41.1075C62.6102 41.2127 62.6207 41.3238 62.6661 41.4221C62.6921 41.4959 62.743 41.5581 62.8098 41.598C62.8766 41.6378 62.9551 41.6529 63.0317 41.6404C63.0761 41.6319 63.1208 41.6258 63.1658 41.622C63.2135 41.6189 63.2613 41.6189 63.309 41.622C63.4016 41.6215 63.4939 41.6339 63.5832 41.6589C63.6635 41.6794 63.7398 41.7137 63.8087 41.7603C63.8726 41.8037 63.9266 41.8603 63.9671 41.9264L63.9519 41.8987L63.9701 41.9294C63.977 41.9398 63.9822 41.9512 63.9854 41.9633C63.9974 41.9892 64.0076 42.0159 64.0159 42.0432C64.0337 42.1015 64.047 42.1611 64.0555 42.2216C64.0555 42.2831 64.0555 42.3476 64.0707 42.4122C64.0859 42.4768 64.0707 42.4768 64.0707 42.5106V42.5598C64.0707 42.5752 64.0707 42.5813 64.0707 42.5936C64.0638 42.6414 64.0505 42.6879 64.0311 42.732C64.0078 42.7854 63.9803 42.8368 63.9488 42.8857C63.8745 42.997 63.7887 43.1001 63.6929 43.1932C63.487 43.3821 63.2624 43.549 63.0226 43.6914C62.7813 43.8395 62.5321 43.974 62.2761 44.0942C61.7635 44.3374 61.2375 44.5509 60.7008 44.7338C60.1646 44.9224 59.6243 45.0884 59.0799 45.2319C59.0205 45.2547 58.9712 45.2983 58.941 45.3548C58.9108 45.4112 58.9017 45.4767 58.9154 45.5394C58.9136 45.571 58.9184 45.6025 58.9296 45.6321C58.9408 45.6616 58.958 45.6884 58.9801 45.7108C59.0023 45.7331 59.0289 45.7505 59.0581 45.7618C59.0874 45.773 59.1187 45.7779 59.15 45.7762Z"
          fill="#020202"
        />
        <path
          d="M54.7211 38.0704C54.8102 38.1582 54.917 38.2253 55.0344 38.2673C55.1517 38.3092 55.2766 38.3249 55.4006 38.3133H55.4432C55.561 38.2988 55.6746 38.26 55.7768 38.1991C55.8791 38.1383 55.9678 38.0568 56.0374 37.9597C56.3146 37.5815 56.6467 37.1203 57.0215 36.6437L57.4602 36.0779C58.0392 35.3338 58.4962 34.7803 58.9319 34.2698C59.8772 33.1211 60.9235 32.0611 62.058 31.1027C62.3155 30.8948 62.5851 30.7028 62.8654 30.5277C63.0994 30.3802 63.35 30.2615 63.6119 30.174C63.756 30.1156 63.914 30.1017 64.0659 30.1341H64.0933L64.1665 30.1679C64.2122 30.1925 64.2548 30.2109 64.2975 30.2386C64.3931 30.3043 64.4828 30.3784 64.5656 30.46C64.6043 30.5001 64.6409 30.5422 64.6753 30.5861C64.7088 30.6322 64.7423 30.6722 64.7667 30.7091V30.7398C64.788 30.786 64.8002 30.8075 64.8093 30.8321C64.8313 30.8851 64.8496 30.9395 64.8642 30.9951C64.9314 31.2809 64.952 31.5758 64.9251 31.8683C64.8952 32.2128 64.833 32.5535 64.7393 32.8861L64.5808 33.3812C64.5199 33.5688 64.4407 33.7563 64.3615 33.947C64.3126 34.0613 64.2817 34.1827 64.27 34.3067C64.2485 34.5003 64.2799 34.6962 64.3611 34.8729C64.4422 35.0497 64.5699 35.2006 64.7301 35.3092L64.7758 35.3399L64.8063 35.3614C64.9212 35.4298 65.0293 35.5091 65.1293 35.5982L65.309 35.8872L65.4401 36.2624C65.4449 36.4877 65.4119 36.7123 65.3426 36.9266C65.2535 37.2075 65.1361 37.4785 64.9922 37.7353C64.6828 38.2698 64.3025 38.7591 63.8618 39.1897C63.4721 39.5747 63.0489 39.9236 62.5973 40.2321L62.381 40.3951L62.1738 40.5857C62.0581 40.7428 61.9858 40.928 61.9644 41.1225C61.943 41.3171 61.9732 41.5138 62.0519 41.6927C62.0568 41.7046 62.0629 41.7159 62.0702 41.7265C62.1243 41.8453 62.2011 41.9521 62.2963 42.0408C62.3915 42.1294 62.5031 42.1982 62.6247 42.2431L62.9294 42.2615H63.2981C63.3304 42.2563 63.3633 42.2563 63.3956 42.2615C63.3973 42.2841 63.3973 42.3067 63.3956 42.3292C63.4002 42.3598 63.4002 42.3909 63.3956 42.4214V42.5137C63.3956 42.5137 63.3773 42.5444 63.3621 42.566C63.316 42.6302 63.264 42.69 63.2067 42.7443C63.0317 42.9042 62.8408 43.0454 62.6369 43.1656C62.4147 43.3002 62.1859 43.4233 61.9514 43.5346C61.7381 43.6391 61.5126 43.7375 61.2689 43.842C61.0251 43.9466 60.7387 44.0481 60.4432 44.1495C59.9313 44.3279 59.4011 44.4878 58.874 44.6323C58.7586 44.6634 58.651 44.7186 58.5581 44.7944C58.4652 44.8701 58.3891 44.9647 58.3347 45.072C58.2377 45.2501 58.2044 45.4563 58.2403 45.6562C58.2612 45.7766 58.3063 45.8913 58.3729 45.9934C58.4394 46.0955 58.526 46.1827 58.6272 46.2497C58.7637 46.341 58.9236 46.3902 59.0873 46.3911C59.1488 46.3899 59.21 46.3827 59.2701 46.3696C59.8429 46.2405 60.4157 46.0898 60.9794 45.9176C61.5597 45.7438 62.1303 45.5385 62.6887 45.3026C62.9843 45.1765 63.2731 45.0348 63.554 44.8783C63.8718 44.7049 64.171 44.4988 64.4468 44.2633C64.618 44.1128 64.7723 43.9437 64.9068 43.759C64.9866 43.6397 65.0589 43.5154 65.1232 43.387C65.1937 43.2304 65.2469 43.0664 65.2816 42.898V42.8673C65.2816 42.8242 65.2816 42.7812 65.2816 42.7474V42.6766C65.2816 42.6305 65.2816 42.5813 65.2816 42.526V42.4583C65.283 42.3217 65.2759 42.1851 65.2603 42.0494C65.2458 41.9097 65.2183 41.7717 65.178 41.6373C65.1597 41.5666 65.1354 41.4959 65.111 41.4282L65.0653 41.3175L64.9008 40.9854C64.9922 40.8993 65.0836 40.8163 65.1719 40.7272C65.7499 40.1626 66.2464 39.5187 66.6466 38.8146C66.8719 38.4211 67.0528 38.0034 67.1859 37.5692C67.346 37.0632 67.4071 36.5306 67.3657 36.001C67.3443 35.7021 67.2764 35.4085 67.1646 35.1308C67.063 34.8635 66.9211 34.6135 66.7441 34.3898C66.6568 34.2722 66.56 34.1622 66.4547 34.0607C66.5156 33.9039 66.5705 33.7532 66.6222 33.5718C66.7804 33.0872 66.8886 32.5875 66.9452 32.0805C67.011 31.5091 66.977 30.9304 66.8447 30.3708C66.8071 30.2215 66.7603 30.0746 66.7045 29.9311C66.674 29.8543 66.6436 29.7835 66.6131 29.7159L66.5644 29.6144L66.4973 29.4883C66.4194 29.3573 66.3339 29.231 66.2414 29.1101C66.1683 29.0117 66.0799 28.9133 65.9763 28.8026C65.7883 28.6051 65.5788 28.4298 65.3517 28.2799C65.2329 28.203 65.1079 28.1354 65.0165 28.0862L64.8459 28.0062C64.7675 27.9717 64.6871 27.942 64.6052 27.9171C64.0653 27.7574 63.4899 27.7692 62.9568 27.9509C62.5277 28.09 62.1181 28.2843 61.7381 28.529C61.3794 28.7542 61.0363 29.0039 60.7113 29.2762C60.0831 29.8034 59.4907 30.3725 58.938 30.9797C58.676 31.2656 58.4017 31.5762 58.1336 31.9021C57.8655 32.2281 57.6339 32.5171 57.3567 32.8492C56.3416 34.1368 55.3927 35.4761 54.5139 36.862C54.4055 37.0568 54.367 37.2833 54.4047 37.5034C54.4425 37.7235 54.5542 37.9237 54.7211 38.0704Z"
          fill="black"
        />
        <path
          d="M57.0195 36.6344C57.1323 39.5187 58.6831 42.8119 61.2852 43.8574C61.5289 43.759 61.7544 43.6606 61.9677 43.5499C62.2022 43.4387 62.431 43.3155 62.6532 43.1809C62.8571 43.0608 63.048 42.9196 63.223 42.7597C63.2803 42.7053 63.3323 42.6456 63.3784 42.5813C63.3784 42.5598 63.4028 42.5383 63.4119 42.529V42.4337C63.4165 42.4031 63.4165 42.372 63.4119 42.3415C63.4136 42.319 63.4136 42.2963 63.4119 42.2738C63.3796 42.2685 63.3467 42.2685 63.3144 42.2738H62.9457L62.641 42.2554C62.5194 42.2105 62.4078 42.1417 62.3126 42.053C62.2174 41.9644 62.1406 41.8576 62.0865 41.7388C62.0793 41.7282 62.0731 41.7169 62.0682 41.705C61.9895 41.5261 61.9593 41.3293 61.9807 41.1348C62.0021 40.9403 62.0744 40.755 62.1901 40.598L62.3973 40.4074L62.6136 40.2444C63.0652 39.9359 63.4884 39.587 63.8781 39.202C64.3188 38.7714 64.6991 38.2821 65.0085 37.7476C65.1524 37.4908 65.2698 37.2198 65.3589 36.9389C65.4283 36.7246 65.4612 36.5 65.4564 36.2747L65.3254 35.8995L65.1456 35.6105C65.0456 35.5214 64.9375 35.4421 64.8226 35.3737C64.0484 36.2248 63.0281 36.808 61.9067 37.0403L62.1383 36.7328C62.929 35.9982 63.6483 35.1889 64.2864 34.3159C64.298 34.1919 64.3289 34.0706 64.3778 33.9562C64.457 33.7655 64.5362 33.578 64.5972 33.3904L64.7556 32.8953C64.8493 32.5628 64.9115 32.222 64.9414 31.8775C64.9683 31.585 64.9477 31.2901 64.8805 31.0043C64.8659 30.9488 64.8476 30.8943 64.8257 30.8413C64.8257 30.8167 64.8043 30.7952 64.783 30.749V30.7183C64.7586 30.6814 64.7251 30.6414 64.6916 30.5953C64.6572 30.5514 64.6206 30.5093 64.5819 30.4692C64.4992 30.3876 64.4094 30.3135 64.3138 30.2478C64.2711 30.2202 64.2285 30.2017 64.1828 30.1771L64.1096 30.1433H64.0822C63.9303 30.1109 63.7723 30.1248 63.6282 30.1833C63.3663 30.2707 63.1157 30.3894 62.8818 30.5369C62.6014 30.712 62.3318 30.9041 62.0743 31.1119C60.9398 32.0703 59.8935 33.1303 58.9482 34.2791C58.5125 34.7895 58.0555 35.343 57.4766 36.0871L57.0195 36.6344Z"
          fill="white"
        />
        <path
          d="M22.7612 71.9192C22.4164 71.9391 22.0713 71.8864 21.7477 71.7647C21.4241 71.643 21.1291 71.4548 20.8813 71.212C20.5821 70.8973 20.3872 70.4965 20.3237 70.0651C18.6905 70.0128 17.3926 69.2072 16.9904 67.9772C16.7903 67.3232 16.8337 66.618 17.1123 65.9939C16.6656 65.5789 16.3651 65.0284 16.2561 64.4257C15.8143 61.7813 19.3852 59.4628 22.1396 58.9616C22.6756 58.8644 23.219 58.815 23.7636 58.814C25.8721 58.814 27.6057 59.5673 28.7818 60.991C29.0865 61.3508 30.5399 63.2695 30.1499 65.8063C29.5832 69.4931 25.3267 71.9192 22.7612 71.9192Z"
          fill="black"
        />
        <path
          d="M17.7613 64.1704C17.8741 64.8531 18.6266 65.2835 19.2117 65.5326C19.105 65.6495 18.1727 66.6796 18.4377 67.4975C18.7028 68.3154 20.3085 68.9365 22.222 68.1801C21.7131 69.3609 21.7497 69.9051 21.9813 70.1481C22.8679 71.0705 28.0751 69.1579 28.6448 65.5695C28.9495 63.6323 27.7308 62.1256 27.6119 61.9749C25.86 59.8502 22.9136 60.3852 22.4078 60.4775C20.0435 60.9049 17.5267 62.7806 17.7613 64.1704Z"
          fill="#894CF4"
        />
        <path
          d="M44.8881 71.9192C42.3256 71.9192 38.06 69.493 37.4994 65.8031C37.1094 63.2663 38.5688 61.3476 38.8644 60.9878C40.0405 59.5641 41.7772 58.8108 43.8826 58.8108C44.4272 58.8114 44.9706 58.8608 45.5066 58.9584C48.2488 59.4596 51.8319 61.7781 51.3901 64.4225C51.2824 65.025 50.9829 65.5756 50.537 65.9907C50.8132 66.6155 50.8554 67.3202 50.6558 67.974C50.2567 69.204 48.9587 70.0096 47.3225 70.0619C47.259 70.4933 47.0642 70.8941 46.765 71.2088C46.5181 71.4522 46.2237 71.6411 45.9006 71.7633C45.5774 71.8856 45.2326 71.9387 44.8881 71.9192Z"
          fill="black"
        />
        <path
          d="M49.8873 64.1704C49.7746 64.8531 49.0189 65.2835 48.4339 65.5326C48.5436 65.6495 49.476 66.6796 49.2079 67.4975C48.9397 68.3154 47.3401 68.9365 45.4267 68.1801C45.9355 69.3609 45.8959 69.9051 45.6643 70.1481C44.7807 71.0705 39.5553 69.1579 39.0038 65.5695C38.6991 63.6323 39.9179 62.1256 40.0337 61.9749C41.7887 59.8502 44.735 60.3852 45.2378 60.4775C47.6052 60.9049 50.1189 62.7806 49.8873 64.1704Z"
          fill="#894CF4"
        />
        <path
          d="M55.9086 48.9988C55.8548 49.5464 55.7704 50.0905 55.6557 50.6285C55.6344 50.7484 55.607 50.8714 55.5765 50.9913L55.54 51.1389L55.5034 51.2896C55.4577 51.4525 55.412 51.5971 55.3632 51.7723C55.3145 51.9476 55.2627 52.0798 55.2048 52.2459C55.1896 52.2951 55.1713 52.3443 55.153 52.3935L55.0982 52.538L55.0403 52.6856C54.4669 54.1204 53.6481 55.4422 52.621 56.5907L52.5022 56.7229C52.4717 56.7568 52.4413 56.7906 52.4047 56.8244L52.3803 56.8521C52.2676 56.972 52.1518 57.0888 52.036 57.2057C51.0158 58.1945 49.8592 59.0293 48.6022 59.6841C48.4559 59.761 48.2975 59.8378 48.1573 59.9085C47.9197 60.0285 47.679 60.1422 47.4383 60.2468C47.0361 60.4221 46.6278 60.585 46.2195 60.7326C44.2136 61.4295 42.1353 61.8927 40.0252 62.1133H39.9155C39.2635 62.1901 38.6389 62.2424 38.0478 62.2824C37.5176 62.3224 37.0149 62.347 36.5517 62.3685L36.0947 62.3869L35.6224 62.4208C35.1745 62.4208 34.7784 62.4515 34.4402 62.47C34.102 62.4884 33.7334 62.5038 33.3312 62.513H32.862H32.3988C31.564 62.513 30.6316 62.4792 29.6383 62.3931C29.029 62.3408 28.4196 62.2732 27.7645 62.1748C27.1765 62.0887 26.5793 61.9841 25.9699 61.8519H25.9455C24.5652 61.5592 23.2148 61.1382 21.9114 60.5943L21.491 60.4128C20.9892 60.1894 20.4936 59.9393 20.0041 59.6626C19.2491 59.242 18.5269 58.764 17.8438 58.2327C17.7067 58.1251 17.5666 58.0144 17.4325 57.9006C16.8672 57.4275 16.3367 56.9137 15.8451 56.3632C15.3988 55.8708 14.9855 55.349 14.608 54.8011C14.3277 54.3983 14.0596 53.974 13.8097 53.5281C13.7122 53.3559 13.6178 53.1776 13.5233 52.9961C13.4837 52.9193 13.4441 52.8424 13.4106 52.7686C13.2948 52.5411 13.1882 52.3135 13.0876 52.089C12.3097 50.3494 11.9067 48.4628 11.9054 46.5542C11.9054 46.4312 11.9054 46.3082 11.9054 46.1852C11.9039 46.1617 11.9039 46.138 11.9054 46.1145C11.9293 45.3187 12.0148 44.526 12.1614 43.7437C12.1587 43.7243 12.1587 43.7047 12.1614 43.6853C12.2315 44.3556 11.9999 45.0444 12.1614 45.7486C12.7854 48.2864 14.0144 50.6319 15.7415 52.581C16.2131 53.1154 16.7222 53.6149 17.2649 54.0754C17.7286 54.4724 18.2138 54.8429 18.7183 55.1855C19.2561 55.5533 19.8135 55.891 20.388 56.1971L20.5586 56.2863L20.7323 56.3755L20.8328 56.4247L20.9456 56.4831L21.1406 56.5753L21.3356 56.6645C22.119 57.0225 22.924 57.3306 23.7457 57.587C26.6117 58.4518 29.5904 58.8757 32.5816 58.8446C33.2946 58.8446 33.9345 58.8231 34.4798 58.7954C35.0252 58.7678 35.723 58.7493 36.5335 58.7093C38.8095 58.6109 41.9722 58.3742 45.0983 57.4302C45.7686 57.2272 46.4358 56.9935 47.0909 56.7229L47.2981 56.6338L47.5023 56.5477L47.6089 56.4985L47.7094 56.4523L47.8923 56.3693L48.072 56.2832C48.4529 56.0987 48.8307 55.9019 49.1994 55.6836C49.8389 55.3155 50.45 54.8992 51.0275 54.4383C51.0884 54.3921 51.1524 54.3399 51.2134 54.2876C51.2743 54.2353 51.3413 54.1831 51.4053 54.1277C51.646 53.9217 51.8745 53.7095 52.1031 53.4851C52.5558 53.039 52.9745 52.559 53.3553 52.0491C53.5412 51.8062 53.7179 51.554 53.8855 51.2896C53.9281 51.2281 53.9678 51.1635 54.0074 51.0989C54.047 51.0343 54.0805 50.9821 54.114 50.9206C54.482 50.3087 54.8009 49.6681 55.0677 49.0049C55.3892 48.198 55.6251 47.359 55.7715 46.5019C55.8446 46.093 55.8995 45.6809 55.9391 45.272C56.0402 46.5126 56.03 47.7599 55.9086 48.9988Z"
          fill="#E9E0FF"
        />
        <path
          d="M34.9207 75.6952C46.668 75.6952 56.1911 74.7122 56.1911 73.4997C56.1911 72.2872 46.668 71.3042 34.9207 71.3042C23.1734 71.3042 13.6504 72.2872 13.6504 73.4997C13.6504 74.7122 23.1734 75.6952 34.9207 75.6952Z"
          fill="#E9E0FF"
        />
        <path
          d="M29.0038 16.832H28.9824C28.9877 16.8433 28.995 16.8536 29.0038 16.8625C29.0038 16.8625 29.0038 16.8442 29.0038 16.832Z"
          fill="white"
        />
        <path
          d="M35.759 61.8826H35.5153C35.1009 61.8826 34.7292 61.9102 34.4062 61.9256C33.8821 61.9533 33.3154 61.9687 32.7243 61.9717C31.6853 61.9717 30.5549 61.9502 29.3727 61.8518C29.4642 62.0148 29.5586 62.1993 29.65 62.3991C30.6433 62.4852 31.5756 62.516 32.4105 62.5191H32.8797H33.3489C33.7511 62.5191 34.1228 62.4914 34.458 62.476C34.7932 62.4606 35.1923 62.4422 35.6402 62.4268L36.1003 62.4084L36.5573 62.3899C37.0204 62.3684 37.5232 62.3438 38.0533 62.3038C38.1478 62.1009 38.2483 61.9164 38.358 61.7565C37.3708 61.8211 36.4964 61.8549 35.759 61.8826ZM57.7637 39.5771C57.7637 39.5249 57.7363 39.4757 57.721 39.4265C57.7058 39.3773 57.6936 39.3281 57.6814 39.2789C57.6448 39.162 57.6144 39.0513 57.5839 38.9468C57.5839 38.8914 57.5839 38.8361 57.5839 38.7807C57.5839 38.5993 57.5839 38.4179 57.5839 38.2365C57.5839 38.1811 57.5839 38.1258 57.5839 38.0704C57.5839 38.0151 57.5839 37.9597 57.5839 37.9044C57.4995 36.0162 57.2125 34.1429 56.7277 32.3173C56.5693 31.7269 56.3916 31.1457 56.1945 30.5738L56.0087 30.1341C55.902 29.8266 55.7893 29.556 55.6705 29.27C55.5791 29.0456 55.4846 28.8211 55.3841 28.5997L55.3018 28.4121C55.2744 28.3506 55.2469 28.2922 55.2165 28.2307C54.3595 26.3831 53.2666 24.6568 51.9654 23.0956C51.8984 23.0095 51.8253 22.9265 51.7522 22.8404C51.679 22.7543 51.5968 22.659 51.5145 22.5667C51.2098 22.2192 50.9051 21.8779 50.5608 21.5489C49.633 20.6168 48.629 19.7651 47.5596 19.0029L47.3006 18.8215L47.066 18.6616C45.4408 17.5671 43.6864 16.6819 41.8437 16.0264C43.1051 12.401 41.9259 8.12999 40.372 5.33797C38.6932 2.32455 36.4111 0.565701 34.135 0.513428H34.0375C31.6396 0.513428 29.2204 2.35838 27.3984 5.59319C25.8414 8.34831 24.6531 12.4841 25.75 15.9895C23.4684 16.7772 21.3221 17.9183 19.3881 19.3719L19.0164 19.6548C18.8488 19.787 18.6812 19.9223 18.5167 20.0607C17.95 20.528 17.4015 21.0293 16.8774 21.5551L16.7647 21.6719C16.6063 21.8287 16.46 21.9794 16.3046 22.1547C16.1492 22.3299 16.0822 22.3914 15.9756 22.5144C14.2537 24.451 12.8618 26.6621 11.8562 29.0579C11.8318 29.1132 11.8074 29.1716 11.7861 29.23C11.7648 29.2885 11.7343 29.353 11.7099 29.4145C11.6246 29.6236 11.5423 29.8327 11.4631 30.048C11.3839 30.2632 11.2803 30.5523 11.195 30.8106L11.0944 31.118C11.0487 31.2533 11.0061 31.3917 10.9665 31.5301C10.2516 33.917 9.87809 36.3948 9.85741 38.8884C9.85589 38.917 9.85589 38.9458 9.85741 38.9745C9.85171 38.9984 9.84459 39.0221 9.83608 39.0452C9.83608 39.0944 9.80866 39.1466 9.79343 39.1989C9.75382 39.3465 9.71116 39.5064 9.66241 39.6694L9.5253 40.1521C9.5253 40.2013 9.49788 40.2536 9.48264 40.3059C9.46741 40.3582 9.45827 40.4043 9.44303 40.4535C8.63866 43.4146 7.55396 48.562 10.1773 54.0385C10.2048 54.0969 10.2322 54.1553 10.2626 54.2137L10.351 54.3951C10.4424 54.5735 10.5369 54.7518 10.6374 54.9333L10.7197 55.0778C11.1034 55.7645 11.533 56.424 12.0055 57.0519L12.1152 57.1995L12.2279 57.344C13.227 58.62 14.3947 59.7518 15.6983 60.7079C15.7379 60.7387 15.7775 60.7694 15.8202 60.7971L15.9451 60.8894C16.07 60.9785 16.201 61.0677 16.329 61.1538C16.457 61.2399 16.588 61.3291 16.719 61.4121L16.847 61.4951L16.9749 61.572L17.176 61.695C17.6229 61.9738 18.084 62.231 18.5593 62.4668C19.0346 62.7025 19.5374 62.9342 20.0675 63.1617L20.2107 63.2201L20.357 63.2786L20.7897 63.4477C20.9329 63.503 21.073 63.5553 21.2162 63.6045L21.3686 63.6599L21.5148 63.7091C23.8387 64.4846 26.2451 64.9811 28.6841 65.1881C29.1991 65.2373 29.7079 65.2742 30.2076 65.3019C30.6128 65.3234 31.012 65.3388 31.402 65.348H31.7371C31.9078 65.348 32.0723 65.348 32.2368 65.348H33.0595C33.5896 65.348 34.0954 65.3203 34.5829 65.2957C34.8236 65.2957 35.0948 65.2742 35.3904 65.265H35.5488H35.7072H36.1978L36.6883 65.2434H36.8498H37.0174L37.4501 65.1881C37.9284 65.1635 38.4372 65.1327 38.9735 65.0928C41.685 64.9243 44.3696 64.452 46.9777 63.6845L47.1239 63.6383L47.2732 63.5922L47.7059 63.4477L48.1416 63.2939L48.2878 63.2386L48.431 63.1863C48.7601 63.0603 49.0892 62.928 49.4152 62.7866C49.8875 62.5836 50.3567 62.3592 50.8137 62.1163C51.3165 61.8518 51.807 61.5658 52.2854 61.2522L52.4164 61.1692L52.5413 61.0831C52.6693 60.997 52.7972 60.9078 52.9252 60.8125C53.0532 60.7172 53.1781 60.6311 53.303 60.5357L53.431 60.4374L53.5529 60.342C54.8037 59.3542 55.89 58.1708 56.7704 56.8366C57.0719 56.3813 57.3476 55.909 57.5961 55.4222C57.6784 55.2561 57.7606 55.0901 57.8429 54.9179L58.0257 54.5089C58.0866 54.3644 58.1476 54.2199 58.2055 54.0754C58.2847 53.8693 58.3578 53.6602 58.4279 53.4604C58.4492 53.4019 58.4675 53.3404 58.4858 53.282C58.5041 53.2236 58.5224 53.1652 58.5376 53.1068C60.0123 48.1469 58.6046 42.5444 57.7637 39.5771ZM34.0985 3.05638C36.9778 3.12095 40.3781 9.09859 39.8083 13.7448C39.81 13.7673 39.81 13.7899 39.8083 13.8124C39.7449 14.326 39.6232 14.8305 39.4458 15.3161C39.4395 15.3392 39.4313 15.3619 39.4214 15.3837C39.3848 15.4852 39.3422 15.5836 39.2995 15.6912C39.2569 15.7988 39.2142 15.8757 39.1655 15.9679C39.1258 16.0448 39.0862 16.1186 39.0436 16.1924C38.9439 16.3679 38.834 16.5374 38.7145 16.6998C38.6758 16.7573 38.6341 16.8127 38.5896 16.8658C38.4611 17.0405 38.3195 17.205 38.1661 17.3578C38.099 17.4285 38.032 17.4962 37.9589 17.5638C37.7663 17.7445 37.5628 17.9129 37.3495 18.0681C37.252 18.1419 37.1515 18.2096 37.0448 18.2772C36.9382 18.3449 36.859 18.3941 36.7645 18.4494C36.5898 18.5504 36.4097 18.6417 36.2252 18.7231C35.5567 19.0371 34.8348 19.2187 34.0985 19.2581C33.1545 19.3 32.2142 19.1134 31.3563 18.7138C31.1796 18.6339 31.0059 18.5447 30.8383 18.4494C30.7378 18.3941 30.6433 18.3356 30.5336 18.2711C30.3874 18.1757 30.2289 18.0743 30.107 17.9636C30.0095 17.8867 29.912 17.8098 29.8206 17.7268C29.7292 17.6438 29.6713 17.5946 29.6013 17.5269C29.3916 17.3264 29.198 17.1095 29.0224 16.8781C29.0136 16.8692 29.0063 16.8588 29.001 16.8474C28.8749 16.6836 28.7589 16.5121 28.6537 16.3339C28.6171 16.2724 28.5806 16.2078 28.5501 16.1432C28.4983 16.051 28.4526 15.9587 28.4099 15.8634C28.3673 15.7681 28.3216 15.6635 28.282 15.5559C28.2423 15.4483 28.2149 15.3806 28.1875 15.2884C28.0277 14.8031 27.9254 14.3005 27.8828 13.7909C27.8813 13.7787 27.8813 13.7663 27.8828 13.754C27.4502 9.06476 31.143 2.99181 34.0985 3.05638ZM55.6583 50.7175C55.5523 51.3813 55.3829 52.0332 55.1525 52.664C55.1374 52.7133 55.1191 52.7616 55.0976 52.8085C55.0824 52.8577 55.0611 52.9069 55.0428 52.9561L54.9605 53.1529C54.9209 53.2451 54.8783 53.3374 54.8356 53.4296C54.7625 53.5926 54.6833 53.7371 54.601 53.9062C54.5766 53.9585 54.5492 54.0077 54.5218 54.0569L54.4395 54.2076C53.8977 55.1756 53.217 56.0574 52.4194 56.8243L52.3951 56.852L52.1604 57.0703C52.1117 57.1195 52.0629 57.1656 52.0111 57.2087C51.9593 57.2517 51.9136 57.2979 51.8618 57.3378C51.7247 57.4578 51.5876 57.5715 51.4444 57.6822C51.3012 57.7929 51.1793 57.8882 51.0422 57.9897L50.9051 58.0881L50.768 58.1834C49.8572 58.8073 48.8839 59.3329 47.8643 59.7516C47.2915 59.9976 46.7035 60.2129 46.1093 60.4004C45.9417 60.4527 45.7711 60.505 45.6035 60.5511C43.9147 61.0367 42.188 61.3761 40.4421 61.5658C39.7139 61.6489 39.0101 61.7104 38.3519 61.7565C37.3861 61.8211 36.5238 61.8549 35.7743 61.8826H35.5305C35.1161 61.8826 34.7444 61.9102 34.4214 61.9256C33.8974 61.9533 33.3307 61.9687 32.7396 61.9717C31.7006 61.9717 30.5702 61.9502 29.388 61.8518C28.7055 61.7965 28.0088 61.7165 27.2978 61.612C25.6643 61.382 24.0563 60.9949 22.4959 60.4558L22.3679 60.4128C21.6556 60.1604 20.9587 59.8657 20.2808 59.5303C19.3018 59.0563 18.3711 58.4868 17.5021 57.8298C16.904 57.3819 16.3407 56.8884 15.8171 56.3539C15.1534 55.6713 14.5602 54.9223 14.0469 54.1184C13.8793 53.854 13.7148 53.5803 13.5594 53.2974C12.5654 51.5053 11.994 49.5061 11.8897 47.4551C11.8755 47.1476 11.8694 46.8401 11.8714 46.5326C11.8714 46.4096 11.8714 46.2866 11.8714 46.1636C11.8699 46.1401 11.8699 46.1164 11.8714 46.0929C11.9015 45.2975 11.987 44.5053 12.1273 43.7221C12.1246 43.7027 12.1246 43.6831 12.1273 43.6637C12.3252 42.626 12.5774 41.5995 12.883 40.5888C12.9896 40.2106 13.0841 39.8785 13.1541 39.5925L13.2029 39.3896V39.1835C13.2029 39.1374 13.2029 39.0882 13.2029 39.0421C13.2029 38.996 13.2029 38.9007 13.2029 38.833C13.2029 38.6055 13.2029 38.3779 13.2212 38.1535C13.2395 37.929 13.2456 37.6738 13.2638 37.437L13.2821 37.1818C13.2821 37.0957 13.2974 37.0096 13.3034 36.9235C13.4662 35.1637 13.8354 33.4296 14.4034 31.7576C14.4277 31.6931 14.4491 31.6316 14.4704 31.5701C14.4917 31.5086 14.5131 31.444 14.5374 31.3825C14.6014 31.2072 14.6654 31.0319 14.7324 30.8598L14.9335 30.3647C14.9579 30.3124 14.9792 30.2632 15.0006 30.2109C15.0219 30.1587 15.0463 30.1064 15.0706 30.0572C15.3577 29.3983 15.6801 28.7557 16.0365 28.1323L16.134 27.9632C16.1675 27.9078 16.198 27.8525 16.2346 27.7971C16.3351 27.6249 16.4387 27.4558 16.5392 27.2898C16.6398 27.1237 16.7586 26.9515 16.8714 26.7855L16.9871 26.6164L17.109 26.4411C17.2217 26.2843 17.3345 26.1336 17.4533 25.9737C18.8058 24.1712 20.4547 22.6163 22.3283 21.3767L22.4654 21.2845C22.5111 21.2537 22.5569 21.223 22.6056 21.1953C22.7519 21.1 22.9103 21.0108 23.0474 20.9216C23.1845 20.8325 23.3521 20.7433 23.4953 20.6603L23.6141 20.5926C23.8437 20.4635 24.0752 20.3405 24.3088 20.2236C24.5861 20.0822 24.8664 19.9469 25.1528 19.8208L25.5062 19.6671C25.6586 19.5994 25.814 19.5348 25.9724 19.4733C26.4599 19.2786 26.9566 19.1054 27.4623 18.9537C28.5164 20.0878 29.8415 20.9296 31.3106 21.3982L31.5025 21.4567L31.6884 21.512C31.8651 21.5581 32.0479 21.6012 32.2277 21.6381C32.7463 21.7433 33.2739 21.7969 33.8029 21.798C33.94 21.798 34.0802 21.798 34.2173 21.798C34.7619 21.7698 35.3021 21.6843 35.8291 21.5428C35.89 21.5274 35.951 21.512 36.0119 21.4905C36.0729 21.469 36.1368 21.4567 36.2008 21.4351C37.6743 20.972 39.0035 20.1307 40.0582 18.9937C40.4756 19.1228 40.89 19.2673 41.2769 19.4241C41.4598 19.4949 41.6395 19.5656 41.8162 19.6425C41.993 19.7193 42.0783 19.7532 42.2062 19.8116C43.0018 20.1685 43.7724 20.5794 44.5127 21.0416L44.6468 21.1277C44.6932 21.1524 44.738 21.1801 44.7809 21.2107C46.7656 22.4557 48.5136 24.049 49.9423 25.9153C50.1007 26.1244 50.247 26.3366 50.4054 26.5518C50.445 26.6041 50.4816 26.6563 50.5182 26.7117L50.6218 26.8654C50.7284 27.0223 50.832 27.1729 50.9264 27.3421C51.0209 27.5112 51.1245 27.6495 51.2311 27.8187C51.2616 27.8709 51.2951 27.9232 51.3256 27.9786L51.417 28.1415C51.7595 28.7402 52.0717 29.3559 52.3524 29.9865C53.4529 32.4941 54.082 35.1863 54.208 37.9259C54.2293 38.3441 54.2415 38.7654 54.2415 39.1928V39.4326L54.3694 39.8723C55.0321 42.0343 55.4881 44.2553 55.7314 46.5049C55.8711 47.8778 55.8414 49.2629 55.643 50.6284C55.6445 50.6581 55.6445 50.6878 55.643 50.7175H55.6583Z"
          fill="black"
        />
        <path
          d="M54.3595 39.8724L54.2315 39.4327V39.1928C54.2315 38.7654 54.2315 38.3442 54.198 37.926C54.0679 35.1866 53.4346 32.4955 52.3303 29.9896C52.0496 29.3591 51.7374 28.7433 51.3949 28.1447L51.3035 27.9817C51.273 27.9264 51.2395 27.8741 51.209 27.8218C51.1146 27.6588 51.0171 27.5143 50.9043 27.3452C50.7916 27.1761 50.7002 27.0377 50.5997 26.8686L50.4961 26.7148C50.4595 26.6595 50.4229 26.6072 50.3833 26.5549C50.234 26.3397 50.0786 26.1275 49.9202 25.9184C48.5052 24.048 46.7707 22.4475 44.7984 21.1923C44.7555 21.1617 44.7107 21.134 44.6643 21.1093L44.5302 21.0232C43.7899 20.561 43.0193 20.1501 42.2238 19.7932C42.0958 19.7348 41.9648 19.6764 41.8337 19.6241C41.7027 19.5718 41.4773 19.4765 41.2944 19.4058C40.8923 19.2489 40.4779 19.0983 40.0757 18.9753C39.021 20.1123 37.6918 20.9536 36.2183 21.4168C36.1543 21.4383 36.0934 21.4567 36.0294 21.4721C35.9654 21.4875 35.9075 21.509 35.8466 21.5244C35.3196 21.6659 34.7794 21.7515 34.2348 21.7796C34.0977 21.7796 33.9575 21.7796 33.8204 21.7796C33.2914 21.7785 32.7638 21.7249 32.2452 21.6197C32.0654 21.5828 31.8826 21.5398 31.7059 21.4936L31.52 21.4383L31.3281 21.3799C29.859 20.9112 28.5339 20.0694 27.4798 18.9353C26.9741 19.089 26.4774 19.2623 25.9899 19.455C25.8315 19.5165 25.6761 19.581 25.5237 19.6487L25.1703 19.8024C24.8839 19.9285 24.6036 20.0638 24.3263 20.2052C24.0927 20.3221 23.8612 20.4451 23.6316 20.5742L23.5128 20.6419C23.3635 20.7249 23.2081 20.811 23.0649 20.9032C22.9217 20.9955 22.7602 21.0816 22.6231 21.1769C22.5744 21.2046 22.5286 21.2353 22.4829 21.2661L22.3458 21.3583C20.4722 22.598 18.8233 24.1528 17.4708 25.9553C17.352 26.1091 17.2392 26.2628 17.1265 26.4227L17.0046 26.598L16.8889 26.7671C16.7761 26.9332 16.6664 27.1023 16.5567 27.2714C16.4471 27.4405 16.3496 27.6066 16.2521 27.7788C16.2155 27.8341 16.185 27.8895 16.1515 27.9448L16.054 28.1139C15.6976 28.7374 15.3752 29.3799 15.0881 30.0388C15.0638 30.088 15.0394 30.1403 15.0181 30.1926C14.9967 30.2448 14.9754 30.294 14.951 30.3463L14.7499 30.8414C14.6829 31.0136 14.6189 31.1888 14.5549 31.3641C14.5306 31.4256 14.5092 31.4871 14.4879 31.5517C14.4666 31.6162 14.4452 31.6747 14.4209 31.7392C13.8529 33.4112 13.4837 35.1453 13.3209 36.9051C13.3209 36.9912 13.3209 37.0773 13.2996 37.1634L13.2813 37.4186C13.2631 37.6554 13.2478 37.8952 13.2387 38.1351C13.2295 38.3749 13.2234 38.5871 13.2204 38.8146C13.2204 38.8823 13.2204 38.953 13.2204 39.0237C13.2204 39.0944 13.2204 39.119 13.2204 39.1652V39.3712L13.1716 39.5741C13.1016 39.8601 13.0071 40.1891 12.9005 40.5704C12.5994 41.5875 12.3523 42.6201 12.1601 43.6638C12.2302 44.3341 11.9986 45.0229 12.1601 45.727C12.7808 48.2725 14.01 50.6257 15.7402 52.581C16.2118 53.1154 16.7209 53.6148 17.2636 54.0754C17.7273 54.4723 18.2125 54.8429 18.717 55.1855C19.2548 55.5532 19.8122 55.891 20.3867 56.1971L20.5573 56.2863L20.731 56.3755L20.8315 56.4247L20.9443 56.4831L21.1393 56.5753L21.3343 56.6645C22.1177 57.0225 22.9227 57.3306 23.7444 57.587C26.6104 58.4518 29.5891 58.8757 32.5803 58.8446C33.2933 58.8446 33.9332 58.8231 34.4786 58.7954C35.0239 58.7677 35.7217 58.7493 36.5322 58.7093C38.8082 58.6109 41.9709 58.3741 45.097 57.4302C45.7673 57.2272 46.4346 56.9935 47.0896 56.7229L47.2968 56.6337L47.501 56.5476L47.6076 56.4985L47.7082 56.4523L47.891 56.3693L48.0707 56.2832C48.4516 56.0987 48.8294 55.9019 49.1981 55.6836C49.8376 55.3154 50.4487 54.8991 51.0262 54.4383C51.0872 54.3921 51.1511 54.3399 51.2121 54.2876C51.273 54.2353 51.34 54.183 51.404 54.1277C51.6447 53.9217 51.8733 53.7095 52.1018 53.485C52.5545 53.039 52.9732 52.559 53.354 52.0491C53.5399 51.8061 53.7166 51.554 53.8842 51.2895C53.9269 51.228 53.9665 51.1635 54.0061 51.0989C54.0457 51.0343 54.0792 50.9821 54.1127 50.9206C54.4807 50.3087 54.7996 49.6681 55.0664 49.0049C55.3879 48.198 55.6239 47.359 55.7702 46.5019C55.5109 44.2517 55.0385 42.0317 54.3595 39.8724ZM25.8711 37.2741C25.1612 37.228 24.6249 36.4838 24.6828 35.6044C24.7407 34.725 25.3592 34.067 26.0661 34.0977C26.773 34.1285 27.3153 34.891 27.2605 35.7705C27.2056 36.6499 26.5871 37.3202 25.8711 37.2741ZM41.6083 37.2741C40.8984 37.228 40.3621 36.4838 40.42 35.6044C40.4779 34.725 41.0964 34.067 41.8033 34.0977C42.5102 34.1285 43.0525 34.891 42.9977 35.7705C42.9428 36.6499 42.3243 37.3202 41.6113 37.2741H41.6083Z"
          fill="white"
        />
        <path
          d="M29.0038 16.832H28.9824C28.9877 16.8433 28.995 16.8536 29.0038 16.8625C29.0038 16.8625 29.0038 16.8442 29.0038 16.832Z"
          fill="black"
        />
        <path
          d="M29.0038 16.832H28.9824C28.9877 16.8433 28.995 16.8536 29.0038 16.8625C29.0038 16.8625 29.0038 16.8442 29.0038 16.832Z"
          fill="black"
        />
        <path
          d="M29.0077 16.8686C28.9989 16.8597 28.9917 16.8494 28.9863 16.8381H29.0077C29.0077 16.8381 29.0077 16.8564 29.0077 16.8686Z"
          fill="black"
        />
        <path
          d="M39.784 13.8126C39.7205 14.3261 39.5988 14.8307 39.4214 15.3162C39.4151 15.3394 39.407 15.362 39.397 15.3839C39.3604 15.4853 39.3178 15.5837 39.2751 15.6914C39.2325 15.799 39.1898 15.8759 39.1411 15.9681C39.1015 16.045 39.0619 16.1188 39.0192 16.1926C38.9195 16.3681 38.8097 16.5375 38.6901 16.6999C38.6514 16.7575 38.6097 16.8129 38.5652 16.866C38.4367 17.0406 38.2951 17.2051 38.1417 17.358C38.0747 17.4287 38.0076 17.4963 37.9345 17.564C37.7419 17.7446 37.5384 17.913 37.3251 18.0683C37.2276 18.1421 37.1271 18.2097 37.0204 18.2774C36.9138 18.345 36.8346 18.3942 36.7401 18.4496C36.5654 18.5505 36.3854 18.6419 36.2008 18.7232C35.5399 19.0342 34.8265 19.2158 34.0985 19.2583C33.1545 19.3002 32.2142 19.1136 31.3563 18.714C31.1795 18.6341 31.0059 18.5449 30.8383 18.4496C30.7378 18.3942 30.6433 18.3358 30.5336 18.2712C30.3874 18.1759 30.2289 18.0744 30.107 17.9637C30.0095 17.8868 29.912 17.81 29.8206 17.727C29.7292 17.6439 29.6713 17.5947 29.6013 17.5271C29.3916 17.3266 29.198 17.1096 29.0223 16.8783C29.0223 16.8783 29.0223 16.8537 29.0223 16.8414H29.001C28.8749 16.6776 28.7589 16.5061 28.6537 16.3279C28.6171 16.2664 28.5806 16.2018 28.5501 16.1372C28.4983 16.045 28.4526 15.9527 28.4099 15.8574C28.3673 15.7621 28.3216 15.6575 28.282 15.5499C28.2423 15.4423 28.2149 15.3746 28.1875 15.2824C28.0277 14.7971 27.9254 14.2945 27.8828 13.7849C27.962 13.8649 28.1875 14.0678 28.4922 14.3322L28.6232 14.4337L28.7573 14.5383C28.8791 14.6305 29.0102 14.7258 29.1503 14.8212C29.2448 14.8919 29.3453 14.9565 29.455 15.0241C29.4885 15.0487 29.5251 15.0702 29.5616 15.0918C29.6058 15.1229 29.6516 15.1517 29.6988 15.1778L29.8359 15.2609C30.107 15.4208 30.4026 15.5684 30.7164 15.7221C31.3543 16.0175 32.0255 16.2333 32.7152 16.3648C33.5269 16.5196 34.3594 16.5279 35.174 16.3894C35.7318 16.2929 36.2767 16.1319 36.798 15.9097C37.1684 15.7483 37.5269 15.5603 37.8705 15.347L38.0107 15.2609C38.0574 15.2342 38.1031 15.2035 38.1478 15.1686L38.2819 15.0795C38.3733 15.018 38.4616 14.9534 38.553 14.8827C38.684 14.7843 38.8151 14.6828 38.9461 14.5752L39.0771 14.4645C39.1197 14.4317 39.1624 14.3948 39.2051 14.3538C39.397 14.1847 39.5829 14.0032 39.784 13.8126Z"
          fill="#5F2CCD"
        />
        <path
          d="M29.0077 16.8686C28.9989 16.8597 28.9917 16.8494 28.9863 16.8381H29.0077C29.0077 16.8381 29.0077 16.8564 29.0077 16.8686Z"
          fill="#5F2CCD"
        />
        <path
          d="M39.7927 13.7448C39.7943 13.7673 39.7943 13.7899 39.7927 13.8125C39.6007 14.0031 39.4057 14.1845 39.2137 14.3506C39.1711 14.3895 39.1284 14.4264 39.0858 14.4613L38.9548 14.572C38.8237 14.6796 38.6927 14.7811 38.5617 14.8795C38.4703 14.9502 38.3819 15.0148 38.2905 15.0763L38.1565 15.1654C38.1098 15.1982 38.064 15.229 38.0194 15.2577L37.8792 15.3438C37.5355 15.5571 37.1771 15.7451 36.8067 15.9065C36.2854 16.1287 35.7405 16.2897 35.1827 16.3862C34.3681 16.5247 33.5356 16.5164 32.7239 16.3616C32.0342 16.2302 31.363 16.0143 30.7251 15.7189C30.4204 15.5713 30.1157 15.4114 29.8446 15.2577L29.7074 15.1747C29.6602 15.1485 29.6145 15.1197 29.5703 15.0886C29.5338 15.067 29.4972 15.0455 29.4637 15.0209C29.3601 14.9533 29.2596 14.8887 29.159 14.818C29.0188 14.7226 28.8878 14.6273 28.766 14.5351L28.6136 14.4305L28.4826 14.3291C28.1596 14.0646 27.9463 13.8617 27.8732 13.7817C27.8717 13.7695 27.8717 13.7571 27.8732 13.7448C27.4497 9.0648 31.1425 2.99185 34.098 3.05642C36.9621 3.12099 40.3624 9.09863 39.7927 13.7448Z"
          fill="#894CF4"
        />
        <path
          fill-rule="evenodd"
          clip-rule="evenodd"
          d="M27.2656 35.7705C27.2077 36.6437 26.5892 37.3079 25.8762 37.2741C25.1632 37.2403 24.63 36.4838 24.6879 35.6044C24.7458 34.725 25.3643 34.067 26.0712 34.0977C26.7781 34.1285 27.3204 34.891 27.2656 35.7705Z"
          fill="white"
        />
        <path
          fill-rule="evenodd"
          clip-rule="evenodd"
          d="M43.0019 35.7705C42.944 36.6437 42.3255 37.3079 41.6125 37.2741C40.8995 37.2403 40.3663 36.4838 40.4242 35.6044C40.4821 34.725 41.1006 34.067 41.8075 34.0977C42.5144 34.1285 43.0567 34.891 43.0019 35.7705Z"
          fill="white"
        />
        <path
          d="M28.1816 40.6782C28.3005 40.4106 29.4583 37.8585 32.0573 37.3327C34.4369 36.853 37.0146 38.2767 38.1907 40.878C37.7229 41.8251 36.9985 42.6187 36.1015 43.1667C35.2045 43.7146 34.1718 43.9944 33.1235 43.9734C32.0752 43.9525 31.0543 43.6317 30.1795 43.0484C29.3047 42.4651 28.6119 41.6431 28.1816 40.6782Z"
          fill="#FBB624"
        />
        <path
          d="M28.1816 40.6781L33.1846 38.4365L38.1907 40.8749C36.5264 40.5575 34.8385 40.3827 33.145 40.3522C31.4845 40.3239 29.8245 40.4329 28.1816 40.6781Z"
          fill="#F17877"
        />
        <path
          d="M38.5799 40.7919C38.5731 40.7648 38.565 40.7381 38.5555 40.7119C37.3367 38.006 34.5671 36.407 31.9803 36.9421C29.2076 37.5017 27.9523 40.2138 27.8182 40.5213C27.8098 40.5399 27.8037 40.5596 27.8 40.5797C27.8 40.5797 27.8 40.5982 27.8 40.6074C27.8 40.6166 27.8 40.6412 27.8 40.6597C27.7985 40.6698 27.7985 40.6802 27.8 40.6904C27.7986 40.7078 27.7986 40.7253 27.8 40.7427C27.8 40.7427 27.8 40.7611 27.8 40.7704L27.8182 40.8134C27.8182 40.8134 27.8182 40.8134 27.8182 40.8318C28.2794 41.8338 29.0025 42.69 29.9098 43.3082C30.8171 43.9264 31.8742 44.2832 32.9675 44.3403H33.2173C34.3185 44.3281 35.3954 44.0129 36.3323 43.4288C37.2692 42.8447 38.0304 42.0138 38.5341 41.0256C38.5441 41.0069 38.5523 40.9874 38.5585 40.9671C38.5571 40.958 38.5571 40.9486 38.5585 40.9395C38.5599 40.92 38.5599 40.9005 38.5585 40.881C38.5585 40.881 38.5585 40.8626 38.5585 40.8534C38.56 40.8319 38.56 40.8103 38.5585 40.7888C38.5658 40.7878 38.5732 40.7889 38.5799 40.7919ZM32.1357 37.717C33.9882 37.3418 35.9565 38.2458 37.1813 39.9248L33.3575 38.0798C33.3049 38.0555 33.2477 38.0429 33.1899 38.0429C33.1321 38.0429 33.0749 38.0555 33.0223 38.0798L29.1497 39.8141C29.8475 38.7626 30.9147 38.0175 32.1357 37.7293V37.717ZM35.6853 40.0908C34.8413 40.0047 33.9943 39.9555 33.1503 39.9401H32.6079C31.96 39.9401 31.312 39.9617 30.664 40.0047L33.1777 38.8793L35.6853 40.0908ZM33.0132 43.5531C32.1567 43.5087 31.3245 43.2513 30.5904 42.8039C29.8563 42.3565 29.2431 41.7329 28.8054 40.9887C31.7136 40.6083 34.6617 40.6663 37.553 41.1609C37.0657 41.9224 36.3917 42.544 35.5963 42.9653C34.8009 43.3866 33.9111 43.5933 33.0132 43.5654V43.5531Z"
          fill="black"
        />
        <path
          d="M28.7037 34.6942C28.7259 34.6353 28.7346 34.5721 28.7293 34.5093C28.7241 34.4465 28.7049 34.3857 28.6733 34.3314C28.6456 34.2841 28.609 34.2429 28.5655 34.21C28.522 34.1771 28.4725 34.1533 28.4198 34.1398C28.3671 34.1264 28.3122 34.1236 28.2585 34.1317C28.2047 34.1398 28.1531 34.1585 28.1065 34.1869L28.0639 34.2115C27.7532 34.4027 27.4282 34.5693 27.0919 34.7096C26.9304 34.7711 26.7872 34.8203 26.6166 34.8633C26.4622 34.9007 26.3054 34.9274 26.1474 34.9433C25.8299 34.9755 25.5097 34.9693 25.1937 34.9248C24.8354 34.8698 24.4812 34.7907 24.1334 34.6881H24.0846C24.0051 34.6676 23.9214 34.671 23.8437 34.6976C23.766 34.7243 23.6977 34.7732 23.647 34.8384C23.5964 34.9035 23.5655 34.9821 23.5583 35.0646C23.5511 35.1471 23.5677 35.2299 23.6063 35.303C23.738 35.5273 23.9071 35.727 24.106 35.8934C24.3062 36.0539 24.5278 36.1854 24.7641 36.2839C25.2596 36.4964 25.8034 36.5677 26.3363 36.49C26.468 36.4715 26.5984 36.4437 26.7263 36.4069C26.8562 36.3732 26.9834 36.33 27.1072 36.2778C27.3491 36.1759 27.5774 36.0437 27.7866 35.8842C28.1962 35.5815 28.5139 35.1694 28.7037 34.6942Z"
          fill="black"
        />
        <path
          d="M42.294 34.6759H42.2453C41.8975 34.7786 41.5432 34.8577 41.185 34.9127C40.8689 34.9571 40.5488 34.9633 40.2313 34.9311C40.0733 34.9152 39.9165 34.8885 39.7621 34.8512C39.6067 34.8081 39.4574 34.7589 39.2868 34.6974C38.9484 34.5574 38.6214 34.3909 38.3087 34.1993L38.2661 34.1716C38.1919 34.1227 38.1042 34.0991 38.0158 34.1042C37.9274 34.1093 37.8429 34.1428 37.7747 34.1999C37.7066 34.257 37.6583 34.3346 37.6371 34.4214C37.6159 34.5082 37.6227 34.5995 37.6567 34.6821C37.8437 35.1613 38.1605 35.5779 38.5707 35.8844C38.7882 36.048 39.0258 36.1824 39.2776 36.2841C39.4013 36.3363 39.5286 36.3795 39.6585 36.4132C39.7864 36.45 39.9167 36.4778 40.0485 36.4963C40.5814 36.5737 41.1251 36.5024 41.6207 36.2902C41.8597 36.1873 42.0825 36.0495 42.2819 35.8813C42.4825 35.7167 42.6518 35.5166 42.7815 35.2909C42.8339 35.1975 42.8481 35.0872 42.8212 34.9834C42.8078 34.9276 42.7833 34.875 42.7492 34.829C42.7151 34.783 42.6722 34.7445 42.6229 34.7157C42.5736 34.687 42.519 34.6686 42.4625 34.6618C42.406 34.6549 42.3487 34.6597 42.294 34.6759Z"
          fill="black"
        />
        <mask
          id="mask0_7320_66247"
          mask-type="luminance"
          maskUnits="userSpaceOnUse"
          x="14"
          y="0"
          width="40"
          height="23"
        >
          <path d="M53.5043 0H14.1445V22.4284H53.5043V0Z" fill="white" />
        </mask>
        <g mask="url(#mask0_7320_66247)">
          <path
            d="M23.373 8.55762V18.7571C23.373 19.9256 31.5265 22.4163 33.8269 22.4163C36.1273 22.4163 44.2747 19.9379 44.2747 18.7571V8.55762H23.373Z"
            fill="black"
          />
          <path
            opacity="0.3"
            d="M23.373 13.2898L33.8269 17.2871L44.2747 13.2898V9.59985H23.373V13.2898Z"
            fill="black"
          />
          <path
            d="M33.8274 14.9963L14.1445 7.49658V8.52668L33.8274 16.0264L53.5043 8.52668V7.49658L33.8274 14.9963Z"
            fill="#7A7A7A"
          />
          <path
            d="M45.5177 16.8352H44.6402C44.6402 16.8352 42.7145 19.578 43.979 22.3332H46.1758C47.4433 19.578 45.5177 16.8352 45.5177 16.8352Z"
            fill="#FDC00F"
          />
          <path
            d="M45.7712 21.8811C45.8017 21.591 45.8139 21.2994 45.8077 21.0078C45.823 20.8452 45.823 20.6815 45.8077 20.5189C45.8077 20.3528 45.7834 20.1899 45.7681 20.0023C45.7529 19.8147 45.7224 19.6733 45.695 19.4888C45.6676 19.3043 45.6402 19.1813 45.6097 19.0214C45.5335 18.7139 45.4756 18.4402 45.3995 18.2096C45.32 17.9655 45.2264 17.7262 45.1191 17.4932C45.2045 17.7491 45.2747 18.0099 45.3294 18.2742C45.3903 18.511 45.4208 18.7908 45.4756 19.0983C45.4756 19.2489 45.5122 19.4058 45.5274 19.5657C45.5488 19.7268 45.561 19.889 45.564 20.0515V20.5343C45.5762 20.6898 45.5762 20.8461 45.564 21.0016C45.5454 21.2738 45.5128 21.5447 45.4665 21.8134C45.4208 22.0317 45.3812 22.207 45.3507 22.33H45.7163C45.7407 22.207 45.7407 22.0563 45.7712 21.8811Z"
            fill="#FED96F"
          />
          <path
            d="M44.7233 21.8103C44.6741 21.541 44.6416 21.2689 44.6258 20.9955C44.6136 20.8399 44.6136 20.6837 44.6258 20.5281V20.0453C44.6272 19.8838 44.6395 19.7225 44.6623 19.5626C44.6696 19.4051 44.6849 19.248 44.7081 19.0921C44.7629 18.7846 44.7995 18.5079 44.8604 18.2711C44.9048 18.0084 44.9648 17.7486 45.0402 17.4932C44.9364 17.7395 44.8479 17.9922 44.7751 18.2496C44.6928 18.4802 44.641 18.7631 44.5588 19.0614C44.5437 19.2199 44.5173 19.3772 44.4795 19.5318C44.443 19.701 44.4186 19.8726 44.4064 20.0453L44.3607 20.5589C44.3485 20.7216 44.3485 20.885 44.3607 21.0478C44.3572 21.3404 44.3704 21.633 44.4003 21.9241C44.4103 22.0764 44.4327 22.2276 44.4673 22.3761H44.836C44.7844 22.1907 44.7467 22.0015 44.7233 21.8103Z"
            fill="#FED96F"
          />
          <path
            d="M46.3902 21.4814C46.4202 21.311 46.4335 21.1379 46.4299 20.9649C46.4354 20.7933 46.4273 20.6216 46.4055 20.4513C46.3902 20.2784 46.3627 20.1068 46.3232 19.9378C46.1826 19.3185 45.9451 18.7258 45.6194 18.1821C45.4817 17.9522 45.3269 17.7333 45.1562 17.5271C45.3119 17.753 45.4505 17.9904 45.5706 18.2374C45.8465 18.7884 46.0386 19.3783 46.1404 19.987C46.1642 20.1582 46.1774 20.3308 46.18 20.5036C46.1952 20.6744 46.1952 20.8463 46.18 21.0171C46.1761 21.167 46.1535 21.3157 46.113 21.4599C46.0967 21.5924 46.065 21.7224 46.0185 21.8474C45.9638 22.0259 45.8902 22.1981 45.7991 22.3609H46.1922C46.2049 22.2996 46.2264 22.2405 46.2562 22.1856C46.2859 22.109 46.3084 22.0297 46.3232 21.9488C46.3621 21.7959 46.3846 21.6392 46.3902 21.4814Z"
            fill="#FED96F"
          />
          <path d="M45.0684 17.4932L44.8887 22.3392H45.2452L45.0684 17.4932Z" fill="#FED96F" />
          <path
            d="M44.3676 22.3239C44.2772 22.1615 44.2056 21.9892 44.1543 21.8103C44.1063 21.6852 44.0716 21.5554 44.0507 21.4229C44.0136 21.2782 43.9931 21.1296 43.9898 20.9801C43.9745 20.8093 43.9745 20.6374 43.9898 20.4666C43.9958 20.2947 44.011 20.1233 44.0355 19.9531C44.1334 19.3389 44.3246 18.7436 44.6022 18.1881C44.7175 17.9471 44.8499 17.7149 44.9983 17.4932C44.8291 17.7044 44.6763 17.9285 44.5412 18.1635C44.2151 18.7059 43.9774 19.2977 43.8374 19.9162C43.7988 20.0856 43.7693 20.2571 43.749 20.4297C43.7399 20.6018 43.7399 20.7742 43.749 20.9463C43.7459 21.1182 43.7582 21.2901 43.7856 21.4598C43.8007 21.6095 43.8282 21.7576 43.8679 21.9026C43.8778 21.9846 43.9004 22.0645 43.9349 22.1394C43.9515 22.1994 43.9729 22.258 43.9989 22.3146H44.3919L44.3676 22.3239Z"
            fill="#FED96F"
          />
          <path
            d="M44.087 16.8353C44.0813 16.6304 44.1353 16.4283 44.2424 16.2542C44.3506 16.0814 44.5077 15.9453 44.6934 15.8636C44.879 15.7814 45.0845 15.7557 45.2845 15.7898C45.4847 15.8262 45.6695 15.9226 45.8146 16.0666C45.961 16.2082 46.061 16.3917 46.101 16.5924C46.1436 16.792 46.1256 16.9999 46.0492 17.1889C45.9733 17.3789 45.8427 17.5416 45.6744 17.6561C45.5061 17.7706 45.3077 17.8318 45.1047 17.8316C44.9724 17.8366 44.8406 17.8136 44.7177 17.7639C44.5947 17.7155 44.4827 17.6423 44.3887 17.5487C44.2931 17.4564 44.2169 17.3458 44.1646 17.2232C44.1123 17.1007 44.0848 16.9688 44.084 16.8353H44.087Z"
            fill="#FED96F"
          />
          <path
            opacity="0.3"
            d="M33.8284 9.37537C35.556 9.37537 36.9575 8.53592 36.9575 7.50275C36.9575 6.46958 35.556 5.63013 33.8284 5.63013C32.1008 5.63013 30.6992 6.45728 30.6992 7.50275C30.6992 8.54822 32.0977 9.37537 33.8284 9.37537Z"
            fill="black"
          />
          <path
            d="M36.8906 7.87793C36.7609 8.21306 36.5308 8.499 36.2324 8.69586V8.74506L44.5931 11.2419V16.8352H45.6108V10.4762L36.8906 7.87793Z"
            fill="#FDC00F"
          />
          <path
            d="M30.6992 7.23831C30.6992 6.34966 31.918 5.63013 33.3896 5.63013C34.8613 5.63013 36.0861 6.34966 36.0861 7.23831C36.0861 8.12696 34.8674 8.84956 33.3896 8.84956C31.9119 8.84956 30.6992 8.13003 30.6992 7.23831Z"
            fill="#184F78"
          />
        </g>
        <path d="M33.8274 0L14.1445 7.49664L33.8274 14.9964L53.5043 7.49664L33.8274 0Z" fill="black" />
      </svg>