 <svg xmlns="http://www.w3.org/2000/svg" width="65" height="76" viewBox="0 0 65 76" fill="none">
        <path
          d="M5.60458 37.7546C4.46873 37.5331 3.43529 36.9773 2.65114 36.1661C2.50244 36.019 2.36331 35.8633 2.23452 35.7001C2.12436 35.5735 2.02134 35.4414 1.9259 35.3045L1.9043 35.2752C1.9043 35.2752 1.92899 35.2517 1.94442 35.2429L2.40425 34.859L2.74373 34.5806C2.88569 34.7769 3.03074 34.9733 3.18504 35.1667C3.82641 35.998 4.5498 36.7694 5.34535 37.4703L5.60458 37.7546Z"
          fill="#E9E0FF"
        />
        <path
          d="M12.7778 38.2207C12.5587 38.4581 12.3458 38.7043 12.1606 38.9651C10.7379 40.7822 9.78736 43.0858 9.20716 45.4334C9.16704 45.5916 9.13001 45.7557 9.09298 45.914L8.96336 45.958L8.79672 46.0049C8.72574 46.0254 8.63006 46.0986 8.51587 46.3448C8.2412 46.1983 7.94802 46.0517 7.65175 45.914C7.35548 45.7763 6.96662 45.5916 6.60246 45.4363C5.83657 45.1115 5.05255 44.8268 4.25391 44.5834C4.59494 44.5955 4.93635 44.5729 5.27233 44.516C5.60287 44.4664 5.92607 44.3798 6.2352 44.2581C8.87694 43.2616 10.4478 40.1228 10.5558 37.3737C10.5695 37.0305 10.5582 36.6868 10.5219 36.345C10.4995 36.0826 10.4572 35.8221 10.3953 35.5654C10.8086 35.9002 11.2003 36.2584 11.5681 36.6381C12.0474 37.1092 12.4546 37.642 12.7778 38.2207Z"
          fill="#E9E0FF"
        />
        <path
          d="M8.39023 46.0928C7.82855 45.9755 7.26687 45.8349 6.70828 45.6766C6.14458 45.5164 5.59033 45.3276 5.04793 45.111C4.77635 44.9996 4.50168 44.8765 4.23319 44.7358C3.95258 44.5879 3.68796 44.4141 3.44313 44.2171C3.30591 44.1028 3.18178 43.9751 3.0728 43.8361C3.01369 43.7534 2.96009 43.6672 2.91232 43.5782C2.86245 43.473 2.82519 43.3629 2.80122 43.2499C2.80122 43.2206 2.80122 43.1854 2.80122 43.162V43.0858C2.80122 43.036 2.80122 42.9832 2.80122 42.9334C2.80013 42.8296 2.80528 42.7259 2.81665 42.6227C2.83021 42.5188 2.85187 42.4159 2.88145 42.315C2.89689 42.2652 2.91541 42.2124 2.93392 42.1626L2.96788 42.0864L2.98639 42.0483V42.0249L3.00182 41.9985C3.09127 41.8505 3.21088 41.721 3.35364 41.6175C3.47875 41.5302 3.6186 41.4638 3.76719 41.4211C3.90118 41.38 4.04015 41.3554 4.18073 41.3478H4.38441C4.45467 41.3498 4.52472 41.3557 4.59426 41.3654L4.37516 42.1304C3.77885 41.7639 3.22264 41.3417 2.71481 40.8701C2.17207 40.3699 1.70473 39.8008 1.32605 39.1791C1.12073 38.8411 0.95613 38.4823 0.83535 38.1093C0.697442 37.6978 0.64298 37.2652 0.674864 36.8344C0.69565 36.6067 0.749666 36.3828 0.83535 36.1692C0.919815 35.9697 1.03302 35.7823 1.17174 35.6123C1.41827 35.3216 1.71969 35.0771 2.06055 34.8913L1.91241 35.4775C1.70743 35.101 1.53606 34.7089 1.40011 34.3052C1.24958 33.8829 1.14614 33.4467 1.0915 33.0039C1.03301 32.527 1.06225 32.0441 1.17791 31.5766C1.2115 31.4575 1.25168 31.3401 1.29827 31.2249C1.31976 31.1671 1.34448 31.1103 1.37234 31.055L1.41246 30.9758L1.43097 30.9407L1.45258 30.9055L1.46801 30.882C1.53073 30.7799 1.60085 30.6819 1.67786 30.589C1.74884 30.501 1.826 30.419 1.90315 30.3398C2.05988 30.1874 2.23375 30.0518 2.42162 29.9354C2.51167 29.878 2.60548 29.8261 2.70246 29.7801L2.8506 29.7185C2.90365 29.6955 2.9583 29.6759 3.01417 29.6599C3.43114 29.5508 3.873 29.563 4.28257 29.6951C4.66445 29.814 5.02933 29.9774 5.36889 30.1816C5.70535 30.3827 6.02799 30.6039 6.33485 30.8439C6.94828 31.3292 7.52669 31.853 8.06617 32.4119C8.33775 32.705 8.60626 32.9746 8.86858 33.2618C9.1309 33.549 9.38396 33.848 9.63703 34.1411C10.6526 35.3505 11.5993 36.6105 12.4732 37.9159C12.5151 37.9796 12.5336 38.0548 12.5257 38.1295C12.5179 38.2043 12.4843 38.2745 12.43 38.3291C12.4065 38.3517 12.378 38.369 12.3465 38.3796C12.3151 38.3903 12.2814 38.394 12.2482 38.3907C12.215 38.3873 12.183 38.3768 12.1547 38.3601C12.1263 38.3434 12.1022 38.3208 12.0843 38.294C11.6091 37.6844 11.1276 37.0748 10.6338 36.4857C10.1401 35.8966 9.64319 35.3134 9.1278 34.7272C8.14487 33.6048 7.05723 32.569 5.87811 31.6323C5.59614 31.4194 5.30032 31.2237 4.99238 31.0462C4.70326 30.8743 4.3921 30.7384 4.06654 30.6417C3.79136 30.5513 3.49456 30.538 3.21167 30.6036L3.11909 30.6359L3.01417 30.6798C2.94627 30.715 2.87837 30.7502 2.81048 30.7912C2.6757 30.8752 2.55145 30.9735 2.44014 31.0843C2.38141 31.1391 2.32579 31.1968 2.27349 31.2572C2.22488 31.3154 2.17955 31.3761 2.1377 31.4389L2.11919 31.4682L2.0914 31.521C2.07289 31.5561 2.05746 31.5913 2.04203 31.6294C2.01023 31.7019 1.98342 31.7763 1.96179 31.8521C1.8734 32.1892 1.84626 32.5381 1.88155 32.8838C1.96069 33.633 2.16922 34.3647 2.49878 35.0496V35.0731C2.54448 35.1663 2.55501 35.2717 2.5286 35.3715C2.50219 35.4713 2.44045 35.5594 2.35373 35.6211H2.3383C2.07844 35.7602 1.84818 35.944 1.65934 36.1633C1.47854 36.3778 1.37088 36.6395 1.35073 36.9136C1.32948 37.22 1.37035 37.5274 1.47109 37.8192C1.57202 38.1257 1.70865 38.4207 1.87846 38.6984C2.2204 39.2569 2.64206 39.7678 3.13144 40.2166C3.60361 40.6549 4.1205 41.0476 4.6745 41.3889C4.76147 41.4511 4.82334 41.5397 4.84974 41.64C4.87614 41.7403 4.86549 41.8461 4.81956 41.9399C4.79316 42.0102 4.74166 42.0695 4.67401 42.1075C4.60636 42.1455 4.52682 42.1598 4.44922 42.1479C4.40431 42.1399 4.35898 42.134 4.31343 42.1304C4.26513 42.1274 4.21668 42.1274 4.16838 42.1304C4.07454 42.1299 3.98108 42.1418 3.89063 42.1655C3.80924 42.1851 3.732 42.2178 3.66226 42.2622C3.59754 42.3036 3.54283 42.3575 3.50177 42.4205L3.51721 42.3941L3.49868 42.4234V42.4381C3.49699 42.4488 3.49699 42.4596 3.49868 42.4703C3.48654 42.495 3.47624 42.5205 3.46783 42.5465C3.44974 42.6021 3.43632 42.6589 3.42771 42.7165C3.42771 42.7751 3.4277 42.8367 3.41227 42.8982C3.39684 42.9598 3.41227 42.9598 3.41227 42.992V43.0389C3.41227 43.0389 3.41227 43.0594 3.41227 43.0711C3.41925 43.1166 3.43275 43.161 3.45239 43.203C3.47599 43.2539 3.50386 43.3029 3.53572 43.3496C3.61103 43.4557 3.69792 43.5539 3.79496 43.6426C4.0035 43.8226 4.23102 43.9817 4.47391 44.1174C4.7189 44.2584 4.97124 44.3876 5.23 44.5043C5.74985 44.7339 6.28249 44.9364 6.82555 45.111C7.36871 45.2888 7.91599 45.447 8.46738 45.5857C8.52755 45.6075 8.57746 45.6491 8.60805 45.7029C8.63864 45.7567 8.64787 45.8191 8.63403 45.8788C8.63461 45.9086 8.62857 45.9381 8.61627 45.9655C8.60397 45.9929 8.58569 46.0175 8.56266 46.0377C8.53963 46.0579 8.51236 46.0733 8.48264 46.0828C8.45292 46.0923 8.42144 46.0957 8.39023 46.0928Z"
          fill="#020202"
        />
        <path
          d="M13.027 37.5935C12.1369 36.2726 11.1758 34.996 10.1476 33.7688C9.86681 33.4376 9.61373 33.1445 9.36066 32.8661C9.1076 32.5877 8.81134 32.28 8.54594 31.9869C7.9861 31.4082 7.38604 30.8657 6.7498 30.3632C6.42055 30.1037 6.07307 29.8657 5.70977 29.6511C5.32486 29.4179 4.90997 29.2327 4.47531 29.1001C3.93544 28.9269 3.35254 28.9157 2.8057 29.0678C2.72273 29.0916 2.64133 29.1199 2.5619 29.1528L2.38908 29.229C2.29649 29.2759 2.16996 29.3404 2.0496 29.4137C1.82497 29.5574 1.61794 29.7245 1.43237 29.9119C1.32744 30.0203 1.23794 30.1141 1.16388 30.205C1.07012 30.3202 0.983566 30.4406 0.904642 30.5655L0.836747 30.6856L0.787367 30.7823C0.756506 30.8468 0.725639 30.9142 0.694778 30.9875C0.638287 31.1242 0.590876 31.2642 0.552818 31.4066C0.418812 31.9399 0.384346 32.4915 0.450979 33.0361C0.503483 33.5229 0.608972 34.0031 0.765762 34.4693C0.818227 34.6304 0.873773 34.7858 0.935496 34.9352C0.829665 35.0327 0.731669 35.1375 0.642318 35.2488C0.463017 35.4621 0.31937 35.7004 0.216429 35.9552C0.103189 36.2198 0.0344537 36.4997 0.0127427 36.7846C-0.0292026 37.2893 0.0326389 37.797 0.194824 38.2793C0.329664 38.693 0.512895 39.0912 0.741077 39.4662C1.1465 40.1374 1.64932 40.751 2.23477 41.2892C2.32427 41.3742 2.41685 41.4533 2.50943 41.5354L2.34278 41.8519L2.29649 41.9574C2.2718 42.0219 2.24711 42.0922 2.22859 42.1567C2.18782 42.2848 2.15992 42.4163 2.14527 42.5494C2.12945 42.6788 2.12224 42.809 2.12366 42.9392V43.0037C2.12366 43.0564 2.12366 43.1033 2.12366 43.1473V43.2147C2.12366 43.2469 2.12367 43.288 2.1391 43.329V43.3583C2.1743 43.5188 2.22812 43.6751 2.29958 43.8243C2.3647 43.9468 2.43788 44.0652 2.51869 44.1789C2.65493 44.3549 2.81122 44.5161 2.9847 44.6596C3.26403 44.884 3.56706 45.0805 3.88894 45.2457C4.17348 45.3949 4.46604 45.5299 4.76541 45.6502C5.33045 45.8763 5.90848 46.072 6.49673 46.2363C7.06767 46.4004 7.64786 46.5441 8.22805 46.6671C8.28895 46.6796 8.35096 46.6865 8.41323 46.6877C8.57908 46.6868 8.74102 46.6399 8.87922 46.5528C8.98176 46.489 9.06944 46.4058 9.13685 46.3085C9.20426 46.2113 9.24997 46.1019 9.27117 45.9872C9.30748 45.7967 9.27371 45.6001 9.1755 45.4304C9.12089 45.3278 9.04395 45.2373 8.94979 45.1651C8.85562 45.0928 8.74636 45.0404 8.62925 45.0113C8.09535 44.8735 7.55837 44.7182 7.0399 44.5511C6.73128 44.4515 6.45969 44.3548 6.20354 44.2581C5.94739 44.1613 5.72828 44.0705 5.51225 43.965C5.27468 43.859 5.04292 43.7416 4.81787 43.6133C4.61141 43.4987 4.418 43.3642 4.24076 43.2118C4.18273 43.16 4.13002 43.1031 4.08337 43.0418C4.06793 43.0213 4.05868 43.0007 4.04942 42.992V42.9099C4.04477 42.8808 4.04477 42.8511 4.04942 42.822C4.04768 42.8005 4.04768 42.7789 4.04942 42.7575C4.08314 42.7521 4.11755 42.7521 4.15126 42.7575H4.52159L4.83021 42.7399C4.95342 42.6971 5.06649 42.6316 5.16289 42.5471C5.2593 42.4626 5.33712 42.3608 5.39189 42.2475C5.39985 42.2378 5.4061 42.2269 5.4104 42.2153C5.4908 42.045 5.52175 41.8573 5.50005 41.6718C5.47834 41.4863 5.40478 41.3096 5.28697 41.1602L5.0771 40.9785L4.85799 40.8232C4.40055 40.5292 3.9719 40.1966 3.57723 39.8296C3.13085 39.4193 2.74563 38.9529 2.43228 38.4434C2.28648 38.1987 2.16755 37.9404 2.07737 37.6726C2.0071 37.4684 1.97371 37.2543 1.97861 37.0395L2.11132 36.682L2.29341 36.4065C2.39544 36.3225 2.50489 36.247 2.62054 36.1808L2.65139 36.1603L2.69769 36.131C2.86003 36.0275 2.98933 35.8837 3.07151 35.7152C3.15368 35.5468 3.18557 35.3601 3.16369 35.1756C3.15187 35.0574 3.12063 34.9417 3.07111 34.8327C2.99087 34.651 2.91063 34.4722 2.84891 34.2934L2.68843 33.8216C2.59354 33.5046 2.5305 33.1797 2.50017 32.8515C2.47298 32.5727 2.49383 32.2915 2.5619 32.0191C2.57669 31.9662 2.59524 31.9143 2.61745 31.8638C2.61745 31.8403 2.63906 31.8198 2.66066 31.7759V31.7466C2.68535 31.7114 2.71929 31.6733 2.75324 31.6293C2.78805 31.5875 2.82513 31.5474 2.86434 31.5092C2.94816 31.4314 3.03904 31.3608 3.13592 31.2982C3.17912 31.2718 3.22233 31.2542 3.26862 31.2307L3.34269 31.1985H3.37047C3.52433 31.1676 3.68439 31.1809 3.8303 31.2366C4.0958 31.3194 4.34971 31.4326 4.58641 31.5736C4.86963 31.7416 5.14268 31.9246 5.40424 32.1217C6.55341 33.0352 7.61317 34.0455 8.57061 35.1404C9.01193 35.6269 9.47486 36.1544 10.0612 36.8637L10.5056 37.403C10.876 37.8572 11.2216 38.2969 11.5024 38.6573C11.5746 38.7515 11.6669 38.8302 11.7733 38.8883C11.8796 38.9464 11.9976 38.9825 12.1197 38.9944H12.1629C12.2884 39.0054 12.415 38.9904 12.5338 38.9505C12.6526 38.9105 12.7609 38.8465 12.8511 38.7628C13.0192 38.6179 13.1287 38.4217 13.1609 38.2082C13.193 37.9948 13.1456 37.7773 13.027 37.5935Z"
          fill="black"
        />
        <path
          d="M10.548 37.3797C10.4338 40.1287 8.86292 43.2676 6.22736 44.264C5.98046 44.1703 5.75209 44.0765 5.53606 43.971C5.29849 43.865 5.06673 43.7476 4.84168 43.6193C4.63522 43.5047 4.44181 43.3702 4.26456 43.2178C4.20653 43.166 4.15382 43.1091 4.10717 43.0478C4.09174 43.0273 4.08248 43.0067 4.07322 42.998V42.91C4.06857 42.8809 4.06857 42.8512 4.07322 42.8221C4.07148 42.8006 4.07148 42.7791 4.07322 42.7576C4.10694 42.7523 4.14135 42.7523 4.17506 42.7576H4.5454L4.85402 42.74C4.97723 42.6972 5.0903 42.6317 5.1867 42.5472C5.28311 42.4627 5.36094 42.3609 5.4157 42.2477C5.42366 42.2379 5.42991 42.2271 5.43421 42.2154C5.51461 42.0451 5.54556 41.8574 5.52386 41.6719C5.50215 41.4864 5.42857 41.3098 5.31076 41.1604L5.10091 40.9786L4.8818 40.8233C4.42436 40.5293 3.99571 40.1968 3.60104 39.8298C3.15466 39.4194 2.76944 38.953 2.45609 38.4435C2.31029 38.1988 2.19136 37.9405 2.10117 37.6727C2.0309 37.4685 1.99752 37.2545 2.00243 37.0397L2.13513 36.6821L2.31721 36.4066C2.41925 36.3227 2.52869 36.2472 2.64434 36.181C3.42849 36.9921 4.46193 37.548 5.59777 37.7694L5.36324 37.4764C4.56768 36.7755 3.8443 36.0041 3.20293 35.1728C3.19111 35.0546 3.15987 34.9389 3.11035 34.8299C3.03011 34.6482 2.94987 34.4694 2.88815 34.2906L2.72766 33.8188C2.63277 33.5018 2.56974 33.177 2.53941 32.8487C2.51222 32.5699 2.53307 32.2887 2.60114 32.0163C2.61593 31.9634 2.63448 31.9115 2.65669 31.861C2.65669 31.8376 2.67828 31.817 2.69989 31.7731V31.7438C2.72458 31.7086 2.75853 31.6705 2.79248 31.6265C2.82729 31.5847 2.86437 31.5446 2.90357 31.5064C2.98739 31.4286 3.07827 31.358 3.17516 31.2954C3.21836 31.269 3.26157 31.2514 3.30786 31.228L3.38193 31.1957H3.40971C3.56357 31.1648 3.72363 31.1781 3.86954 31.2338C4.13504 31.3166 4.38894 31.4298 4.62565 31.5709C4.90887 31.7388 5.1819 31.9218 5.44346 32.1189C6.59263 33.0324 7.65241 34.0427 8.60985 35.1376C9.05117 35.6241 9.51409 36.1517 10.1005 36.8609L10.548 37.3797Z"
          fill="white"
        />
        <path
          d="M62.4895 44.938C61.9238 43.713 61.0417 42.6435 59.925 41.8284C59.638 41.6338 59.297 41.5239 58.9445 41.5125C58.5921 41.501 58.244 41.5885 57.9437 41.7639C56.7092 42.3999 55.4747 44.4016 55.6784 48.0797C55.7587 49.4631 56.1599 50.2778 56.9129 50.5533C57.1837 50.6335 57.4698 50.6562 57.7508 50.6197C58.0319 50.5832 58.3011 50.4885 58.5393 50.3423C58.6473 51.4443 59.0362 53.2086 60.391 54.0322C60.6015 54.1728 60.8509 54.2517 61.1082 54.259C61.3655 54.2663 61.6194 54.2017 61.8384 54.0732C61.8785 54.0497 61.9186 54.0263 61.9556 53.9999C62.6192 53.5515 62.9988 52.64 63.1901 51.9337C63.8312 49.5962 63.5831 47.1188 62.4895 44.938ZM61.3014 53.235C61.246 53.2705 61.1799 53.2881 61.1131 53.2849C61.0463 53.2817 60.9824 53.258 60.931 53.2174C59.425 52.2913 59.5176 49.4601 59.5145 49.4338C59.5191 49.343 59.4966 49.2529 59.4494 49.1738C59.4023 49.0948 59.3325 49.03 59.2482 48.987C59.1639 48.9441 59.0685 48.9247 58.9731 48.9312C58.8776 48.9376 58.7861 48.9696 58.709 49.0235C58.6855 49.0327 58.6644 49.0467 58.6473 49.0645C58.3047 49.3781 57.6289 49.7767 57.277 49.6506C56.9252 49.5246 56.7524 48.9297 56.703 48.0329C56.5271 45.0083 57.4437 43.1355 58.4343 42.6226C58.5655 42.5397 58.7196 42.4955 58.8772 42.4955C59.0348 42.4955 59.1889 42.5397 59.3201 42.6226C61.289 43.9737 62.3352 46.6583 62.4772 48.578C62.6778 51.0779 61.9248 52.8745 61.3137 53.235H61.3014Z"
          fill="black"
        />
        <path
          d="M60.3529 41.2834C59.9571 41.0148 59.4876 40.8613 59.0016 40.8415C58.5156 40.8218 58.034 40.9366 57.6155 41.172C56.9242 41.5267 54.696 43.0858 54.9799 48.118C55.0818 49.7944 55.6249 50.7967 56.6588 51.1806C57.0727 51.3336 57.5255 51.3643 57.9581 51.2686C58.2019 52.4878 58.7636 53.8388 60.0042 54.5979C60.324 54.8077 60.7013 54.9244 61.0899 54.9338C61.4785 54.9432 61.8616 54.8448 62.1922 54.6507C62.252 54.6199 62.3098 54.5857 62.3651 54.5481C63.0348 54.0938 63.544 53.2761 63.8804 52.1126C64.2069 50.9208 64.3217 49.6856 64.2198 48.4579C64.047 46.1631 62.7663 42.9422 60.3529 41.2834ZM59.5197 48.3612C59.3433 48.2829 59.1494 48.2466 58.9549 48.2557C58.7221 48.2684 58.4977 48.3425 58.3068 48.4697C58.2574 48.5048 58.2111 48.5429 58.171 48.5752C57.9992 48.7287 57.8035 48.8562 57.5908 48.9532C57.488 48.6407 57.4309 48.3163 57.4211 47.989C57.2544 45.0846 58.1432 43.5372 58.7852 43.2089C58.8263 43.1841 58.8726 43.1681 58.9209 43.162C60.6183 44.3343 61.6429 46.7933 61.7787 48.625C61.9299 50.6121 61.4454 51.9925 61.1059 52.479C60.3467 51.7521 60.2171 50.0494 60.2387 49.4603C60.2457 49.2303 60.1812 49.0034 60.0533 48.808C59.9254 48.6126 59.7399 48.4572 59.5197 48.3612Z"
          fill="black"
        />
        <path
          d="M61.7785 48.6248C61.9297 50.6119 61.4451 51.9923 61.1057 52.4788C60.3465 51.752 60.2169 50.0492 60.2385 49.4601C60.2454 49.2301 60.1809 49.0033 60.053 48.8078C59.9252 48.6124 59.7396 48.457 59.5194 48.3611C59.343 48.2827 59.1491 48.2465 58.9546 48.2556C58.7218 48.2682 58.4974 48.3423 58.3065 48.4695C58.2572 48.5047 58.2109 48.5428 58.1707 48.575C57.9989 48.7286 57.8032 48.8561 57.5906 48.9531C57.4878 48.6406 57.4306 48.3161 57.4208 47.9889C57.2542 45.0845 58.143 43.537 58.7849 43.2088C58.826 43.184 58.8724 43.168 58.9207 43.1619C60.6181 44.3312 61.6427 46.7931 61.7785 48.6248Z"
          fill="white"
        />
        <path
          d="M22.7154 72.3701C22.3666 72.3895 22.0174 72.3396 21.6901 72.2235C21.3627 72.1074 21.0645 71.9278 20.8144 71.696C20.5101 71.3969 20.3126 71.0145 20.2496 70.6029C18.5924 70.553 17.2777 69.7852 16.8734 68.6158C16.6699 67.9918 16.7127 67.3187 16.9937 66.7225C16.5421 66.3268 16.2387 65.8021 16.1296 65.2278C15.6821 62.7073 19.2991 60.4975 22.0859 60.0198C22.6298 59.9271 23.1813 59.88 23.7339 59.8792C25.8664 59.8792 27.6255 60.5972 28.8168 61.9541C29.1254 62.297 30.5944 64.1259 30.1993 66.5437C29.6284 70.046 25.3171 72.3701 22.7154 72.3701Z"
          fill="black"
        />
        <path
          d="M17.6504 64.9845C17.7645 65.6352 18.5268 66.0484 19.1224 66.2829C19.0113 66.3942 18.067 67.376 18.3355 68.1556C18.604 68.9352 20.2304 69.5272 22.1685 68.8063C21.6531 69.9317 21.6932 70.4504 21.9247 70.682C22.8227 71.5612 28.1155 69.7382 28.6741 66.318C28.9827 64.4716 27.7482 63.0356 27.6309 62.892C25.8533 60.8668 22.869 61.3767 22.3598 61.4647C19.9619 61.872 17.4281 63.6598 17.6504 64.9845Z"
          fill="#894CF4"
        />
        <path
          d="M45.1268 72.3699C42.5252 72.3699 38.2169 70.0458 37.6429 66.5435C37.2479 64.1256 38.723 62.2968 39.0317 61.9598C40.226 60.6028 41.982 59.8848 44.1145 59.8848C44.6661 59.8854 45.2166 59.9325 45.7594 60.0254C48.5524 60.5032 52.1663 62.713 51.7188 65.2334C51.6112 65.8082 51.3075 66.3334 50.8547 66.7281C51.1352 67.3233 51.179 67.9949 50.9781 68.6185C50.5707 69.7908 49.2561 70.5587 47.5834 70.6085C47.5204 71.0201 47.3228 71.4025 47.0186 71.7016C46.7691 71.9312 46.4721 72.1091 46.1465 72.2241C45.8208 72.3391 45.4736 72.3888 45.1268 72.3699Z"
          fill="black"
        />
        <path
          d="M50.1922 64.9845C50.078 65.6352 49.3158 66.0484 48.7232 66.2829C48.8312 66.3942 49.7756 67.376 49.5071 68.1556C49.2386 68.9352 47.6122 69.5272 45.6741 68.8063C46.1895 69.9317 46.1494 70.4504 45.9179 70.682C45.0198 71.5612 39.7271 69.7382 39.1685 66.318C38.8599 64.4716 40.0944 63.0356 40.2147 62.892C41.9892 60.8668 44.9735 61.3767 45.4828 61.4647C47.8807 61.872 50.4267 63.6598 50.1922 64.9845Z"
          fill="#894CF4"
        />
        <path
          d="M56.2917 50.53C56.2372 51.0519 56.1517 51.5705 56.0356 52.0833C56.014 52.1976 55.9862 52.3148 55.9553 52.4291L55.9183 52.5698L55.8813 52.7134C55.835 52.8687 55.7887 53.0065 55.7393 53.1735C55.6899 53.3406 55.6375 53.4666 55.5788 53.6249C55.5634 53.6718 55.5449 53.7186 55.5264 53.7655L55.4708 53.9033L55.4122 54.044C54.8315 55.4115 54.002 56.6714 52.9618 57.7661L52.8414 57.8921C52.8106 57.9243 52.7797 57.9566 52.7427 57.9888L52.718 58.0152C52.6038 58.1295 52.4865 58.2408 52.3692 58.3522C51.3358 59.2947 50.1644 60.0903 48.8912 60.7144C48.743 60.7877 48.5825 60.861 48.4406 60.9284C48.1999 61.0427 47.9561 61.1511 47.7122 61.2507C47.3049 61.4178 46.8913 61.5731 46.4778 61.7138C44.4474 62.3808 42.3434 62.8253 40.2068 63.0385H40.0957C39.4352 63.1118 38.8026 63.1616 38.2038 63.1997C37.6669 63.2378 37.1577 63.2613 36.6886 63.2818L36.2256 63.2994L35.7596 63.3169C35.306 63.3316 34.9048 63.3463 34.5622 63.3638C34.2196 63.3814 33.8462 63.3961 33.4388 63.4049H32.9636H32.4914C31.6458 63.4049 30.7014 63.3726 29.6954 63.2906C29.0781 63.2407 28.4609 63.1763 27.7974 63.0825C27.2018 63.0004 26.5969 62.9008 25.9796 62.7747H25.9549C24.5471 62.4945 23.1699 62.0903 21.8411 61.5673L21.4152 61.3944C20.905 61.1794 20.403 60.9411 19.9092 60.6792C19.1445 60.2784 18.413 59.8228 17.7211 59.3164C17.5822 59.2139 17.4403 59.1083 17.3045 58.9999C16.7319 58.549 16.1946 58.0592 15.6966 57.5345C15.2446 57.0652 14.826 56.5678 14.4436 56.0457C14.1597 55.6618 13.8881 55.2573 13.6351 54.8323C13.5363 54.6682 13.4406 54.4982 13.345 54.3253C13.3049 54.252 13.2647 54.1788 13.2308 54.1084C13.1135 53.8916 13.0055 53.6747 12.9037 53.4607C12.1157 51.8026 11.7075 50.0045 11.7062 48.1853C11.7062 48.0681 11.7062 47.9509 11.7062 47.8337C11.7047 47.8112 11.7047 47.7887 11.7062 47.7662C11.7304 47.0078 11.817 46.2522 11.9655 45.5066C11.9627 45.4881 11.9627 45.4694 11.9655 45.4509C12.0364 46.0898 11.8019 46.7463 11.9655 47.4175C12.5941 49.8483 13.8414 52.0955 15.5979 53.9619C16.0755 54.4713 16.5912 54.9473 17.1409 55.3863C17.6106 55.7646 18.1021 56.1178 18.613 56.4443C19.1551 56.7895 19.7166 57.1065 20.295 57.3938L20.4678 57.4788L20.6437 57.5638L20.7455 57.6107L20.8597 57.6664L21.0572 57.7543L21.2548 57.8393C22.0483 58.1806 22.8636 58.4742 23.6959 58.7186C26.5963 59.5389 29.6103 59.9401 32.6365 59.9084C33.3586 59.9084 34.0067 59.8879 34.5591 59.8616C35.1115 59.8352 35.8183 59.8176 36.6392 59.7795C38.9445 59.6857 42.1479 59.46 45.3143 58.5603C45.9933 58.3669 46.6691 58.1441 47.3327 57.8862L47.5425 57.8012L47.7493 57.7192L47.8573 57.6723L47.9591 57.6283L48.1443 57.5492L48.3264 57.4671C48.7122 57.2913 49.0948 57.1037 49.4683 56.8956C50.116 56.5447 50.735 56.1479 51.32 55.7086C51.3817 55.6647 51.4465 55.6149 51.5082 55.565C51.5699 55.5152 51.6378 55.4654 51.7026 55.4126C51.9464 55.2163 52.1779 55.0141 52.4094 54.8001C52.868 54.375 53.292 53.9174 53.6778 53.4314C53.866 53.1999 54.045 52.9596 54.2148 52.7075C54.258 52.6489 54.2981 52.5874 54.3382 52.5258C54.3783 52.4643 54.4123 52.4145 54.4462 52.3558C54.8189 51.7726 55.1419 51.1621 55.4122 50.53C55.7379 49.7609 55.9768 48.9612 56.1251 48.1443C56.1991 47.7545 56.2547 47.3618 56.2948 46.972C56.4068 48.1556 56.4058 49.3465 56.2917 50.53Z"
          fill="#E9E0FF"
        />
        <path
          d="M35.0326 75.9691C46.9313 75.9691 56.577 75.0322 56.577 73.8765C56.577 72.7208 46.9313 71.7839 35.0326 71.7839C23.134 71.7839 13.4883 72.7208 13.4883 73.8765C13.4883 75.0322 23.134 75.9691 35.0326 75.9691Z"
          fill="#E9E0FF"
        />
        <path
          d="M29.0392 19.8652H29.0176C29.023 19.8762 29.0303 19.8862 29.0392 19.8948C29.0392 19.8948 29.0392 19.8771 29.0392 19.8652Z"
          fill="white"
        />
        <path
          d="M35.8814 62.804H35.6345C35.2148 62.804 34.8383 62.8303 34.5112 62.845C33.9803 62.8714 33.4063 62.886 32.8076 62.889C31.7552 62.889 30.6103 62.8684 29.4129 62.7746C29.5054 62.93 29.6011 63.1058 29.6937 63.2963C30.6998 63.3784 31.6441 63.4077 32.4897 63.4106H32.9588H33.4341C33.8415 63.4106 34.218 63.3842 34.5575 63.3696C34.8969 63.3549 35.3012 63.3374 35.7549 63.3227L36.2209 63.3051L36.6838 63.2875C37.1529 63.267 37.6621 63.2436 38.1991 63.2055C38.2948 63.012 38.3966 62.8362 38.5077 62.6838C37.514 62.7453 36.6282 62.7776 35.8814 62.804ZM58.1664 41.5441C58.1664 41.4943 58.1387 41.4474 58.1232 41.4005C58.1078 41.3536 58.0955 41.3067 58.0831 41.2598C58.0461 41.1484 58.0152 41.0429 57.9844 40.9433C57.9844 40.8905 57.9844 40.8378 57.9844 40.785C57.9844 40.6121 57.9844 40.4392 57.9844 40.2663C57.9844 40.2135 57.9844 40.1608 57.9844 40.108C57.9844 40.0553 57.9844 40.0025 57.9844 39.9498C57.8989 38.1501 57.6081 36.3646 57.1171 34.6245C56.9567 34.0618 56.7766 33.5079 56.5771 32.9628L56.4197 32.5495C56.3117 32.2565 56.1975 31.9986 56.0771 31.726C55.9845 31.5121 55.8889 31.2981 55.787 31.0871L55.7037 30.9083C55.6759 30.8497 55.6481 30.794 55.6173 30.7354C54.7426 28.9733 53.6282 27.3278 52.3028 25.841C52.2349 25.7589 52.1608 25.6798 52.0867 25.5977C52.0127 25.5157 51.9294 25.4248 51.846 25.3369C51.5374 25.0057 51.2288 24.6804 50.8801 24.3668C49.9403 23.4784 48.9234 22.6666 47.8402 21.9401L47.5779 21.7672L47.3403 21.6148C45.694 20.5717 43.9171 19.7279 42.0506 19.1032C43.3221 15.6536 42.1185 11.5769 40.5538 8.91284C38.8534 6.04068 36.5418 4.36428 34.2365 4.31445H34.1377C31.7089 4.31445 29.2585 6.07292 27.413 9.1561C25.836 11.7762 24.6355 15.7181 25.7434 19.0475C23.4324 19.7983 21.2585 20.8859 19.2996 22.2713L18.9231 22.541C18.7533 22.667 18.5836 22.7959 18.4169 22.9278C17.8429 23.3733 17.2874 23.851 16.7566 24.3522L16.6424 24.4635C16.4819 24.613 16.3338 24.7566 16.1764 24.9237C16.019 25.0907 15.9511 25.1493 15.8431 25.2666C14.0991 27.1123 12.6892 29.2198 11.6706 31.5033C11.6459 31.556 11.6212 31.6117 11.5996 31.6674C11.578 31.7231 11.5472 31.7846 11.5225 31.8432C11.4361 32.0425 11.3527 32.2418 11.2725 32.447C11.1923 32.6521 11.0873 32.9276 11.0009 33.1738L10.8991 33.4669C10.8528 33.5958 10.8096 33.7277 10.7695 33.8596C10.0453 36.1347 9.66707 38.4963 9.64612 40.873C9.64458 40.9003 9.64458 40.9277 9.64612 40.955C9.64034 40.9779 9.63313 41.0004 9.62451 41.0224C9.62451 41.0693 9.59673 41.1191 9.5813 41.169C9.54118 41.3096 9.49798 41.462 9.4486 41.6174L9.30972 42.0775C9.30972 42.1244 9.28194 42.1742 9.26651 42.224C9.25108 42.2739 9.24182 42.3178 9.22639 42.3647C8.41164 45.1871 7.31299 50.0932 9.97016 55.3129C9.99793 55.3686 10.0257 55.4243 10.0566 55.4799L10.1461 55.6529C10.2387 55.8228 10.3343 55.9928 10.4362 56.1657L10.5195 56.3035C10.9081 56.958 11.3433 57.5867 11.8218 58.1851L11.9329 58.3257L12.0471 58.4635C13.0591 59.6797 14.2418 60.7585 15.5622 61.6697C15.6024 61.6991 15.6425 61.7284 15.6857 61.7547L15.8122 61.8427C15.9388 61.9277 16.0715 62.0126 16.2011 62.0947C16.3307 62.1768 16.4634 62.2618 16.5961 62.3409L16.7257 62.42L16.8553 62.4933L17.059 62.6105C17.5158 62.8704 17.9808 63.1117 18.454 63.3344C18.9272 63.5572 19.4415 63.778 19.997 63.9968L20.1421 64.0525L20.2902 64.1081L20.7284 64.2693C20.8735 64.3221 21.0155 64.3719 21.1605 64.4188L21.3148 64.4716L21.4629 64.5185C23.8205 65.2606 26.2621 65.7357 28.737 65.934C29.2585 65.9809 29.7739 66.0161 30.2801 66.0425C30.6905 66.063 31.0948 66.0776 31.4898 66.0864H31.8293C32.0021 66.0864 32.1688 66.0864 32.3354 66.0864H33.1687C33.7057 66.0864 34.218 66.06 34.7118 66.0366C34.9556 66.0366 35.2302 66.0161 35.5296 66.0073H35.6901H35.8505L36.3474 65.9926L36.8443 65.9721H37.0079H37.1776L37.6158 65.9516C38.1003 65.9282 38.6157 65.8989 39.1589 65.8608C41.9054 65.7002 44.6245 65.25 47.2662 64.5185L47.4143 64.4745L47.5656 64.4305L47.9822 64.3045L48.4235 64.158L48.5716 64.1052L48.7167 64.0554C49.05 63.9352 49.3833 63.8092 49.7135 63.6744C50.1918 63.481 50.6671 63.267 51.13 63.0355C51.593 62.804 52.1361 62.5109 52.6207 62.2119L52.7534 62.1328L52.8799 62.0507C53.0095 61.9687 53.1391 61.8837 53.2687 61.7928C53.3984 61.702 53.5249 61.6199 53.6514 61.5291L53.781 61.4353L53.9045 61.3444C55.1715 60.4029 56.2717 59.2749 57.1634 58.0033C57.4688 57.5693 57.7481 57.1192 57.9998 56.6552C58.0831 56.4969 58.1664 56.3387 58.2498 56.1745L58.4349 55.7847C58.4967 55.647 58.5584 55.5093 58.617 55.3715C58.6973 55.1751 58.7713 54.9759 58.8423 54.7854C58.8639 54.7297 58.8824 54.6711 58.9009 54.6154C58.9195 54.5597 58.938 54.504 58.9534 54.4483C60.4471 49.7122 59.0213 44.3752 58.1664 41.5441ZM34.184 6.73527C37.1004 6.79682 40.5446 12.4943 39.9675 16.9227C39.9692 16.9441 39.9692 16.9657 39.9675 16.9871C39.9032 17.4766 39.78 17.9575 39.6002 18.4203C39.5939 18.4424 39.5856 18.4639 39.5755 18.4848C39.5385 18.5815 39.4953 18.6753 39.4521 18.7778C39.4089 18.8804 39.3657 18.9537 39.3163 19.0416C39.2762 19.1149 39.236 19.1852 39.1928 19.2555C39.0919 19.4228 38.9806 19.5843 38.8595 19.7391C38.8203 19.794 38.7781 19.8468 38.733 19.8974C38.6028 20.0639 38.4594 20.2206 38.304 20.3663C38.2361 20.4337 38.1682 20.4982 38.0942 20.5627C37.8991 20.7349 37.693 20.8954 37.4769 21.0433C37.3782 21.1137 37.2764 21.1781 37.1683 21.2426C37.0603 21.3071 36.9801 21.354 36.8844 21.4067C36.7074 21.503 36.5251 21.5901 36.3382 21.6676C35.6725 21.9572 34.9553 22.1252 34.2241 22.1629C33.268 22.2028 32.3156 22.025 31.4466 21.6441C31.2676 21.5679 31.0917 21.4829 30.922 21.3921C30.8201 21.3393 30.7245 21.2836 30.6134 21.2221C30.4652 21.1312 30.3047 21.0345 30.1813 20.929C30.0825 20.8558 29.9838 20.7825 29.8912 20.7034C29.7986 20.6242 29.74 20.5773 29.669 20.5129C29.4566 20.3218 29.2606 20.115 29.0826 19.8945C29.0737 19.8859 29.0664 19.876 29.061 19.8652C28.9333 19.709 28.8158 19.5456 28.7092 19.3757C28.6722 19.3171 28.6352 19.2556 28.6043 19.194C28.5518 19.1061 28.5055 19.0182 28.4623 18.9273C28.4191 18.8364 28.3728 18.7368 28.3327 18.6342C28.2926 18.5316 28.2648 18.4672 28.237 18.3792C28.0752 17.9167 27.9716 17.4376 27.9284 16.952C27.9269 16.9403 27.9269 16.9285 27.9284 16.9168C27.4655 12.462 31.2059 6.67373 34.184 6.73527ZM56.0216 52.1623C55.9143 52.795 55.7427 53.4162 55.5093 54.0175C55.494 54.0645 55.4754 54.1105 55.4537 54.1552C55.4383 54.2021 55.4167 54.249 55.3982 54.2959L55.3148 54.4835C55.2747 54.5714 55.2315 54.6593 55.1883 54.7472C55.1142 54.9026 55.034 55.0403 54.9507 55.2015C54.926 55.2513 54.8982 55.2982 54.8704 55.3451L54.7871 55.4887C54.2384 56.4114 53.5488 57.2519 52.741 57.9828L52.7163 58.0092L52.4787 58.2173C52.4293 58.2642 52.3799 58.3081 52.3275 58.3492C52.275 58.3902 52.2287 58.4342 52.1762 58.4723C52.0374 58.5866 51.8985 58.695 51.7534 58.8005C51.6084 58.906 51.485 58.9969 51.3461 59.0936L51.2072 59.1874L51.0683 59.2782C50.1457 59.8728 49.16 60.3738 48.1272 60.7729C47.547 61.0074 46.9514 61.2125 46.3496 61.3913C46.1799 61.4411 46.007 61.491 45.8373 61.5349C44.1267 61.9977 42.3778 62.3213 40.6094 62.5021C39.8718 62.5812 39.1589 62.6398 38.4923 62.6838C37.514 62.7453 36.6406 62.7776 35.8814 62.804H35.6345C35.2148 62.804 34.8383 62.8303 34.5112 62.845C33.9803 62.8714 33.4063 62.886 32.8076 62.889C31.7552 62.889 30.6103 62.8684 29.4129 62.7746C28.7216 62.7219 28.0158 62.6457 27.2957 62.546C25.6412 62.3269 24.0125 61.9579 22.432 61.4441L22.3024 61.403C21.5808 61.1625 20.875 60.8816 20.1884 60.5619C19.1967 60.1102 18.2541 59.5674 17.3738 58.9412C16.773 58.5108 16.2077 58.0376 15.6826 57.5256C15.0104 56.876 14.4097 56.1631 13.8896 55.3979C13.7198 55.1458 13.5532 54.885 13.3958 54.6154C12.3889 52.9073 11.8102 51.0018 11.7046 49.0469C11.6881 48.7538 11.6819 48.4607 11.6861 48.1677C11.6861 48.0504 11.6861 47.9332 11.6861 47.816C11.6845 47.7935 11.6845 47.771 11.6861 47.7486C11.7165 46.9905 11.8031 46.2354 11.9453 45.4889C11.9425 45.4705 11.9425 45.4517 11.9453 45.4332C12.1402 44.4504 12.3895 43.478 12.6921 42.5201C12.8002 42.1596 12.8958 41.843 12.9668 41.5705L13.0162 41.3771V41.1807C13.0162 41.1367 13.0162 41.0898 13.0162 41.0459C13.0162 41.0019 13.0162 40.9111 13.0162 40.8466C13.0162 40.6297 13.0162 40.4128 13.0347 40.1989C13.0532 39.9849 13.0594 39.7417 13.0779 39.516L13.0964 39.2728C13.0964 39.1907 13.1119 39.1086 13.118 39.0266C13.2829 37.3492 13.6568 35.6964 14.2321 34.1029C14.2568 34.0413 14.2784 33.9827 14.3 33.9241C14.3216 33.8655 14.3432 33.8039 14.3679 33.7453C14.4327 33.5783 14.4975 33.4112 14.5654 33.2471L14.7691 32.7752C14.7938 32.7254 14.8154 32.6785 14.837 32.6287C14.8586 32.5789 14.8833 32.529 14.908 32.4821C15.1987 31.8542 15.5253 31.2417 15.8863 30.6475L15.985 30.4863C16.019 30.4335 16.0499 30.3808 16.0869 30.328C16.1887 30.1639 16.2937 30.0027 16.3955 29.8444C16.4974 29.6862 16.6177 29.5221 16.7319 29.3638L16.8492 29.2026L16.9726 29.0356C17.0868 28.8861 17.201 28.7425 17.3214 28.5901C18.6899 26.8668 20.3602 25.3798 22.2592 24.1939L22.398 24.106C22.4443 24.0767 22.4906 24.0474 22.54 24.021C22.6881 23.9301 22.8486 23.8451 22.9875 23.7602C23.1264 23.6752 23.2961 23.5902 23.4412 23.511L23.5615 23.4466C23.794 23.3235 24.0286 23.2062 24.2652 23.0949C24.546 22.9601 24.8299 22.8311 25.12 22.7109L25.478 22.5644C25.6323 22.4999 25.7897 22.4384 25.9502 22.3798C26.444 22.1961 26.947 22.031 27.4593 21.8845C28.5269 22.9654 29.8691 23.7677 31.3571 24.2144L31.5516 24.2701L31.7398 24.3229C31.9188 24.3668 32.104 24.4079 32.2861 24.443C32.8114 24.5433 33.3458 24.5944 33.8816 24.5954C34.0205 24.5954 34.1624 24.5954 34.3013 24.5954C34.8529 24.5686 35.4001 24.4871 35.9339 24.3522C35.9956 24.3522 36.0573 24.3229 36.119 24.3023C36.1808 24.2818 36.2456 24.2701 36.3104 24.2496C37.8029 23.8081 39.1491 23.0063 40.2174 21.9226C40.6402 22.0457 41.06 22.1834 41.4673 22.3329C41.6525 22.4003 41.8346 22.4677 42.0136 22.541C42.1463 22.5908 42.279 22.6465 42.4086 22.7021C43.2144 23.0423 43.9949 23.434 44.7448 23.8745L44.8806 23.9565C44.9276 23.9801 44.973 24.0065 45.0164 24.0356C47.0142 25.232 48.771 26.7575 50.2042 28.5403C50.3647 28.7395 50.5128 28.9418 50.6733 29.1469C50.7134 29.1967 50.7505 29.2466 50.7875 29.2993L50.8924 29.4459C51.0004 29.5953 51.1053 29.7389 51.201 29.9001C51.2967 30.0613 51.4016 30.1932 51.5096 30.3544C51.5405 30.4042 51.5744 30.454 51.6053 30.5068L51.6979 30.6621C52.0448 31.2327 52.361 31.8196 52.6453 32.4206C53.7705 34.8058 54.4193 37.3688 54.5587 39.9791C54.5803 40.3777 54.5927 40.7792 54.5927 41.1865V41.4151L54.7223 41.8343C55.4008 43.8942 55.87 46.0111 56.1234 48.1559C56.2649 49.4645 56.2349 50.7846 56.0339 52.0861C56.031 52.1117 56.0269 52.1371 56.0216 52.1623Z"
          fill="black"
        />
        <path
          d="M54.7229 41.8255L54.5933 41.4064V41.1778C54.5933 40.7704 54.5933 40.3689 54.5593 39.9703C54.4275 37.3594 53.786 34.7944 52.6675 32.406C52.3832 31.805 52.067 31.2181 51.7201 30.6475L51.6275 30.4922C51.5966 30.4395 51.5627 30.3896 51.5318 30.3398C51.4362 30.1845 51.3374 30.0467 51.2232 29.8855C51.109 29.7244 51.0164 29.5925 50.9146 29.4313L50.8097 29.2847C50.7726 29.232 50.7356 29.1822 50.6955 29.1323C50.5443 28.9272 50.3869 28.725 50.2264 28.5257C48.7932 26.7429 47.0364 25.2174 45.0386 24.0211C44.9952 23.9919 44.9498 23.9655 44.9028 23.9419L44.767 23.8599C44.0171 23.4194 43.2366 23.0277 42.4308 22.6876C42.3012 22.6319 42.1685 22.5762 42.0358 22.5264C41.8568 22.4531 41.6747 22.3857 41.4895 22.3183C41.0822 22.1688 40.6624 22.0252 40.2396 21.908C39.1713 22.9917 37.8251 23.7936 36.3326 24.235C36.2678 24.2555 36.206 24.2731 36.1412 24.2878C36.0764 24.3024 36.0178 24.3229 35.9561 24.3376C35.4223 24.4725 34.8751 24.554 34.3235 24.5808C34.1846 24.5808 34.0427 24.5808 33.9038 24.5808C33.368 24.5798 32.8336 24.5287 32.3083 24.4284C32.1262 24.3933 31.941 24.3522 31.762 24.3083L31.5737 24.2555L31.3793 24.1998C29.8913 23.7532 28.5491 22.9508 27.4815 21.8699C26.9692 22.0164 26.4662 22.1815 25.9724 22.3652C25.8119 22.4238 25.6545 22.4853 25.5002 22.5498L25.1422 22.6963C24.8521 22.8165 24.5682 22.9455 24.2874 23.0803C24.0507 23.1917 23.8162 23.3089 23.5837 23.432L23.4634 23.4965C23.3121 23.5756 23.1548 23.6576 23.0097 23.7456C22.8647 23.8335 22.7011 23.9156 22.5622 24.0064C22.5128 24.0328 22.4665 24.0621 22.4202 24.0914L22.2814 24.1793C20.3823 25.3652 18.7121 26.8523 17.3435 28.5755C17.2232 28.722 17.109 28.8686 16.9948 29.021L16.8714 29.188L16.7541 29.3492C16.6399 29.5075 16.5288 29.6687 16.4177 29.8299C16.3066 29.9911 16.2078 30.1493 16.1091 30.3134C16.072 30.3662 16.0412 30.4189 16.0072 30.4717L15.9085 30.6329C15.5475 31.2271 15.2209 31.8396 14.9302 32.4676C14.9055 32.5145 14.8808 32.5643 14.8592 32.6141C14.8376 32.6639 14.816 32.7108 14.7913 32.7606L14.5876 33.2325C14.5197 33.3966 14.4549 33.5637 14.3901 33.7307C14.3654 33.7893 14.3438 33.848 14.3222 33.9095C14.3006 33.971 14.279 34.0267 14.2543 34.0883C13.679 35.6818 13.305 37.3347 13.1402 39.012C13.1402 39.094 13.1248 39.1761 13.1186 39.2582L13.1001 39.5014C13.0816 39.7271 13.0661 39.9557 13.0569 40.1843C13.0476 40.4129 13.0415 40.6151 13.0384 40.832C13.0384 40.8965 13.0384 40.9639 13.0384 41.0313C13.0384 41.0987 13.0384 41.1221 13.0384 41.1661V41.3625L12.989 41.5559C12.918 41.8285 12.8223 42.142 12.7143 42.5055C12.4117 43.4634 12.1624 44.4358 11.9675 45.4187C12.0385 46.0576 11.8039 46.7141 11.9675 47.3852C12.5962 49.8161 13.8434 52.0633 15.5999 53.9296C16.0775 54.439 16.5932 54.915 17.1429 55.354C17.6126 55.7323 18.1041 56.0855 18.615 56.412C19.1571 56.7573 19.7186 57.0743 20.297 57.3616L20.4698 57.4466L20.6457 57.5316L20.7476 57.5784L20.8617 57.6341L21.0593 57.7221L21.2568 57.807C22.0503 58.1483 22.8656 58.4419 23.6979 58.6863C26.5956 59.5173 29.6085 59.9293 32.6354 59.9084C33.3575 59.9084 34.0056 59.8879 34.558 59.8615C35.1105 59.8351 35.8172 59.8176 36.6381 59.7795C38.9435 59.6857 42.1469 59.46 45.3132 58.5603C45.9922 58.3668 46.6681 58.1441 47.3316 57.8862L47.5415 57.8012L47.7482 57.7191L47.8562 57.6722L47.9581 57.6283L48.1433 57.5491L48.3253 57.4671C48.7111 57.2912 49.0938 57.1037 49.4672 56.8956C50.115 56.5447 50.7339 56.1479 51.3189 55.7086C51.3806 55.6647 51.4454 55.6148 51.5071 55.565C51.5689 55.5152 51.6368 55.4654 51.7016 55.4126C51.9454 55.2162 52.1768 55.014 52.4083 54.8001C52.8669 54.3749 53.2909 53.9174 53.6767 53.4314C53.865 53.1999 54.044 52.9595 54.2137 52.7075C54.2569 52.6489 54.297 52.5873 54.3371 52.5258C54.3773 52.4642 54.4112 52.4144 54.4451 52.3558C54.8179 51.7726 55.1409 51.162 55.4111 50.5299C55.7368 49.7609 55.9757 48.9612 56.124 48.1443C55.8704 46.0004 55.4012 43.8845 54.7229 41.8255ZM25.8705 39.349C25.1515 39.3051 24.6083 38.5958 24.667 37.7576C24.7256 36.9194 25.3521 36.2922 26.0681 36.3215C26.784 36.3508 27.3334 37.0777 27.2778 37.9159C27.2223 38.7541 26.5927 39.393 25.8705 39.349ZM41.8105 39.349C41.0914 39.3051 40.5482 38.5958 40.6069 37.7576C40.6655 36.9194 41.292 36.2922 42.008 36.3215C42.724 36.3508 43.2733 37.0777 43.2178 37.9159C43.1622 38.7541 42.5326 39.393 41.8105 39.349Z"
          fill="white"
        />
        <path
          d="M29.0392 19.8652H29.0176C29.023 19.8762 29.0303 19.8862 29.0392 19.8948C29.0392 19.8948 29.0392 19.8771 29.0392 19.8652Z"
          fill="black"
        />
        <path
          d="M29.0392 19.8652H29.0176C29.023 19.8762 29.0303 19.8862 29.0392 19.8948C29.0392 19.8948 29.0392 19.8771 29.0392 19.8652Z"
          fill="black"
        />
        <path
          d="M29.0431 19.9007C29.0342 19.8921 29.0269 19.8821 29.0215 19.8711H29.0431C29.0431 19.8711 29.0431 19.8888 29.0431 19.9007Z"
          fill="black"
        />
        <path
          d="M39.959 16.9871C39.8947 17.4766 39.7715 17.9574 39.5917 18.4202C39.5854 18.4423 39.5771 18.4639 39.567 18.4847C39.53 18.5814 39.4868 18.6752 39.4436 18.7778C39.4004 18.8804 39.3572 18.9536 39.3078 19.0415C39.2677 19.1148 39.2275 19.1852 39.1843 19.2555C39.0834 19.4228 38.9721 19.5843 38.851 19.7391C38.8118 19.7939 38.7696 19.8467 38.7245 19.8973C38.5943 20.0638 38.4509 20.2206 38.2955 20.3663C38.2276 20.4337 38.1597 20.4981 38.0857 20.5626C37.8906 20.7348 37.6845 20.8953 37.4684 21.0433C37.3697 21.1136 37.2678 21.1781 37.1598 21.2426C37.0518 21.307 36.9716 21.3539 36.8759 21.4067C36.6989 21.5029 36.5166 21.59 36.3297 21.6675C35.664 21.9571 34.9468 22.1251 34.2157 22.1628C33.2595 22.2028 32.3071 22.0249 31.4381 21.6441C31.2591 21.5679 31.0832 21.4829 30.9135 21.392C30.8116 21.3393 30.716 21.2836 30.6049 21.222C30.4567 21.1312 30.2962 21.0345 30.1728 20.929C30.074 20.8557 29.9753 20.7824 29.8827 20.7033C29.7901 20.6242 29.7315 20.5773 29.6605 20.5128C29.4481 20.3217 29.2521 20.1149 29.0741 19.8944C29.0741 19.8944 29.0741 19.871 29.0741 19.8592H29.0525C28.9248 19.7031 28.8073 19.5396 28.7007 19.3698C28.6637 19.3112 28.6266 19.2496 28.5958 19.1881C28.5433 19.1002 28.497 19.0122 28.4538 18.9214C28.4106 18.8305 28.3643 18.7309 28.3242 18.6283C28.2841 18.5257 28.2563 18.4613 28.2285 18.3733C28.0667 17.9108 27.9631 17.4317 27.9199 16.946C28.0002 17.0222 28.2285 17.2157 28.5372 17.4677L28.6699 17.5644L28.8056 17.6641C28.9291 17.752 29.0618 17.8429 29.2038 17.9337C29.2994 18.0011 29.4013 18.0627 29.5124 18.1271C29.5463 18.1506 29.5834 18.1711 29.6204 18.1916C29.6651 18.2213 29.7115 18.2487 29.7593 18.2737L29.8981 18.3528C30.1728 18.5052 30.4722 18.6459 30.79 18.7924C31.4361 19.074 32.116 19.2797 32.8145 19.405C33.6367 19.5525 34.48 19.5605 35.3051 19.4284C35.87 19.3365 36.422 19.1831 36.95 18.9712C37.3252 18.8174 37.6882 18.6382 38.0363 18.4349L38.1783 18.3528C38.2256 18.3274 38.2719 18.2981 38.3171 18.2649L38.4529 18.1799C38.5455 18.1213 38.635 18.0597 38.7276 17.9923C38.8603 17.8985 38.993 17.8018 39.1257 17.6993L39.2584 17.5937C39.3016 17.5625 39.3448 17.5273 39.388 17.4882C39.567 17.3417 39.7645 17.1688 39.959 16.9871Z"
          fill="#5F2CCD"
        />
        <path
          d="M29.0431 19.9007C29.0342 19.8921 29.0269 19.8821 29.0215 19.8711H29.0431C29.0431 19.8711 29.0431 19.8888 29.0431 19.9007Z"
          fill="#5F2CCD"
        />
        <path
          d="M39.9595 16.9226C39.9612 16.9441 39.9612 16.9656 39.9595 16.9871C39.7651 17.1688 39.5675 17.3417 39.3731 17.5C39.3299 17.5371 39.2867 17.5723 39.2435 17.6055L39.1108 17.711C38.9781 17.8136 38.8454 17.9103 38.7127 18.0041C38.6201 18.0715 38.5306 18.133 38.438 18.1917L38.3022 18.2767C38.2549 18.3099 38.2086 18.3392 38.1633 18.3646L38.0214 18.4466C37.6733 18.6499 37.3103 18.8292 36.9351 18.983C36.4071 19.1948 35.8551 19.3482 35.2901 19.4402C34.465 19.5722 33.6218 19.5643 32.7996 19.4167C32.1011 19.2915 31.4212 19.0858 30.7751 18.8042C30.4665 18.6635 30.1579 18.5111 29.8832 18.3646L29.7444 18.2854C29.6965 18.2605 29.6502 18.2331 29.6055 18.2034C29.5684 18.1829 29.5314 18.1623 29.4975 18.1389C29.3925 18.0744 29.2907 18.0129 29.1888 17.9455C29.0469 17.8546 28.9142 17.7638 28.7907 17.6758L28.6549 17.5762L28.5222 17.4795C28.1951 17.2274 27.9791 17.034 27.905 16.9578C27.9035 16.9461 27.9035 16.9343 27.905 16.9226C27.4884 12.462 31.2288 6.66491 34.2069 6.73525C37.1017 6.7968 40.5459 12.4942 39.9595 16.9226Z"
          fill="#894CF4"
        />
        <path
          fill-rule="evenodd"
          clip-rule="evenodd"
          d="M27.2773 37.9276C27.2187 38.7599 26.5922 39.393 25.8701 39.3608C25.1479 39.3285 24.6078 38.6075 24.6665 37.7693C24.7251 36.9311 25.3516 36.304 26.0676 36.3333C26.7836 36.3626 27.3329 37.0777 27.2773 37.9276Z"
          fill="black"
        />
        <path
          fill-rule="evenodd"
          clip-rule="evenodd"
          d="M43.2168 37.9276C43.1582 38.7599 42.5317 39.393 41.8095 39.3608C41.0874 39.3285 40.5473 38.6075 40.6059 37.7693C40.6646 36.9311 41.2911 36.304 42.007 36.3333C42.723 36.3626 43.2724 37.0777 43.2168 37.9276Z"
          fill="black"
        />
        <path
          d="M38.6502 16.6267C38.5859 17.1162 38.4627 17.5971 38.2829 18.0599C38.2766 18.082 38.2683 18.1035 38.2582 18.1243C38.2212 18.2211 38.178 18.3148 38.1348 18.4174C38.0916 18.52 38.0484 18.5933 37.999 18.6812C37.9589 18.7545 37.9188 18.8248 37.8756 18.8951C37.7746 19.0624 37.6633 19.2239 37.5422 19.3787C37.503 19.4336 37.4608 19.4864 37.4157 19.537C37.2856 19.7035 37.1421 19.8602 36.9867 20.0059C36.9188 20.0733 36.851 20.1378 36.7769 20.2023C36.5818 20.3744 36.3757 20.535 36.1597 20.6829C36.0609 20.7533 35.9591 20.8177 35.851 20.8822C35.743 20.9467 35.6628 20.9936 35.5671 21.0463C35.3901 21.1426 35.2078 21.2297 35.0209 21.3072C34.3508 21.6006 33.6282 21.7706 32.8914 21.8083C31.9353 21.8483 30.9829 21.6704 30.1139 21.2896C29.9349 21.2134 29.759 21.1284 29.5893 21.0375C29.4874 20.9848 29.3918 20.9291 29.2807 20.8676C29.1325 20.7767 28.972 20.68 28.8486 20.5745C28.7498 20.5012 28.6511 20.4279 28.5585 20.3488C28.4659 20.2697 28.4073 20.2228 28.3363 20.1583C28.1239 19.9672 27.9279 19.7604 27.7499 19.5399C27.7499 19.5399 27.7499 19.5165 27.7499 19.5047H27.7283C27.6006 19.3486 27.4831 19.1852 27.3765 19.0153C27.3395 18.9567 27.3024 18.8951 27.2716 18.8336C27.2191 18.7457 27.1728 18.6578 27.1296 18.5669C27.0864 18.476 27.0401 18.3764 27 18.2738C26.9599 18.1712 26.9321 18.1068 26.9043 18.0188C26.7425 17.5563 26.6389 17.0772 26.5957 16.5916C26.6759 16.6678 26.9043 16.8612 27.2129 17.1132L27.3456 17.2099L27.4814 17.3096C27.6049 17.3975 27.7376 17.4884 27.8795 17.5792C27.9752 17.6466 28.077 17.7082 28.1881 17.7727C28.2221 17.7961 28.2591 17.8166 28.2962 17.8371C28.3409 17.8668 28.3872 17.8942 28.435 17.9192L28.5739 17.9983C28.8486 18.1507 29.1479 18.2914 29.4658 18.4379C30.1119 18.7195 30.7918 18.9252 31.4903 19.0505C32.3125 19.1981 33.1557 19.206 33.9808 19.0739C34.5458 18.982 35.0977 18.8286 35.6258 18.6167C36.0009 18.4629 36.364 18.2837 36.7121 18.0804L36.854 17.9983C36.9014 17.971 36.9477 17.9417 36.9929 17.9104L37.1287 17.8254C37.2213 17.7668 37.3108 17.7052 37.4034 17.6378C37.5361 17.5441 37.6688 17.4473 37.8015 17.3448L37.9342 17.2393C37.9774 17.206 38.0206 17.1709 38.0638 17.1337C38.2582 16.9813 38.4557 16.8084 38.6502 16.6267Z"
          fill="#5F2CCD"
        />
        <path
          d="M38.6587 16.5623C38.6604 16.5837 38.6604 16.6053 38.6587 16.6268C38.4643 16.8085 38.2668 16.9814 38.0723 17.1396C38.0291 17.1787 37.9859 17.2139 37.9427 17.2452L37.81 17.3507C37.6773 17.4532 37.5446 17.55 37.4119 17.6437C37.3193 17.7111 37.2298 17.7727 37.1372 17.8313L37.0014 17.9163C36.9541 17.9495 36.9078 17.9788 36.8626 18.0042L36.7206 18.0863C36.3725 18.2896 36.0095 18.4688 35.6343 18.6226C35.1063 18.8345 34.5543 18.9879 33.9894 19.0798C33.1643 19.2119 32.3211 19.204 31.4989 19.0564C30.8003 18.9311 30.1205 18.7254 29.4744 18.4438C29.1657 18.3032 28.8571 18.1508 28.5825 18.0042L28.4436 17.9251C28.3958 17.9001 28.3494 17.8727 28.3047 17.843C28.2677 17.8225 28.2306 17.802 28.1967 17.7786C28.0918 17.7141 27.9899 17.6525 27.8881 17.5851C27.7461 17.4943 27.6134 17.4034 27.49 17.3155L27.3542 17.2158L27.2215 17.1191C26.8943 16.8671 26.6783 16.6737 26.6042 16.5975C26.6027 16.5858 26.6027 16.574 26.6042 16.5623C26.1876 12.1016 29.928 6.30456 32.9061 6.3749C35.7917 6.43645 39.2358 12.1368 38.6587 16.5623Z"
          fill="#894CF4"
        />
        <path
          fill-rule="evenodd"
          clip-rule="evenodd"
          d="M20.3438 16.19C19.452 11.9931 21.4086 3.12459 26.3094 1.94935C32.744 0.404829 30.0498 9.1063 30.0498 9.1063C30.0498 9.1063 34.1266 0.434137 40.0612 3.61696C44.6225 6.06416 39.3977 13.1977 39.3977 13.1977C39.3977 13.1977 43.2523 9.38766 46.8754 12.4093C49.6159 14.6924 44.7892 18.2972 43.9158 21.4302C43.0424 24.5632 22.4332 26.0345 20.3438 16.19Z"
          fill="#894CF4"
        />
        <mask
          id="mask0_4608_27178"
          mask-type="luminance"
          maskUnits="userSpaceOnUse"
          x="20"
          y="1"
          width="28"
          height="23"
        >
          <path
            d="M20.3399 16.1902C19.448 11.9934 21.4047 3.12483 26.3055 1.94959C32.7401 0.405073 30.0459 9.10655 30.0459 9.10655C30.0459 9.10655 34.1227 0.434381 40.0573 3.6172C44.6186 6.0644 39.3938 13.1979 39.3938 13.1979C39.3938 13.1979 43.2484 9.3879 46.8715 12.4095C49.612 14.6926 44.7853 18.2975 43.9119 21.4305C43.0385 24.5635 22.4293 26.0347 20.3399 16.1902Z"
            fill="white"
          />
        </mask>
        <g mask="url(#mask0_4608_27178)">
          <path
            fill-rule="evenodd"
            clip-rule="evenodd"
            d="M15.8496 11.7439C15.8496 11.7439 23.2903 15.5773 33.2308 13.857C43.1712 12.1366 40.0203 1.72063 37.4341 -0.873109C34.8479 -3.46685 56.1639 8.81311 56.1639 8.81311L52.0624 25.1786L39.579 32.3297L16.8279 28.6252L15.8496 11.7439Z"
            fill="#5F2CCD"
          />
        </g>
        <path
          d="M38.672 25.3398C37.1918 25.512 35.7 25.5767 34.2094 25.5333C31.6757 25.46 27.9662 25.0555 24.6733 23.5345C21.2785 21.9694 19.1645 19.5515 18.5226 16.5358C17.5134 11.7879 19.5842 1.74415 25.8553 0.240661C26.1923 0.157758 26.5345 0.0951083 26.8799 0.0530888C28.6019 -0.154996 29.9907 0.249452 31.006 1.25178C31.575 1.83018 31.9806 2.53594 32.1849 3.30332C33.0942 2.49159 34.173 1.8705 35.3513 1.48038C35.7691 1.34953 36.1989 1.25631 36.6351 1.20195C38.1439 1.03476 39.6687 1.34373 40.9743 2.08119C41.6453 2.42197 42.2303 2.89732 42.6886 3.47425C43.1469 4.05118 43.4676 4.71589 43.6284 5.42227C43.9092 6.59458 43.8074 7.96326 43.3197 9.49312C44.1877 9.43246 45.0596 9.54219 45.881 9.81548C46.7023 10.0888 47.4557 10.5198 48.094 11.0816C49.4581 12.2187 49.8809 13.7427 49.3284 15.4778C48.9458 16.6706 48.1434 17.8224 47.3718 18.9595C46.6713 19.9794 45.946 21.0316 45.7177 21.861C45.4893 22.6904 44.8258 23.4143 43.7611 23.9741C42.9642 24.3706 42.1182 24.6709 41.2428 24.868C40.3969 25.0756 39.5384 25.2332 38.672 25.3398ZM27.3397 3.5495C27.1464 3.57544 26.9547 3.61165 26.7657 3.65794C26.5347 3.71382 26.3127 3.79858 26.1052 3.90999C24.8523 4.56942 23.6888 6.23703 22.9173 8.482C22.0624 10.982 21.7569 13.9391 22.1611 15.8412C22.5377 17.6172 23.7598 19.065 25.7874 20.1143C27.6607 21.0931 30.1543 21.7232 32.9997 21.9401C34.7394 22.072 36.4887 22.0386 38.2214 21.8405C38.7615 21.776 39.28 21.6939 39.7645 21.5943C41.3415 21.2748 41.9865 20.9114 42.1902 20.7708C42.6007 19.4695 43.4432 18.2415 44.261 17.0516C45.9275 14.6278 46.0386 14.0505 45.656 13.734C45.3674 13.469 45.0198 13.2691 44.639 13.1488C44.2581 13.0286 43.8537 12.9912 43.4555 13.0394C41.9865 13.2152 40.749 14.411 40.7366 14.4227C40.4188 14.7636 39.974 14.9742 39.496 15.01C39.018 15.0458 38.5439 14.9042 38.1737 14.6148C37.8034 14.3255 37.5658 13.911 37.5108 13.4586C37.4558 13.0063 37.5878 12.5513 37.8789 12.1894C38.7553 10.9907 40.4342 7.94567 40.0145 6.20772C39.9638 5.98166 39.8601 5.76938 39.711 5.58669C39.5619 5.40401 39.3713 5.25564 39.1534 5.15264C38.5412 4.78956 37.8193 4.62978 37.1012 4.69837C36.9039 4.72253 36.7096 4.76473 36.521 4.82439C34.2249 5.5395 32.296 8.67836 31.7498 9.82723C31.5581 10.2355 31.2098 10.559 30.7758 10.7321C30.3419 10.9053 29.8548 10.9149 29.4136 10.7592C28.9729 10.6066 28.6096 10.3009 28.397 9.9038C28.1845 9.50668 28.1386 9.04776 28.2686 8.61975C28.4851 7.86124 28.6338 7.08671 28.713 6.30444C28.855 4.80388 28.5958 3.95981 28.3303 3.70777C28.176 3.54364 27.8242 3.49382 27.3397 3.5495Z"
          fill="black"
        />
        <path
          d="M43.3253 23.2561C42.595 23.6189 41.8194 23.8926 41.0169 24.0709C38.7936 24.568 36.5097 24.777 34.2273 24.6922C31.78 24.6219 28.2001 24.235 25.0522 22.7784C21.9044 21.3218 19.9632 19.1179 19.3799 16.3717C18.417 11.788 20.5156 2.38606 26.0707 1.05549C27.944 0.607081 29.3883 0.867919 30.3666 1.83508C31.1134 2.5707 31.5177 3.6756 31.5733 5.12341C32.6226 3.9511 33.9897 2.77878 35.6254 2.27469C36.4369 2.02265 37.2964 1.9406 38.1445 2.0342C38.9927 2.1278 39.8094 2.39482 40.5385 2.81688C41.1007 3.10185 41.5909 3.49952 41.9751 3.98231C42.3593 4.4651 42.6284 5.02147 42.7636 5.61285C43.1525 7.23063 42.6309 9.08875 41.9581 10.6186C42.9003 10.2963 43.9181 10.2282 44.8987 10.4216C45.8792 10.6151 46.7841 11.0627 47.5132 11.7147C48.6088 12.6321 48.9328 13.819 48.473 15.2492C48.1243 16.3278 47.3589 17.4415 46.6213 18.52C45.8837 19.5985 45.1214 20.7034 44.8529 21.6647C44.6832 22.2772 44.1709 22.8106 43.3253 23.2561ZM25.6787 3.17444C24.2159 3.9423 22.9321 5.72422 22.0772 8.22124C21.176 10.8589 20.8613 13.9743 21.2933 16.0054C21.7254 18.0364 23.0925 19.6659 25.3609 20.8529C27.3422 21.8874 29.9592 22.5527 32.9312 22.7784C35.2798 22.9685 37.6449 22.8472 39.9583 22.4179C42.2606 21.9519 42.9364 21.3306 42.992 21.1899C43.3407 19.9443 44.1894 18.7076 45.0134 17.5118C46.6275 15.1672 47.2786 13.9568 46.2479 13.1156C43.3716 10.7183 40.2391 13.7223 40.1064 13.8513C39.9411 14.0344 39.7068 14.1486 39.4537 14.1692C39.2007 14.1899 38.9492 14.1153 38.7534 13.9617C38.5576 13.808 38.4332 13.5875 38.4069 13.3476C38.3806 13.1077 38.4545 12.8676 38.6128 12.6789C39.4213 11.5711 41.4088 8.21245 40.8811 6.02902C40.8038 5.6888 40.6483 5.36897 40.4259 5.09236C40.2034 4.81576 39.9194 4.58918 39.5941 4.42881C39.1026 4.13349 38.5488 3.94421 37.9719 3.87433C37.3949 3.80445 36.8088 3.85566 36.2549 4.02436C33.0947 5.01204 30.9715 9.43751 30.9499 9.48147C30.8465 9.69081 30.6642 9.8557 30.439 9.94354C30.2138 10.0314 29.9621 10.0358 29.7336 9.95583C29.5051 9.8759 29.3166 9.71747 29.2052 9.51188C29.0938 9.30628 29.0678 9.06847 29.1321 8.84549C29.3661 8.03357 29.5262 7.20403 29.6105 6.36605C29.7555 4.80981 29.5333 3.65509 28.9932 3.11289C28.5334 2.65862 27.7187 2.56777 26.5706 2.84326C26.259 2.91512 25.959 3.02652 25.6787 3.17444Z"
          fill="black"
        />
        <path
          fill-rule="evenodd"
          clip-rule="evenodd"
          d="M30.1351 38.6485C29.9345 41.5617 27.7371 43.8155 25.2127 43.6602C22.6882 43.5048 20.7964 41.0225 20.997 38.0917C21.1976 35.1609 23.3949 32.9247 25.9071 33.0713C28.4192 33.2178 30.3233 35.7207 30.1351 38.6485Z"
          fill="black"
        />
        <path
          fill-rule="evenodd"
          clip-rule="evenodd"
          d="M25.6018 33.8566C24.6759 33.376 23.3242 34.009 22.599 35.2722C21.8737 36.5353 22.0589 37.9538 22.9847 38.4345C23.9106 38.9151 25.2654 38.2821 25.9875 37.0189C26.7097 35.7558 26.54 34.3402 25.6018 33.8566Z"
          fill="white"
        />
        <path
          fill-rule="evenodd"
          clip-rule="evenodd"
          d="M28.6352 40.1667C28.2001 39.6772 27.6723 40.1667 26.9934 40.703C26.3144 41.2393 25.7373 41.6467 26.1725 42.1361C26.6076 42.6256 27.5118 42.5816 28.1908 42.0394C28.8697 41.4972 29.0673 40.6561 28.6352 40.1667Z"
          fill="#894CF4"
        />
        <path
          fill-rule="evenodd"
          clip-rule="evenodd"
          d="M46.8205 38.6485C46.6199 41.5617 44.4226 43.8155 41.8827 43.6602C39.3428 43.5048 37.4664 41.0225 37.667 38.0917C37.8676 35.1609 40.065 32.9247 42.5771 33.0713C45.0892 33.2178 47.0088 35.7207 46.8205 38.6485Z"
          fill="black"
        />
        <path
          fill-rule="evenodd"
          clip-rule="evenodd"
          d="M42.2882 33.8566C41.3623 33.376 40.0106 34.009 39.2854 35.2722C38.5601 36.5353 38.736 37.9538 39.6711 38.4345C40.6062 38.9151 41.9518 38.2821 42.6739 37.0189C43.3961 35.7558 43.2233 34.3402 42.2882 33.8566Z"
          fill="white"
        />
        <path
          fill-rule="evenodd"
          clip-rule="evenodd"
          d="M45.3196 40.1667C44.8875 39.6772 44.3598 40.1667 43.6809 40.703C43.0019 41.2393 42.4248 41.6467 42.86 42.1361C43.2951 42.6256 44.1993 42.5816 44.8783 42.0394C45.5572 41.4972 45.7548 40.6561 45.3196 40.1667Z"
          fill="#894CF4"
        />
        <path
          fill-rule="evenodd"
          clip-rule="evenodd"
          d="M33.3546 49.4806C31.2622 49.5333 29.5155 48.2262 29.4599 46.5498C29.4044 44.8734 31.8116 43.6571 33.3145 43.7919C35.4748 43.9883 37.0796 45.2954 37.0488 46.3593C37.0025 48.0357 35.4501 49.4278 33.3546 49.4806Z"
          fill="#894CF4"
        />
        <mask id="mask1_4608_27178" mask-type="luminance" maskUnits="userSpaceOnUse" x="29" y="43" width="9" height="7">
          <path
            d="M33.3507 49.4808C31.2583 49.5336 29.5116 48.2265 29.456 46.55C29.4005 44.8736 31.8077 43.6574 33.3106 43.7922C35.4709 43.9885 37.0757 45.2957 37.0449 46.3595C36.9986 48.036 35.4462 49.4281 33.3507 49.4808Z"
            fill="white"
          />
        </mask>
        <g mask="url(#mask1_4608_27178)">
          <path
            fill-rule="evenodd"
            clip-rule="evenodd"
            d="M35.4607 44.2051C35.4607 44.2051 36.078 45.691 34.7725 46.0808C34.7725 46.0808 36.5902 46.3885 35.9761 46.96C35.362 47.5315 35.2231 47.8568 33.8683 48.1851C33.8493 48.4596 33.7346 48.7204 33.5424 48.9262C33.3502 49.1321 33.0914 49.2714 32.8066 49.3222C32.8066 49.3222 35.4792 49.7325 36.4329 48.1997C37.3865 46.6669 36.7692 45.4096 36.7692 45.4096L35.4607 44.2051Z"
            fill="#894CF4"
          />
          <path
            fill-rule="evenodd"
            clip-rule="evenodd"
            d="M32.9676 43.2528C32.9676 43.2528 31.2394 43.8682 30.5388 46.2305C30.0728 47.8101 31.6622 48.3465 32.3905 49.4719C32.9429 50.3247 27.9434 47.6812 27.9434 47.6812C27.9434 47.6812 28.5266 45.0259 28.718 44.7651C28.9093 44.5042 31.0665 42.9128 31.2147 42.7399C31.3628 42.567 33.4737 42.3237 33.4737 42.3237L32.9676 43.2528Z"
            fill="#894CF4"
          />
        </g>
        <path
          d="M34.8729 49.6889C34.3898 49.8525 33.8826 49.9425 33.3699 49.9556C31.0028 50.0142 29.0277 48.4902 28.9629 46.5764C28.9633 46.1906 29.0518 45.8095 29.2222 45.4594C29.3927 45.1092 29.6412 44.7984 29.9505 44.5483C30.8763 43.7335 32.2651 43.2353 33.3452 43.332C34.4107 43.4194 35.4303 43.7834 36.2925 44.3842C37.098 44.9703 37.5516 45.7001 37.5269 46.383C37.5112 46.8575 37.3936 47.324 37.1813 47.7539C36.9691 48.1838 36.6666 48.5679 36.2925 48.8829C35.8787 49.2363 35.3965 49.51 34.8729 49.6889ZM31.9966 44.4662C31.4939 44.6357 31.0314 44.8976 30.6356 45.237C30.4329 45.3985 30.268 45.5985 30.1516 45.8241C30.0352 46.0497 29.9698 46.296 29.9597 46.5471C30.006 47.948 31.5244 49.0529 33.3545 49.006C35.1413 48.962 36.5209 47.8337 36.561 46.3683C36.561 46.002 36.2524 45.536 35.7123 45.1462C35.0006 44.6519 34.1591 44.3537 33.2804 44.2845C32.8438 44.2585 32.4063 44.3204 31.9966 44.4662Z"
          fill="black"
        />
        <path
          fill-rule="evenodd"
          clip-rule="evenodd"
          d="M33.0612 45.8963C34.1408 45.9664 35.2036 46.1876 36.2152 46.5528C36.2152 46.5528 34.5394 48.5017 32.9531 48.4402C31.3669 48.3786 30.2559 46.3886 30.2559 46.3886C31.1412 46.0299 32.0993 45.8617 33.0612 45.8963Z"
          fill="#DC3B34"
        />
        <mask id="mask2_4608_27178" mask-type="luminance" maskUnits="userSpaceOnUse" x="30" y="45" width="7" height="4">
          <path
            d="M33.0573 45.896C34.1369 45.9661 35.1997 46.1874 36.2113 46.5525C36.2113 46.5525 34.5355 48.5015 32.9492 48.4399C31.363 48.3784 30.252 46.3884 30.252 46.3884C31.1373 46.0296 32.0954 45.8615 33.0573 45.896Z"
            fill="white"
          />
        </mask>
        <g mask="url(#mask2_4608_27178)">
          <path
            fill-rule="evenodd"
            clip-rule="evenodd"
            d="M33.908 46.6171C35.7597 46.497 37.3584 47.426 37.4509 48.6892C37.5435 49.9524 36.0992 51.0778 34.2352 51.198C32.3711 51.3181 30.7849 50.3891 30.6954 49.1259C30.6059 47.8627 32.044 46.7373 33.908 46.6171Z"
            fill="#FF7A74"
          />
          <path
            d="M35.5663 51.1892C35.1432 51.3304 34.7021 51.4171 34.2547 51.4471C33.3524 51.5173 32.449 51.324 31.6654 50.8932C31.3176 50.7285 31.0212 50.4802 30.8057 50.1731C30.5901 49.8659 30.4629 49.5105 30.4367 49.1423C30.4105 48.774 30.4862 48.4056 30.6563 48.0737C30.8263 47.7418 31.0849 47.4579 31.4062 47.2503C32.1206 46.7216 32.9891 46.4146 33.8936 46.371C34.7962 46.298 35.7005 46.4915 36.4829 46.9249C36.8308 47.0893 37.1273 47.3372 37.3429 47.6441C37.5586 47.951 37.6858 48.3062 37.712 48.6743C37.7382 49.0425 37.6625 49.4107 37.4923 49.7424C37.3222 50.0741 37.0636 50.3577 36.7422 50.565C36.3913 50.8363 35.9935 51.0475 35.5663 51.1892ZM32.7548 47.0861C31.6438 47.4671 30.9032 48.2584 30.9587 49.0996C30.9915 49.3859 31.0971 49.6604 31.2665 49.8994C31.4358 50.1383 31.6638 50.3346 31.9308 50.4712C32.6269 50.836 33.4191 51.0025 34.2122 50.9505C35.0054 50.8985 35.766 50.6303 36.4027 50.1781C36.648 50.0123 36.847 49.7922 36.9826 49.5368C37.1181 49.2815 37.186 48.9986 37.1804 48.7127C37.1001 47.5873 35.6373 46.7608 33.9183 46.8722C33.5215 46.8947 33.1299 46.9697 32.7548 47.0949V47.0861Z"
            fill="black"
          />
        </g>
        <path
          d="M33.9373 48.4782C33.4441 48.6524 32.909 48.69 32.3942 48.5866C31.8378 48.4603 31.3258 48.1985 30.9085 47.8269C30.4912 47.4553 30.1832 46.9868 30.0148 46.4676C30.0018 46.4342 29.9963 46.3986 29.9985 46.363C30.0008 46.3274 30.0108 46.2927 30.0279 46.2609C30.045 46.2292 30.0689 46.2012 30.0979 46.1787C30.127 46.1561 30.1607 46.1396 30.1969 46.13C30.233 46.1205 30.2709 46.1182 30.308 46.1232C30.3452 46.1282 30.3808 46.1405 30.4127 46.1593C30.4446 46.1781 30.4721 46.2029 30.4933 46.2323C30.5146 46.2617 30.5293 46.2949 30.5363 46.3299C30.6789 46.7599 30.9359 47.1476 31.2825 47.4556C31.629 47.7637 32.0534 47.9816 32.5146 48.0884C33.8077 48.3609 34.9619 47.3615 35.6501 46.7666C35.8198 46.6201 35.9587 46.4911 36.0883 46.4061C36.116 46.3787 36.1497 46.3574 36.1871 46.3439C36.2244 46.3303 36.2645 46.3247 36.3043 46.3275C36.3442 46.3303 36.383 46.3414 36.4178 46.3601C36.4526 46.3787 36.4827 46.4045 36.5058 46.4355C36.5289 46.4665 36.5446 46.5019 36.5516 46.5393C36.5587 46.5767 36.5569 46.6151 36.5465 46.6517C36.5361 46.6884 36.5173 46.7225 36.4915 46.7514C36.4656 46.7804 36.4333 46.8036 36.3969 46.8193C36.2982 46.8897 36.1624 47.0098 36.0019 47.1447C35.4112 47.712 34.71 48.165 33.9373 48.4782Z"
          fill="black"
        />
        <path
          d="M37.0385 47.013C36.9758 47.035 36.9068 47.035 36.8441 47.013C36.8225 47.013 34.6591 46.1865 32.9957 46.1103C31.8736 46.0713 30.7562 46.2653 29.7213 46.6789C29.6888 46.6952 29.6532 46.7052 29.6166 46.7081C29.5799 46.711 29.5431 46.7069 29.5082 46.6958C29.4733 46.6848 29.4412 46.6672 29.4137 46.6441C29.3862 46.6209 29.3639 46.5927 29.3482 46.5611C29.3326 46.5296 29.3238 46.4953 29.3224 46.4604C29.3211 46.4255 29.3273 46.3908 29.3405 46.3582C29.3537 46.3257 29.3738 46.296 29.3994 46.271C29.4251 46.246 29.4559 46.2262 29.4898 46.2129C30.6039 45.7611 31.81 45.5509 33.0204 45.5974C34.7764 45.6765 36.9552 46.5001 37.0478 46.5353C37.0987 46.5541 37.1425 46.5871 37.1734 46.63C37.2043 46.6729 37.2208 46.7236 37.2208 46.7756C37.2208 46.8275 37.2043 46.8783 37.1734 46.9211C37.1425 46.964 37.0987 46.997 37.0478 47.0159L37.0385 47.013Z"
          fill="black"
        />
      </svg>
