  <svg xmlns="http://www.w3.org/2000/svg" width="129" height="121" viewBox="0 0 129 121" fill="none">
          <path
            d="M64.5 120.422C99.9326 120.422 128.656 103.548 128.656 82.732C128.656 61.9165 99.9326 45.0421 64.5 45.0421C29.0675 45.0421 0.34375 61.9165 0.34375 82.732C0.34375 103.548 29.0675 120.422 64.5 120.422Z"
            fill="#F0F0F0"
          />
          <path
            d="M103.774 72.7331C108.808 72.7331 112.888 70.3779 112.888 67.4725C112.888 64.5671 108.808 62.2118 103.774 62.2118C98.7403 62.2118 94.6597 64.5671 94.6597 67.4725C94.6597 70.3779 98.7403 72.7331 103.774 72.7331Z"
            fill="#E0E0E0"
          />
          <path
            d="M81.385 111.606C88.1988 111.606 93.7225 108.418 93.7225 104.485C93.7225 100.552 88.1988 97.364 81.385 97.364C74.5712 97.364 69.0475 100.552 69.0475 104.485C69.0475 108.418 74.5712 111.606 81.385 111.606Z"
            fill="#E0E0E0"
          />
          <path
            d="M45.5196 111.606C52.3335 111.606 57.8572 108.418 57.8572 104.485C57.8572 100.552 52.3335 97.364 45.5196 97.364C38.7058 97.364 33.1821 100.552 33.1821 104.485C33.1821 108.418 38.7058 111.606 45.5196 111.606Z"
            fill="#E0E0E0"
          />
          <path
            d="M25.2261 72.7331C30.2598 72.7331 34.3404 70.3779 34.3404 67.4725C34.3404 64.5671 30.2598 62.2118 25.2261 62.2118C20.1925 62.2118 16.1119 64.5671 16.1119 67.4725C16.1119 70.3779 20.1925 72.7331 25.2261 72.7331Z"
            fill="#E0E0E0"
          />
          <path
            d="M64.406 59.0189C69.4397 59.0189 73.5203 56.6637 73.5203 53.7583C73.5203 50.8529 69.4397 48.4976 64.406 48.4976C59.3724 48.4976 55.2918 50.8529 55.2918 53.7583C55.2918 56.6637 59.3724 59.0189 64.406 59.0189Z"
            fill="#E0E0E0"
          />
          <path
            d="M28.9686 65.4364C29.4568 63.368 28.1758 61.2955 26.1074 60.8073C24.039 60.3191 21.9665 61.6002 21.4783 63.6685C20.9901 65.7369 22.2711 67.8094 24.3395 68.2976C26.4079 68.7858 28.4804 67.5048 28.9686 65.4364Z"
            fill="#455A64"
          />
          <path
            d="M31.1364 59.4917C31.1309 59.1758 31.1559 58.8601 31.2111 58.549C31.435 57.5179 30.8655 56.4425 29.4944 55.6519C27.1364 54.289 23.3132 54.289 20.9551 55.6519C19.5729 56.4425 19.0201 57.5179 19.2384 58.549C19.2936 58.8601 19.3186 59.1758 19.3131 59.4917C19.3158 59.6294 19.3325 59.7664 19.3628 59.9008C19.4333 60.1974 19.4749 60.5001 19.4872 60.8047C19.4928 60.9455 19.5122 61.0853 19.5453 61.2222C19.6134 61.5011 19.6514 61.7866 19.6586 62.0736C19.6642 62.2061 19.6837 62.3377 19.7167 62.4662C19.7834 62.7454 19.8214 63.0307 19.83 63.3176C19.866 64.0889 20.3829 64.8518 21.4085 65.4407C23.5205 66.657 26.9373 66.657 29.0521 65.4407C30.0694 64.8518 30.5946 64.0889 30.6306 63.3176C30.6406 63.0308 30.6786 62.7456 30.7439 62.4662C30.7738 62.3419 30.7914 62.2151 30.7964 62.0874C30.8037 61.8004 30.8417 61.5149 30.9098 61.236C30.9428 61.0991 30.9623 60.9593 30.9678 60.8186C30.9815 60.5132 31.0232 60.2097 31.0922 59.9118C31.1221 59.7738 31.1369 59.6329 31.1364 59.4917Z"
            fill="#7C3AED"
          />
          <path
            d="M31.1364 59.4917C31.1309 59.1758 31.1559 58.8601 31.2111 58.549C31.435 57.5179 30.8655 56.4425 29.4944 55.6519C27.1364 54.289 23.3132 54.289 20.9551 55.6519C19.5729 56.4425 19.0201 57.5179 19.2384 58.549C19.2936 58.8601 19.3186 59.1758 19.3131 59.4917C19.3158 59.6294 19.3325 59.7664 19.3628 59.9008C19.4333 60.1974 19.4749 60.5001 19.4872 60.8047C19.4928 60.9455 19.5122 61.0853 19.5453 61.2222C19.6134 61.5011 19.6514 61.7866 19.6586 62.0736C19.6642 62.2061 19.6837 62.3377 19.7167 62.4662C19.7834 62.7454 19.8214 63.0307 19.83 63.3176C19.866 64.0889 20.3829 64.8518 21.4085 65.4407C23.5205 66.657 26.9373 66.657 29.0521 65.4407C30.0694 64.8518 30.5946 64.0889 30.6306 63.3176C30.6406 63.0308 30.6786 62.7456 30.7439 62.4662C30.7738 62.3419 30.7914 62.2151 30.7964 62.0874C30.8037 61.8004 30.8417 61.5149 30.9098 61.236C30.9428 61.0991 30.9623 60.9593 30.9678 60.8186C30.9815 60.5132 31.0232 60.2097 31.0922 59.9118C31.1221 59.7738 31.1369 59.6329 31.1364 59.4917Z"
            fill="white"
          />
          <path
            d="M29.2871 63.0881C28.0284 63.7259 26.6372 64.0583 25.2261 64.0583C23.8151 64.0583 22.4239 63.7259 21.1652 63.0881C20.5879 62.7838 20.1043 62.3279 19.7665 61.7695C19.6771 61.5922 19.604 61.4072 19.5481 61.2166C19.6137 61.495 19.6508 61.7794 19.6586 62.0653C19.6639 62.2006 19.6834 62.3349 19.7167 62.4662V62.5104C20.0324 63.2543 20.5816 63.8753 21.2813 64.2796C22.5027 64.8971 23.8521 65.2189 25.2206 65.2189C26.5892 65.2189 27.9386 64.8971 29.1599 64.2796C29.8585 63.8735 30.4066 63.2517 30.7218 62.5076V62.4579C30.7516 62.3336 30.7692 62.2068 30.7743 62.0791C30.7816 61.7921 30.8196 61.5066 30.8876 61.2277C30.832 61.4187 30.7579 61.6039 30.6665 61.7806C30.3324 62.3323 29.8559 62.784 29.2871 63.0881Z"
            fill="#7C3AED"
          />
          <path
            d="M31.0867 59.898C31.117 59.7646 31.1337 59.6284 31.1364 59.4917C31.1309 59.1758 31.1559 58.8601 31.2111 58.549C31.1625 58.7381 31.0987 58.923 31.0203 59.1019C30.6682 59.7353 30.1388 60.2522 29.4972 60.5891C28.1733 61.2597 26.7102 61.6092 25.2261 61.6092C23.7421 61.6092 22.279 61.2597 20.9551 60.5891C20.3149 60.2506 19.7882 59.7315 19.4403 59.0963C19.3577 58.9189 19.2929 58.7337 19.2467 58.5435C19.302 58.8536 19.327 59.1684 19.3214 59.4834C19.3241 59.6211 19.3408 59.7581 19.3711 59.8925V59.9201C19.686 60.7361 20.2716 61.4192 21.0298 61.8552C22.321 62.5364 23.7637 62.8797 25.2234 62.8532C26.6803 62.8783 28.1199 62.5351 29.4087 61.8552C30.1663 61.4185 30.7517 60.7357 31.0673 59.9201C31.0749 59.9138 31.0814 59.9063 31.0867 59.898Z"
            fill="#7C3AED"
          />
          <path
            d="M25.2234 23.4577C21.1961 23.4577 17.3338 25.0575 14.4861 27.9052C11.6383 30.7529 10.0385 34.6152 10.0385 38.6425C10.0385 50.6953 19.9904 52.6968 19.9904 57.5566C19.9904 58.3306 20.5018 59.1046 21.5246 59.6935C23.5703 60.8766 26.8848 60.8766 28.9332 59.6935C29.956 59.1046 30.4675 58.3306 30.4675 57.5566C30.4675 52.6968 40.4193 50.6953 40.4193 38.6425C40.42 34.6165 38.8216 30.755 35.9755 27.9073C33.1294 25.0597 29.2688 23.4591 25.2427 23.4577H25.2234Z"
            fill="#7C3AED"
          />
          <path
            d="M25.2234 23.4577C21.1961 23.4577 17.3338 25.0575 14.4861 27.9052C11.6383 30.7529 10.0385 34.6152 10.0385 38.6425C10.0385 50.6953 19.9904 52.6968 19.9904 57.5566C19.9904 58.3306 20.5018 59.1046 21.5246 59.6935C23.5703 60.8766 26.8848 60.8766 28.9332 59.6935C29.956 59.1046 30.4675 58.3306 30.4675 57.5566C30.4675 52.6968 40.4193 50.6953 40.4193 38.6425C40.42 34.6165 38.8216 30.755 35.9755 27.9073C33.1294 25.0597 29.2688 23.4591 25.2427 23.4577H25.2234Z"
            fill="white"
          />
          <path
            d="M22.2047 59.3037C20.5294 58.3361 20.5294 56.7687 22.2047 55.8012C23.8799 54.8336 26.5973 54.8336 28.2863 55.8012C29.9754 56.7687 29.9616 58.3361 28.2863 59.3037C26.6111 60.2712 23.8633 60.274 22.2047 59.3037Z"
            fill="black"
          />
          <path
            d="M14.8569 33.415C12.3965 33.415 10.5555 38.4048 12.6647 44.1962C14.7739 49.9876 18.1935 51.685 20.546 50.9496C22.8985 50.2143 23.4376 44.2432 21.6297 39.8202C19.5315 34.7364 17.1237 33.4123 14.8569 33.415Z"
            fill="white"
          />
          <path
            d="M24.1176 58.502C24.0672 58.502 24.0188 58.4824 23.9827 58.4473C23.9466 58.4122 23.9256 58.3644 23.9241 58.314C23.9241 58.2753 23.7969 54.419 23.1833 51.8619C23.0539 51.2756 22.793 50.7264 22.4203 50.2558C21.0381 50.8446 19.8991 50.7064 19.4734 50.2337C19.3591 50.1149 19.2967 49.9555 19.2998 49.7907C19.3029 49.6259 19.3713 49.469 19.49 49.3546L19.5204 49.3269C19.8991 48.9344 20.5267 48.8072 21.1984 48.9897C21.7025 49.1313 22.159 49.4063 22.5198 49.7858C22.9991 49.548 23.4506 49.2578 23.8661 48.9206C24.528 48.3988 25.0828 47.7539 25.4998 47.0214C25.1919 46.8591 24.9317 46.6191 24.745 46.3253C24.5584 46.0314 24.4517 45.6939 24.4355 45.3462V39.9722L23.8412 40.3205C23.8115 40.3367 23.7782 40.3452 23.7444 40.3452C23.7106 40.3452 23.6773 40.3367 23.6477 40.3205C23.6176 40.3038 23.5925 40.2794 23.575 40.2497C23.5575 40.2201 23.5482 40.1863 23.5482 40.1519V38.2168C23.5482 38.1824 23.5575 38.1486 23.575 38.119C23.5925 38.0893 23.6176 38.0649 23.6477 38.0482L24.4438 37.5893V36.1684C24.4438 34.6231 25.0824 33.5007 26.3955 32.7433L27.5842 32.0549C27.6139 32.0387 27.6471 32.0302 27.6809 32.0302C27.7147 32.0302 27.748 32.0387 27.7777 32.0549C27.8071 32.0722 27.8314 32.0969 27.8484 32.1264C27.8654 32.156 27.8743 32.1895 27.8744 32.2236V34.2167C27.8749 34.2509 27.8662 34.2846 27.8492 34.3143C27.8321 34.3439 27.8075 34.3685 27.7777 34.3853L26.8489 34.9216C26.6056 35.0626 26.5475 35.1981 26.5475 35.6155V36.3729L27.5842 35.7758C27.607 35.7646 27.6318 35.7581 27.6572 35.7567C27.6826 35.7552 27.708 35.7588 27.7319 35.7673C27.7559 35.7758 27.7779 35.789 27.7967 35.8062C27.8154 35.8233 27.8306 35.844 27.8413 35.8671C27.8545 35.8946 27.8612 35.9249 27.8606 35.9555L27.7335 37.9487C27.7311 37.9807 27.721 38.0118 27.7042 38.0392C27.6874 38.0666 27.6642 38.0896 27.6367 38.1062L26.5309 38.742V44.8431C26.5147 45.5479 26.3359 46.2395 26.0085 46.8639C26.3707 47.0033 26.7539 47.0809 27.1419 47.0933C27.5456 47.1099 27.949 47.0546 28.3333 46.9302C28.936 45.2882 29.652 44.152 30.2961 43.9225C30.3949 43.8812 30.5031 43.8673 30.6092 43.8824C30.7153 43.8975 30.8153 43.9409 30.8987 44.0082C31.1475 44.2045 31.1917 44.5611 31.0231 45.0283C30.7919 45.5376 30.4613 45.9956 30.0507 46.3753C29.64 46.7551 29.1577 47.049 28.6319 47.2398C28.3463 48.0638 28.1127 48.9049 27.9325 49.7582C27.4218 52.0561 27.1522 54.401 27.1281 56.7549C27.1288 56.7803 27.1245 56.8056 27.1155 56.8294C27.1064 56.8531 27.0928 56.8749 27.0753 56.8934C27.0579 56.9118 27.0369 56.9267 27.0137 56.9371C26.9905 56.9475 26.9655 56.9532 26.9401 56.9539C26.8894 56.9532 26.841 56.933 26.805 56.8975C26.7689 56.8619 26.748 56.8138 26.7466 56.7632C26.7669 54.3787 27.0384 52.0029 27.5565 49.6753C27.7232 48.8988 27.9318 48.132 28.1813 47.378C27.8374 47.4595 27.4839 47.493 27.1308 47.4776C26.6856 47.4636 26.2465 47.37 25.8343 47.2011C25.3897 47.984 24.7995 48.6746 24.0955 49.2357C23.6803 49.5676 23.232 49.8557 22.7575 50.0954C23.1331 50.5944 23.3988 51.1672 23.5371 51.7762C24.1591 54.3747 24.2862 58.267 24.2862 58.3085C24.287 58.3339 24.2827 58.3592 24.2737 58.383C24.2646 58.4067 24.251 58.4285 24.2335 58.447C24.216 58.4654 24.1951 58.4803 24.1719 58.4907C24.1487 58.5011 24.1237 58.5068 24.0983 58.5075H24.1176V58.502ZM20.6124 49.2965C20.4638 49.2891 20.3152 49.3117 20.1756 49.363C20.0359 49.4143 19.908 49.4932 19.7996 49.5951C19.6227 49.7803 19.689 49.8992 19.7582 49.9738C20.0346 50.2917 20.9551 50.4106 22.1328 49.9517C21.8415 49.6714 21.4868 49.4656 21.0989 49.3518C20.94 49.3114 20.7763 49.2928 20.6124 49.2965ZM30.5642 44.2515C30.5272 44.2516 30.4905 44.2591 30.4564 44.2736C30.0196 44.4312 29.4142 45.2909 28.8503 46.7201C29.6651 46.3482 30.318 45.6944 30.6886 44.879C30.7909 44.6026 30.7909 44.3787 30.6886 44.2985C30.6531 44.2682 30.6081 44.2516 30.5614 44.2515H30.5642ZM24.6429 39.4414C24.6771 39.4408 24.7109 39.4504 24.7396 39.4691C24.7692 39.4855 24.7937 39.5095 24.8108 39.5387C24.8278 39.5679 24.8366 39.6012 24.8364 39.6349V45.3462C24.8513 45.6239 24.9385 45.8929 25.0893 46.1266C25.2401 46.3603 25.4492 46.5506 25.6961 46.6786C25.9891 46.1081 26.1497 45.4788 26.166 44.8375V38.6204C26.1661 38.5863 26.1751 38.5528 26.1921 38.5233C26.209 38.4937 26.2334 38.4691 26.2628 38.4518L27.3686 37.8132L27.4681 36.2845L26.4535 36.8678C26.4243 36.8853 26.3909 36.8946 26.3568 36.8946C26.3227 36.8946 26.2893 36.8853 26.26 36.8678C26.2303 36.8509 26.2056 36.8264 26.1886 36.7967C26.1715 36.767 26.1628 36.7333 26.1633 36.6991V35.6072C26.1633 35.1234 26.2407 34.8166 26.6553 34.5788L27.4847 34.0978V32.5525L26.5862 33.0722C26.0305 33.3672 25.5702 33.8142 25.2589 34.3609C24.9476 34.9077 24.7981 35.5316 24.8281 36.1601V37.6916C24.828 37.7257 24.819 37.7591 24.802 37.7887C24.7851 37.8183 24.7607 37.8429 24.7313 37.8602L23.9352 38.3191V39.8146L24.5378 39.4691C24.568 39.4491 24.6039 39.4394 24.6401 39.4414H24.6429Z"
            fill="#455A64"
          />
          <path
            d="M103.777 68.4069C105.902 68.4069 107.625 66.684 107.625 64.5588C107.625 62.4336 105.902 60.7108 103.777 60.7108C101.651 60.7108 99.9286 62.4336 99.9286 64.5588C99.9286 66.684 101.651 68.4069 103.777 68.4069Z"
            fill="#455A64"
          />
          <path
            d="M109.687 59.4917C109.681 59.1758 109.706 58.8601 109.762 58.549C109.986 57.5179 109.416 56.4425 108.045 55.6519C105.687 54.289 101.864 54.289 99.5057 55.6519C98.1235 56.4425 97.5706 57.5179 97.789 58.549C97.8441 58.8601 97.8691 59.1758 97.8636 59.4917C97.8664 59.6294 97.883 59.7664 97.9134 59.9008C97.9838 60.1974 98.0255 60.5001 98.0378 60.8047C98.0433 60.9455 98.0628 61.0853 98.0958 61.2222C98.1617 61.4995 98.1978 61.7831 98.2036 62.0681C98.2087 62.1957 98.2263 62.3226 98.2562 62.4468C98.3215 62.7263 98.3594 63.0114 98.3695 63.2982C98.4054 64.0695 98.9224 64.8325 99.948 65.4213C102.057 66.6376 105.477 66.6376 107.592 65.4213C108.609 64.8325 109.134 64.0695 109.17 63.2982C109.179 63.019 109.215 62.7412 109.278 62.4689C109.31 62.3451 109.328 62.2181 109.333 62.0902C109.341 61.8034 109.378 61.5181 109.444 61.2388C109.479 61.1022 109.5 60.9623 109.505 60.8213C109.518 60.5159 109.56 60.2124 109.629 59.9146C109.664 59.7762 109.683 59.6343 109.687 59.4917Z"
            fill="#7C3AED"
          />
          <path
            d="M109.687 59.4917C109.681 59.1758 109.706 58.8601 109.762 58.549C109.986 57.5179 109.416 56.4425 108.045 55.6519C105.687 54.289 101.864 54.289 99.5057 55.6519C98.1235 56.4425 97.5706 57.5179 97.789 58.549C97.8441 58.8601 97.8691 59.1758 97.8636 59.4917C97.8664 59.6294 97.883 59.7664 97.9134 59.9008C97.9838 60.1974 98.0255 60.5001 98.0378 60.8047C98.0433 60.9455 98.0628 61.0853 98.0958 61.2222C98.1617 61.4995 98.1978 61.7831 98.2036 62.0681C98.2087 62.1957 98.2263 62.3226 98.2562 62.4468C98.3215 62.7263 98.3594 63.0114 98.3695 63.2982C98.4054 64.0695 98.9224 64.8325 99.948 65.4213C102.057 66.6376 105.477 66.6376 107.592 65.4213C108.609 64.8325 109.134 64.0695 109.17 63.2982C109.179 63.019 109.215 62.7412 109.278 62.4689C109.31 62.3451 109.328 62.2181 109.333 62.0902C109.341 61.8034 109.378 61.5181 109.444 61.2388C109.479 61.1022 109.5 60.9623 109.505 60.8213C109.518 60.5159 109.56 60.2124 109.629 59.9146C109.664 59.7762 109.683 59.6343 109.687 59.4917Z"
            fill="white"
          />
          <path
            d="M107.838 63.0881C106.579 63.7259 105.188 64.0583 103.777 64.0583C102.366 64.0583 100.974 63.7259 99.7158 63.0881C99.1384 62.7838 98.6549 62.3279 98.317 61.7695C98.2264 61.5927 98.1533 61.4076 98.0986 61.2166C98.1641 61.4959 98.1993 61.7813 98.2036 62.0681C98.2087 62.1957 98.2263 62.3226 98.2562 62.4468V62.491C98.5716 63.2381 99.1218 63.8621 99.8236 64.2685C101.045 64.8861 102.394 65.2078 103.763 65.2078C105.131 65.2078 106.481 64.8861 107.702 64.2685C108.401 63.8624 108.949 63.2406 109.264 62.4966V62.4468C109.296 62.3229 109.315 62.1959 109.319 62.0681C109.327 61.7812 109.364 61.4959 109.43 61.2166C109.376 61.408 109.303 61.5933 109.211 61.7695C108.882 62.3255 108.407 62.7813 107.838 63.0881Z"
            fill="#7C3AED"
          />
          <path
            d="M109.637 59.898C109.668 59.7646 109.684 59.6284 109.687 59.4917C109.681 59.1758 109.706 58.8601 109.762 58.549C109.713 58.7381 109.649 58.923 109.571 59.1019C109.217 59.7349 108.687 60.2516 108.045 60.5891C106.876 61.2636 105.311 61.6037 103.777 61.6092C102.289 61.638 100.819 61.2869 99.5057 60.5891C98.8638 60.2516 98.3337 59.7349 97.9797 59.1019C97.9014 58.923 97.8376 58.7381 97.789 58.549C97.8442 58.8591 97.8692 59.1739 97.8636 59.4889C97.8664 59.6266 97.883 59.7637 97.9134 59.898V59.9257C98.2338 60.7434 98.8252 61.4265 99.5886 61.8607C100.886 62.5165 102.319 62.8581 103.773 62.8581C105.226 62.8581 106.659 62.5165 107.956 61.8607C108.719 61.4263 109.31 60.7432 109.629 59.9257L109.637 59.898Z"
            fill="#7C3AED"
          />
          <path
            d="M103.774 23.4577C101.78 23.4577 99.8059 23.8503 97.964 24.6133C96.122 25.3763 94.4483 26.4946 93.0385 27.9044C91.6287 29.3142 90.5104 30.9878 89.7475 32.8298C88.9845 34.6718 88.5918 36.646 88.5918 38.6398C88.5918 50.6926 98.5437 52.694 98.5437 57.5538C98.5437 58.3278 99.0551 59.1019 100.078 59.6907C102.124 60.8739 105.441 60.8739 107.486 59.6907C108.509 59.1019 109.021 58.3278 109.021 57.5538C109.021 52.694 118.973 50.6926 118.973 38.6398C118.972 34.613 117.372 30.7513 114.524 27.9042C111.676 25.0571 107.815 23.4577 103.788 23.4577H103.774Z"
            fill="#7C3AED"
          />
          <path
            d="M103.774 23.4577C101.78 23.4577 99.8059 23.8503 97.964 24.6133C96.122 25.3763 94.4483 26.4946 93.0385 27.9044C91.6287 29.3142 90.5104 30.9878 89.7475 32.8298C88.9845 34.6718 88.5918 36.646 88.5918 38.6398C88.5918 50.6926 98.5437 52.694 98.5437 57.5538C98.5437 58.3278 99.0551 59.1019 100.078 59.6907C102.124 60.8739 105.441 60.8739 107.486 59.6907C108.509 59.1019 109.021 58.3278 109.021 57.5538C109.021 52.694 118.973 50.6926 118.973 38.6398C118.972 34.613 117.372 30.7513 114.524 27.9042C111.676 25.0571 107.815 23.4577 103.788 23.4577H103.774Z"
            fill="white"
          />
          <path
            d="M100.741 59.3037C99.0661 58.3361 99.0661 56.7687 100.741 55.8012C102.417 54.8336 105.134 54.8336 106.809 55.8012C108.484 56.7687 108.484 58.3361 106.809 59.3037C105.134 60.2712 102.417 60.274 100.741 59.3037Z"
            fill="black"
          />
          <path
            d="M93.4074 33.415C90.9471 33.415 89.106 38.4048 91.2152 44.1962C93.3245 49.9876 96.744 51.685 99.1021 50.9414C101.46 50.1977 101.994 44.2349 100.175 39.8119C98.082 34.7364 95.6742 33.4123 93.4074 33.415Z"
            fill="white"
          />
          <path
            d="M103.99 42.2114C103.66 42.2022 103.339 42.1069 103.058 41.9349C101.853 41.2383 100.869 39.3668 100.869 37.7662C100.869 36.8844 101.167 36.2071 101.698 35.9058C102.14 35.6487 102.696 35.6901 103.262 36.0163C104.471 36.713 105.452 38.5845 105.452 40.1851C105.452 41.0669 105.153 41.7442 104.623 42.0455C104.43 42.1562 104.212 42.2134 103.99 42.2114ZM102.331 36.1297C102.176 36.1295 102.024 36.1685 101.889 36.243C101.491 36.4752 101.261 37.0309 101.261 37.769C101.261 39.2479 102.16 40.9674 103.26 41.6032C103.428 41.7244 103.626 41.7986 103.832 41.818C104.039 41.8374 104.247 41.8015 104.435 41.7138C104.833 41.4816 105.062 40.9259 105.062 40.1878C105.062 38.7089 104.166 36.9894 103.063 36.3536C102.842 36.2141 102.587 36.1359 102.325 36.1269L102.331 36.1297ZM103.713 41.1471C103.488 41.1408 103.269 41.076 103.077 40.9591C102.248 40.4864 101.623 39.2728 101.623 38.1947C101.623 37.5948 101.828 37.1332 102.176 36.9258C102.346 36.8388 102.537 36.7996 102.728 36.8122C102.919 36.8249 103.102 36.889 103.26 36.9977C104.075 37.4704 104.717 38.684 104.717 39.7621C104.717 40.3592 104.509 40.8209 104.164 41.031C104.021 41.1107 103.86 41.1499 103.697 41.1443L103.713 41.1471ZM103.271 40.6218C103.37 40.6932 103.486 40.7374 103.608 40.75C103.73 40.7626 103.853 40.7432 103.965 40.6937C104.202 40.5583 104.338 40.2182 104.338 39.7621C104.338 38.825 103.771 37.7358 103.075 37.335C102.975 37.263 102.859 37.2185 102.737 37.2059C102.615 37.1933 102.492 37.213 102.381 37.2631C102.143 37.3985 102.007 37.7386 102.007 38.1947C102.007 39.1235 102.574 40.2293 103.271 40.6218Z"
            fill="#455A64"
          />
          <path
            d="M105.944 37.9404C105.84 37.9399 105.739 37.9102 105.651 37.8547C105.472 37.7304 105.326 37.5652 105.224 37.3729C105.122 37.1805 105.067 36.9666 105.065 36.7489C105.059 36.6407 105.082 36.533 105.13 36.4361C105.179 36.3392 105.251 36.2565 105.341 36.196C105.422 36.1542 105.512 36.1347 105.602 36.1395C105.693 36.1444 105.78 36.1735 105.856 36.2237C106.034 36.3479 106.181 36.5131 106.283 36.7055C106.385 36.8978 106.439 37.1117 106.442 37.3294C106.447 37.4376 106.425 37.5454 106.376 37.6423C106.328 37.7392 106.255 37.8218 106.165 37.8823C106.098 37.9208 106.022 37.9409 105.944 37.9404ZM105.554 36.5195C105.544 36.5168 105.534 36.5168 105.524 36.5195C105.488 36.5388 105.452 36.619 105.452 36.7461C105.456 36.8954 105.493 37.0419 105.561 37.1749C105.629 37.3079 105.726 37.4239 105.844 37.5146C105.862 37.5281 105.883 37.5373 105.905 37.5416C105.927 37.5459 105.95 37.5452 105.972 37.5395C106.008 37.5174 106.043 37.44 106.043 37.3128C106.041 37.1634 106.004 37.0165 105.936 36.8834C105.868 36.7503 105.77 36.6343 105.651 36.5443C105.619 36.5267 105.583 36.5181 105.546 36.5195H105.554Z"
            fill="#455A64"
          />
          <path
            d="M104.885 58.502C104.86 58.5013 104.835 58.4956 104.812 58.4852C104.788 58.4748 104.767 58.4599 104.75 58.4414C104.733 58.423 104.719 58.4012 104.71 58.3774C104.701 58.3537 104.696 58.3284 104.697 58.303C104.697 58.2615 104.824 54.3692 105.446 51.7707C105.585 51.1617 105.85 50.5889 106.226 50.0899C105.752 49.8502 105.303 49.5621 104.888 49.2302C104.183 48.6746 103.59 47.9897 103.141 47.2122C102.393 47.4893 101.58 47.5431 100.802 47.367C101.053 48.1205 101.262 48.8874 101.427 49.6642C101.943 51.9922 102.216 54.3677 102.24 56.7521C102.24 56.8027 102.22 56.8512 102.184 56.887C102.148 56.9228 102.1 56.9429 102.049 56.9429C102.024 56.9425 101.998 56.9372 101.975 56.9271C101.952 56.917 101.931 56.9025 101.913 56.8842C101.895 56.866 101.881 56.8445 101.872 56.8209C101.862 56.7972 101.858 56.772 101.858 56.7466C101.832 54.3935 101.561 52.0495 101.048 49.7527C100.868 48.8994 100.634 48.0583 100.349 47.2343C99.823 47.0435 99.3407 46.7496 98.9301 46.3698C98.5194 45.99 98.1888 45.5321 97.9576 45.0228C97.789 44.5694 97.836 44.1934 98.082 44.0027C98.166 43.9354 98.2665 43.892 98.373 43.8769C98.4795 43.8619 98.5881 43.8757 98.6874 43.917C99.3288 44.1465 100.045 45.2826 100.647 46.9247C101.032 47.0491 101.435 47.1043 101.839 47.0878C102.222 47.0771 102.601 47.0053 102.961 46.8749C102.643 46.2608 102.47 45.5817 102.455 44.8901V44.6523C102.45 44.6123 102.435 44.574 102.413 44.5401C102.392 44.5062 102.362 44.4775 102.328 44.4561L99.7213 42.9522C99.4097 42.7337 99.1545 42.4444 98.9767 42.1079C98.7989 41.7715 98.7035 41.3976 98.6985 41.0171V31.3417C98.6757 31.1608 98.7029 30.9771 98.7769 30.8105C98.851 30.6439 98.9691 30.5007 99.1187 30.3963C99.244 30.331 99.3848 30.3008 99.526 30.3091C99.6672 30.3174 99.8034 30.3637 99.9203 30.4433L107.182 34.6369C107.494 34.8552 107.75 35.1445 107.928 35.4809C108.107 35.8173 108.202 36.1913 108.208 36.572V46.2474C108.225 46.4236 108.196 46.6012 108.123 46.7623C108.049 46.9235 107.935 47.0624 107.791 47.1652C107.665 47.2301 107.524 47.2598 107.383 47.251C107.242 47.2423 107.106 47.1954 106.989 47.1154L104.531 45.6973C104.462 45.9771 104.335 46.239 104.157 46.4658C103.979 46.6927 103.755 46.8792 103.5 47.0131C103.92 47.7484 104.479 48.3952 105.145 48.9178C105.563 49.2558 106.019 49.5452 106.502 49.7803C106.864 49.4013 107.32 49.1264 107.824 48.9842C108.496 48.8017 109.123 48.9261 109.502 49.3214C109.628 49.4277 109.707 49.5798 109.721 49.7441C109.735 49.9085 109.683 50.0716 109.576 50.1977L109.549 50.2281C109.123 50.7008 107.99 50.8391 106.602 50.2503C106.231 50.7219 105.97 51.2707 105.839 51.8564C105.225 54.4134 105.101 58.2698 105.098 58.3085C105.098 58.334 105.093 58.3593 105.083 58.3828C105.073 58.4063 105.059 58.4276 105.04 58.4454C105.022 58.4631 105 58.4771 104.976 58.4863C104.953 58.4956 104.927 58.5 104.902 58.4992L104.885 58.502ZM106.867 49.9517C108.045 50.4106 108.954 50.2917 109.242 49.9738C109.311 49.8992 109.38 49.7803 109.203 49.5951C109.026 49.4469 108.813 49.3475 108.586 49.3068C108.358 49.266 108.124 49.2854 107.907 49.3629C107.518 49.4734 107.162 49.6753 106.867 49.9517ZM104.482 45.3103C104.552 45.3116 104.621 45.3316 104.681 45.3683L107.169 46.8086C107.227 46.8511 107.296 46.8778 107.368 46.886C107.441 46.8942 107.514 46.8837 107.58 46.8556C107.663 46.7849 107.727 46.6949 107.766 46.5936C107.805 46.4922 107.818 46.3828 107.804 46.275V36.5996C107.799 36.2865 107.721 35.9789 107.578 35.7008C107.434 35.4227 107.228 35.1815 106.975 34.9963L99.7102 30.8027C99.6519 30.7592 99.5832 30.7317 99.5109 30.723C99.4387 30.7143 99.3654 30.7246 99.2983 30.7529C99.2165 30.824 99.1535 30.9142 99.1149 31.0154C99.0764 31.1167 99.0634 31.2259 99.0772 31.3334V41.0089C99.0829 41.3219 99.1608 41.6293 99.3046 41.9074C99.4484 42.1855 99.6544 42.4266 99.9065 42.6122L102.511 44.1133C102.603 44.1701 102.68 44.2482 102.736 44.341C102.792 44.4339 102.824 44.5387 102.831 44.6468V44.8818C102.849 45.5153 103.01 46.1365 103.304 46.698C103.511 46.5896 103.693 46.4376 103.836 46.2525C103.979 46.0673 104.081 45.8534 104.133 45.6254C104.142 45.5666 104.166 45.5108 104.201 45.4627C104.236 45.4146 104.282 45.3756 104.335 45.349C104.38 45.3248 104.43 45.3116 104.482 45.3103ZM98.4414 44.2515C98.3947 44.2516 98.3497 44.2682 98.3142 44.2985C98.2119 44.3787 98.2119 44.6026 98.3142 44.879C98.6895 45.6914 99.3451 46.3411 100.161 46.7091C99.6079 45.2799 98.9942 44.4201 98.5547 44.2626C98.5182 44.2505 98.4795 44.2468 98.4414 44.2515Z"
            fill="#455A64"
          />
          <path
            d="M107.102 45.982C107.068 45.9827 107.034 45.9731 107.006 45.9544L99.6937 41.7331C99.6639 41.7163 99.6392 41.6917 99.6222 41.6621C99.6052 41.6324 99.5964 41.5987 99.5969 41.5645V31.8144C99.597 31.7804 99.606 31.7469 99.6229 31.7173C99.6399 31.6877 99.6643 31.6631 99.6937 31.6458C99.7233 31.6296 99.7566 31.6211 99.7904 31.6211C99.8242 31.6211 99.8575 31.6296 99.8872 31.6458L107.199 35.8698C107.229 35.8862 107.253 35.9103 107.27 35.9395C107.287 35.9687 107.296 36.0019 107.296 36.0357V45.7885C107.296 45.8223 107.287 45.8555 107.27 45.8847C107.253 45.9139 107.229 45.938 107.199 45.9544C107.17 45.9731 107.137 45.9827 107.102 45.982ZM99.9839 41.4567L106.909 45.454V36.149L99.9839 32.1517V41.4567Z"
            fill="#455A64"
          />
          <path
            d="M66.6548 53.9655C68.379 52.7229 68.7693 50.3179 67.5268 48.5938C66.2842 46.8697 63.8792 46.4793 62.1551 47.7219C60.431 48.9644 60.0406 51.3694 61.2832 53.0935C62.5257 54.8176 64.9307 55.208 66.6548 53.9655Z"
            fill="#455A64"
          />
          <path
            d="M70.3053 45.7775C70.2998 45.4616 70.3248 45.1459 70.3799 44.8348C70.6038 43.8037 70.0344 42.7283 68.6632 41.9377C66.3052 40.5748 62.482 40.5748 60.124 41.9377C58.7418 42.7283 58.1889 43.8037 58.4073 44.8348C58.4624 45.1459 58.4874 45.4616 58.4819 45.7775C58.4847 45.9142 58.5014 46.0504 58.5317 46.1838C58.6021 46.4814 58.6438 46.785 58.6561 47.0905C58.6611 47.2315 58.6815 47.3715 58.7169 47.508C58.7827 47.7873 58.8198 48.0726 58.8275 48.3594C58.8321 48.4873 58.8507 48.6143 58.8828 48.7381C58.9473 49.0177 58.9843 49.3028 58.9933 49.5896C59.0293 50.3608 59.5462 51.1238 60.5718 51.7099C62.6838 52.929 66.1006 52.929 68.2154 51.7099C69.2327 51.1238 69.7579 50.3608 69.7939 49.5896C69.8039 49.3027 69.8419 49.0176 69.9072 48.7381C69.9371 48.6139 69.9547 48.4871 69.9597 48.3594C69.967 48.0724 70.005 47.7869 70.0731 47.508C70.1061 47.3711 70.1256 47.2313 70.1311 47.0905C70.1434 46.785 70.1851 46.4814 70.2555 46.1838C70.286 46.0504 70.3027 45.9143 70.3053 45.7775Z"
            fill="#7C3AED"
          />
          <path
            d="M70.3053 45.7775C70.2998 45.4616 70.3248 45.1459 70.3799 44.8348C70.6038 43.8037 70.0344 42.7283 68.6632 41.9377C66.3052 40.5748 62.482 40.5748 60.124 41.9377C58.7418 42.7283 58.1889 43.8037 58.4073 44.8348C58.4624 45.1459 58.4874 45.4616 58.4819 45.7775C58.4847 45.9142 58.5014 46.0504 58.5317 46.1838C58.6021 46.4814 58.6438 46.785 58.6561 47.0905C58.6611 47.2315 58.6815 47.3715 58.7169 47.508C58.7827 47.7873 58.8198 48.0726 58.8275 48.3594C58.8321 48.4873 58.8507 48.6143 58.8828 48.7381C58.9473 49.0177 58.9843 49.3028 58.9933 49.5896C59.0293 50.3608 59.5462 51.1238 60.5718 51.7099C62.6838 52.929 66.1006 52.929 68.2154 51.7099C69.2327 51.1238 69.7579 50.3608 69.7939 49.5896C69.8039 49.3027 69.8419 49.0176 69.9072 48.7381C69.9371 48.6139 69.9547 48.4871 69.9597 48.3594C69.967 48.0724 70.005 47.7869 70.0731 47.508C70.1061 47.3711 70.1256 47.2313 70.1311 47.0905C70.1434 46.785 70.1851 46.4814 70.2555 46.1838C70.286 46.0504 70.3027 45.9143 70.3053 45.7775Z"
            fill="white"
          />
          <path
            d="M68.4669 49.3739C67.2083 50.0117 65.8171 50.3441 64.406 50.3441C62.995 50.3441 61.6038 50.0117 60.3451 49.3739C59.7687 49.0683 59.2854 48.6128 58.9463 48.0553C58.857 47.878 58.7839 47.693 58.728 47.5024C58.7936 47.7808 58.8307 48.0652 58.8385 48.3511C58.8432 48.479 58.8617 48.606 58.8938 48.7298V48.7741C59.2081 49.521 59.7574 50.1451 60.4585 50.5516C61.6798 51.1691 63.0292 51.4909 64.3978 51.4909C65.7663 51.4909 67.1157 51.1691 68.337 50.5516C69.0365 50.1452 69.5847 49.5223 69.8989 48.7768V48.7298C69.9288 48.6056 69.9464 48.4788 69.9514 48.3511C69.9587 48.0641 69.9967 47.7786 70.0648 47.4997C70.0091 47.6907 69.935 47.8758 69.8436 48.0526C69.5114 48.6084 69.036 49.0648 68.4669 49.3739Z"
            fill="#7C3AED"
          />
          <path
            d="M70.2666 46.1838C70.2971 46.0504 70.3137 45.9143 70.3163 45.7774C70.3108 45.4616 70.3358 45.1459 70.391 44.8348C70.3445 45.0245 70.2806 45.2096 70.2002 45.3877C69.8488 46.021 69.3192 46.5371 68.677 46.8722C67.3536 47.544 65.8903 47.8942 64.406 47.8942C62.9218 47.8942 61.4585 47.544 60.135 46.8722C59.4929 46.5371 58.9633 46.021 58.6119 45.3877C58.5293 45.2102 58.4645 45.025 58.4183 44.8348C58.4736 45.1449 58.4986 45.4597 58.493 45.7747C58.4958 45.9115 58.5124 46.0476 58.5427 46.181V46.2087C58.8611 47.0268 59.4518 47.7102 60.2152 48.1438C61.5129 48.7995 62.9465 49.1412 64.4005 49.1412C65.8545 49.1412 67.2881 48.7995 68.5858 48.1438C69.3435 47.7071 69.9288 47.0242 70.2445 46.2087L70.2666 46.1838Z"
            fill="#7C3AED"
          />
          <path
            d="M64.406 9.74344C62.4123 9.74308 60.438 10.1354 58.5959 10.8981C56.7538 11.6607 55.0799 12.7787 53.6699 14.1882C52.2598 15.5978 51.1412 17.2712 50.3779 19.1131C49.6146 20.9549 49.2215 22.929 49.2212 24.9228C49.2212 36.9784 59.173 38.9798 59.173 43.8368C59.173 44.6109 59.6844 45.3849 60.7073 45.9765C62.7529 47.1569 66.0702 47.1569 68.1159 45.9765C69.1387 45.3849 69.6501 44.6109 69.6501 43.8368C69.6501 38.9798 79.602 36.9784 79.602 24.9228C79.602 20.8962 78.0024 17.0346 75.1552 14.1874C72.308 11.3402 68.4464 9.74068 64.4199 9.74068L64.406 9.74344Z"
            fill="#7C3AED"
          />
          <path
            d="M64.406 9.74344C62.4123 9.74308 60.438 10.1354 58.5959 10.8981C56.7538 11.6607 55.0799 12.7787 53.6699 14.1882C52.2598 15.5978 51.1412 17.2712 50.3779 19.1131C49.6146 20.9549 49.2215 22.929 49.2212 24.9228C49.2212 36.9784 59.173 38.9798 59.173 43.8368C59.173 44.6109 59.6844 45.3849 60.7073 45.9765C62.7529 47.1569 66.0702 47.1569 68.1159 45.9765C69.1387 45.3849 69.6501 44.6109 69.6501 43.8368C69.6501 38.9798 79.602 36.9784 79.602 24.9228C79.602 20.8962 78.0024 17.0346 75.1552 14.1874C72.308 11.3402 68.4464 9.74068 64.4199 9.74068L64.406 9.74344Z"
            fill="white"
          />
          <path
            d="M61.3707 45.6033C59.6955 44.6357 59.6955 43.0683 61.3707 42.1008C63.046 41.1333 65.7634 41.1333 67.4524 42.1008C69.1415 43.0683 69.1276 44.6357 67.4524 45.6033C65.7772 46.5708 63.046 46.5598 61.3707 45.6033Z"
            fill="black"
          />
          <path
            d="M54.0395 19.7008C51.5764 19.7008 49.7354 24.6768 51.8446 30.482C53.9538 36.2873 57.3734 37.9708 59.7314 37.2271C62.0895 36.4835 62.623 30.5207 60.804 26.0977C58.7114 21.0222 56.3036 19.6981 54.0395 19.7008Z"
            fill="white"
          />
          <path
            d="M64.442 33.6887C64.4109 33.689 64.3802 33.6816 64.3528 33.6671C64.3253 33.6526 64.3018 33.6315 64.2844 33.6058C63.4717 32.4779 63.093 31.2007 63.3086 30.3438C62.9421 30.3935 62.5727 30.4184 62.2028 30.4184C60.8272 30.4228 59.4791 30.0323 58.3188 29.2933C58.281 29.2701 58.2524 29.2346 58.2377 29.1927C58.2229 29.1509 58.223 29.1053 58.2379 29.0635C58.2528 29.0217 58.2816 28.9863 58.3195 28.9632C58.3574 28.9402 58.402 28.9308 58.446 28.9367C59.531 29.069 60.6285 28.8229 61.5532 28.2401C61.0976 28.1402 60.6762 27.9225 60.3313 27.6086C59.9863 27.2947 59.7299 26.8957 59.5877 26.4515C59.5777 26.4194 59.5762 26.3853 59.5832 26.3524C59.5902 26.3195 59.6055 26.289 59.6277 26.2637C59.6499 26.2385 59.6782 26.2193 59.7099 26.2082C59.7417 26.197 59.7757 26.1942 59.8088 26.1999C59.8863 26.2166 59.9648 26.2277 60.0438 26.2331C59.6339 25.9962 59.2945 25.6544 59.0603 25.2429C58.8261 24.8315 58.7057 24.3651 58.7114 23.8917C58.7122 23.8581 58.7218 23.8254 58.7392 23.7968C58.7567 23.7681 58.7814 23.7446 58.8109 23.7286C58.8401 23.7123 58.8729 23.7038 58.9063 23.7038C58.9396 23.7038 58.9725 23.7123 59.0016 23.7286C59.123 23.7971 59.2508 23.8536 59.3831 23.8972C59.0213 23.4759 58.8002 22.9521 58.7507 22.3989C58.7011 21.8458 58.8256 21.291 59.1067 20.8121C59.12 20.7891 59.1379 20.7691 59.1592 20.7532C59.1805 20.7373 59.2048 20.7259 59.2307 20.7197C59.2565 20.7135 59.2834 20.7126 59.3096 20.7171C59.3358 20.7216 59.3608 20.7313 59.3831 20.7458C59.4007 20.7573 59.4165 20.7713 59.4301 20.7872C60.0074 21.4949 60.7208 22.0797 61.5279 22.5071C62.3351 22.9344 63.2198 23.1956 64.1296 23.2752C64.0368 22.5756 64.225 21.8678 64.653 21.3067C65.0809 20.7456 65.7138 20.3769 66.413 20.2813C66.5267 20.267 66.6412 20.2596 66.7558 20.2592C67.4545 20.2593 68.1254 20.5332 68.6245 21.0222C69.119 20.9136 69.593 20.727 70.0288 20.4693C70.0607 20.4466 70.0989 20.4344 70.138 20.4344C70.1772 20.4344 70.2154 20.4466 70.2472 20.4693C70.2786 20.4939 70.3017 20.5274 70.3136 20.5654C70.3254 20.6034 70.3254 20.6442 70.3136 20.6822C70.199 21.039 70.0106 21.3677 69.7607 21.647C69.9737 21.5864 70.1824 21.5116 70.3854 21.423C70.4237 21.4056 70.4667 21.4012 70.5077 21.4107C70.5487 21.4202 70.5854 21.443 70.6121 21.4756C70.6364 21.5094 70.6495 21.55 70.6495 21.5917C70.6495 21.6333 70.6364 21.6739 70.6121 21.7078C70.287 22.194 69.8823 22.622 69.4151 22.9739C69.4629 24.3887 69.0958 25.7866 68.359 26.9955C67.6222 28.2043 66.548 29.1712 65.2685 29.7771C65.9486 30.4682 65.6611 32.1213 64.5968 33.6058C64.5797 33.6312 64.5566 33.652 64.5297 33.6664C64.5027 33.6809 64.4726 33.6885 64.442 33.6887ZM63.3362 29.954C63.3886 29.9549 63.4402 29.9667 63.4878 29.9886C63.5354 30.0105 63.5779 30.042 63.6127 30.0812C63.6523 30.1262 63.6803 30.1802 63.6943 30.2385C63.7082 30.2968 63.7077 30.3576 63.6928 30.4157C63.5076 31.0985 63.8062 32.1738 64.442 33.1497C65.3349 31.784 65.4316 30.4848 64.9949 30.0259C64.953 29.9837 64.922 29.932 64.9046 29.8751C64.8873 29.8183 64.8841 29.758 64.8953 29.6997C64.9063 29.6396 64.9317 29.5831 64.9692 29.535C65.0068 29.4869 65.0554 29.4485 65.111 29.4232C66.3322 28.8351 67.3551 27.9031 68.0539 26.7416C68.7527 25.5802 69.0971 24.2399 69.0447 22.8854C69.0432 22.8533 69.0498 22.8213 69.0638 22.7923C69.0778 22.7634 69.0988 22.7384 69.1249 22.7196C69.412 22.5125 69.6753 22.2742 69.91 22.0091C69.6388 22.0889 69.3614 22.1453 69.0806 22.1777C69.0366 22.1843 68.9917 22.1747 68.9542 22.1509C68.9166 22.127 68.8889 22.0904 68.8761 22.0478C68.8616 22.0063 68.862 21.961 68.8771 21.9197C68.8923 21.8784 68.9212 21.8436 68.959 21.8211C69.274 21.6305 69.5386 21.367 69.7303 21.0526C69.3763 21.2128 69.0054 21.3324 68.6245 21.4092C68.5923 21.4158 68.559 21.4142 68.5276 21.4045C68.4962 21.3948 68.4678 21.3775 68.4448 21.3539C68.1018 20.9912 67.6489 20.7513 67.156 20.6714C66.6631 20.5915 66.1576 20.676 65.7175 20.9117C65.2774 21.1475 64.927 21.5216 64.7205 21.9761C64.514 22.4307 64.4627 22.9406 64.5747 23.4272C64.5812 23.4566 64.5808 23.4872 64.5736 23.5164C64.5664 23.5456 64.5526 23.5728 64.5332 23.5959C64.5145 23.6193 64.4904 23.6378 64.4629 23.6498C64.4355 23.6619 64.4055 23.6671 64.3756 23.665C63.4167 23.616 62.4771 23.3763 61.6118 22.9601C60.7466 22.5438 59.9729 21.9593 59.3361 21.2406C59.1286 21.729 59.0978 22.2745 59.2492 22.7831C59.4006 23.2918 59.7246 23.7317 60.1654 24.0271C60.2008 24.0504 60.2274 24.0847 60.2414 24.1246C60.2554 24.1646 60.2559 24.208 60.2428 24.2483C60.2294 24.2881 60.2037 24.3226 60.1695 24.347C60.1352 24.3713 60.0941 24.3842 60.0521 24.3837C59.742 24.3731 59.4361 24.3086 59.1481 24.193C59.2119 24.6621 59.419 25.1 59.7411 25.4468C60.0633 25.7937 60.4847 26.0326 60.9478 26.1308C60.9898 26.1405 61.0275 26.1638 61.0549 26.1971C61.0824 26.2304 61.0981 26.2718 61.0997 26.3149C61.1013 26.358 61.0886 26.4004 61.0636 26.4356C61.0387 26.4708 61.0028 26.4968 60.9616 26.5096C60.6799 26.5858 60.3876 26.6157 60.0963 26.598C60.2794 26.9776 60.5641 27.299 60.9189 27.5265C61.2737 27.7539 61.6847 27.8784 62.1061 27.8862C62.1462 27.8866 62.1851 27.8997 62.2174 27.9235C62.2496 27.9473 62.2735 27.9807 62.2857 28.0189C62.2983 28.0566 62.2989 28.0973 62.2875 28.1354C62.2762 28.1735 62.2533 28.2071 62.2222 28.2318C61.3708 28.9064 60.3274 29.2935 59.2421 29.3375C60.1725 29.7929 61.1947 30.0293 62.2305 30.0286C62.5865 30.0286 62.9422 30.0037 63.2948 29.954H63.3362Z"
            fill="#455A64"
          />
          <path
            d="M59.3942 36.4338C58.164 36.4338 57.2241 35.9666 56.9366 35.3888C56.8561 35.243 56.8292 35.0736 56.8605 34.91C56.8918 34.7464 56.9794 34.5989 57.108 34.4931C57.2512 34.3677 57.4204 34.2754 57.6034 34.2228C57.7864 34.1702 57.9788 34.1587 58.1668 34.1891C58.9602 34.2913 59.8254 34.9631 60.5386 36.0329C60.5563 36.0596 60.567 36.0902 60.5699 36.1221C60.5728 36.1539 60.5677 36.186 60.5552 36.2154C60.5435 36.2451 60.5244 36.2714 60.4998 36.2917C60.4751 36.312 60.4457 36.3257 60.4142 36.3315C60.0786 36.4001 59.7368 36.4344 59.3942 36.4338ZM57.9622 34.565C57.7429 34.561 57.5301 34.6389 57.3651 34.7834C57.3003 34.833 57.2562 34.9048 57.2414 34.985C57.2266 35.0652 57.2421 35.148 57.2849 35.2174C57.5144 35.6791 58.5317 36.2126 60.0493 36.0025C59.4439 35.1732 58.7362 34.6535 58.1143 34.5761C58.064 34.5683 58.0131 34.5646 57.9622 34.565Z"
            fill="#455A64"
          />
          <path
            d="M66.5208 43.823C66.4704 43.823 66.422 43.8034 66.3859 43.7683C66.3498 43.7332 66.3287 43.6854 66.3273 43.635C66.3377 41.66 66.7068 39.7033 67.4165 37.8602C67.6237 37.3039 67.8838 36.7689 68.1933 36.2624C67.6739 36.1315 67.1718 35.9394 66.6977 35.6901C65.8189 35.2337 65.0494 34.5924 64.442 33.8103C63.4978 35.0207 62.1783 35.8832 60.6907 36.2624C60.9975 36.7691 61.2549 37.3042 61.4592 37.8602C62.173 39.7027 62.5477 41.6592 62.5649 43.635C62.5621 43.6856 62.5398 43.7332 62.5027 43.7677C62.4656 43.8022 62.4166 43.821 62.3659 43.8202C62.3409 43.8199 62.3161 43.8146 62.2931 43.8047C62.2701 43.7948 62.2493 43.7804 62.2318 43.7624C62.2144 43.7445 62.2006 43.7232 62.1914 43.6999C62.1821 43.6767 62.1776 43.6518 62.1779 43.6267C62.1549 41.7091 61.7946 39.8105 61.1136 38.0178C60.884 37.401 60.5854 36.8121 60.2235 36.2624C60.2059 36.2357 60.1951 36.2051 60.1922 36.1732C60.1894 36.1414 60.1944 36.1093 60.2069 36.0799C60.2194 36.0507 60.2388 36.0249 60.2633 36.0047C60.2878 35.9845 60.3168 35.9705 60.3479 35.9638C60.9263 35.8444 61.4847 35.6433 62.0065 35.3667C62.9098 34.8973 63.6901 34.2221 64.2844 33.3957C64.317 33.3553 64.3639 33.329 64.4154 33.3223C64.4669 33.3156 64.519 33.329 64.5609 33.3597C64.5742 33.3703 64.5862 33.3824 64.5968 33.3957C65.1907 34.2215 65.9699 34.8965 66.8719 35.3667C67.3937 35.6433 67.9522 35.8444 68.5305 35.9638C68.5616 35.9705 68.5906 35.9845 68.6151 36.0047C68.6397 36.0249 68.659 36.0507 68.6715 36.0799C68.684 36.1093 68.6891 36.1414 68.6862 36.1732C68.6833 36.2051 68.6726 36.2357 68.6549 36.2624C68.294 36.8122 67.9963 37.4011 67.7676 38.0178C67.0879 39.8145 66.7304 41.7169 66.7116 43.6378C66.7131 43.6894 66.6942 43.7395 66.659 43.7773C66.6238 43.815 66.5751 43.8374 66.5236 43.8396L66.5208 43.823Z"
            fill="#455A64"
          />
          <path
            d="M69.4898 36.4338C69.1472 36.4344 68.8054 36.4001 68.4697 36.3315C68.438 36.3256 68.4082 36.312 68.3831 36.2917C68.358 36.2714 68.3383 36.2452 68.326 36.2154C68.3138 36.1857 68.3093 36.1535 68.3126 36.1217C68.316 36.0899 68.3273 36.0594 68.3453 36.0329C69.0585 34.9631 69.9238 34.2914 70.7172 34.1891C70.9052 34.1595 71.0973 34.1714 71.2802 34.2239C71.4631 34.2764 71.6323 34.3683 71.7759 34.4931C71.9046 34.5989 71.9922 34.7464 72.0235 34.91C72.0548 35.0736 72.0278 35.243 71.9473 35.3888C71.6654 35.9666 70.7199 36.4338 69.4898 36.4338ZM68.8429 36.0025C70.3495 36.2126 71.3696 35.6791 71.6073 35.2174C71.6486 35.1474 71.663 35.0647 71.6477 34.9848C71.6324 34.9049 71.5886 34.8333 71.5244 34.7834C71.4233 34.6944 71.3034 34.6296 71.1736 34.5937C71.0439 34.5577 70.9077 34.5517 70.7752 34.5761C70.1532 34.6535 69.4538 35.1815 68.8429 36.0025Z"
            fill="#455A64"
          />
          <path
            d="M35.601 54.806C35.4639 54.806 35.3324 54.7515 35.2354 54.6546C35.1385 54.5576 35.084 54.4261 35.084 54.289C35.0856 54.1496 35.1422 54.0164 35.2416 53.9186C38.1221 51.1183 42.4788 46.8915 42.4788 38.6425C42.5361 34.0669 40.7735 29.6558 37.5788 26.3797C34.384 23.1035 30.0188 21.2304 25.4431 21.1725C20.8675 21.1146 16.4562 22.8765 13.1796 26.0708C9.90294 29.2651 8.02929 33.6301 7.97074 38.2057C7.97074 38.3523 7.97074 38.4822 7.97074 38.6425C7.97074 46.8915 12.3274 51.1183 15.2079 53.9186C15.3062 54.0143 15.3624 54.1451 15.3642 54.2822C15.366 54.4193 15.3133 54.5516 15.2176 54.6498C15.1219 54.748 14.9912 54.8043 14.854 54.8061C14.7169 54.8079 14.5847 54.7552 14.4864 54.6595C11.4788 51.7403 6.93409 47.3283 6.93409 38.6425C6.9045 36.2406 7.34831 33.8563 8.24016 31.6258C9.13202 29.3954 10.4545 27.3624 12.132 25.6431C13.8095 23.9237 15.8093 22.5516 18.0171 21.6051C20.2249 20.6585 22.5975 20.1561 24.9995 20.1265C27.4014 20.097 29.7857 20.5408 32.0162 21.4326C34.2466 22.3245 36.2795 23.6469 37.9989 25.3244C39.7183 27.002 41.0904 29.0017 42.0369 31.2095C42.9835 33.4173 43.4859 35.79 43.5154 38.1919C43.5154 38.344 43.5154 38.4932 43.5154 38.6425C43.5154 47.3283 38.9708 51.7403 35.9631 54.6595C35.866 54.7536 35.7361 54.8061 35.601 54.806Z"
            fill="#F5F5F5"
          />
          <path
            d="M25.2234 18.8853C25.0862 18.8846 24.9549 18.83 24.8577 18.7333C24.7604 18.6366 24.7051 18.5055 24.7037 18.3684V15.0953C24.7132 14.9644 24.772 14.8419 24.8682 14.7526C24.9643 14.6632 25.0907 14.6135 25.222 14.6135C25.3533 14.6135 25.4797 14.6632 25.5758 14.7526C25.672 14.8419 25.7308 14.9644 25.7403 15.0953V18.3684C25.7403 18.4363 25.727 18.5035 25.701 18.5662C25.675 18.6289 25.6369 18.6859 25.5889 18.7339C25.5409 18.7819 25.4839 18.82 25.4212 18.846C25.3585 18.872 25.2913 18.8853 25.2234 18.8853Z"
            fill="#F5F5F5"
          />
          <path
            d="M15.0891 21.6027C14.9982 21.6026 14.9089 21.5785 14.8303 21.5329C14.7517 21.4873 14.6865 21.4217 14.6412 21.3429L13.0047 18.5121C12.9706 18.4526 12.9485 18.3869 12.9398 18.3189C12.931 18.2508 12.9358 18.1817 12.9538 18.1154C12.9717 18.0492 13.0026 17.9872 13.0445 17.9329C13.0865 17.8786 13.1387 17.833 13.1982 17.7989C13.2578 17.7648 13.3234 17.7427 13.3915 17.734C13.4596 17.7252 13.5287 17.73 13.5949 17.748C13.7287 17.7842 13.8425 17.8722 13.9114 17.9924L15.548 20.8259C15.5822 20.8847 15.6045 20.9497 15.6136 21.0171C15.6227 21.0845 15.6183 21.1531 15.6009 21.2188C15.5834 21.2845 15.5531 21.3462 15.5118 21.4002C15.4705 21.4542 15.4189 21.4996 15.36 21.5336C15.2808 21.5787 15.1913 21.6025 15.1001 21.6027H15.0891Z"
            fill="#F5F5F5"
          />
          <path
            d="M7.66666 29.0169C7.57641 29.0165 7.48781 28.9927 7.40957 28.9478L4.57329 27.3112C4.51393 27.2771 4.46188 27.2316 4.4201 27.1774C4.37832 27.1231 4.34764 27.0612 4.3298 26.9951C4.31196 26.929 4.30731 26.86 4.31612 26.7921C4.32494 26.7242 4.34704 26.6588 4.38116 26.5994C4.41529 26.54 4.46077 26.488 4.51501 26.4462C4.56925 26.4044 4.63119 26.3738 4.69729 26.3559C4.76339 26.3381 4.83235 26.3334 4.90025 26.3422C4.96815 26.351 5.03364 26.3731 5.093 26.4073L7.92651 28.0659C8.02524 28.1228 8.10239 28.2108 8.14596 28.3161C8.18954 28.4214 8.19709 28.5382 8.16745 28.6482C8.13781 28.7582 8.07264 28.8554 7.98207 28.9246C7.89151 28.9937 7.78062 29.0311 7.66666 29.0307V29.0169Z"
            fill="#F5F5F5"
          />
          <path
            d="M4.95201 39.1595H1.67896C1.54803 39.1499 1.42557 39.0911 1.33619 38.995C1.24681 38.8988 1.19713 38.7724 1.19713 38.6411C1.19713 38.5099 1.24681 38.3834 1.33619 38.2873C1.42557 38.1911 1.54803 38.1324 1.67896 38.1228H4.95201C5.08294 38.1324 5.2054 38.1911 5.29478 38.2873C5.38416 38.3834 5.43384 38.5099 5.43384 38.6411C5.43384 38.7724 5.38416 38.8988 5.29478 38.995C5.2054 39.0911 5.08294 39.1499 4.95201 39.1595Z"
            fill="#F5F5F5"
          />
          <path
            d="M4.83314 50.9331C4.71945 50.9322 4.60916 50.8941 4.5192 50.8246C4.42923 50.7551 4.36454 50.658 4.33505 50.5482C4.30556 50.4384 4.31289 50.3219 4.35592 50.2167C4.39895 50.1114 4.47531 50.0232 4.57329 49.9655L7.40957 48.329C7.5287 48.2604 7.6702 48.242 7.80291 48.2778C7.93563 48.3136 8.0487 48.4006 8.11725 48.5197C8.1858 48.6389 8.20422 48.7804 8.16845 48.9131C8.13268 49.0458 8.04565 49.1589 7.92651 49.2274L5.093 50.8557C5.01444 50.9033 4.92496 50.9299 4.83314 50.9331Z"
            fill="#F5F5F5"
          />
          <path
            d="M45.6164 50.9331C45.5253 50.9325 45.4359 50.9087 45.3565 50.8639L42.523 49.2274C42.4039 49.1589 42.3168 49.0458 42.2811 48.9131C42.2453 48.7804 42.2637 48.6389 42.3323 48.5197C42.4008 48.4006 42.5139 48.3136 42.6466 48.2778C42.7793 48.242 42.9208 48.2604 43.04 48.329L45.8762 49.9655C45.9742 50.0232 46.0506 50.1114 46.0936 50.2167C46.1366 50.3219 46.144 50.4384 46.1145 50.5482C46.085 50.658 46.0203 50.7551 45.9303 50.8246C45.8404 50.8941 45.7301 50.9322 45.6164 50.9331Z"
            fill="#F5F5F5"
          />
          <path
            d="M45.4975 39.1595C45.3666 39.1499 45.2441 39.0911 45.1548 38.995C45.0654 38.8988 45.0157 38.7724 45.0157 38.6411C45.0157 38.5099 45.0654 38.3834 45.1548 38.2873C45.2441 38.1911 45.3666 38.1324 45.4975 38.1228H48.7706C48.8391 38.117 48.9081 38.1249 48.9736 38.146C49.0391 38.1671 49.0998 38.2009 49.1521 38.2456C49.2043 38.2903 49.2472 38.345 49.2783 38.4064C49.3093 38.4678 49.3278 38.5347 49.3327 38.6033C49.3377 38.672 49.3289 38.7409 49.307 38.8061C49.2851 38.8713 49.2505 38.9315 49.2052 38.9833C49.1598 39.035 49.1046 39.0772 49.0429 39.1075C48.9811 39.1377 48.9139 39.1554 48.8452 39.1595H45.4975Z"
            fill="#F5F5F5"
          />
          <path
            d="M42.7829 29.0169C42.6689 29.0172 42.558 28.9799 42.4675 28.9107C42.3769 28.8416 42.3117 28.7444 42.2821 28.6344C42.2524 28.5243 42.26 28.4076 42.3036 28.3023C42.3471 28.197 42.4243 28.109 42.523 28.0521L43.9412 27.2228C44.0599 27.1542 44.2011 27.1357 44.3335 27.1712C44.466 27.2067 44.5789 27.2934 44.6475 27.4121C44.716 27.5309 44.7346 27.672 44.6991 27.8045C44.6636 27.937 44.5769 28.0499 44.4581 28.1184L43.04 28.9478C42.9617 28.9927 42.8731 29.0165 42.7829 29.0169Z"
            fill="#F5F5F5"
          />
          <path
            d="M35.3605 21.6027C35.2702 21.6024 35.1816 21.5786 35.1034 21.5336C35.0443 21.5001 34.9925 21.4552 34.951 21.4015C34.9094 21.3478 34.8788 21.2864 34.8611 21.2209C34.8434 21.1554 34.8388 21.087 34.8476 21.0197C34.8565 20.9523 34.8786 20.8874 34.9126 20.8287L36.5574 17.9924C36.5914 17.9334 36.6366 17.8817 36.6905 17.8402C36.7445 17.7987 36.8061 17.7682 36.8718 17.7505C36.9375 17.7328 37.0061 17.7282 37.0735 17.737C37.141 17.7457 37.2061 17.7677 37.2651 17.8017C37.3241 17.8356 37.3758 17.8809 37.4174 17.9348C37.4589 17.9887 37.4894 18.0503 37.5071 18.116C37.5248 18.1817 37.5294 18.2503 37.5206 18.3178C37.5118 18.3853 37.4898 18.4504 37.4559 18.5094L35.811 21.3429C35.7652 21.4218 35.6994 21.4873 35.6204 21.5329C35.5413 21.5785 35.4517 21.6026 35.3605 21.6027Z"
            fill="#F5F5F5"
          />
          <path
            d="M114.151 54.806C114.014 54.806 113.883 54.7515 113.786 54.6546C113.689 54.5576 113.635 54.4261 113.635 54.289C113.636 54.1496 113.693 54.0164 113.792 53.9186C116.673 51.1183 121.029 46.8915 121.029 38.6425C121.087 34.0669 119.324 29.6558 116.129 26.3797C112.935 23.1035 108.569 21.2304 103.994 21.1725C99.418 21.1146 95.0067 22.8765 91.7301 26.0708C88.4535 29.2651 86.5798 33.6301 86.5213 38.2057C86.5213 38.3523 86.5213 38.4822 86.5213 38.6425C86.5213 46.8915 90.8752 51.1183 93.7585 53.9186C93.8567 54.0143 93.9129 54.1451 93.9147 54.2822C93.9166 54.4193 93.8638 54.5516 93.7681 54.6498C93.6725 54.748 93.5417 54.8043 93.4046 54.8061C93.2674 54.8079 93.1352 54.7551 93.037 54.6595C90.0293 51.7403 85.4874 47.3283 85.4874 38.6425C85.4276 33.7915 87.2974 29.1155 90.6853 25.6431C94.0732 22.1707 98.7018 20.1863 103.553 20.1265C108.404 20.0668 113.08 21.9365 116.552 25.3244C120.025 28.7124 122.009 33.3409 122.069 38.1919C122.069 38.344 122.069 38.4932 122.069 38.6425C122.069 47.3283 117.524 51.7403 114.514 54.6595C114.417 54.754 114.287 54.8067 114.151 54.806Z"
            fill="#F5F5F5"
          />
          <path
            d="M103.774 18.8853C103.637 18.8853 103.505 18.8309 103.408 18.7339C103.311 18.637 103.257 18.5055 103.257 18.3684V15.0953C103.267 14.9644 103.325 14.8419 103.421 14.7526C103.518 14.6632 103.644 14.6135 103.775 14.6135C103.907 14.6135 104.033 14.6632 104.129 14.7526C104.225 14.8419 104.284 14.9644 104.294 15.0953V18.3684C104.292 18.5055 104.237 18.6366 104.14 18.7333C104.042 18.83 103.911 18.8846 103.774 18.8853Z"
            fill="#F5F5F5"
          />
          <path
            d="M113.911 21.6027C113.821 21.6024 113.732 21.5786 113.654 21.5336C113.595 21.5001 113.543 21.4552 113.501 21.4015C113.46 21.3478 113.429 21.2864 113.412 21.2209C113.394 21.1554 113.389 21.087 113.398 21.0197C113.407 20.9523 113.429 20.8874 113.463 20.8287L115.089 17.9952C115.123 17.9364 115.168 17.8848 115.222 17.8435C115.275 17.8021 115.337 17.7718 115.403 17.7542C115.468 17.7366 115.537 17.7321 115.604 17.741C115.671 17.7499 115.736 17.7719 115.795 17.8058C115.854 17.8398 115.905 17.885 115.947 17.9388C115.988 17.9927 116.018 18.0542 116.036 18.1198C116.053 18.1853 116.058 18.2538 116.049 18.3211C116.04 18.3884 116.018 18.4533 115.984 18.5121L114.348 21.3429C114.304 21.4207 114.241 21.4857 114.164 21.5313C114.087 21.5769 114 21.6015 113.911 21.6027Z"
            fill="#F5F5F5"
          />
          <path
            d="M121.333 29.0169C121.219 29.0172 121.109 28.9799 121.018 28.9107C120.927 28.8416 120.862 28.7444 120.833 28.6344C120.803 28.5243 120.811 28.4076 120.854 28.3023C120.898 28.197 120.975 28.109 121.074 28.0521L123.913 26.4073C123.971 26.3731 124.036 26.3509 124.104 26.3419C124.171 26.3329 124.24 26.3372 124.305 26.3547C124.371 26.3722 124.433 26.4024 124.487 26.4437C124.541 26.4849 124.586 26.5364 124.62 26.5953C124.654 26.6541 124.677 26.719 124.686 26.7864C124.695 26.8538 124.69 26.9223 124.673 26.988C124.655 27.0537 124.625 27.1154 124.584 27.1694C124.543 27.2234 124.491 27.2688 124.432 27.3029L121.596 28.9395C121.517 28.9883 121.426 29.015 121.333 29.0169Z"
            fill="#F5F5F5"
          />
          <path
            d="M127.321 39.1595H124.048C123.917 39.1499 123.795 39.0911 123.705 38.995C123.616 38.8988 123.566 38.7724 123.566 38.6411C123.566 38.5099 123.616 38.3834 123.705 38.2873C123.795 38.1911 123.917 38.1324 124.048 38.1228H127.321C127.452 38.1324 127.574 38.1911 127.664 38.2873C127.753 38.3834 127.803 38.5099 127.803 38.6411C127.803 38.7724 127.753 38.8988 127.664 38.995C127.574 39.0911 127.452 39.1499 127.321 39.1595Z"
            fill="#F5F5F5"
          />
          <path
            d="M124.167 50.9331C124.076 50.9325 123.986 50.9087 123.907 50.8639L121.074 49.2274C121.015 49.1935 120.963 49.1482 120.921 49.0943C120.88 49.0404 120.849 48.9788 120.832 48.9131C120.814 48.8474 120.809 48.7788 120.818 48.7113C120.827 48.6438 120.849 48.5787 120.883 48.5197C120.917 48.4607 120.962 48.409 121.016 48.3675C121.07 48.326 121.131 48.2955 121.197 48.2778C121.263 48.2601 121.331 48.2555 121.399 48.2643C121.466 48.2731 121.532 48.295 121.59 48.329L124.427 49.9655C124.525 50.0232 124.601 50.1114 124.644 50.2167C124.687 50.3219 124.694 50.4384 124.665 50.5482C124.636 50.658 124.571 50.7551 124.481 50.8246C124.391 50.8941 124.281 50.9322 124.167 50.9331Z"
            fill="#F5F5F5"
          />
          <path
            d="M83.3837 50.9331C83.27 50.9322 83.1597 50.8941 83.0697 50.8246C82.9798 50.7551 82.9151 50.658 82.8856 50.5482C82.8561 50.4384 82.8634 50.3219 82.9064 50.2167C82.9495 50.1114 83.0258 50.0232 83.1238 49.9655L85.9601 48.329C86.0792 48.2604 86.2207 48.242 86.3534 48.2778C86.4862 48.3136 86.5992 48.4006 86.6678 48.5197C86.7363 48.6389 86.7548 48.7804 86.719 48.9131C86.6832 49.0458 86.5962 49.1589 86.477 49.2274L83.6435 50.8557C83.565 50.9033 83.4755 50.9299 83.3837 50.9331Z"
            fill="#F5F5F5"
          />
          <path
            d="M80.235 39.1595C80.0985 39.1676 79.9644 39.1216 79.8616 39.0315C79.7588 38.9414 79.6956 38.8144 79.6858 38.678C79.676 38.5416 79.7203 38.4069 79.8091 38.303C79.8979 38.1991 80.0242 38.1343 80.1604 38.1228H83.5081C83.639 38.1324 83.7615 38.1911 83.8508 38.2873C83.9402 38.3834 83.9899 38.5099 83.9899 38.6411C83.9899 38.7724 83.9402 38.8988 83.8508 38.995C83.7615 39.0911 83.639 39.1499 83.5081 39.1595H80.235Z"
            fill="#F5F5F5"
          />
          <path
            d="M86.2172 29.0169C86.1269 29.0165 86.0383 28.9927 85.9601 28.9478L84.5419 28.1184C84.4458 28.0406 84.3808 27.9309 84.3587 27.8092C84.3366 27.6876 84.3588 27.562 84.4213 27.4553C84.4839 27.3486 84.5826 27.2679 84.6996 27.2277C84.8165 27.1876 84.944 27.1908 85.0589 27.2366L86.477 28.0659C86.5758 28.1228 86.6529 28.2108 86.6965 28.3161C86.7401 28.4214 86.7476 28.5382 86.718 28.6482C86.6883 28.7582 86.6232 28.8554 86.5326 28.9246C86.442 28.9937 86.3311 29.0311 86.2172 29.0307V29.0169Z"
            fill="#F5F5F5"
          />
          <path
            d="M93.6396 21.6027C93.5483 21.6025 93.4587 21.5785 93.3797 21.5329C93.3006 21.4873 93.2349 21.4218 93.189 21.3429L91.5525 18.5121C91.4839 18.393 91.4655 18.2515 91.5013 18.1188C91.5371 17.9861 91.6241 17.873 91.7432 17.8044C91.8624 17.7359 92.0039 17.7175 92.1366 17.7533C92.2693 17.789 92.3824 17.8761 92.4509 17.9952L94.0791 20.8259C94.1473 20.9452 94.1655 21.0865 94.1298 21.2191C94.094 21.3517 94.0073 21.4648 93.8884 21.5336C93.8132 21.5785 93.7272 21.6024 93.6396 21.6027Z"
            fill="#F5F5F5"
          />
          <path
            d="M74.8776 40.6495C74.7746 40.6498 74.6739 40.6193 74.5884 40.562C74.5028 40.5047 74.4363 40.4232 74.3974 40.3279C74.3585 40.2325 74.349 40.1277 74.37 40.0269C74.391 39.9261 74.4417 39.8339 74.5155 39.7621C77.3987 36.9618 81.7554 32.735 81.7554 24.486C81.7554 19.9096 79.9375 15.5206 76.7014 12.2846C73.4654 9.04858 69.0764 7.2306 64.5 7.2306C59.9236 7.2306 55.5346 9.04858 52.2986 12.2846C49.0626 15.5206 47.2446 19.9096 47.2446 24.486C47.2446 32.735 51.6013 36.9618 54.4846 39.7621L53.7631 40.5057C50.7554 37.5893 46.208 33.1662 46.208 24.4888C46.1784 22.0868 46.6222 19.7025 47.514 17.4721C48.4059 15.2416 49.7284 13.2087 51.4059 11.4893C53.0834 9.76996 55.0832 8.39784 57.291 7.45131C59.4988 6.50478 61.8714 6.00238 64.2733 5.9728C66.6753 5.94321 69.0596 6.38702 71.29 7.27887C73.5205 8.17073 75.5534 9.49318 77.2728 11.1707C78.9922 12.8482 80.3643 14.848 81.3108 17.0558C82.2573 19.2636 82.7597 21.6362 82.7893 24.0382C82.7893 24.1902 82.7893 24.3395 82.7893 24.4888C82.7893 33.1745 78.2446 37.5865 75.237 40.5057C75.1405 40.5986 75.0115 40.6502 74.8776 40.6495Z"
            fill="#F5F5F5"
          />
          <path
            d="M64.5 4.72882C64.3629 4.72882 64.2314 4.67435 64.1345 4.57741C64.0375 4.48046 63.9831 4.34897 63.9831 4.21187V0.938819C63.9831 0.801717 64.0375 0.67023 64.1345 0.573284C64.2314 0.476339 64.3629 0.421875 64.5 0.421875C64.6371 0.421875 64.7686 0.476339 64.8656 0.573284C64.9625 0.67023 65.017 0.801717 65.017 0.938819V4.21187C65.017 4.27976 65.0036 4.34698 64.9776 4.4097C64.9516 4.47242 64.9136 4.5294 64.8656 4.57741C64.8176 4.62541 64.7606 4.66349 64.6979 4.68947C64.6351 4.71545 64.5679 4.72882 64.5 4.72882Z"
            fill="#F5F5F5"
          />
          <path
            d="M54.363 7.45452C54.2721 7.4544 54.1828 7.43032 54.1042 7.3847C54.0255 7.33908 53.9603 7.27353 53.9151 7.19466L52.2786 4.36115C52.2166 4.24393 52.202 4.10737 52.2379 3.97971C52.2738 3.85205 52.3573 3.74305 52.4712 3.67525C52.5852 3.60745 52.7209 3.58602 52.8502 3.61541C52.9795 3.6448 53.0925 3.72275 53.166 3.83315L54.8246 6.66943C54.8602 6.7274 54.884 6.79186 54.8945 6.85908C54.905 6.9263 54.9021 6.99494 54.8859 7.06103C54.8697 7.12711 54.8406 7.18932 54.8001 7.24405C54.7597 7.29879 54.7089 7.34495 54.6505 7.37988C54.5639 7.4322 54.464 7.45814 54.363 7.45452Z"
            fill="#F5F5F5"
          />
          <path
            d="M46.9433 14.8659C46.8522 14.8653 46.7628 14.8415 46.6834 14.7968L43.8499 13.1602C43.7312 13.0917 43.6445 12.9788 43.609 12.8463C43.5735 12.7139 43.592 12.5727 43.6606 12.4539C43.7291 12.3352 43.842 12.2485 43.9745 12.213C44.107 12.1775 44.2481 12.196 44.3669 12.2646L47.2032 13.9011C47.3019 13.958 47.379 14.046 47.4226 14.1513C47.4662 14.2566 47.4737 14.3733 47.4441 14.4834C47.4145 14.5934 47.3493 14.6906 47.2587 14.7598C47.1682 14.8289 47.0573 14.8662 46.9433 14.8659Z"
            fill="#F5F5F5"
          />
          <path
            d="M82.0568 14.8659C81.9434 14.8658 81.8333 14.8285 81.7432 14.7597C81.6532 14.6909 81.5882 14.5944 81.5584 14.4851C81.5286 14.3758 81.5355 14.2597 81.5781 14.1546C81.6207 14.0496 81.6966 13.9615 81.7941 13.9039L84.6304 12.2673C84.7492 12.1988 84.8903 12.1802 85.0228 12.2157C85.1553 12.2513 85.2682 12.3379 85.3367 12.4567C85.4053 12.5755 85.4238 12.7166 85.3883 12.8491C85.3528 12.9815 85.2661 13.0945 85.1474 13.163L82.3166 14.7968C82.2373 14.8415 82.1478 14.8653 82.0568 14.8659Z"
            fill="#F5F5F5"
          />
          <path
            d="M74.6371 7.45452C74.5 7.45452 74.3685 7.40005 74.2716 7.30311C74.1746 7.20616 74.1202 7.07468 74.1202 6.93757C74.1195 6.84633 74.1433 6.75657 74.1893 6.67772L75.8341 3.83315C75.903 3.71438 76.0163 3.62785 76.149 3.59259C76.2817 3.55734 76.423 3.57625 76.5418 3.64517C76.6605 3.71409 76.7471 3.82736 76.7823 3.96008C76.8176 4.0928 76.7987 4.23408 76.7298 4.35286L75.0849 7.17808C75.0412 7.25948 74.9768 7.3279 74.8981 7.37643C74.8195 7.42497 74.7295 7.45191 74.6371 7.45452Z"
            fill="#F5F5F5"
          />
          <path
            d="M40.9031 19.7727C40.9031 19.7727 41.2625 18.6669 41.279 18.5066C41.2163 18.1917 41.1237 17.8835 41.0026 17.5861C40.9694 17.4672 41.5195 17.2599 41.8319 17.6413C42.1059 17.9676 42.2574 18.3792 42.2604 18.8052L43.6426 18.4098C43.7551 18.382 43.874 18.3994 43.9738 18.4584C44.0736 18.5173 44.1462 18.613 44.1761 18.725C44.1994 18.8054 44.2015 18.8904 44.1821 18.9718C44.1627 19.0532 44.1226 19.1282 44.0656 19.1894C44.1554 19.1902 44.2425 19.2211 44.3127 19.2772C44.3828 19.3334 44.4321 19.4115 44.4526 19.499C44.4789 19.5961 44.4719 19.6992 44.4328 19.7919C44.3938 19.8845 44.3248 19.9615 44.237 20.0104C44.3305 20.087 44.3949 20.1934 44.4194 20.3118C44.4341 20.4154 44.4151 20.5209 44.3654 20.613C44.3156 20.705 44.2377 20.7787 44.143 20.8232C44.2105 20.9117 44.2611 21.012 44.2922 21.119C44.3145 21.2458 44.287 21.3764 44.2154 21.4835C44.1439 21.5906 44.0337 21.666 43.908 21.694L41.6356 22.3436L40.9031 19.7727Z"
            fill="#7C3AED"
          />
          <path d="M40.3435 19.9715L39.3535 20.2499L40.1941 23.2384L41.184 22.9599L40.3435 19.9715Z" fill="#7C3AED" />
          <path
            d="M81.5315 5.32869C81.5315 5.32869 82.242 4.41367 82.3139 4.2644C82.3655 3.94832 82.3867 3.62804 82.3774 3.30791C82.3774 3.18351 82.9745 3.17522 83.1293 3.63688C83.273 4.03719 83.273 4.47502 83.1293 4.87533L84.5558 4.96932C84.6133 4.97419 84.6694 4.99036 84.7207 5.0169C84.772 5.04344 84.8175 5.07983 84.8547 5.12399C84.892 5.16815 84.9201 5.21921 84.9376 5.27425C84.9551 5.3293 84.9615 5.38725 84.9566 5.4448C84.9517 5.52804 84.9255 5.60863 84.8805 5.67882C84.8354 5.74901 84.7731 5.80645 84.6995 5.84563C84.7833 5.87666 84.8542 5.93497 84.9009 6.01119C84.9475 6.08741 84.9671 6.17709 84.9566 6.26582C84.9498 6.36615 84.9092 6.46121 84.8414 6.5355C84.7736 6.60979 84.6827 6.65895 84.5834 6.67496C84.6435 6.77952 84.6678 6.90087 84.6525 7.02051C84.6323 7.12282 84.5798 7.21593 84.5026 7.28611C84.4255 7.35629 84.3278 7.39982 84.2241 7.41029C84.2571 7.51664 84.2712 7.62801 84.2655 7.73925C84.2457 7.86665 84.1767 7.98119 84.0733 8.05822C83.9699 8.13525 83.8404 8.16861 83.7126 8.15115L81.3629 8.0074L81.5315 5.32869Z"
            fill="#7C3AED"
          />
          <path d="M80.171 5.15877L79.9669 8.26479L80.9958 8.33241L81.1999 5.22639L80.171 5.15877Z" fill="#7C3AED" />
          <path
            d="M109.742 11.6785C109.742 11.6785 110.196 10.6142 110.229 10.4511C110.197 10.1326 110.135 9.81785 110.044 9.51123C110.021 9.3896 110.596 9.23479 110.856 9.63563C111.107 9.98193 111.228 10.406 111.196 10.8326L112.601 10.5562C112.715 10.5378 112.832 10.5652 112.926 10.6324C113.02 10.6997 113.084 10.8015 113.104 10.9156C113.121 10.9973 113.116 11.0822 113.091 11.1616C113.065 11.2411 113.019 11.3126 112.957 11.3689C113.046 11.3768 113.13 11.4148 113.195 11.4766C113.26 11.5383 113.302 11.6203 113.314 11.7089C113.332 11.8082 113.316 11.9107 113.269 11.9999C113.222 12.0891 113.146 12.1599 113.054 12.201C113.14 12.2861 113.195 12.3967 113.212 12.5161C113.217 12.6212 113.189 12.7253 113.131 12.8133C113.074 12.9012 112.989 12.9686 112.891 13.0054C112.952 13.0985 112.993 13.2029 113.013 13.3123C113.029 13.4416 112.994 13.5722 112.915 13.6757C112.836 13.7792 112.719 13.8473 112.59 13.8652L110.268 14.3185L109.742 11.6785Z"
            fill="#7C3AED"
          />
          <path d="M109.394 11.6695L108.382 11.8666L108.977 14.9219L109.989 14.7248L109.394 11.6695Z" fill="#7C3AED" />
          <path
            d="M86.9636 22.6836L86.3748 22.3491C85.6035 21.9096 84.6829 21.1825 84.6829 20.2288C84.6818 19.9531 84.7778 19.6858 84.9542 19.4739C85.1306 19.262 85.376 19.1191 85.6473 19.0702C85.9187 19.0214 86.1986 19.0697 86.4378 19.2068C86.677 19.3439 86.8602 19.5609 86.9553 19.8197C87.0517 19.5621 87.2355 19.3466 87.4745 19.2106C87.7136 19.0746 87.9928 19.0268 88.2635 19.0754C88.5341 19.1241 88.7792 19.2662 88.9559 19.477C89.1326 19.6877 89.2297 19.9538 89.2304 20.2288C89.2304 21.166 88.3154 21.8875 87.5469 22.3436L86.9636 22.6836Z"
            fill="#7C3AED"
          />
          <path
            d="M47.9661 7.69779H47.2916C46.4042 7.71714 45.2404 7.57062 44.7484 6.7496C44.6091 6.51332 44.5568 6.23574 44.6007 5.96497C44.6445 5.69421 44.7818 5.44733 44.9885 5.26712C45.1953 5.08692 45.4587 4.98475 45.7329 4.97832C46.0071 4.97189 46.2749 5.06162 46.4899 5.23194C46.4381 4.96125 46.4831 4.68096 46.617 4.44008C46.7509 4.1992 46.9653 4.01307 47.2226 3.91425C47.4798 3.81542 47.7637 3.81019 48.0244 3.89946C48.2852 3.98874 48.5062 4.16684 48.6489 4.40262C49.1327 5.20706 48.7208 6.30453 48.2923 7.08409L47.9661 7.69779Z"
            fill="#7C3AED"
          />
          <path
            d="M19.2661 13.9675L18.7132 13.5694C17.9972 13.0441 17.1651 12.2204 17.273 11.2694C17.3059 10.997 17.4331 10.7448 17.6325 10.5564C17.832 10.368 18.091 10.2553 18.3648 10.2379C18.6386 10.2205 18.9099 10.2995 19.1315 10.4611C19.3532 10.6228 19.5113 10.8569 19.5785 11.1229C19.7022 10.8765 19.9088 10.6816 20.162 10.5724C20.4151 10.4633 20.6987 10.4469 20.9628 10.5261C21.2269 10.6053 21.4546 10.7751 21.6059 11.0056C21.7572 11.2361 21.8224 11.5125 21.79 11.7863C21.6849 12.7179 20.6842 13.3399 19.877 13.6965L19.2661 13.9675Z"
            fill="#7C3AED"
          />
          <path
            d="M86.9691 61.7308C88.0749 61.4848 89.2995 62.2837 90.1343 64.017C90.936 65.6922 93.2471 69.9079 93.3024 71.0911C93.3576 72.3185 88.3624 76.1361 88.5033 76.067C88.5448 76.0449 87.3976 73.7035 87.3976 73.7035L90.1454 70.9639L88.4868 67.7158L86.9691 61.7308Z"
            fill="#FFA8A7"
          />
          <path
            d="M86.3913 61.4682C87.3147 61.3549 88.9899 61.7032 89.6312 62.8145C90.5573 64.4233 91.3313 65.9051 92.5338 68.1415C92.2186 68.696 91.7664 69.1605 91.2205 69.4906C90.6746 69.8206 90.0532 70.0053 89.4156 70.0268L88.3485 67.995L86.3913 61.4682Z"
            fill="#7C3AED"
          />
          <path
            d="M74.9827 108.297C74.8804 108.809 75.0656 109.077 75.7263 109.458C76.387 109.84 77.4236 109.97 78.5156 109.655C79.6075 109.339 80.1272 108.858 80.5806 108.745C81.0339 108.632 82.1563 108.623 82.6041 108.491C83.0519 108.358 83.0464 108.131 83.0437 107.592L74.9827 108.297Z"
            fill="#455A64"
          />
          <path
            d="M82.6096 104.994C82.6096 104.994 82.8225 105.641 82.9386 106.205C83.0298 106.652 83.1598 107.402 83.0022 107.739C82.8446 108.076 82.2337 108.292 81.2827 108.292C80.669 108.292 79.7098 108.704 79.0518 109.071C78.3915 109.396 77.644 109.499 76.9205 109.364C76.0774 109.268 75.201 108.775 75.0656 108.427C74.9301 108.079 74.8914 107.813 76.8846 106.965C76.9011 106.965 79.1956 106.111 80.1604 105.046L82.6096 104.994Z"
            fill="#7C3AED"
          />
          <path
            d="M82.6096 104.994C82.6096 104.994 82.8225 105.641 82.9386 106.205C83.0298 106.652 83.1598 107.402 83.0022 107.739C82.8446 108.076 82.2337 108.292 81.2827 108.292C80.669 108.292 79.7098 108.704 79.0518 109.071C78.3915 109.396 77.644 109.499 76.9205 109.364C76.0774 109.268 75.201 108.775 75.0656 108.427C74.9301 108.079 74.8914 107.813 76.8846 106.965C76.9011 106.965 79.1956 106.111 80.1604 105.046L82.6096 104.994Z"
            fill="black"
          />
          <path
            d="M78.7809 109.198C78.7809 109.198 78.6095 107.487 77.219 106.987C75.964 106.545 74.8665 107.476 74.9882 108.286C75.0711 108.842 76.5998 110.077 78.7809 109.198Z"
            fill="#FAFAFA"
          />
          <path
            d="M77.5729 106.677C77.9268 106.71 78.26 106.859 78.5211 107.1C78.9219 107.437 78.933 107.653 78.933 107.653C78.9523 107.673 78.9753 107.688 79.0007 107.699C79.0261 107.71 79.0533 107.715 79.0809 107.715C79.1084 107.715 79.1357 107.71 79.1611 107.699C79.1865 107.688 79.2095 107.673 79.2288 107.653C79.2545 107.63 79.2741 107.601 79.2857 107.569C79.2973 107.537 79.3005 107.502 79.2951 107.468C79.2951 107.468 79.2011 106.605 78.0677 106.428C77.9694 106.41 77.8679 106.425 77.7785 106.47C77.6892 106.515 77.617 106.588 77.5729 106.677Z"
            fill="#FAFAFA"
          />
          <path
            d="M78.3663 106.299C78.7223 106.3 79.0648 106.435 79.3255 106.677C79.7264 107.015 79.7291 107.28 79.7291 107.28C79.7484 107.3 79.7714 107.315 79.7968 107.326C79.8222 107.336 79.8495 107.342 79.877 107.342C79.9046 107.342 79.9318 107.336 79.9572 107.326C79.9826 107.315 80.0056 107.3 80.0249 107.28C80.0507 107.257 80.0702 107.228 80.0818 107.196C80.0934 107.163 80.0967 107.129 80.0913 107.095C80.0913 107.095 79.9973 106.232 78.8611 106.058C78.7637 106.039 78.6629 106.053 78.5737 106.096C78.4844 106.139 78.4117 106.21 78.3663 106.299Z"
            fill="#FAFAFA"
          />
          <path
            d="M79.1514 105.848C79.5061 105.825 79.8563 105.937 80.1327 106.16C80.5557 106.47 80.575 106.735 80.575 106.735C80.5959 106.754 80.6202 106.769 80.6467 106.778C80.6731 106.787 80.7011 106.791 80.7291 106.79C80.7571 106.788 80.7846 106.781 80.8098 106.769C80.8351 106.757 80.8577 106.74 80.8764 106.719C80.8983 106.694 80.9143 106.665 80.9229 106.633C80.9316 106.602 80.9327 106.568 80.9261 106.536C80.9261 106.536 80.7741 105.682 79.6296 105.585C79.5323 105.573 79.4335 105.591 79.3475 105.638C79.2616 105.686 79.1928 105.759 79.1514 105.848Z"
            fill="#FAFAFA"
          />
          <path
            d="M82.6096 103.534V105.049C82.6096 105.364 82.242 105.834 81.28 105.798C80.6054 105.773 80.1327 105.594 80.1742 105.035V103.653L82.6096 103.534Z"
            fill="#FFA8A7"
          />
          <path
            d="M83.5993 99.3654C83.5275 99.799 83.5549 100.243 83.6795 100.665C83.92 101.347 84.4314 101.66 84.7299 101.931C85.0667 102.242 85.3605 102.598 85.6035 102.987C85.8408 103.415 86.1482 103.8 86.513 104.126C86.7894 104.375 87.5994 104.402 87.9864 104.234C88.3734 104.065 88.5006 103.924 88.4785 103.307C88.4564 102.691 86.5849 102.478 86.5849 102.478L83.5993 99.3654Z"
            fill="#455A64"
          />
          <path
            d="M88.2352 101.469C88.3955 101.53 88.437 101.834 88.4591 102.437C88.4785 102.896 88.6692 103.565 88.0417 103.852C87.7609 103.962 87.4541 103.987 87.1593 103.924C86.8644 103.861 86.5945 103.713 86.383 103.498C85.9688 102.923 85.525 102.369 85.0534 101.84C84.5226 101.27 83.9697 101.079 83.7348 99.9404C83.5827 99.2078 83.7016 98.9065 84.1964 98.6964C84.8709 98.42 85.9352 99.3488 86.466 99.4981C86.9166 99.617 88.0776 101.408 88.2352 101.469Z"
            fill="#7C3AED"
          />
          <path
            d="M88.2352 101.469C88.3955 101.53 88.437 101.834 88.4591 102.437C88.4785 102.896 88.6692 103.565 88.0417 103.852C87.7609 103.962 87.4541 103.987 87.1593 103.924C86.8644 103.861 86.5945 103.713 86.383 103.498C85.9688 102.923 85.525 102.369 85.0534 101.84C84.5226 101.27 83.9697 101.079 83.7348 99.9404C83.5827 99.2078 83.7016 98.9065 84.1964 98.6964C84.8709 98.42 85.9352 99.3488 86.466 99.4981C86.9166 99.617 88.0776 101.408 88.2352 101.469Z"
            fill="black"
          />
          <path
            d="M86.4604 99.4898L86.3692 99.4594C86.0622 99.4762 85.7651 99.5738 85.5078 99.7422C85.2505 99.9106 85.0423 100.144 84.9041 100.419C84.8156 100.618 85.0921 100.775 85.2579 100.618C85.4057 100.351 85.6165 100.125 85.8719 99.9586C86.1273 99.7924 86.4195 99.6912 86.7231 99.664C86.6486 99.5883 86.5591 99.529 86.4604 99.4898Z"
            fill="#FAFAFA"
          />
          <path
            d="M86.8917 99.8354C86.6033 99.8667 86.3275 99.9703 86.0898 100.137C85.8521 100.303 85.6601 100.526 85.5316 100.786C85.4404 100.985 85.7196 101.143 85.8855 100.985C86.0092 100.753 86.1829 100.551 86.3942 100.393C86.6055 100.236 86.8491 100.128 87.1073 100.076C87.0405 99.9913 86.9685 99.911 86.8917 99.8354Z"
            fill="#FAFAFA"
          />
          <path
            d="M88.3264 100.377L88.2352 101.652C87.9567 101.829 87.6352 101.928 87.305 101.937C86.9748 101.945 86.6484 101.864 86.3609 101.701C86.3278 101.629 86.2338 100.491 86.2338 100.491L88.3264 100.377Z"
            fill="#FFA8A7"
          />
          <path
            d="M84.0416 100.77C84.0416 100.77 84.0941 99.4152 85.9242 99.2244L86.0292 99.2852C85.8254 98.9495 85.5043 98.7013 85.128 98.5886C84.8806 98.4988 84.6112 98.4898 84.3583 98.5628C84.1055 98.6358 83.8823 98.7871 83.7209 98.995C83.4003 99.4124 83.7237 100.51 84.0416 100.77Z"
            fill="#FAFAFA"
          />
          <path
            d="M88.86 91.8849C88.7369 90.6791 88.4953 89.4883 88.1384 88.3299C88.1384 88.3299 88.4481 85.2891 88.6305 82.3809C88.8268 79.2516 88.7825 75.3123 88.86 74.5328C88.86 74.5328 79.1569 72.2908 78.8943 75.915C78.6012 79.9842 78.9136 88.9436 78.9717 90.077C79.0574 91.6721 79.0601 93.328 79.3311 95.9127C79.602 98.4974 80.0443 104.206 80.0443 104.206C81.338 104.67 82.7451 104.206 82.7451 104.206C82.7451 104.206 83.4942 97.2728 83.4611 95.4344C83.4343 94.0741 83.2308 92.7229 82.8557 91.415L84.0609 81.3304C84.0609 81.3304 84.1826 85.8171 84.2655 87.4121C84.3484 89.0072 84.5696 89.9775 84.9621 92.9409C85.3049 95.5118 86.1895 100.698 86.1895 100.698C86.8768 100.98 87.6475 100.98 88.3347 100.698C88.3347 100.698 89.1226 94.113 88.86 91.8849Z"
            fill="#37474F"
          />
          <path
            d="M87.5717 79.2074C87.5717 79.2074 86.3969 80.7886 84.8847 81.4659C84.8847 81.4659 84.2268 87.0196 84.2323 86.909L84.061 81.3194C84.061 81.3194 86.3167 80.2689 87.5717 79.2074Z"
            fill="#263238"
          />
          <path d="M82.1231 60.2242L82.6483 63.5277L85.9242 63.3535L85.4542 59.5138L82.1231 60.2242Z" fill="#FFA8A7" />
          <path
            d="M88.5282 63.3784C88.2518 62.4772 87.3782 61.3079 86.2365 61.4931C85.9601 61.5345 85.9601 61.5345 85.7141 61.5788C85.5759 62.1317 83.9006 62.6099 82.441 62.2671C82.0015 62.3832 81.6117 62.5021 81.233 62.6237C80.1853 62.972 79.2177 63.8484 79.0546 67.2679C79.0546 67.2679 78.7644 75.1658 78.8169 77.2999C80.8333 78.198 83.0686 78.4863 85.2469 78.1293C88.3873 77.5156 88.9042 76.1693 88.9042 76.1693C88.9042 76.1693 89.0175 69.9798 88.9788 67.5001C88.9512 65.3854 88.7217 64.0032 88.5282 63.3784Z"
            fill="#455A64"
          />
          <path
            d="M79.9199 56.1688C79.9199 56.1688 79.1403 57.3548 79.2288 57.4709C79.3172 57.587 79.8922 57.692 79.8922 57.692L79.9199 56.1688Z"
            fill="#F28F8F"
          />
          <path
            d="M82.0899 52.8903C80.5087 53.2248 80.0526 53.9186 79.9033 56.4287C79.7485 59.0521 80.0166 59.8759 80.3594 60.2298C80.5916 60.4675 81.8854 60.5062 82.5378 60.332C83.3533 60.1081 85.1999 59.4529 86.0624 58.1343C87.0797 56.5807 87.3451 54.477 86.2587 53.6145C84.7272 52.3927 82.7451 52.7548 82.0899 52.8903Z"
            fill="#FFA8A7"
          />
          <path
            d="M82.1535 60.4094C82.4343 60.3577 82.7113 60.2875 82.9828 60.1993C82.7749 60.434 82.4965 60.595 82.1895 60.6582L82.1535 60.4094Z"
            fill="#F28F8F"
          />
          <path
            d="M79.5854 53.8606C79.7045 53.9797 79.8372 54.0846 79.9807 54.1729C80.1922 54.3105 80.413 54.4333 80.6414 54.5406C80.8644 54.6201 81.0792 54.721 81.2827 54.8419C81.4026 54.9361 81.4962 55.0596 81.5543 55.2005C81.6125 55.3415 81.6332 55.4951 81.6144 55.6464V56.4204C81.6144 56.8544 81.8909 57.1861 82.0319 56.6029C82.0319 56.6029 82.2834 55.6325 83.0989 55.7542C83.9144 55.8758 83.9891 56.7964 83.5993 57.5206C83.3616 57.9602 82.7257 57.8441 82.7257 57.8441C82.7013 58.2524 82.7649 58.6612 82.9122 59.0428C83.0596 59.4243 83.2873 59.7698 83.5799 60.0556C83.5799 60.0556 84.2296 60.3929 85.515 60.1192C86.3941 58.9084 86.9498 58.3195 87.4169 57.2746C88.4121 55.0631 87.9311 53.6809 87.1654 53.0893C87.0106 52.0692 86.2089 51.6131 85.2939 51.403C83.9255 51.0879 82.6456 51.9006 81.2938 51.5993C81.0708 51.5523 80.8503 51.4942 80.6331 51.4251C80.547 51.3829 80.4478 51.3759 80.3567 51.4058C80.3079 51.4384 80.2699 51.4846 80.2473 51.5387C80.2247 51.5928 80.2185 51.6523 80.2295 51.7099C80.2408 51.8401 80.2827 51.9659 80.3519 52.0769C80.4211 52.1879 80.5156 52.2809 80.6276 52.3484C80.5615 52.3488 80.4957 52.3562 80.4313 52.3706H80.2046C80.0557 52.3702 79.9071 52.36 79.7595 52.3401C79.6581 52.3211 79.5541 52.3211 79.4527 52.3401C79.3434 52.3833 79.2507 52.4602 79.1881 52.5596C79.1255 52.659 79.0961 52.7758 79.1044 52.893C79.1258 53.13 79.2097 53.3571 79.3476 53.551C79.3972 53.6325 79.4517 53.711 79.5107 53.7859L79.5854 53.8606Z"
            fill="#263238"
          />
          <path
            d="M87.2013 53.4238L88.1467 52.8709C88.0641 52.7661 87.9464 52.6947 87.8153 52.6699C87.6842 52.645 87.5486 52.6685 87.4334 52.7358C87.3182 52.8032 87.2312 52.9099 87.1886 53.0364C87.1459 53.1628 87.1505 53.3004 87.2013 53.4238Z"
            fill="#263238"
          />
          <path
            d="M68.5361 68.2714C69.0198 68.5008 74.803 73.0345 75.7097 72.559C76.6164 72.0835 81.3629 66.6957 81.3629 66.6957C81.7613 66.0872 81.9703 65.3742 81.9634 64.6469C81.9565 63.9196 81.734 63.2107 81.3242 62.6099C81.3242 62.6099 79.8397 62.8504 79.0408 63.9921C78.2419 65.1338 74.8085 69.2445 74.8085 69.2445C73.9939 68.8132 73.1812 68.3764 72.3703 67.9341C71.7041 67.5692 71.0351 67.2043 70.3827 66.8146C70.2002 66.7236 70.0287 66.6124 69.8713 66.4828C69.5534 66.1511 69.628 65.3771 69.6418 64.9513C69.6418 64.7525 69.6556 64.5539 69.6833 64.357C69.7192 64.1165 69.7773 63.5277 69.3377 63.7018C69.2536 63.7403 69.1804 63.7992 69.1249 63.8732C69.0557 63.9619 69.0007 64.0607 68.9618 64.1663C68.8761 64.4206 68.8954 64.7026 68.8125 64.9596C68.8042 64.9975 68.7849 65.0321 68.7572 65.0592C68.7177 65.0893 68.6686 65.1041 68.619 65.1006C67.9859 65.0647 67.4054 64.1635 67.1235 63.6853C67.024 63.4591 66.8606 63.267 66.6535 63.1324C66.3107 62.9637 65.8878 63.1849 65.6583 63.4917C65.3765 63.8941 65.2525 64.3861 65.31 64.8739C65.3526 65.5411 65.6331 66.1708 66.1006 66.6487C66.8119 67.3271 67.636 67.8763 68.5361 68.2714Z"
            fill="#FFA8A7"
          />
          <path
            d="M81.7941 62.4468C81.1583 62.5076 80.0996 62.5297 79.0297 63.6797C77.7885 65.0205 75.8783 67.666 75.8783 67.666C75.9792 68.2803 76.2407 68.857 76.6364 69.3377C77.0321 69.8183 77.5478 70.1858 78.1313 70.4028C78.1313 70.4028 81.103 67.7213 81.725 66.5049C82.347 65.2886 82.5239 63.2955 81.7941 62.4468Z"
            fill="#7C3AED"
          />
          <path
            d="M42.6004 60.99C41.0081 60.4509 39.9355 61.4571 38.9486 63.0329C38.1359 64.3349 35.9797 68.2631 36.0764 69.2472C36.1732 70.2314 40.4165 74.5825 40.4165 74.5825L41.5831 73.2003L39.0675 69.0123L41.5555 65.4932L42.6004 60.99Z"
            fill="#FFA8A7"
          />
          <path
            d="M45.7905 104.117C45.7076 104.502 45.6192 104.67 45.5141 105.149C45.4395 105.486 45.2128 106.003 45.4865 106.417C45.7601 106.832 46.3158 106.857 46.982 106.874C47.4105 106.874 48.3006 107.225 48.848 107.518C49.5774 107.838 50.3777 107.963 51.1701 107.88C51.8418 107.744 52.4832 107.731 52.7734 107.05C53.0637 106.37 51.7119 105.945 50.8826 105.729C50.8826 105.729 48.1182 104.668 47.9357 104.14C47.123 104.104 46.5314 104.145 45.7905 104.117Z"
            fill="#263238"
          />
          <path
            d="M47.9412 104.151C47.1119 104.104 46.5286 104.117 45.7905 104.117C45.5307 104.117 45.6192 104.67 45.5141 105.149"
            fill="#263238"
          />
          <path
            d="M45.785 103.457C46.4899 103.457 47.3524 102.586 48.0546 102.589C48.0546 102.589 47.98 103.249 47.9744 103.634C47.9689 104.018 48.331 104.355 48.4444 104.477C48.8259 104.889 50.5039 105.511 50.8909 105.657C51.0703 105.721 51.2449 105.798 51.4133 105.887C51.7064 106.357 51.3055 106.669 50.5177 106.683C49.7298 106.697 47.6123 106.097 46.8134 105.69C46.0145 105.284 45.926 104.9 45.7988 104.178C45.8344 103.939 45.8297 103.695 45.785 103.457Z"
            fill="#FFA8A7"
          />
          <path
            d="M39.7393 100.673C39.5458 100.737 39.4932 101.088 39.4628 101.621C39.4462 101.964 39.2113 102.727 40.1456 103.072C40.6432 103.258 41.3647 103.233 41.7296 102.81C42.183 102.282 42.2549 101.773 42.7442 101.242C43.1699 100.781 43.7615 100.095 43.8969 99.4898C44.0324 98.8844 43.9854 98.5776 43.4297 98.3481C42.8741 98.1187 42.3903 98.4974 41.9259 98.8457C41.7406 98.9595 41.5496 99.0638 41.3537 99.1581C40.7704 99.4898 40.27 100.493 39.7393 100.673Z"
            fill="#263238"
          />
          <path
            d="M39.7393 100.493C39.7089 100.72 39.7089 100.95 39.7393 101.176C39.9217 101.757 41.0634 101.558 41.4947 101.176C41.5776 100.72 41.6025 100.25 41.6439 99.7939L39.7393 100.493Z"
            fill="#FFA8A7"
          />
          <path
            d="M41.3758 99.1415C41.5997 99.0724 41.6882 98.9425 41.948 98.8457C42.5009 98.6384 43.3993 98.9342 43.0538 99.5755C42.6478 100.203 42.124 100.746 41.5112 101.173C41.0551 101.5 41.0192 101.259 40.7151 101.118C40.8036 100.565 40.8644 100.048 40.9363 99.5064C41.0883 99.3875 41.1519 99.2106 41.3758 99.1415Z"
            fill="#FFA8A7"
          />
          <path
            d="M39.0454 91.8573C38.874 89.8503 39.1062 89.0929 39.391 87.4757C39.167 85.8917 38.9874 83.5586 38.9293 82.0243C38.7966 78.3836 38.6252 75.6496 40.1042 72.4705C42.6115 71.5141 48.1652 72.5922 48.7319 74.7954C49.0083 78.8508 49.3096 85.6954 49.1576 89.3749C49.0664 91.5864 48.9724 92.5042 48.6517 95.7717C48.425 98.0938 48.19 101.093 47.98 103.634C47.0594 103.982 46.0449 105.469 45.785 103.437C45.5252 101.406 44.5106 96.7779 44.4222 94.9451C44.3116 92.7087 44.5493 92.4406 44.8202 90.6465C44.5217 87.8821 44.3973 85.0347 44.1374 82.1874C43.9273 83.7963 43.8831 84.4238 43.6924 86.2483C43.5016 88.0728 43.1008 90.0134 42.863 92.3687C42.6502 94.4116 42.1084 97.8367 41.6799 100.145C40.9888 100.28 40.4912 101.054 39.7448 100.499C39.7337 98.127 39.2113 93.8587 39.0454 91.8573Z"
            fill="#FFA8A7"
          />
          <path
            d="M40.0516 72.418C39.4297 73.9384 38.8547 74.906 38.7192 76.6973C38.5837 78.4886 38.7634 81.4576 38.8629 83.2102C38.9625 84.9629 39.0565 85.9277 39.2527 87.5117C38.9705 88.5707 38.8769 89.6711 38.9763 90.7626C39.4297 91.3929 40.4912 91.5919 41.1878 91.5919C41.8844 91.5919 42.7718 91.3155 43.0261 90.9423C43.3219 89.6347 43.4021 88.8828 43.6371 87.437C43.8721 85.9912 43.9826 83.7991 44.1236 82.2234C44.2093 83.7051 44.3144 85.6374 44.3835 87.0445C44.4526 88.4516 44.5244 89.3666 44.6599 90.6741C44.4327 91.8401 44.3399 93.0282 44.3835 94.2153C44.9322 94.7003 45.6161 95.0061 46.3434 95.0916C47.1452 95.2156 47.9652 95.1415 48.7319 94.876C48.9447 93.5187 49.1493 92.4461 49.3096 91.0916C49.5557 89.01 49.6165 85.4632 49.5584 82.9338C49.5004 80.4044 49.3981 77.2723 48.9309 74.7843C45.9785 73.955 43.0123 73.2473 40.0516 72.418Z"
            fill="#455A64"
          />
          <path
            d="M44.0987 82.2648C44.0987 81.0153 43.8223 80.3297 43.7615 79.1742C42.7801 79.0996 41.9038 78.7015 41.0496 78.2537C41.5665 78.9586 42.4014 79.2682 43.2086 79.5087C43.3164 80.6891 43.485 81.8253 43.5652 83.0167C43.6454 84.2082 43.662 85.4826 43.7504 86.6713C43.8002 85.3167 44.0932 83.5143 44.0987 82.2648Z"
            fill="#37474F"
          />
          <path
            d="M47.2723 55.6464C47.2723 55.6464 48.3227 54.43 47.5294 53.2165C46.595 51.79 44.9198 51.2814 42.8299 51.873C41.796 52.1494 40.2645 53.5648 40.1567 55.5551C40.0765 57.0922 44.3724 58.173 44.2867 59.2263L47.2723 55.6464Z"
            fill="#263238"
          />
          <path d="M45.9122 59.5801L45.5887 62.9582L42.57 62.7702L42.8105 59.0245L45.9122 59.5801Z" fill="#FFA8A7" />
          <path
            d="M48.1679 55.873C48.1679 55.873 48.8369 56.8655 48.7485 56.9788C48.5922 57.0812 48.4191 57.1552 48.237 57.1972L48.1679 55.873Z"
            fill="#F28F8F"
          />
          <path
            d="M46.1112 52.7244C46.7608 53.0534 47.8832 53.6643 48.1735 56.0168C48.4693 58.4329 47.9219 59.2733 47.5874 59.5884C47.3607 59.804 46.2052 59.8814 45.5832 59.6962C44.823 59.464 43.1727 58.6623 42.3986 57.4128C41.4864 55.9477 41.2929 53.9905 42.3516 53.2248C43.8278 52.1466 45.5583 52.4452 46.1112 52.7244Z"
            fill="#FFA8A7"
          />
          <path
            d="M46.3572 57.2829C46.4863 57.2363 46.5915 57.1404 46.6499 57.0163C46.7082 56.8921 46.7148 56.7499 46.6682 56.6208C46.6217 56.4918 46.5258 56.3865 46.4016 56.3282C46.2775 56.2699 46.1352 56.2633 46.0062 56.3098L46.3572 57.2829Z"
            fill="#263238"
          />
          <path
            d="M40.9528 52.3318C40.1366 53.009 39.5655 53.9356 39.3274 54.9691C39.0683 56.228 39.256 57.5379 39.8581 58.6734C40.9058 60.3929 42.9294 60.954 44.8894 61.0093C45.5811 60.9917 46.253 60.7748 46.8244 60.3846C46.1997 60.2325 45.7878 59.793 45.7878 59.3064C45.8066 59.0367 45.8653 58.7712 45.9619 58.5186C46.018 58.2928 46.0385 58.0596 46.0228 57.8275C45.8425 57.8938 45.6471 57.9077 45.4592 57.8676C45.2714 57.8274 45.0987 57.735 44.9612 57.6008C44.4083 57.1336 44.3586 56.2186 45.0442 55.9892C45.7297 55.7597 46.0863 56.5559 46.0863 56.5559C48.707 55.9035 48.6545 53.2386 47.745 52.3263C46.9378 51.497 45.3648 51.204 44.3641 51.8508L44.541 52.3374C44.1302 52.3263 43.7192 52.354 43.3136 52.4203L43.4297 51.7292C43.4297 51.7292 42.2715 51.3201 40.9528 52.3318Z"
            fill="#263238"
          />
          <path
            d="M44.8147 51.6407C44.3559 51.5271 43.8731 51.558 43.4325 51.7292C44.1893 52.0582 44.8039 52.6463 45.1658 53.3879C45.483 54.2168 45.5949 55.1103 45.492 55.9919C45.7021 56.0715 45.8793 56.2195 45.9951 56.4121C47.3607 53.1888 44.8147 51.6407 44.8147 51.6407Z"
            fill="#7C3AED"
          />
          <path
            d="M40.0738 62.4662C40.4138 61.5843 40.9335 60.954 42.3157 60.9374L42.6834 61.0204C42.7801 61.518 44.2618 61.9769 45.7242 61.4682C45.9896 61.5506 46.2602 61.6152 46.5342 61.6617L47.2363 61.7612C48.3062 62.1068 48.7789 63.9341 48.895 66.8284C48.9309 67.8125 48.8203 68.9044 48.6185 70.9418C49.0443 73.8223 49.2792 76.2467 49.2792 76.2467C49.2792 76.2467 47.1451 77.1286 43.5127 76.6614C40.2617 76.2412 39.3661 75.3179 38.9597 74.8922C39.344 73.5832 39.8832 72.3248 40.5658 71.1436L40.787 69.9522C39.8581 65.9382 39.2085 64.6998 40.0738 62.4662Z"
            fill="#7C3AED"
          />
          <path
            d="M46.5314 61.6507C47.9495 61.8248 49.0194 62.1565 49.6884 63.4448C50.9296 65.8249 52.1044 67.9397 52.9282 68.8105C53.8101 69.7393 57.2407 70.9059 58.0562 70.7759C58.8717 70.646 59.6374 69.7946 60.0576 70.0323C60.4778 70.2701 59.5047 70.8838 59.5573 71.0856C59.6098 71.2874 61.1275 71.069 61.8269 70.5852C62.5262 70.1014 62.9326 71.4919 62.0314 72.5203C61.1302 73.5486 59.4633 73.8389 57.6084 73.4768C55.7535 73.1146 52.3173 72.2743 50.9738 71.0469C49.6531 69.8616 48.5115 68.4909 47.5846 66.9777C45.3012 64.1497 46.5314 61.6507 46.5314 61.6507Z"
            fill="#FFA8A7"
          />
        </svg>