    <svg width="68" height="76" viewBox="0 0 68 76" fill="none" xmlns="http://www.w3.org/2000/svg">
        <path
          d="M61.256 30.3613C62.3531 29.8701 63.2581 29.0695 63.8438 28.0721C63.9536 27.8814 64.0477 27.7053 64.1418 27.4998C64.2244 27.3473 64.2977 27.1905 64.3613 27.0303L63.8438 26.6927L63.4203 26.4873C63.3262 26.7221 63.2164 26.9422 63.1067 27.177C62.6897 28.1691 62.1641 29.1182 61.5383 30.0091L61.256 30.3613Z"
          fill="#E9E0FF"
        />
        <path
          d="M53.9628 32.4891C54.2583 32.6781 54.5412 32.8839 54.8097 33.1054C56.7826 34.7472 58.3826 36.7433 59.5147 38.9752L59.7499 39.4301H60.095C60.095 39.4301 60.2989 39.4301 60.4714 39.7089L61.2556 39.0779L62.275 38.4029C62.9835 37.877 63.7217 37.3872 64.4863 36.9354C64.14 37.0354 63.7818 37.0945 63.4199 37.1115C63.0391 37.1456 62.6557 37.1456 62.275 37.1115C59.2951 36.7006 56.8642 33.8685 56.0016 31.1097C55.8949 30.7686 55.8162 30.4203 55.7664 30.0679C55.7436 29.7944 55.7436 29.5196 55.7664 29.2461C55.4188 29.6777 55.0993 30.1286 54.8097 30.5961C54.4315 31.1857 54.1463 31.8233 53.9628 32.4891Z"
          fill="#E9E0FF"
        />
        <path
          d="M60.5191 39.4741C61.068 39.2246 61.617 38.9605 62.0875 38.667C62.6288 38.3767 63.1524 38.0582 63.6558 37.7132C63.9345 37.5271 64.2015 37.3262 64.4557 37.1115C64.717 36.9054 64.9489 36.6687 65.1457 36.4072C65.2536 36.2713 65.3432 36.1234 65.4123 35.9669C65.4615 35.8634 65.4983 35.7552 65.5221 35.6441C65.5466 35.5278 65.5466 35.4082 65.5221 35.2919V35.1158C65.5294 35.0672 65.5294 35.0178 65.5221 34.9691C65.4942 34.8638 65.4575 34.7608 65.4123 34.6609L65.2712 34.3674L65.1771 34.2207C65.0419 34.0918 64.8824 33.9873 64.7066 33.9125C64.5557 33.8576 64.3973 33.823 64.2361 33.8098C64.0853 33.7891 63.9321 33.7891 63.7813 33.8098C63.7141 33.7963 63.6446 33.7963 63.5774 33.8098H63.3578L63.7969 34.5435C64.3119 34.0328 64.774 33.4776 65.1771 32.8853C65.6081 32.2507 65.9458 31.5646 66.1808 30.8456C66.2959 30.4522 66.3694 30.0492 66.4004 29.6423C66.3996 29.1843 66.3037 28.7308 66.1181 28.3069C66.0348 28.0827 65.9187 27.8703 65.7731 27.6759C65.6402 27.4866 65.4761 27.3182 65.2869 27.177C64.9556 26.9439 64.5844 26.7653 64.189 26.6487L64.487 27.2064C64.5995 26.7727 64.673 26.3309 64.7066 25.8857C64.7687 25.4228 64.7687 24.9545 64.7066 24.4916C64.6582 23.9795 64.5037 23.4811 64.2518 23.0242L64.0479 22.6867L63.9224 22.5399L63.844 22.4372C63.7342 22.3492 63.6558 22.2611 63.546 22.1878L63.248 21.997C63.0522 21.876 62.8416 21.7775 62.6207 21.7035L62.2757 21.6008H62.1188H61.9306C61.4719 21.5839 61.0184 21.6964 60.6289 21.9236C60.2663 22.132 59.9341 22.3835 59.6408 22.672C59.3391 22.9496 59.0612 23.2489 58.8096 23.5671C58.3081 24.2014 57.8473 24.8629 57.4295 25.5482L56.8178 26.6047L56.2532 27.6759C55.5217 29.14 54.8726 30.6388 54.3085 32.1663C54.277 32.2394 54.2739 32.3205 54.2997 32.3956C54.3255 32.4706 54.3785 32.5349 54.4496 32.5772C54.4802 32.5972 54.5154 32.6102 54.5523 32.615C54.5893 32.6199 54.6269 32.6164 54.6622 32.605C54.6974 32.5935 54.7292 32.5743 54.755 32.5491C54.7807 32.5239 54.7997 32.4932 54.8104 32.4598C55.1397 31.7261 55.4848 30.9923 55.8298 30.288C56.1748 29.5836 56.5512 28.8205 56.9433 28.1749C57.633 26.7819 58.4571 25.4508 59.4056 24.1981C59.6358 23.9174 59.8874 23.6525 60.1584 23.4057C60.4084 23.1659 60.6873 22.9542 60.9896 22.7747C61.2548 22.6247 61.558 22.5437 61.8679 22.5399H61.9777H62.0875H62.3384C62.4959 22.5964 62.648 22.6651 62.7932 22.7454L62.9971 22.8921C63.0661 22.9335 63.1293 22.9828 63.1853 23.0389L63.2637 23.1269L63.4049 23.3324C63.5803 23.6595 63.6969 24.0116 63.7499 24.3742C63.9075 25.1894 63.9075 26.0244 63.7499 26.8395C63.7252 26.9445 63.7398 27.0542 63.7912 27.1504C63.8425 27.2465 63.9276 27.3233 64.0322 27.3678C64.3325 27.452 64.6141 27.5862 64.8634 27.764C65.1102 27.9363 65.2915 28.178 65.381 28.4537C65.4732 28.7638 65.5103 29.0861 65.4908 29.4075C65.4662 29.7455 65.4031 30.08 65.3026 30.4054C65.0899 31.0481 64.7839 31.6603 64.3929 32.225C64.0213 32.7827 63.5904 33.3038 63.1069 33.7805C63.0369 33.8671 62.9991 33.9727 62.9991 34.0813C62.9991 34.1899 63.0369 34.2955 63.1069 34.3821C63.154 34.4466 63.2228 34.4945 63.3023 34.5185C63.3818 34.5424 63.4675 34.5409 63.546 34.5142H63.6872H63.8283C63.9271 34.4999 64.0276 34.4999 64.1263 34.5142C64.2144 34.499 64.3048 34.499 64.3929 34.5142C64.4662 34.5446 64.5348 34.5841 64.5968 34.6316L64.6909 34.8077C64.6999 34.8661 64.6999 34.9254 64.6909 34.9838C64.6909 34.9838 64.6909 34.9838 64.6909 35.0718V35.1599C64.6978 35.2086 64.6978 35.2579 64.6909 35.3066C64.7032 35.3598 64.7032 35.4148 64.6909 35.468C64.6409 35.591 64.5779 35.709 64.5027 35.8202C64.3357 36.0506 64.141 36.2623 63.9224 36.4512C63.7524 36.6805 63.5692 36.9009 63.3735 37.1115C62.8873 37.4637 62.3854 37.7866 61.8052 38.0947C61.2249 38.4029 60.7701 38.6817 60.2368 38.9458C60.176 38.9822 60.1324 39.0389 60.1149 39.1044C60.0974 39.1699 60.1073 39.2392 60.1427 39.298C60.1178 39.3447 60.1137 39.3988 60.1313 39.4483C60.1489 39.4978 60.1869 39.5388 60.2368 39.5621C60.2867 39.5855 60.3445 39.5893 60.3975 39.5728C60.4504 39.5563 60.4942 39.5208 60.5191 39.4741Z"
          fill="#020202"
        />
        <path
          d="M53.555 31.9021C54.1283 30.3544 54.7879 28.836 55.5312 27.353L56.1114 26.2524C56.3153 25.8856 56.5192 25.5187 56.7231 25.1812C57.1548 24.4672 57.6368 23.7809 58.166 23.1268C58.4405 22.7899 58.7336 22.4666 59.0442 22.1583C59.3819 21.8305 59.7674 21.5489 60.1891 21.3219C60.7073 21.0444 61.3037 20.9215 61.8986 20.9697H62.1652H62.3691L62.7769 21.0724C63.0437 21.174 63.3008 21.2968 63.5454 21.4393L63.8433 21.6741L64.2041 21.9822L64.2982 22.0849V22.173L64.5805 22.4371C64.6784 22.5637 64.7675 22.696 64.8471 22.8333C65.1251 23.3194 65.3158 23.8449 65.4117 24.3888C65.4634 24.8768 65.4634 25.3683 65.4117 25.8562V26.3698C65.5433 26.4445 65.6691 26.5279 65.7881 26.6193C66.032 26.7911 66.244 26.9993 66.4154 27.2356C66.5967 27.4846 66.7392 27.7563 66.8389 28.0427C67.0088 28.5651 67.057 29.1156 66.98 29.6569C66.9535 30.1098 66.8693 30.5581 66.7291 30.9922C66.4792 31.7622 66.1205 32.4976 65.6626 33.1787L65.4431 33.5016L65.694 33.7804V33.8831L65.8038 34.0592C65.8822 34.1791 65.9453 34.3071 65.992 34.4407C66.0473 34.5687 66.0894 34.7014 66.1174 34.8369C66.1234 34.8857 66.1234 34.9349 66.1174 34.9837V35.057C66.1251 35.0958 66.1251 35.1356 66.1174 35.1744C66.1409 35.3449 66.1409 35.5175 66.1174 35.688C66.0824 35.8284 66.0352 35.9658 65.9763 36.0989C65.8776 36.3101 65.7567 36.5116 65.6156 36.7006C65.3958 36.9981 65.1377 37.2692 64.8471 37.5076C64.5911 37.7308 64.3186 37.9367 64.0315 38.124C63.5286 38.483 63.005 38.8162 62.4632 39.1218C61.93 39.4153 61.3654 39.6941 60.7851 39.9583L60.7067 40.0463C60.5373 40.09 60.3585 40.09 60.1891 40.0463C60.0669 40.0054 59.955 39.9412 59.8605 39.8579C59.7661 39.7746 59.691 39.6738 59.6402 39.562C59.563 39.3731 59.563 39.1641 59.6402 38.9751C59.6702 38.8576 59.7262 38.7473 59.8045 38.6512C59.8829 38.5552 59.9818 38.4756 60.095 38.4175C60.6126 38.1533 61.1301 37.8745 61.6634 37.581C62.1966 37.2875 62.0554 37.2875 62.275 37.1114C62.4946 36.9353 62.7141 36.8033 62.918 36.6565C63.1219 36.5098 63.3572 36.3044 63.5454 36.1429C63.7301 35.9928 63.8982 35.8256 64.0472 35.644L64.1727 35.4386V35.3505C64.1727 35.3505 64.1727 35.3505 64.1727 35.2625C64.1727 35.2625 64.1727 35.2625 64.0629 35.2625L63.6708 35.3358H63.3572C63.0811 35.3005 62.8293 35.1696 62.6514 34.969C62.5302 34.8117 62.4536 34.6283 62.4289 34.4358C62.4043 34.2433 62.4322 34.048 62.5103 33.8684L62.6828 33.6336L62.871 33.4135C63.2414 32.9734 63.567 32.5017 63.8433 32.0048C64.1989 31.4863 64.4735 30.923 64.6589 30.3319C64.75 30.0501 64.8078 29.7597 64.8314 29.4661C64.873 29.2428 64.873 29.0144 64.8314 28.7911L64.5962 28.4683L64.2825 28.3068L63.8433 28.0721C63.6488 28.0029 63.4777 27.886 63.348 27.7336C63.2184 27.5813 63.1348 27.3992 63.1062 27.2063C63.0827 27.085 63.0827 26.9607 63.1062 26.8394L63.2003 26.2378V25.7242C63.2333 25.3776 63.2333 25.0289 63.2003 24.6823C63.1321 24.4093 63.0211 24.1472 62.871 23.9046L62.7769 23.7578V23.6844L62.6514 23.5817L62.5103 23.479L62.1809 23.3323H62.0241H61.8045C61.6408 23.3382 61.4825 23.3892 61.3497 23.479C61.1185 23.5971 60.9027 23.7399 60.7067 23.9046C60.4518 24.1372 60.2158 24.3873 60.0009 24.6529C59.043 25.8001 58.193 27.0226 57.4602 28.3068C57.1309 28.9085 56.7858 29.5542 56.3624 30.4053C56.2683 30.6254 56.1585 30.8455 56.0487 31.0509H56.0017C55.735 31.5939 55.4998 32.1222 55.2959 32.5184C55.2485 32.6297 55.1764 32.7303 55.0845 32.8138C54.9927 32.8972 54.883 32.9616 54.7627 33.0026C54.6337 33.0423 54.4973 33.0562 54.3623 33.0436C54.2272 33.031 54.0965 32.992 53.9785 32.9293C53.8064 32.8171 53.6742 32.6594 53.5987 32.4763C53.5232 32.2933 53.508 32.0933 53.555 31.9021Z"
          fill="black"
        />
        <path
          d="M56.0004 31.1094C56.8787 33.8829 59.3096 36.715 62.2737 37.1112C62.509 36.9645 62.7129 36.8031 62.9168 36.6563C63.1207 36.5096 63.3559 36.3041 63.5441 36.1427C63.7288 35.9925 63.897 35.8254 64.046 35.6438L64.1714 35.4383V35.3503C64.1714 35.3503 64.1714 35.3503 64.1714 35.2622C64.1714 35.2622 64.1714 35.2622 64.0617 35.2622L63.6696 35.3356H63.3559C63.0799 35.3002 62.8281 35.1694 62.6501 34.9688C62.5289 34.8115 62.4524 34.628 62.4277 34.4355C62.403 34.243 62.431 34.0478 62.509 33.8682L62.6815 33.6334L62.8697 33.4133C63.2402 32.9732 63.5657 32.5015 63.8421 32.0046C64.1976 31.4861 64.4723 30.9228 64.6576 30.3317C64.7487 30.0498 64.8066 29.7595 64.8301 29.4659C64.8717 29.2426 64.8717 29.0142 64.8301 28.7909L64.5949 28.468L64.2812 28.3066L63.8421 28.0718C63.2564 29.0692 62.3514 29.8698 61.2543 30.361L61.4112 30.0088C62.037 29.1179 62.5625 28.1688 62.9795 27.1767C62.956 27.0554 62.956 26.9311 62.9795 26.8098L63.0736 26.2082V25.6946C63.1066 25.348 63.1066 24.9993 63.0736 24.6527C63.0423 24.3957 62.9737 24.144 62.8697 23.9043L62.7756 23.7576V23.6842L62.6501 23.5815L62.509 23.4788L62.1796 23.332H62.0228H61.8032C61.6395 23.3379 61.4813 23.389 61.3484 23.4788C61.1172 23.5969 60.9014 23.7397 60.7054 23.9043C60.4505 24.1369 60.2146 24.3871 59.9997 24.6527C59.0418 25.7999 58.1917 27.0224 57.4589 28.3066C57.1296 28.9083 56.7846 29.5539 56.3611 30.4051C56.267 30.6839 56.1572 30.904 56.0004 31.1094Z"
          fill="white"
        />
        <path
          fill-rule="evenodd"
          clip-rule="evenodd"
          d="M37.04 13.9553C37.8555 10.3454 36.0833 2.7148 31.6449 1.70228C25.8107 0.366913 28.2573 7.86549 28.2573 7.86549C28.2573 7.86549 24.556 0.425611 19.1766 3.14036C15.0519 5.23879 19.7882 11.3873 19.7882 11.3873C19.7882 11.3873 16.2908 8.10028 13.013 10.6976C10.535 12.664 14.895 15.7603 15.6949 18.4603C16.4947 21.1604 35.158 22.4371 37.04 13.9553Z"
          fill="#894CF4"
        />
        <mask
          id="mask0_7320_66165"
          mask-type="luminance"
          maskUnits="userSpaceOnUse"
          x="12"
          y="1"
          width="26"
          height="20"
        >
          <path
            d="M37.038 13.9556C37.8535 10.3457 36.0813 2.71505 31.6429 1.70252C25.8087 0.367158 28.2553 7.86573 28.2553 7.86573C28.2553 7.86573 24.554 0.425855 19.1746 3.1406C15.0499 5.23903 19.7863 11.3876 19.7863 11.3876C19.7863 11.3876 16.2889 8.10052 13.0111 10.6979C10.5331 12.6642 14.8931 15.7605 15.6929 18.4606C16.4928 21.1607 35.156 22.4373 37.038 13.9556Z"
            fill="white"
          />
        </mask>
        <g mask="url(#mask0_7320_66165)">
          <path
            fill-rule="evenodd"
            clip-rule="evenodd"
            d="M41.1172 10.1403C36.2061 12.2159 30.738 12.8503 25.4338 11.9599C16.4158 10.4925 19.2859 1.49716 21.6227 -0.733335C23.9596 -2.96383 4.59057 7.61635 4.59057 7.61635L8.30753 21.7037L19.6153 27.8669L40.2232 24.6679L41.1172 10.1403Z"
            fill="#5F2CCD"
          />
        </g>
        <path
          d="M20.4481 21.8355C21.7854 21.984 23.1324 22.0429 24.4787 22.0116C27.4524 21.981 30.3899 21.3974 33.1203 20.2947C34.507 19.7857 35.7425 18.972 36.7225 17.9223C37.7024 16.8726 38.398 15.6177 38.7506 14.2635C39.6602 10.1694 37.7782 1.52621 32.1009 0.220194C31.7872 0.220194 31.4735 0.1028 31.1755 0.073451C30.5085 -0.048197 29.82 -0.0184064 29.1678 0.160324C28.5156 0.339055 27.9187 0.661513 27.4272 1.10065C26.9193 1.59448 26.5525 2.2001 26.3607 2.86157C25.5362 2.15833 24.5641 1.62358 23.5064 1.29142C23.1232 1.17809 22.7293 1.09946 22.3301 1.05663C20.9456 0.926393 19.5533 1.21989 18.3622 1.89307C17.752 2.18376 17.2186 2.59797 16.8008 3.10563C16.3831 3.61328 16.0914 4.20163 15.947 4.82793C15.7067 5.9997 15.8041 7.21021 16.2293 8.33509C15.4467 8.27845 14.6601 8.37012 13.9163 8.60461C13.1725 8.8391 12.487 9.2116 11.9007 9.6998C11.309 10.1415 10.8825 10.7475 10.6824 11.4305C10.4823 12.1134 10.519 12.8382 10.7871 13.5005C11.2405 14.549 11.8418 15.536 12.575 16.4353C13.1916 17.199 13.693 18.0384 14.065 18.9299C14.2108 19.3309 14.4435 19.6995 14.7484 20.0125C15.0534 20.3256 15.424 20.5765 15.8372 20.7496C16.5596 21.0922 17.323 21.3532 18.1113 21.5273C18.8829 21.674 19.6632 21.777 20.4481 21.8355ZM30.705 3.08169L31.2383 3.16973C31.4459 3.21986 31.646 3.2938 31.8342 3.38985C33.2606 4.34238 34.2824 5.73489 34.72 7.32256C35.4788 9.34558 35.71 11.509 35.3944 13.6325C35.1846 14.4398 34.7801 15.1914 34.212 15.8298C33.6438 16.4682 32.927 16.9765 32.1165 17.3158C30.0718 18.2502 27.8485 18.7939 25.5766 18.9153C24.009 19.0327 22.4328 19.0032 20.8716 18.8272C20.3697 18.8272 19.9149 18.6952 19.4757 18.6218C18.6992 18.5244 17.952 18.2798 17.2801 17.9027C16.8141 16.76 16.1807 15.6834 15.398 14.7037C13.8297 12.62 13.8297 12.1211 14.1434 11.7689C14.4091 11.5405 14.7253 11.3695 15.0695 11.268C15.4137 11.1666 15.7775 11.1372 16.1352 11.1819C17.0618 11.3463 17.9173 11.7593 18.5975 12.3705C18.865 12.6165 19.2128 12.7714 19.5855 12.8108C19.812 12.8393 20.0424 12.8255 20.2632 12.7701C20.4839 12.7147 20.6907 12.6188 20.8716 12.4879C21.1998 12.2547 21.4167 11.91 21.4754 11.5282C21.5341 11.1465 21.4299 10.7585 21.1852 10.4482C20.3854 9.40632 18.8641 6.79429 19.2405 5.29751C19.2889 5.10015 19.3847 4.91569 19.5205 4.75807C19.6564 4.60045 19.8288 4.4738 20.0246 4.3877C20.5837 4.06824 21.2393 3.92907 21.891 3.99149C22.0663 4.01161 22.2395 4.04598 22.4085 4.09421C24.4787 4.82793 26.2039 7.49866 26.7215 8.48184C26.8347 8.72682 27.0172 8.93827 27.2493 9.09341C27.4815 9.24856 27.7545 9.34152 28.0389 9.36229C28.3018 9.42092 28.5758 9.42092 28.8387 9.36229C29.0371 9.30546 29.2215 9.21236 29.3812 9.08838C29.5408 8.96441 29.6726 8.81202 29.7689 8.64004C29.8652 8.46807 29.924 8.27993 29.942 8.08652C29.96 7.89312 29.9369 7.69829 29.8738 7.51333C29.671 6.8616 29.5345 6.19339 29.466 5.51762C29.2913 4.75468 29.4137 3.95842 29.8111 3.27245C29.9371 3.1831 30.082 3.11987 30.2361 3.08698C30.3902 3.05409 30.5501 3.05228 30.705 3.08169Z"
          fill="black"
        />
        <path
          d="M16.2285 20.0452C16.8885 20.3632 17.5896 20.5999 18.3144 20.7496C20.3298 21.1792 22.3971 21.3568 24.4623 21.2779C27.3224 21.2539 30.1486 20.6951 32.7745 19.6344C34.038 19.1645 35.1629 18.4184 36.0551 17.4585C36.9473 16.4986 37.581 15.3528 37.903 14.1168C38.7969 10.1694 36.8836 2.08389 31.8492 0.90994C31.1956 0.686664 30.49 0.631515 29.8059 0.750242C29.1218 0.868969 28.4842 1.15722 27.9597 1.58496C27.2266 2.36559 26.8396 3.37855 26.8776 4.4171C25.9123 3.30604 24.6444 2.45938 23.2076 1.96649C22.4713 1.7499 21.6946 1.67979 20.9275 1.76066C20.1605 1.84153 19.42 2.07159 18.7536 2.43607C18.2606 2.67744 17.8298 3.0165 17.4912 3.4296C17.1527 3.8427 16.9144 4.31991 16.7931 4.82798C16.5258 6.32536 16.7614 7.86346 17.4675 9.23028C16.6157 8.9483 15.6984 8.88672 14.8123 9.05202C13.9262 9.21732 13.1042 9.60337 12.4332 10.1694C11.9579 10.5206 11.616 11.0055 11.4578 11.5525C11.2997 12.0995 11.3337 12.6795 11.5549 13.207C11.9766 14.2124 12.541 15.1601 13.233 16.0245C13.8942 16.8532 14.4226 17.7677 14.8014 18.7392C14.9286 19.0381 15.1213 19.3087 15.3671 19.5336C15.613 19.7586 15.9064 19.9329 16.2285 20.0452ZM32.2099 2.7589C33.8514 3.7892 35.0165 5.36153 35.4721 7.1612C36.2746 9.31204 36.5218 11.61 36.1935 13.8674C35.9561 14.7818 35.4976 15.6331 34.8531 16.3557C34.2087 17.0782 33.3956 17.6527 32.4765 18.0349C30.3298 19.0155 27.9931 19.5796 25.6072 19.6931C23.4847 19.8552 21.3486 19.7516 19.2554 19.3849C17.1695 18.9887 16.5579 18.4457 16.5108 18.3284C16.0987 17.1687 15.4897 16.0786 14.7072 15.1C13.2487 13.0749 12.6527 12.0477 13.5937 11.2994C16.1972 9.24495 19.0359 11.8276 19.1457 11.9304C19.3014 12.0751 19.5079 12.1623 19.7269 12.1757C19.946 12.1892 20.1629 12.1281 20.3376 12.0037C20.5063 11.879 20.618 11.6989 20.65 11.5C20.6821 11.3011 20.6321 11.0982 20.5101 10.9325C19.773 9.97867 17.9694 7.08783 18.4556 5.20952C18.5249 4.91244 18.6654 4.63396 18.8664 4.39503C19.0675 4.1561 19.3238 3.96296 19.6162 3.83013C20.0654 3.57422 20.5681 3.41164 21.0904 3.35341C21.6126 3.29518 22.1421 3.34266 22.643 3.49262C25.5131 4.32906 27.4265 8.14438 27.4578 8.1884C27.5533 8.37287 27.7179 8.51811 27.9203 8.59656C28.1226 8.67501 28.3488 8.6812 28.5557 8.61396C28.763 8.54983 28.9358 8.4133 29.038 8.23285C29.1403 8.0524 29.1642 7.84196 29.1046 7.64545C28.8806 6.94717 28.7334 6.22929 28.6655 5.503C28.5557 5.02416 28.5491 4.52965 28.6461 4.0484C28.743 3.56714 28.9415 3.10881 29.2301 2.70021C29.6535 2.304 30.3906 2.23063 31.4257 2.46542C31.7004 2.52866 31.9644 2.62744 32.2099 2.7589Z"
          fill="black"
        />
        <path
          d="M32.5075 75.969C22.6072 75.969 14.5814 75.1281 14.5814 74.0907C14.5814 73.0534 22.6072 72.2124 32.5075 72.2124C42.4078 72.2124 50.4336 73.0534 50.4336 74.0907C50.4336 75.1281 42.4078 75.969 32.5075 75.969Z"
          fill="#E9E0FF"
        />
        <path
          d="M8.76405 60.4434C8.89103 60.7678 9.09996 61.0587 9.37305 61.2912C9.64613 61.5237 9.97527 61.691 10.3324 61.7788C10.2383 61.9255 9.40707 63.2462 9.76778 64.0826C10.1285 64.9191 11.838 65.4474 13.7043 64.3468C13.3279 65.7262 13.422 66.3425 13.7043 66.5773C14.708 67.5018 19.8208 64.6549 19.9777 60.5608C20.0024 59.1389 19.4853 57.7552 18.5191 56.6574C17.8126 56.0011 16.9128 55.557 15.9349 55.3818C14.9571 55.2067 13.9456 55.3085 13.0299 55.6743C10.7245 56.4814 8.37196 58.9173 8.76405 60.4434Z"
          fill="#894CF4"
        />
        <path
          d="M12.5741 56.4375C12.6956 56.7884 12.8531 57.1275 13.0446 57.45C11.0998 58.4039 9.57853 60.2675 9.81378 61.192C9.90788 61.5735 10.3784 61.911 11.1155 62.1458C11.1989 62.1762 11.2728 62.2257 11.3303 62.2898C11.3879 62.3539 11.4273 62.4306 11.4449 62.5127C11.4749 62.6006 11.4835 62.6937 11.4699 62.7852C11.4563 62.8766 11.421 62.964 11.3664 63.0409C11.0685 63.4958 10.6764 64.3176 10.8646 64.7578C10.9797 64.9688 11.1757 65.1313 11.4135 65.2127C11.8718 65.3308 12.3527 65.3499 12.82 65.2686C13.2874 65.1872 13.7288 65.0076 14.111 64.7432C14.2 64.6934 14.3045 64.6735 14.4071 64.6868C14.5098 64.7002 14.6046 64.7459 14.6756 64.8165C14.7498 64.9014 14.8013 65.0015 14.8259 65.1087C14.8504 65.2159 14.8473 65.327 14.8168 65.4329C14.4561 66.7682 14.6443 67.047 14.6443 67.047C14.6443 67.047 15.3343 67.1791 16.4322 66.5921C17.5831 65.9696 18.5484 65.0866 19.2395 64.0241C19.3615 64.2 19.4978 64.3668 19.6473 64.5231L19.9609 64.8312C19.1616 66.0406 18.0577 67.0483 16.7458 67.7661C16.1793 68.0725 15.5473 68.2579 14.8952 68.309C14.7352 68.3179 14.575 68.2964 14.4241 68.246C14.2732 68.1956 14.1347 68.1172 14.0169 68.0155C13.8156 67.7595 13.6785 67.4642 13.6161 67.1516C13.5536 66.8391 13.5673 66.5175 13.6562 66.2106C12.8565 66.5403 11.9512 66.5666 11.1312 66.284C10.8729 66.1952 10.6375 66.0566 10.4402 65.8771C10.243 65.6976 10.0883 65.4812 9.9863 65.2421C9.86767 64.8709 9.82876 64.4814 9.87183 64.096C9.9149 63.7107 10.0391 63.3371 10.2372 62.9969C9.90905 62.8628 9.61738 62.6613 9.38388 62.4072C9.15038 62.1532 8.98104 61.8532 8.88846 61.5295C8.40228 59.7832 10.3784 57.5527 12.5741 56.4375Z"
          fill="black"
        />
        <path
          d="M14.8951 68.9986C15.687 68.9539 16.456 68.7325 17.1378 68.3529C18.5697 67.6022 19.7775 66.5276 20.6509 65.2273L21.043 64.6697L20.4784 64.2295C20.4013 64.1648 20.328 64.0962 20.2588 64.024C20.1383 63.8641 20.0284 63.6975 19.9294 63.5251L19.208 62.5713L18.5493 63.5691C17.9318 64.5212 17.0691 65.3133 16.04 65.873C15.8653 65.9712 15.6816 66.0547 15.491 66.1224C15.491 65.9757 15.5695 65.7849 15.6322 65.5648C15.7024 65.3322 15.706 65.0864 15.6427 64.852C15.5794 64.6176 15.4514 64.403 15.2715 64.2295C15.0716 64.0365 14.8077 63.9125 14.5229 63.8779C14.2381 63.8432 13.9491 63.8999 13.7031 64.0387C13.4329 64.2393 13.1171 64.3794 12.7799 64.4481C12.4428 64.5167 12.0934 64.5122 11.7584 64.4349H11.6643C11.7416 64.0746 11.8906 63.7312 12.1034 63.4224C12.2114 63.2544 12.2823 63.0678 12.3119 62.8737C12.3416 62.6797 12.3293 62.482 12.276 62.2925C12.2193 62.0873 12.1095 61.8983 11.9564 61.7422C11.8032 61.5861 11.6113 61.4676 11.3977 61.3973C10.8645 61.2359 10.6606 61.0451 10.6449 60.9864C10.5508 60.5902 11.6486 59.0054 13.4522 58.0516L14.205 57.6847L13.7972 56.995C13.6359 56.7124 13.4995 56.418 13.3895 56.1146L13.0758 55.2488L12.2289 55.6743C9.79798 56.8923 7.52389 59.3869 8.08849 61.5441C8.26707 62.1825 8.67041 62.746 9.23338 63.1436C8.96687 63.8611 8.96687 64.6418 9.23338 65.3594C9.37844 65.6887 9.59169 65.9879 9.86086 66.2397C10.13 66.4916 10.4498 66.6911 10.8017 66.8268C11.445 67.0607 12.1429 67.1316 12.8249 67.0323C12.8697 67.5129 13.0914 67.9642 13.4522 68.3089C13.6302 68.5094 13.8499 68.6739 14.0979 68.7925C14.346 68.911 14.6172 68.9812 14.8951 68.9986Z"
          fill="black"
        />
        <path
          d="M32.4771 17.0369C46.5921 17.0369 58.041 28.3067 58.041 42.174C58.041 56.0412 46.5921 67.3111 32.4771 67.3111C18.362 67.3111 6.91316 56.0559 6.91316 42.174C6.91316 28.2921 18.362 17.0369 32.4771 17.0369ZM32.4771 65.2126C37.3118 65.2043 42.0106 63.7148 45.855 60.9718C44.7729 61.1919 17.1074 66.504 9.3284 40.5598C9.3284 41.0881 9.3284 41.631 9.3284 42.174C9.29704 54.8819 19.7108 65.2126 32.4771 65.2126Z"
          fill="white"
        />
        <path
          d="M32.4761 14.9385C47.8772 14.9385 60.3926 27.1622 60.3926 42.174C60.3926 57.1858 47.9086 69.3949 32.4761 69.3949C17.0437 69.3949 4.55971 57.1712 4.55971 42.1593C4.55971 27.1475 17.1221 14.9385 32.4761 14.9385ZM32.4761 65.2127C37.3108 65.2044 42.0096 63.7148 45.8541 60.9718C48.9273 58.762 51.4117 55.916 53.1123 52.6572C54.813 49.3983 55.6837 45.8152 55.6562 42.1887C55.6562 29.4954 45.2424 19.15 32.4448 19.15C20.1961 19.15 10.143 28.6149 9.2961 40.5598C9.2961 41.0881 9.2961 41.6311 9.2961 42.174C9.2961 54.882 19.7099 65.2127 32.4761 65.2127Z"
          fill="black"
        />
        <path
          d="M9.29543 42.174C9.29543 54.8819 19.7092 65.2127 32.5068 65.2127C37.3415 65.2043 42.0403 63.7148 45.8848 60.9718C44.8026 61.1919 17.1371 66.504 9.35815 40.5598C9.3111 41.0881 9.29543 41.631 9.29543 42.174Z"
          fill="#E9E0FF"
        />
        <path
          d="M57.8997 57.0685C57.9411 57.4527 57.8984 57.8408 57.7744 58.2091C57.6504 58.5774 57.4476 58.9183 57.1783 59.2109C57.3351 59.2109 58.6525 59.8126 58.7466 60.7811C58.8407 61.7496 57.6802 63.217 55.61 63.4665C56.6137 64.3909 56.8176 64.9339 56.7078 65.3154C56.3157 66.7829 50.6697 67.5459 48.5524 64.2149C47.8417 62.9387 47.615 61.4745 47.9094 60.062C48.1457 59.0804 48.6477 58.1721 49.3673 57.4243C50.0869 56.6765 50.9998 56.1144 52.0185 55.7918C54.3553 54.9847 57.5704 55.5423 57.8997 57.0685Z"
          fill="#894CF4"
        />
        <path
          d="M53.3985 67.1207C53.8561 67.1193 54.3127 67.08 54.763 67.0033C55.3903 66.8859 56.8802 66.519 57.1782 65.5358C57.2273 65.2363 57.2065 64.9303 57.1171 64.639C57.0278 64.3477 56.8721 64.0779 56.6607 63.8483C57.531 63.5956 58.2868 63.0794 58.8093 62.3809C59.1546 61.9132 59.3153 61.3478 59.2641 60.7814C59.195 60.4234 59.0426 60.084 58.8176 59.7873C58.5926 59.4906 58.3007 59.2438 57.9624 59.0645C58.3889 58.4537 58.541 57.7103 58.3858 56.9954C57.8526 55.0144 54.3709 54.4714 51.8459 55.3372C50.7415 55.6953 49.7536 56.3122 48.9766 57.1291C48.1996 57.9461 47.6594 58.9357 47.4075 60.0036C47.1043 61.556 47.3696 63.1587 48.1603 64.5527C48.7156 65.3733 49.4921 66.0427 50.4116 66.4934C51.3311 66.9442 52.3613 67.1606 53.3985 67.1207ZM57.4291 57.2302C57.4511 57.8195 57.226 58.3935 56.8018 58.8297C56.6935 58.9858 56.6542 59.1752 56.692 59.358C56.7141 59.4419 56.7549 59.5206 56.8116 59.5889C56.8684 59.6571 56.9398 59.7134 57.0214 59.7542C57.4919 59.9303 58.2133 60.3852 58.276 60.8547C58.2794 61.1183 58.1914 61.3757 58.0251 61.5885C57.7357 61.9591 57.3648 62.2674 56.9374 62.4927C56.51 62.718 56.0359 62.855 55.5471 62.8945C55.4401 62.9142 55.3421 62.9642 55.2664 63.0377C55.1907 63.1111 55.1409 63.2046 55.1237 63.3053C55.0924 63.4098 55.0903 63.52 55.1178 63.6254C55.1453 63.7308 55.2013 63.8278 55.2805 63.907C56.2372 64.7874 56.2215 65.1396 56.2215 65.1396C56.2215 65.1396 55.704 65.6973 54.512 65.888C53.4771 66.1101 52.395 66.0389 51.4034 65.6835C50.4119 65.328 49.5559 64.7045 48.9444 63.8923C48.3183 62.7538 48.1195 61.4514 48.3798 60.1944C48.6039 59.306 49.0675 58.4862 49.7264 57.8132C50.3854 57.1401 51.2176 56.6363 52.1438 56.3497C54.4336 55.5573 57.1468 56.1883 57.4291 57.2302Z"
          fill="black"
        />
        <path
          d="M53.398 67.9273C53.9241 67.9305 54.4493 67.8863 54.9663 67.7953C55.9387 67.6192 57.6168 67.1202 58.0089 65.7409C58.1314 65.2502 58.0819 64.7357 57.8678 64.2734C58.5481 63.9215 59.1247 63.4173 59.5459 62.806C59.9994 62.1501 60.1884 61.3646 60.0791 60.5902C59.9752 59.8623 59.5835 59.1974 58.9813 58.7265C59.2512 58.087 59.3059 57.3856 59.1381 56.7162C59.0125 56.2884 58.7928 55.8899 58.493 55.5462C58.1932 55.2026 57.82 54.9213 57.3973 54.7205C56.4859 54.3315 55.5015 54.1145 54.5005 54.0817C53.4994 54.049 52.5012 54.2012 51.5631 54.5297C50.3242 54.9313 49.2163 55.624 48.3458 56.5413C47.4752 57.4587 46.8711 58.5699 46.5914 59.7684C46.2122 61.5489 46.5118 63.3974 47.4383 64.9925C48.0709 65.9264 48.954 66.6889 49.9997 67.2038C51.0454 67.7188 52.2171 67.9682 53.398 67.9273ZM55.1702 64.9925C54.9307 65.0655 54.6837 65.1147 54.4331 65.1392C53.563 65.3258 52.6535 65.2696 51.8173 64.9775C50.981 64.6853 50.2546 64.1702 49.7281 63.4957C49.2081 62.5201 49.0429 61.4123 49.2576 60.3407C49.4493 59.5902 49.8401 58.8969 50.3938 58.325C50.9475 57.753 51.6463 57.3209 52.4256 57.0683C53.6399 56.6196 54.9911 56.6196 56.2053 57.0683C56.519 57.2151 56.6288 57.3472 56.6288 57.3765C56.6288 57.4059 56.6288 57.67 56.1426 58.345C56.0213 58.5077 55.9366 58.6917 55.8934 58.8859C55.8503 59.0801 55.8497 59.2805 55.8917 59.4749C55.9372 59.6773 56.0335 59.8666 56.1726 60.0273C56.3116 60.188 56.4895 60.3156 56.6915 60.3994C56.9837 60.5176 57.2457 60.6927 57.46 60.913C57.4271 60.9905 57.385 61.0644 57.3345 61.1331C57.1079 61.4082 56.8217 61.6354 56.4946 61.7998C56.1676 61.9642 55.8071 62.062 55.4368 62.087C55.1674 62.1278 54.9173 62.2434 54.7188 62.4186C54.5203 62.5939 54.3826 62.8209 54.3233 63.0701C54.2641 63.3045 54.2675 63.549 54.3331 63.7818C54.3988 64.0147 54.5247 64.2289 54.6997 64.4055C54.8704 64.5911 55.0276 64.7872 55.1702 64.9925Z"
          fill="black"
        />
        <path
          d="M19.7567 33.9418C20.8967 33.5825 21.8816 32.8875 22.5641 31.9608C22.6969 31.7925 22.8174 31.616 22.9248 31.4325C23.0189 31.2858 23.113 31.139 23.1914 30.9923L22.6739 30.6401L22.2975 30.3906L21.9211 31.0363C21.3445 31.9487 20.6776 32.8085 19.9293 33.6043L19.7567 33.9418Z"
          fill="#E9E0FF"
        />
        <path
          d="M13.233 35.9082C14.9405 37.7936 16.2401 39.9716 17.0597 42.3209C17.0597 42.4823 17.1695 42.6584 17.2323 42.8198H17.3734H17.5459C17.6243 42.8198 17.7184 42.8932 17.8753 43.1426C18.1419 42.9665 18.4085 42.7758 18.7065 42.5997C19.0358 42.3942 19.3652 42.1888 19.7102 41.998C20.4489 41.5749 21.2135 41.1927 22 40.8534C21.6504 40.8824 21.2988 40.8824 20.9492 40.8534C20.6074 40.875 20.2641 40.8503 19.9298 40.7801C17.1068 40.0317 15.0993 36.9354 14.6445 34.0739C14.5904 33.7189 14.559 33.3612 14.5504 33.0027C14.5267 32.7292 14.5267 32.4544 14.5504 32.1809C14.1652 32.5724 13.8039 32.984 13.4682 33.4136C13.0403 33.9573 12.6971 34.5551 12.4488 35.1891C12.7468 35.4239 12.9977 35.644 13.233 35.9082Z"
          fill="#E9E0FF"
        />
        <path
          d="M17.9547 42.9811C18.5193 42.7904 19.0683 42.5849 19.6172 42.3648C20.155 42.1384 20.6786 41.8837 21.1855 41.6017C21.4563 41.454 21.7181 41.2924 21.9697 41.1175C22.2463 40.9356 22.499 40.7238 22.7225 40.4865C22.8494 40.3482 22.9647 40.201 23.0675 40.0463C23.1188 39.9522 23.1607 39.8539 23.193 39.7528C23.2035 39.6356 23.2035 39.5178 23.193 39.4006V39.2245C23.193 39.2245 23.193 39.1218 23.193 39.0631V38.7402C23.1635 38.6354 23.1268 38.5325 23.0832 38.4321C23.0634 38.3804 23.0371 38.3312 23.0048 38.2853C23.0132 38.2615 23.0132 38.2358 23.0048 38.212C22.8938 38.0676 22.7556 37.9433 22.597 37.8451C22.4539 37.7723 22.3009 37.718 22.1422 37.6837C22.0015 37.6691 21.8595 37.6691 21.7188 37.6837H21.5149C21.4424 37.6699 21.3678 37.6699 21.2953 37.6837L21.6247 38.4468C22.1975 38.0068 22.7228 37.5153 23.193 36.9793C23.6789 36.3903 24.0796 35.744 24.3849 35.057C24.5547 34.6844 24.6809 34.2957 24.7613 33.8977C24.8478 33.4513 24.8478 32.9941 24.7613 32.5477C24.711 32.313 24.6265 32.0859 24.5104 31.8727C24.4059 31.6727 24.2683 31.4895 24.1026 31.3297C23.8164 31.0552 23.4754 30.8358 23.0989 30.684L23.3342 31.271C23.4928 30.8508 23.6134 30.4188 23.6949 29.9797C23.796 29.5209 23.8486 29.054 23.8517 28.5856C23.8475 28.085 23.752 27.5887 23.5694 27.1182C23.5295 26.9963 23.477 26.8783 23.4126 26.766L23.3185 26.5899V26.5165C23.2476 26.4097 23.1633 26.3112 23.0675 26.223L22.8009 25.9883C22.6268 25.8481 22.4376 25.7251 22.2363 25.6214L21.9226 25.4893H21.7658H21.5933C21.1555 25.4184 20.705 25.4801 20.3073 25.6654C19.9295 25.8266 19.5761 26.0338 19.2565 26.2817C18.9307 26.5276 18.6265 26.7975 18.3468 27.0888C17.7818 27.6573 17.2579 28.2602 16.7785 28.8938L16.0727 29.877C15.8375 30.1998 15.6179 30.5373 15.3984 30.8748C14.5161 32.2487 13.7099 33.6642 12.9831 35.1157C12.9457 35.1862 12.9346 35.2665 12.9517 35.3437C12.9687 35.4208 13.0129 35.4904 13.0772 35.5412C13.0978 35.5657 13.124 35.5854 13.1538 35.599C13.1837 35.6125 13.2165 35.6196 13.2497 35.6196C13.283 35.6196 13.3157 35.6125 13.3456 35.599C13.3755 35.5854 13.4017 35.5657 13.4222 35.5412C13.83 34.8515 14.2535 34.1619 14.6769 33.5015C15.1004 32.8412 15.5395 32.1661 15.9943 31.5205C16.855 30.247 17.8365 29.0486 18.9271 27.9399C19.189 27.6899 19.4665 27.4547 19.7583 27.2356C20.0266 27.0301 20.3217 26.8576 20.6366 26.722C20.9001 26.5885 21.204 26.542 21.4992 26.5899H21.5933H21.7031L21.9383 26.678C22.0838 26.7524 22.2204 26.8409 22.3461 26.9421L22.5343 27.1035C22.5956 27.1546 22.6484 27.214 22.6911 27.2796C22.6992 27.3134 22.6992 27.3485 22.6911 27.3823C22.7342 27.4527 22.7709 27.5264 22.8009 27.6024C22.94 27.9449 23.0143 28.3074 23.0205 28.6737C23.0338 29.4596 22.912 30.2424 22.6598 30.9922C22.6301 31.095 22.6353 31.2038 22.6746 31.3037C22.7139 31.4036 22.7855 31.4896 22.8793 31.5498C23.1678 31.6677 23.4289 31.8372 23.6478 32.0488C23.8588 32.2557 24.0005 32.5158 24.0556 32.7971C24.1182 33.1124 24.1182 33.4357 24.0556 33.751C23.9928 34.0827 23.8929 34.4073 23.7576 34.7195C23.4712 35.33 23.1079 35.9064 22.6754 36.4364C22.2431 36.9386 21.7599 37.4005 21.2326 37.8158C21.152 37.8917 21.1006 37.9905 21.0864 38.0967C21.0723 38.2029 21.0961 38.3105 21.1542 38.4027C21.1885 38.4728 21.2484 38.5291 21.3232 38.5613C21.398 38.5936 21.4827 38.5998 21.5619 38.5788H21.6874H21.8442H22.1265L22.3775 38.6522L22.5657 38.7989V38.8723C22.5747 38.9307 22.5747 38.99 22.5657 39.0484V39.2245V39.4153C22.5733 39.459 22.5733 39.5036 22.5657 39.5473C22.5743 39.6008 22.5743 39.6552 22.5657 39.7087C22.5135 39.8277 22.4391 39.937 22.3461 40.0316C22.1554 40.2443 21.9397 40.4363 21.7031 40.6039C21.4757 40.7817 21.2346 40.9436 20.9816 41.0881C20.4798 41.3816 19.9622 41.6458 19.4133 41.8952C18.8644 42.1447 18.3468 42.3648 17.845 42.5556C17.7851 42.5892 17.7398 42.6414 17.7168 42.703C17.6939 42.7647 17.6949 42.832 17.7195 42.8931C17.7468 42.926 17.783 42.9514 17.8244 42.9669C17.8657 42.9824 17.9107 42.9873 17.9547 42.9811Z"
          fill="#020202"
        />
        <path
          d="M12.0882 34.5727C12.8254 33.1052 13.6566 31.6378 14.5349 30.2731L15.2249 29.2459L16.0248 28.3067C16.511 27.6547 17.0346 27.0277 17.5931 26.4284C17.9005 26.1285 18.2251 25.8443 18.5655 25.5773C18.9262 25.2923 19.3274 25.0553 19.7574 24.873C20.2886 24.602 20.901 24.504 21.4983 24.5941L21.7649 24.6675H21.9531L22.3295 24.8143C22.5899 24.9825 22.8363 25.1689 23.0666 25.3719L23.3646 25.6507C23.482 25.7576 23.5871 25.8756 23.6783 26.0029L23.7724 26.1203V26.2083C23.82 26.2735 23.862 26.3422 23.8978 26.4138C23.9752 26.5515 24.0433 26.6936 24.1017 26.8393C24.302 27.3821 24.4028 27.9526 24.3997 28.5269C24.4101 29.0201 24.3574 29.5127 24.2429 29.9943C24.2154 30.1622 24.1787 30.3288 24.1331 30.4932C24.2556 30.5883 24.3709 30.6913 24.4781 30.8014C24.6852 31.0068 24.8595 31.2391 24.9957 31.4911C25.1449 31.7534 25.2507 32.0354 25.3093 32.3275C25.4099 32.8467 25.4099 33.3785 25.3093 33.8977C25.2244 34.3408 25.0876 34.7738 24.9016 35.189C24.5734 35.9323 24.1352 36.6288 23.5999 37.2581C23.5214 37.3461 23.443 37.4488 23.3489 37.5369L23.5685 37.8451C23.5629 37.884 23.5629 37.9235 23.5685 37.9624L23.6626 38.1532C23.7137 38.2875 23.7556 38.4248 23.7881 38.5641C23.8246 38.6942 23.8508 38.8266 23.8665 38.9603C23.8742 39.0089 23.8742 39.0584 23.8665 39.107V39.1804C23.8732 39.2193 23.8732 39.2589 23.8665 39.2978C23.8581 39.4672 23.8264 39.6349 23.7724 39.7967C23.7229 39.934 23.6599 40.0666 23.5842 40.1929C23.4716 40.3929 23.3348 40.58 23.1764 40.7506C22.9231 41.0143 22.6391 41.2505 22.3295 41.4549C22.0596 41.6478 21.7767 41.8243 21.4826 41.9832C20.9325 42.2737 20.3672 42.5381 19.7888 42.7756C19.2399 43.0104 18.6596 43.2159 18.0793 43.4066C18.0174 43.4198 17.953 43.4198 17.8911 43.4066C17.7234 43.4207 17.5549 43.3902 17.4049 43.3186C17.2921 43.2616 17.1925 43.1842 17.1117 43.0911C17.031 42.9979 16.9707 42.8907 16.9344 42.7756C16.8639 42.5805 16.8639 42.3691 16.9344 42.174C16.9758 42.0642 17.0421 41.964 17.1287 41.8804C17.2153 41.7969 17.3202 41.7318 17.4363 41.6897C17.9695 41.4843 18.4871 41.2642 19.0046 41.0294L19.9299 40.7799C20.1569 40.6696 20.3768 40.5471 20.5886 40.4131L21.263 39.9728C21.4518 39.8224 21.6299 39.6607 21.7963 39.4886C21.8536 39.4322 21.9013 39.3679 21.9374 39.2978V39.2098C21.9374 39.2098 21.9374 39.2098 21.9374 39.1217H21.8433H21.4512H21.1532C21.019 39.09 20.8929 39.0334 20.7825 38.9552C20.672 38.8771 20.5794 38.779 20.5102 38.6668C20.4056 38.4973 20.3505 38.305 20.3505 38.1092C20.3505 37.9134 20.4056 37.7211 20.5102 37.5516L20.6984 37.3461L20.8709 37.1113C21.299 36.753 21.6926 36.3602 22.0472 35.9374C22.4677 35.4424 22.811 34.8939 23.0666 34.3085C23.1872 34.0344 23.2765 33.7491 23.3332 33.4574C23.371 33.2387 23.371 33.0158 23.3332 32.7971L23.145 32.4302L22.9255 32.1661C22.8133 32.0859 22.6924 32.0171 22.5648 31.9607C22.3828 31.8717 22.2316 31.7362 22.1288 31.5699C22.0261 31.4036 21.976 31.2134 21.9845 31.0215C21.9538 30.9009 21.9538 30.7752 21.9845 30.6546C21.9845 30.4492 22.0942 30.2584 22.1413 30.0677L22.2511 29.5541C22.281 29.2122 22.281 28.8687 22.2511 28.5269C22.2498 28.2357 22.1913 27.9472 22.0786 27.6758C22.0786 27.6758 22.0786 27.5584 22.0786 27.5143V27.4263L21.9688 27.3089L21.8433 27.2062C21.7487 27.1293 21.6432 27.0651 21.5296 27.0154C21.4833 27.0048 21.4349 27.0048 21.3885 27.0154H21.3101C21.1471 26.9924 20.9806 27.0236 20.8396 27.1035C20.5795 27.2139 20.3368 27.3571 20.1181 27.529C19.8432 27.7292 19.5862 27.95 19.3497 28.1894C18.2892 29.2718 17.3339 30.4406 16.4953 31.6818C16.1032 32.2248 15.6954 32.8264 15.1936 33.6335L14.8015 34.2352C14.4878 34.7488 14.1898 35.2477 13.9546 35.7026C13.8229 35.9027 13.6158 36.0493 13.3743 36.1135C13.2487 36.1355 13.1195 36.1325 12.9952 36.1047C12.8709 36.0769 12.7542 36.0249 12.6528 35.9521C12.5144 35.9015 12.3887 35.8245 12.2839 35.7258C12.1791 35.6272 12.0975 35.5091 12.0443 35.3793C11.9912 35.2494 11.9676 35.1105 11.9752 34.9716C11.9827 34.8327 12.0213 34.6968 12.0882 34.5727Z"
          fill="black"
        />
        <path
          d="M14.6594 34.0738C15.1299 36.9353 17.1217 40.0463 19.929 40.78L20.5877 40.4131C20.8226 40.2804 21.0479 40.1333 21.2621 39.9729C21.4547 39.8264 21.6331 39.6644 21.7954 39.4887C21.8527 39.4323 21.9003 39.368 21.9365 39.2979V39.2099C21.9365 39.2099 21.9365 39.2099 21.9365 39.1218H21.8424H21.4503H21.1523C21.0181 39.0901 20.892 39.0335 20.7816 38.9553C20.6711 38.8772 20.5785 38.7791 20.5093 38.6669C20.4091 38.496 20.3566 38.3042 20.3566 38.1093C20.3566 37.9143 20.4091 37.7226 20.5093 37.5517L20.7132 37.3462L20.87 37.1114C21.2981 36.7531 21.6917 36.3603 22.0463 35.9375C22.4707 35.4396 22.8142 34.8858 23.0657 34.294C23.1882 34.0255 23.2777 33.7449 23.3323 33.4575C23.3788 33.2396 23.3788 33.0151 23.3323 32.7972L23.1598 32.4303L22.9402 32.1662C22.8281 32.086 22.7072 32.0172 22.5795 31.9607C21.897 32.8875 20.9121 33.5825 19.7722 33.9418L19.929 33.6043C20.6589 32.7874 21.3048 31.9079 21.8581 30.9776C21.8274 30.857 21.8274 30.7313 21.8581 30.6107C21.8581 30.4053 21.9679 30.2145 22.0149 30.0237L22.1247 29.5101C22.155 29.1683 22.155 28.8247 22.1247 28.4829C22.119 28.1934 22.0661 27.9064 21.9679 27.6318L21.8895 27.4704V27.3824L21.7797 27.265L21.6542 27.1622C21.5625 27.0888 21.4626 27.0249 21.3562 26.9715H21.2151H21.121C20.958 26.9485 20.7915 26.9797 20.6505 27.0595C20.3875 27.1733 20.14 27.3162 19.9134 27.4851C19.6472 27.6895 19.3957 27.9101 19.1605 28.1454C18.0992 29.2219 17.1438 30.3859 16.3062 31.6232C15.9141 32.1809 15.5063 32.7825 15.0044 33.5896C14.9103 33.663 14.7849 33.8684 14.6594 34.0738Z"
          fill="white"
        />
        <path
          d="M4.95339 24.1541C4.37064 24.1563 3.79638 24.0235 3.28188 23.7674C2.76738 23.5113 2.32866 23.14 2.00491 22.6867C1.85651 22.338 1.85651 21.9494 2.00491 21.6008C2.09454 21.3799 2.25009 21.1878 2.45306 21.0473C2.65604 20.9069 2.89788 20.8239 3.1498 20.8083C4.01239 20.8083 5.22001 21.7035 5.76893 23.1856C5.7769 23.4157 5.7054 23.6421 5.56504 23.8313C5.40302 23.997 5.18877 24.11 4.95339 24.1541Z"
          fill="#80D2F5"
        />
        <path
          d="M3.25803 19.0474C2.66866 18.9758 2.10764 18.768 1.6257 18.4426C1.14375 18.1172 0.75609 17.6845 0.497758 17.1838C0.436823 17.0132 0.413739 16.8329 0.42992 16.6537C0.446101 16.4746 0.501201 16.3004 0.591855 16.1419C0.72511 15.9395 0.916099 15.776 1.14331 15.6697C1.37052 15.5634 1.62493 15.5186 1.8779 15.5402C2.49342 15.7234 3.03821 16.0711 3.44509 16.5404C3.85197 17.0098 4.10315 17.5803 4.16767 18.1816C4.20162 18.3001 4.20192 18.4248 4.16855 18.5434C4.13518 18.662 4.06929 18.7704 3.9774 18.8578C3.88551 18.9453 3.7708 19.0088 3.64463 19.042C3.51846 19.0753 3.3852 19.0771 3.25803 19.0474Z"
          fill="#80D2F5"
        />
        <path
          d="M3.25649 18.9738C2.86348 18.8313 2.48101 18.6647 2.11161 18.4748C1.93826 18.3757 1.77073 18.2679 1.60974 18.152C1.44849 18.0352 1.30126 17.9023 1.17061 17.7558C1.06018 17.6293 0.965475 17.4914 0.888305 17.3449C0.82241 17.2111 0.785116 17.0665 0.778522 16.9194C0.780357 16.7745 0.806826 16.6309 0.856937 16.4938C0.901247 16.3676 0.982804 16.2557 1.09219 16.171C1.18866 16.0681 1.31342 15.992 1.45291 15.9509C1.59434 15.9052 1.74248 15.8805 1.89204 15.8775C2.22235 15.9189 2.52998 16.0577 2.77031 16.2737C3.08333 16.5119 3.34881 16.8 3.55448 17.1248C3.79106 17.4547 3.98579 17.8093 4.13477 18.1813C4.13358 17.7737 4.04838 17.3702 3.88383 16.9927C3.71749 16.5688 3.45536 16.1834 3.11534 15.8628C2.92766 15.6869 2.71687 15.5341 2.48801 15.4079C2.25139 15.2845 1.98945 15.2094 1.71952 15.1878C1.47405 15.1753 1.22846 15.2102 0.998088 15.2905C0.791706 15.3655 0.604633 15.4805 0.449172 15.628C0.286403 15.7833 0.16256 15.9705 0.0866121 16.1761C0.0106642 16.3816 -0.0154929 16.6004 0.010033 16.8166C-0.00507762 16.9336 -0.00507762 17.0519 0.010033 17.1688C0.0407419 17.2914 0.088182 17.4098 0.151184 17.521C0.281428 17.738 0.445265 17.9358 0.637371 18.108C0.988223 18.4163 1.39787 18.6602 1.84499 18.827C2.24939 18.9865 2.67807 19.0856 3.11534 19.1205C3.11534 19.1205 3.19376 19.1205 3.19376 19.0471C3.19376 18.9738 3.19376 19.0471 3.11534 19.0471L3.25649 18.9738Z"
          fill="black"
        />
        <path
          d="M8.43226 20.3824C7.96168 20.2714 7.52654 20.0561 7.16351 19.7548C6.80049 19.4534 6.52023 19.0748 6.34637 18.6509C6.31842 18.5072 6.32355 18.3595 6.36141 18.2178C6.39927 18.0761 6.469 17.9436 6.56594 17.8291C6.70156 17.6792 6.87863 17.567 7.07778 17.5049C7.27693 17.4428 7.49051 17.4331 7.69514 17.4769C8.16646 17.6782 8.56538 18.0028 8.8437 18.4117C9.12203 18.8205 9.26783 19.2961 9.26348 19.7808C9.26593 19.8765 9.24453 19.9714 9.20098 20.058C9.15742 20.1446 9.09291 20.2205 9.01255 20.2797C8.92822 20.3326 8.83334 20.3689 8.73362 20.3865C8.6339 20.4042 8.53139 20.4028 8.43226 20.3824Z"
          fill="#80D2F5"
        />
        <path
          d="M8.44916 20.324C8.14045 20.1751 7.84189 20.0085 7.55521 19.825L7.16312 19.5169C7.05432 19.4068 6.9547 19.289 6.86513 19.1647C6.77922 19.0572 6.71054 18.9386 6.66125 18.8125C6.6386 18.6961 6.6386 18.5768 6.66125 18.4603C6.67153 18.3464 6.70905 18.236 6.77104 18.1375C6.8173 18.0403 6.89382 17.9585 6.9906 17.9027C7.08867 17.8335 7.20071 17.7836 7.31995 17.756C7.44433 17.7341 7.57198 17.7341 7.69636 17.756C7.96239 17.8148 8.20304 17.9478 8.38642 18.1375C8.61299 18.3564 8.79856 18.6094 8.93535 18.8859C9.08794 19.1719 9.20881 19.4719 9.29606 19.781C9.37267 19.4671 9.37267 19.1411 9.29606 18.8272C9.18924 18.4771 9.01373 18.1487 8.77851 17.8587C8.64497 17.7001 8.4863 17.5615 8.30801 17.4478C8.1253 17.322 7.91723 17.2321 7.69636 17.1837C7.49371 17.154 7.28735 17.154 7.08471 17.1837C6.90478 17.2286 6.73483 17.3031 6.58284 17.4038C6.43442 17.5086 6.31349 17.6437 6.22924 17.7988C6.14499 17.9539 6.09965 18.1249 6.09665 18.2989C6.08884 18.3966 6.08884 18.4947 6.09665 18.5924C6.11859 18.6879 6.1501 18.7812 6.19075 18.8712C6.26631 19.0597 6.37791 19.2337 6.5201 19.3848C6.779 19.6675 7.09302 19.9016 7.44542 20.0745C7.76758 20.2325 8.11023 20.3509 8.46484 20.4267L8.44916 20.324Z"
          fill="black"
        />
        <path
          d="M38.7515 40.7948C39.2061 41.6751 39.9388 42.4035 40.8506 42.8812C41.7623 43.3589 42.8089 43.5629 43.8486 43.4655L44.3662 43.3188L44.7269 43.172C45.5896 42.7287 46.2851 42.0472 46.7187 41.2204C46.9413 40.8259 47.125 40.4134 47.2676 39.9877C47.2341 39.8964 47.1921 39.808 47.1421 39.7236C47.1421 39.6209 47.0166 39.4888 46.9382 39.342L46.8441 39.1953C46.3215 38.2369 45.479 37.4641 44.4446 36.9942L44.1466 36.8768C43.2006 36.6945 42.2164 36.8225 41.3595 37.2394C40.5026 37.6564 39.8253 38.3367 39.4416 39.166C39.2619 39.4562 39.1097 39.7607 38.9867 40.0758C38.8891 40.3095 38.8104 40.5499 38.7515 40.7948Z"
          fill="#894CF4"
        />
        <path
          d="M40.5389 39.8995C40.8932 40.3006 41.3393 40.6223 41.8441 40.8407C42.349 41.0591 42.8998 41.1687 43.456 41.1614C44.0521 41.0855 44.6223 40.8852 45.1245 40.5753C45.6267 40.2654 46.048 39.8539 46.3574 39.3712C45.9326 38.9266 45.3962 38.5878 44.7967 38.3854C44.1971 38.1831 43.5531 38.1234 42.9228 38.2119C41.9292 38.4731 41.0777 39.0759 40.5389 39.8995Z"
          fill="#C22026"
        />
        <path
          d="M40.5391 39.8994C40.8863 40.3081 41.331 40.6351 41.8376 40.8543C42.3441 41.0734 42.8984 41.1786 43.4562 41.1614C44.1326 41.065 44.7616 40.7784 45.2598 40.3396C44.7578 39.8365 44.1414 39.4453 43.4562 39.195C42.7995 38.9706 42.0941 38.9001 41.4017 38.9896C41.0689 39.2525 40.7784 39.5589 40.5391 39.8994Z"
          fill="#F17877"
        />
        <path
          d="M42.6551 35.468L43.1569 35.8495C43.6077 36.1983 44.0322 36.5758 44.4273 36.9794C44.8499 37.4196 45.2477 37.88 45.6192 38.3588C45.8858 38.711 46.1211 39.0338 46.325 39.3567L46.6073 39.5474L46.7641 39.6355L47.0464 39.8409V39.6942L47.1719 39.298C46.9389 38.3287 46.4662 37.424 45.7917 36.6566C45.4172 36.2284 44.9337 35.8952 44.3856 35.6875C43.8375 35.4798 43.2425 35.4043 42.6551 35.468Z"
          fill="#894CF4"
        />
        <path
          d="M40.5367 39.8994L38.9684 40.0608C39.4288 41.0842 40.0942 42.0156 40.9288 42.8049C41.8394 43.3409 42.9188 43.5688 43.9871 43.4506C44.7533 43.1256 45.439 42.6552 46.0005 42.0691C46.5621 41.4831 46.9873 40.7942 47.2492 40.0461C47.4531 38.8869 47.2492 39.2978 47.2492 39.2978H46.3553C46.1763 39.7103 45.9064 40.083 45.5632 40.3914C45.22 40.6999 44.8113 40.9372 44.3635 41.088C42.9363 41.5136 40.5367 39.8994 40.5367 39.8994Z"
          fill="#894CF4"
        />
        <path
          d="M38.4055 40.1785C39.3622 36.5686 41.8558 34.4555 44.224 35.2626C46.2001 35.9376 47.2823 38.4175 47.5646 39.1513C47.5957 39.2369 47.5957 39.3298 47.5646 39.4154C47.3775 40.2828 47.0027 41.1052 46.4633 41.832C45.9239 42.5588 45.2312 43.1746 44.4279 43.6416C43.9968 43.8148 43.5326 43.9046 43.0635 43.9057C42.0228 43.7913 41.035 43.414 40.2061 42.8143C39.3773 42.2145 38.7385 41.4149 38.3584 40.5013C38.3351 40.3918 38.3516 40.2781 38.4055 40.1785ZM39.4563 39.1513C39.3465 39.4447 39.2367 39.7382 39.1426 40.0464C39.1426 40.0464 39.1426 40.1638 39.1426 40.2372C40.4914 42.5704 42.5459 43.6416 44.2868 42.9226C44.9245 42.5623 45.48 42.0877 45.9213 41.5262C46.3627 40.9647 46.6813 40.3271 46.8588 39.6502L46.9529 39.3274C46.9567 39.2785 46.9567 39.2295 46.9529 39.1806C46.4936 37.8233 45.4941 36.6832 44.1613 35.9963C43.8808 35.8968 43.583 35.847 43.283 35.8495C41.7147 35.8642 40.3189 37.1115 39.4563 39.1513Z"
          fill="black"
        />
        <path
          d="M39.4579 39.1511C39.8417 38.3218 40.519 37.6415 41.3759 37.2246C42.2328 36.8077 43.217 36.6796 44.163 36.8619L44.4609 36.9793C44.0659 36.5757 43.6414 36.1981 43.1906 35.8494C41.7163 35.864 40.3205 37.1114 39.4579 39.1511Z"
          fill="#894CF4"
        />
        <path
          d="M43.2516 41.5138H43.4555C44.1013 41.4354 44.7195 41.2202 45.2631 40.8845C45.8066 40.5488 46.2612 40.1016 46.5921 39.5768C46.6454 39.5004 46.6738 39.4112 46.6738 39.32C46.6738 39.2288 46.6454 39.1395 46.5921 39.0632C46.1327 38.5826 45.5515 38.2178 44.902 38.0024C44.2525 37.787 43.5555 37.7279 42.8752 37.8305C41.8025 38.1114 40.8869 38.7684 40.3188 39.6648C40.2655 39.7412 40.2371 39.8304 40.2371 39.9216C40.2371 40.0128 40.2655 40.1021 40.3188 40.1784C40.6831 40.5779 41.1316 40.9026 41.6363 41.1324C42.1409 41.3622 42.6908 41.492 43.2516 41.5138ZM45.8707 39.4007C45.5909 39.7735 45.2321 40.0883 44.8166 40.3257C44.401 40.563 43.9377 40.7177 43.4555 40.7801C43.0078 40.7908 42.5625 40.7156 42.1471 40.5592C41.7317 40.4027 41.355 40.1682 41.0402 39.8703C41.5008 39.2344 42.1915 38.7758 42.985 38.5789C43.5036 38.4995 44.0349 38.5351 44.5361 38.6829C45.0374 38.8308 45.4945 39.0867 45.8707 39.43V39.4007Z"
          fill="black"
        />
        <path
          d="M32.2569 33.1494C32.3672 33.2333 32.5072 33.2752 32.649 33.2668H32.7274C33.2293 33.2668 33.6998 33.1934 34.1233 33.1934C34.5369 33.2077 34.9474 33.2668 35.3466 33.3695C35.5439 33.4223 35.7376 33.486 35.9269 33.5603C36.1212 33.6364 36.3098 33.7246 36.4915 33.8244C36.8949 34.0544 37.2777 34.3145 37.6364 34.6021C37.7214 34.668 37.8261 34.7076 37.9362 34.7154C38.0463 34.7232 38.1562 34.6989 38.2509 34.6458C38.3455 34.5926 38.4202 34.5133 38.4647 34.4188C38.5091 34.3242 38.5211 34.2191 38.4989 34.1179C38.3627 33.5152 38.0474 32.9608 37.5893 32.5184C37.3536 32.2902 37.0905 32.0883 36.8051 31.9167C36.6483 31.8434 36.5071 31.7553 36.3503 31.6966C36.1938 31.6254 36.0311 31.5665 35.8641 31.5205C35.1975 31.345 34.492 31.345 33.8253 31.5205C33.4949 31.5944 33.1779 31.713 32.8843 31.8727C32.5957 32.0217 32.3402 32.221 32.1315 32.4597C32.0554 32.5682 32.026 32.6997 32.0493 32.8276C32.0726 32.9556 32.1468 33.0705 32.2569 33.1494Z"
          fill="black"
        />
        <path
          d="M36.9307 31.1535C36.9328 31.2325 36.9601 31.3092 37.0091 31.3736C37.171 31.5844 37.3177 31.805 37.4483 32.0339C37.5721 32.2405 37.6771 32.4565 37.7619 32.6796C37.7619 32.797 37.8404 32.9144 37.8717 33.0171C37.9069 33.1375 37.9331 33.2601 37.9501 33.384C37.9987 33.6461 38.0301 33.9107 38.0442 34.1764C38.0408 34.2504 38.0615 34.3237 38.1035 34.3866C38.1455 34.4495 38.2068 34.499 38.2795 34.5286C38.3129 34.5385 38.349 34.5365 38.3809 34.523C38.4128 34.5094 38.4381 34.4853 38.452 34.4552C38.6245 34.1933 38.7267 33.8963 38.75 33.5894C38.75 33.4133 38.75 33.2225 38.75 33.0318C38.7426 32.9341 38.7426 32.836 38.75 32.7383L38.6559 32.4595C38.5295 32.0874 38.333 31.7395 38.0756 31.4323C37.9568 31.3038 37.8255 31.1859 37.6835 31.0801C37.5557 30.9933 37.4123 30.9287 37.2601 30.8893C37.0091 30.8747 36.915 30.9774 36.9307 31.1535Z"
          fill="black"
        />
        <path
          d="M51.5958 33.1494C51.5593 33.1893 51.5134 33.2207 51.4616 33.2411C51.4099 33.2615 51.3538 33.2703 51.2978 33.2668C50.9494 33.2226 50.5985 33.1981 50.247 33.1934C49.9307 33.2067 49.6185 33.2661 49.3217 33.3695C49.1684 33.4181 49.0212 33.4821 48.8826 33.5603C48.7272 33.6344 48.58 33.7229 48.4434 33.8244C48.1312 34.0637 47.8377 34.3237 47.5652 34.6022C47.5333 34.6446 47.4911 34.6792 47.4419 34.7031C47.3928 34.7269 47.3382 34.7394 47.2829 34.7394C47.2275 34.7394 47.1729 34.7269 47.1238 34.7031C47.0747 34.6792 47.0324 34.6446 47.0006 34.6022C46.923 34.4728 46.8902 34.3242 46.9065 34.1766C47.0103 33.6006 47.2516 33.0539 47.6122 32.5771C47.7818 32.353 47.9821 32.1507 48.2082 31.9755C48.3169 31.8938 48.4322 31.8202 48.5532 31.7554C48.6648 31.6823 48.786 31.6231 48.9139 31.5793C49.2844 31.4363 49.6888 31.3882 50.0856 31.4398C50.4825 31.4913 50.8576 31.6408 51.1723 31.8728C51.4042 32.0318 51.6012 32.2311 51.7526 32.4597C51.8008 32.5765 51.8116 32.7039 51.7837 32.8264C51.7559 32.9488 51.6906 33.0611 51.5958 33.1494Z"
          fill="black"
        />
        <path
          d="M48.0499 31.1536C48.0589 31.2268 48.0589 31.3006 48.0499 31.3738C47.9245 31.6086 47.8147 31.8287 47.7206 32.0341C47.6282 32.2446 47.5496 32.4603 47.4853 32.6798L47.3912 33.0173C47.3912 33.1347 47.3912 33.2521 47.3912 33.3841C47.3912 33.5162 47.3912 33.8977 47.3912 34.1766C47.3954 34.2455 47.3802 34.3143 47.3472 34.3761C47.3142 34.4378 47.2645 34.4905 47.203 34.5287C47.203 34.5287 47.1089 34.5287 47.0776 34.4554C46.9492 34.1621 46.8852 33.8477 46.8894 33.5309C46.8741 33.3453 46.8741 33.1589 46.8894 32.9733V32.6798C46.8894 32.5771 46.8894 32.489 46.8894 32.401C46.989 32.0426 47.1365 31.6975 47.3285 31.3738C47.4201 31.2508 47.5196 31.1332 47.6265 31.0216C47.7209 30.9373 47.8331 30.8723 47.9558 30.8308C47.9872 30.8748 48.0499 30.9776 48.0499 31.1536Z"
          fill="black"
        />
      </svg>
