 <svg width="60" height="76" viewBox="0 0 60 76" fill="none" xmlns="http://www.w3.org/2000/svg">
        <path
          d="M31.1202 75.6951C42.9506 75.6951 52.5411 74.7054 52.5411 73.4845C52.5411 72.2636 42.9506 71.2739 31.1202 71.2739C19.2897 71.2739 9.69922 72.2636 9.69922 73.4845C9.69922 74.7054 19.2897 75.6951 31.1202 75.6951Z"
          fill="#E9E0FF"
        />
        <path
          d="M8.8985 64.4318C12.0805 62.311 13.9461 59.3667 13.5012 57.0013C13.4276 56.6174 13.1483 55.1437 11.967 54.3852C11.6042 54.1557 11.193 54.0154 10.7666 53.9756C10.3402 53.9358 9.91056 53.9976 9.51219 54.1561C9.13446 54.3358 8.79671 54.5909 8.51932 54.9059C8.24193 55.2209 8.03063 55.5893 7.89818 55.9889C7.67524 55.6424 7.38237 55.3472 7.03869 55.1226C6.69502 54.898 6.30826 54.749 5.90367 54.6855C5.47227 54.6501 5.03859 54.7154 4.63628 54.8765C4.23398 55.0376 3.87387 55.2901 3.58391 55.6143C2.60814 56.6855 2.69099 58.1933 2.71247 58.5834C2.81987 60.9921 5.32374 63.2987 8.8985 64.4318Z"
          fill="#DE413B"
        />
        <path
          d="M52.3854 39.1217C49.2034 37.004 47.3347 34.0628 47.7827 31.6912C47.8564 31.3073 48.1356 29.8336 49.3169 29.075C49.6793 28.8446 50.0904 28.7035 50.5168 28.6631C50.9433 28.6228 51.3732 28.6844 51.7717 28.8428C52.15 29.0212 52.4885 29.275 52.767 29.5889C53.0454 29.9029 53.258 30.2704 53.3919 30.6695C53.6146 30.3225 53.9074 30.0268 54.2511 29.8017C54.5947 29.5766 54.9816 29.4271 55.3864 29.363C55.8178 29.3271 56.2516 29.3922 56.654 29.5533C57.0564 29.7145 57.4165 29.9672 57.7061 30.2918C58.6819 31.3599 58.599 32.8677 58.5806 33.2578C58.464 35.6758 55.9632 37.9854 52.3854 39.1217Z"
          fill="#DE413B"
        />
        <path
          d="M16.9957 64.4349C17.3455 65.1718 18.2845 65.3637 18.9872 65.4442C18.9105 65.6176 18.2814 67.1471 18.8399 67.9799C19.3983 68.8127 21.2947 68.9087 23.0529 67.3328C22.9179 68.8808 23.1449 69.4815 23.4702 69.6734C24.7191 70.4041 29.558 66.2368 28.9137 61.9333C28.6579 60.4372 27.829 59.1027 26.6062 58.2181C24.0379 56.4502 21.1228 58.1716 20.6227 58.4657C18.2814 59.8404 16.2777 62.9333 16.9957 64.4349Z"
          fill="#894CF4"
        />
        <path
          d="M43.8601 64.4349C43.5072 65.1718 42.5683 65.3637 41.8687 65.4442C41.9423 65.6176 42.5713 67.1471 42.0129 67.9799C41.4544 68.8127 39.5581 68.9087 37.8029 67.3328C37.9349 68.8808 37.7109 69.4815 37.3856 69.6734C36.1368 70.4041 31.2978 66.2368 31.9391 61.9333C32.1949 60.4372 33.0237 59.1027 34.2466 58.2181C36.8149 56.4502 39.7299 58.1716 40.2301 58.4657C42.5713 59.8404 44.5751 62.9333 43.8601 64.4349Z"
          fill="#894CF4"
        />
        <path
          d="M52.2569 38.939C53.024 41.5985 55.0983 48.4439 52.8337 53.6793C48.5379 63.6269 35.0366 63.3265 30.6856 63.5371C25.7024 63.7817 13.4009 63.5371 8.13235 53.9734C4.55145 47.4717 6.96019 41.3756 7.56161 38.939C7.56161 25.4836 17.6507 15.9292 29.9092 15.9292C42.1678 15.9292 52.2569 25.4836 52.2569 38.939Z"
          fill="white"
        />
        <path
          d="M28.6104 65.2925C21.7524 65.2925 11.5436 63.6578 6.65863 54.8C3.13603 48.416 4.85437 42.3416 5.67979 39.422C5.75343 39.165 5.82094 38.9297 5.87617 38.7192C5.92833 31.9327 8.43527 25.7158 12.949 21.1832C15.1832 18.9558 17.8316 17.196 20.7421 16.0048C23.6526 14.8135 26.7677 14.2144 29.9084 14.2419C33.0506 14.2166 36.1668 14.8181 39.0778 16.012C41.9888 17.2059 44.6373 18.9686 46.8709 21.1987C51.3784 25.6972 53.8854 31.9172 53.9437 38.7006C54.8121 41.71 56.828 48.7163 54.3794 54.3697C49.9669 64.5712 37.2604 65.017 31.8354 65.2058L30.7676 65.2492C30.0986 65.2709 29.3745 65.2925 28.6104 65.2925ZM29.9084 17.6475C18.1316 17.6475 9.24841 26.8087 9.24841 38.9545V39.165L9.19932 39.3663C9.12874 39.6542 9.03362 39.9855 8.92622 40.3694C8.17138 43.0413 6.7783 48.0104 9.60742 53.1622C14.1488 61.3977 24.7104 62.1408 30.6019 61.8528L31.7188 61.8095C36.5087 61.6423 47.7239 61.2491 51.2864 53.0136C53.2502 48.4779 51.4613 42.2858 50.6972 39.6418L50.5684 39.196V38.9545C50.5684 26.7932 41.6882 17.6475 29.9084 17.6475Z"
          fill="black"
        />
        <path
          d="M51.114 54.2549C47.0851 64.2025 34.44 63.9022 30.3774 64.1127C25.7133 64.3573 14.1973 64.1127 9.26631 54.5491C7.78805 51.6598 7.19524 48.3921 7.56331 45.1619C7.77035 47.1491 8.34818 49.0788 9.26631 50.8493C14.1973 60.4006 25.7133 60.6576 30.3774 60.413C34.4369 60.1993 47.0821 60.4997 51.111 50.5552C51.5844 49.3503 51.8801 48.0819 51.9885 46.7904C52.1972 49.2548 52.0622 51.9143 51.114 54.2549Z"
          fill="#E9E0FF"
        />
        <path
          d="M34.4552 18.0655C33.2953 20.3442 30.3158 20.4618 30.1593 20.468C28.6005 20.5052 26.514 19.8271 25.6088 18.0655C23.8997 14.731 27.0817 8.77734 30.0305 8.77734C32.9792 8.77734 36.1459 14.7465 34.4552 18.0655Z"
          fill="#894CF4"
        />
        <path
          d="M27.3464 31.5116C27.7844 31.2569 28.2583 31.071 28.7517 30.9605C31.4551 30.366 34.3854 32.1246 35.7202 35.3352C34.5542 37.7841 32.2559 39.2702 29.8196 39.1557C27.4875 39.0442 25.3856 37.4776 24.3516 35.0937C24.462 34.8181 25.3764 32.6168 27.3464 31.5054"
          fill="#894CF4"
        />
        <path d="M24.3516 35.0999L30.0374 32.332L35.7202 35.3414L29.9423 36.9978L24.3516 35.0999Z" fill="#F17877" />
        <path
          d="M21.6875 31.9387C23.0468 32.0239 24.3278 32.6101 25.2868 33.5858C27.0144 35.3908 27.4961 38.4404 26.4774 41.2733"
          fill="#FFFCF1"
        />
        <path
          d="M38.5266 32.2855C37.8157 32.2182 37.0987 32.2988 36.4199 32.5225C35.7411 32.7462 35.1151 33.1081 34.5806 33.5858C32.7763 35.2824 32.2424 38.4125 33.39 41.2733"
          fill="#FFFCF1"
        />
        <path
          d="M37.9139 33.8118C43.4218 32.2917 47.3525 28.917 47.6685 25.2327C47.7207 24.6382 47.9171 22.341 46.481 20.6536C46.2724 20.4059 44.9805 18.9415 42.9891 19.1056C41.1173 19.2573 40.0526 20.7434 39.89 20.9787C39.804 20.6908 39.2394 18.9106 37.518 18.0901C36.9188 17.8224 36.2652 17.7016 35.6108 17.7377C34.9564 17.7737 34.3198 17.9656 33.753 18.2975C31.8905 19.3781 31.3934 21.6165 31.2645 22.1955C30.4575 25.7931 33.1608 30.3938 37.9139 33.8118Z"
          fill="#DE413B"
        />
        <path
          d="M22.7399 33.8799C27.2413 30.0749 29.6194 25.2637 28.57 21.7435C28.3982 21.1769 27.7476 18.9849 25.8084 18.0654C25.2172 17.7815 24.5678 17.643 23.9133 17.6613C23.2589 17.6796 22.618 17.8541 22.0434 18.1706C20.3803 19.1304 19.9415 20.9571 19.874 21.2481C19.6929 21.0221 18.5269 19.6351 16.649 19.6381C14.6545 19.6381 13.467 21.2109 13.2737 21.4741C11.9665 23.276 12.3286 25.5485 12.4207 26.1367C12.9914 29.787 17.143 32.818 22.7399 33.8799Z"
          fill="#DE413B"
        />
        <path
          d="M15.6485 58.4316C16.6181 58.0539 22.9729 55.5461 22.9913 53.3417C23.0086 52.8985 22.8778 52.4624 22.62 52.1033C21.9726 51.3261 20.7605 51.7163 20.6807 51.7441C24.2064 48.8679 25.7007 45.3477 24.8109 43.425C24.6329 43.038 24.1972 42.3631 22.9698 41.9204C23.114 41.5396 24.412 37.9977 22.8747 35.9914C22.3686 35.3967 21.6848 34.9839 20.9262 34.8149C16.7163 33.8861 9.54221 46.6976 8.69531 48.2332"
          fill="#FFFCF1"
        />
        <path d="M20.8097 51.6079L18.4102 53.3324Z" fill="#FFFCF1" />
        <path
          d="M44.4217 58.4316C43.452 58.0539 37.0973 55.5461 37.0788 53.3417C37.0615 52.8985 37.1923 52.4624 37.4501 52.1033C38.0976 51.3261 39.3096 51.7163 39.3894 51.7441C35.8637 48.8679 34.3694 45.3477 35.2592 43.425C35.4372 43.038 35.8729 42.3631 37.1003 41.9204C36.9561 41.5396 35.6581 37.9977 37.1954 35.9914C37.7015 35.3967 38.3853 34.9839 39.1439 34.8149C43.3539 33.8861 50.5279 46.6976 51.3748 48.2332"
          fill="#FFFCF1"
        />
        <path d="M39.2773 51.6079L41.6646 53.3324Z" fill="#FFFCF1" />
        <path
          d="M6.69516 39.8616C9.96921 37.9173 11.9668 35.0782 11.6231 32.6819C11.5679 32.2949 11.3562 30.8026 10.1963 29.9853C9.84408 29.7345 9.43829 29.5711 9.0118 29.5081C8.5853 29.4452 8.15011 29.4846 7.74151 29.623C7.35656 29.7819 7.00765 30.018 6.71595 30.3171C6.42425 30.6163 6.19586 30.9721 6.04465 31.363C5.83771 31.0047 5.55885 30.6941 5.22595 30.451C4.89304 30.2078 4.51345 30.0376 4.11151 29.9512C3.68401 29.892 3.24874 29.9337 2.83986 30.0728C2.43098 30.2119 2.05962 30.4448 1.75493 30.7531C0.733133 31.7686 0.745407 33.2794 0.748476 33.6695C0.77916 36.0937 3.17563 38.5365 6.69516 39.8616Z"
          fill="#DE413B"
        />
        <path
          d="M52.6999 63.6207C56.2133 62.277 58.6067 59.8249 58.6067 57.4007C58.6067 57.0075 58.6067 55.4966 57.5911 54.4873C57.2846 54.1805 56.9116 53.9497 56.5015 53.8133C56.0915 53.6768 55.6556 53.6383 55.2284 53.7009C54.8274 53.7899 54.4491 53.9619 54.1174 54.206C53.7857 54.4501 53.5079 54.7609 53.3014 55.1189C53.1484 54.7291 52.9186 54.3748 52.6259 54.0773C52.3331 53.7798 51.9836 53.5453 51.5984 53.3882C51.189 53.2505 50.753 53.2127 50.3263 53.2778C49.8996 53.3429 49.4943 53.5092 49.1436 53.7629C47.9868 54.5864 47.7812 56.0818 47.7259 56.4657C47.4099 58.8651 49.4167 61.6949 52.6999 63.6207Z"
          fill="#DE413B"
        />
        <path
          d="M47.6687 25.2329C47.3618 28.9172 43.4219 32.2919 37.914 33.812C33.161 30.4064 30.4576 25.7933 31.2616 22.1957C31.2616 22.1368 31.2892 22.0594 31.3137 21.9666C31.9274 24.5889 33.8759 27.4032 36.7848 29.7779C37.1207 30.0602 37.5231 30.2504 37.9531 30.3301C38.3831 30.4098 38.8261 30.3764 39.2396 30.233C43.6674 28.685 46.8463 25.9357 47.5521 22.8644C47.7128 23.643 47.7521 24.4421 47.6687 25.2329Z"
          fill="#C22026"
        />
        <path
          d="M22.7438 33.88C17.1439 32.8212 12.9922 29.7871 12.4215 26.1399C12.2542 25.1898 12.273 24.2158 12.4767 23.273C13.1641 26.4991 16.659 29.2081 21.4428 30.4248C21.8591 30.524 22.2935 30.5153 22.7055 30.3994C23.1176 30.2836 23.4939 30.0644 23.7994 29.7623C26.3891 27.3009 28.0983 24.5207 28.6353 21.9819C29.5128 25.4743 27.144 30.1586 22.7438 33.88Z"
          fill="#C22026"
        />
        <path
          d="M34.455 18.0655C33.2951 20.3442 30.3157 20.4619 30.1592 20.4681C28.6004 20.5052 26.5108 19.8272 25.6086 18.0655C24.7679 16.4092 25.1207 14.1274 26.0474 12.2326C25.9319 13.0506 26.0567 13.8849 26.4064 14.632C27.149 16.0779 28.8612 16.6352 30.1408 16.6042C30.2666 16.6042 32.7091 16.4989 33.6603 14.632C34.0096 13.8836 34.1333 13.0482 34.0162 12.2295C34.9398 14.1274 35.2866 16.4092 34.455 18.0655Z"
          fill="#5F2CCD"
        />
        <path
          d="M57.9933 53.9949C57.6214 53.6231 57.1688 53.3436 56.6714 53.1787C56.174 53.0137 55.6454 52.9678 55.1273 53.0445C54.4615 53.1728 53.8509 53.5046 53.3783 53.9949V53.9795C55.5262 48.9979 53.9705 42.7625 53.0715 39.5983C56.6739 38.3073 59.055 35.8831 59.1931 33.3103C59.2882 31.4929 58.6745 30.4186 58.1406 29.8334C57.7897 29.4397 57.3527 29.134 56.8643 28.9405C56.3758 28.7471 55.8494 28.6712 55.3268 28.7188C54.6573 28.807 54.0313 29.1023 53.5348 29.5641C53.1664 28.9767 52.632 28.514 52.0006 28.2359C51.4981 28.0188 50.9468 27.9428 50.405 28.016C49.8074 26.7857 49.1019 25.6117 48.2969 24.5082C48.2969 22.341 47.5758 20.9942 46.9161 20.2171C46.5264 19.7589 45.0751 18.2821 42.9271 18.4586C42.5956 18.4858 42.2682 18.5513 41.9514 18.6536C39.9553 17.4225 37.7813 16.5127 35.5076 15.957C35.4855 14.4238 35.0937 12.9191 34.3661 11.573C33.2216 9.43359 31.5585 8.10229 30.0304 8.10229C28.4961 8.10229 26.8208 9.44288 25.6731 11.5977C24.9572 12.9143 24.5637 14.3845 24.5255 15.8857C21.9375 16.4883 19.4755 17.548 17.2533 19.0158C17.0592 18.9871 16.8633 18.9726 16.6672 18.9725C14.5193 18.9725 13.1753 20.5701 12.8193 21.0592C12.1686 21.9824 11.7919 23.0735 11.7331 24.2048C10.6533 25.6402 9.74495 27.199 9.02672 28.8489C8.53343 28.7768 8.03009 28.8311 7.56306 29.0068C6.92258 29.2487 6.36958 29.6804 5.97667 30.2452C5.49993 29.7612 4.88715 29.4369 4.2215 29.3164C3.70342 29.2408 3.175 29.2885 2.67844 29.4557C2.18189 29.6229 1.73096 29.9049 1.36169 30.2793C0.806303 30.8334 0.134309 31.8768 0.158856 33.6849C0.183404 36.3816 2.675 39.0565 6.50444 40.4962C5.68823 43.5056 4.58358 48.8246 7.61523 54.3231C7.68887 54.4563 7.76558 54.5863 7.84229 54.7163L7.73797 54.868C7.24261 54.4041 6.61621 54.1076 5.94598 54.0197C5.42301 53.9742 4.89672 54.0518 4.40848 54.2463C3.92024 54.4407 3.48336 54.7468 3.1322 55.1405C2.60135 55.7256 1.98766 56.8031 2.08585 58.6173C2.23314 61.3078 4.84747 63.8435 8.73522 65.0757L8.9899 65.1562L9.21697 65.0045C11.1746 63.701 12.6352 62.1097 13.4484 60.4966C14.4481 61.1311 15.5004 61.677 16.5936 62.1283C16.2069 63.0849 16.1087 64.0137 16.4616 64.7506C16.7685 65.3698 17.3269 65.7785 18.1646 65.989C17.9805 66.698 17.8762 67.664 18.3579 68.3823C18.5297 68.6239 18.7509 68.8255 19.0066 68.9735C19.2623 69.1214 19.5465 69.2123 19.84 69.2399C20.7456 69.3311 21.6554 69.113 22.4236 68.6207C22.4758 69.3235 22.6722 69.9767 23.1877 70.2801C23.3821 70.3913 23.6025 70.448 23.8259 70.4442C24.6084 70.4442 25.4952 69.856 26.023 69.4411C27.6809 68.1377 28.8671 66.3195 29.3983 64.2676C29.8524 64.2676 30.2912 64.2429 30.7085 64.2243L31.4327 64.1933C31.9521 66.2764 33.1479 68.1239 34.8294 69.4411C35.3603 69.856 36.2471 70.4442 37.0295 70.4442C37.252 70.4476 37.4712 70.3909 37.6647 70.2801C38.1833 69.9705 38.3766 69.3235 38.4288 68.6207C39.198 69.1133 40.1089 69.3313 41.0155 69.2399C41.3089 69.2119 41.5929 69.1209 41.8485 68.973C42.1042 68.825 42.3255 68.6236 42.4975 68.3823C42.9793 67.664 42.875 66.698 42.6909 65.989C43.5255 65.7816 44.0962 65.3698 44.3908 64.7506C44.7406 64.0199 44.6485 63.0973 44.268 62.1499C45.6158 61.6503 46.9034 60.9992 48.1067 60.2087C49.1995 61.8716 50.6729 63.2447 52.4025 64.2119L52.6357 64.3512L52.8874 64.2552C56.7107 62.7908 59.19 60.1034 59.2053 57.4099C59.2207 55.5832 58.5579 54.546 57.9933 53.9949ZM51.5495 29.4588C51.8453 29.6013 52.1098 29.802 52.3275 30.0493C52.5451 30.2966 52.7115 30.5853 52.8168 30.8985L53.2157 32.0812L53.8785 31.0533C54.0578 30.7808 54.2915 30.5492 54.5647 30.3733C54.8379 30.1973 55.1445 30.081 55.4649 30.0316C55.8042 30.0037 56.1453 30.0554 56.4615 30.1827C56.7777 30.31 57.0604 30.5094 57.2875 30.7653C57.8092 31.335 58.0424 32.1647 57.9872 33.2422C57.8828 35.1958 55.8392 37.171 52.8536 38.2887C52.7919 35.2152 52.1677 32.1796 51.0125 29.335C51.2028 29.3475 51.3901 29.3892 51.5679 29.4588H51.5495ZM40.6411 19.3224C40.4367 19.4715 40.2439 19.636 40.0643 19.8146C39.8435 19.3829 39.5693 18.9814 39.248 18.6196C39.7206 18.8301 40.1962 19.0685 40.6411 19.3224ZM35.8758 18.3935C36.3572 18.3911 36.8331 18.4968 37.2689 18.7031C37.7562 18.9569 38.188 19.3069 38.5385 19.7324C38.889 20.1579 39.1512 20.6502 39.3094 21.18L39.6684 22.3751L40.365 21.375C40.6707 20.9302 41.067 20.5562 41.5273 20.278C41.9877 19.9999 42.5015 19.8239 43.0345 19.762C44.6547 19.6258 45.744 20.7527 46.0385 21.0995C46.867 22.0747 47.2138 23.4432 47.0665 25.1646C46.7842 28.4371 43.1634 31.5982 38.0237 33.0874C33.6113 29.8334 31.135 25.5423 31.8469 22.3472C32.2182 20.6753 32.9577 19.505 34.0316 18.8858C34.5947 18.5645 35.229 18.392 35.8758 18.3843V18.3935ZM32.3194 38.1246C32.3194 38.1246 32.3194 38.1525 32.3194 38.168C31.5442 38.535 30.6927 38.7081 29.8371 38.6726C28.9994 38.6287 28.1832 38.3892 27.4529 37.9729C27.462 37.5327 27.4343 37.0926 27.37 36.6571L29.8064 37.4621C29.8502 37.4755 29.8956 37.4828 29.9414 37.4837C29.9791 37.4883 30.0172 37.4883 30.0549 37.4837L32.3869 36.815C32.3279 37.2457 32.3054 37.6807 32.3194 38.1153V38.1246ZM29.9506 36.4899L27.1061 35.524C27.0356 35.2986 26.9526 35.0774 26.8576 34.8614C26.8054 34.7437 26.7502 34.6292 26.6919 34.5146L30.0273 32.8923L33.1387 34.5208C33.105 34.5828 33.0743 34.6447 33.0436 34.7066C32.8862 35.0312 32.7538 35.3676 32.6478 35.7128L29.9506 36.4899ZM30.2329 31.8892C30.174 31.8588 30.1088 31.8429 30.0426 31.8429C29.9765 31.8429 29.9113 31.8588 29.8524 31.8892L26.1702 33.6787C26.1027 33.5889 26.0383 33.4991 25.9647 33.4125C25.9551 33.3977 25.9438 33.3842 25.9309 33.3722C26.3821 32.8077 26.9311 32.3304 27.551 31.9635C27.9535 31.7288 28.3891 31.5576 28.8429 31.4558C30.6533 31.0595 32.5588 31.8273 33.9457 33.3691C33.8475 33.4744 33.7524 33.5858 33.6634 33.7004L30.2329 31.8892ZM28.6618 30.4805C28.1241 30.5996 27.607 30.7989 27.1276 31.0718C26.4122 31.491 25.778 32.0375 25.2558 32.6849C25.1975 32.6353 25.1392 32.5827 25.0779 32.5363C28.536 28.8798 30.1009 24.7435 29.1497 21.5391C29.0976 21.3657 29.0423 21.1986 28.9871 21.0407C29.3347 21.1016 29.6868 21.1327 30.0396 21.1335H30.1807C30.4391 21.1241 30.6965 21.0962 30.9509 21.0499C30.8496 21.3596 30.7545 21.6692 30.6747 22.0407C29.9659 25.2265 31.6965 29.0842 35.1731 32.3815C34.9889 32.4864 34.8116 32.6033 34.6423 32.7313C33.0375 30.9139 30.7975 30.0068 28.6618 30.4774V30.4805ZM26.7226 12.2696C27.6431 10.5451 28.9411 9.4305 30.0365 9.4305C31.1227 9.4305 32.4146 10.5358 33.329 12.2448C34.3047 14.0715 34.5778 16.056 34.0654 17.4214C33.8539 17.5028 33.6488 17.6001 33.4517 17.7124C32.718 18.153 32.1026 18.7685 31.6597 19.505C31.171 19.6668 30.6635 19.7636 30.15 19.793C29.5003 19.8106 28.853 19.7056 28.2415 19.4834C27.7234 18.6103 26.967 17.9062 26.0628 17.4554L26.0076 17.4307C25.486 16.0684 25.7499 14.09 26.7226 12.2696ZM20.5181 18.635C20.1547 19.0745 19.8579 19.5659 19.6375 20.0933C19.3819 19.8817 19.1076 19.6941 18.8182 19.5329C19.3582 19.1954 19.9443 18.9106 20.5181 18.635ZM13.7675 21.889C14.0375 21.5175 15.0471 20.3038 16.6703 20.3007C17.2022 20.3189 17.724 20.4521 18.2005 20.6914C18.6769 20.9307 19.0969 21.2705 19.4319 21.6877L20.1959 22.6165L20.4721 21.3781C20.5922 20.834 20.8188 20.3195 21.1387 19.865C21.4585 19.4104 21.8651 19.0249 22.3347 18.731C22.8292 18.4581 23.3812 18.3081 23.9448 18.2935C24.5083 18.279 25.0672 18.4003 25.575 18.6474C26.6949 19.1954 27.505 20.31 27.996 21.9509C28.9165 25.0748 26.7686 29.561 22.5801 33.1741C17.3637 32.1183 13.5251 29.2638 13.0157 26.0253C12.7518 24.3225 13.0004 22.9292 13.7583 21.889H13.7675ZM1.37397 33.6539C1.37397 32.5889 1.63479 31.7746 2.17791 31.2359C2.58729 30.826 3.13563 30.5881 3.71214 30.5703C3.82317 30.5706 3.93399 30.5799 4.04353 30.5981C4.36167 30.667 4.66223 30.8016 4.92628 30.9934C5.19033 31.1852 5.41215 31.4301 5.57777 31.7127L6.19146 32.7716L6.64252 31.6136C6.76179 31.3065 6.94118 31.0267 7.16999 30.7911C7.3988 30.5554 7.67232 30.3687 7.97424 30.2421C8.29641 30.1371 8.63864 30.1103 8.97299 30.1642C9.30735 30.218 9.62436 30.3508 9.89817 30.5517C10.5119 30.9852 10.9046 31.7406 11.055 32.7901C11.3434 34.8057 9.59132 37.3351 6.67014 39.1432C3.49121 37.88 1.38011 35.7004 1.36476 33.6632L1.37397 33.6539ZM8.82113 63.701C5.61766 62.6174 3.41143 60.5586 3.2979 58.5214C3.2396 57.4594 3.4728 56.6328 3.99137 56.0631C4.19511 55.8373 4.44143 55.6547 4.71593 55.5261C4.99042 55.3974 5.28759 55.3253 5.59004 55.3139C5.66566 55.3093 5.74148 55.3093 5.81711 55.3139C6.13473 55.3664 6.43808 55.4849 6.70798 55.6618C6.97788 55.8387 7.20845 56.0703 7.38509 56.3417L8.05095 57.3696L8.44678 56.1869C8.48649 56.072 8.5347 55.9602 8.591 55.8526C9.64793 57.3596 10.9426 58.6816 12.4235 59.766C11.7515 61.1468 10.4904 62.54 8.81193 63.7103L8.82113 63.701ZM25.6977 68.0045C24.6329 68.9643 23.918 69.1253 23.7554 69.0789C23.7216 69.0293 23.5375 68.6981 23.651 67.3853C23.6661 67.2592 23.6452 67.1314 23.5909 67.0168C23.5365 66.9022 23.451 66.8056 23.3442 66.7383C23.2397 66.6761 23.118 66.6497 22.9975 66.6631C22.8769 66.6765 22.7638 66.7289 22.6753 66.8126C21.7977 67.6052 20.7943 68.0107 19.9934 67.9024C19.8689 67.8983 19.7465 67.8687 19.6336 67.8155C19.5207 67.7623 19.4198 67.6865 19.3368 67.5928C19.1066 67.246 19.2693 66.3729 19.5424 65.7351C19.5857 65.637 19.606 65.53 19.6017 65.4226C19.5975 65.3153 19.5687 65.2103 19.5178 65.1159C19.4703 65.0225 19.4 64.9428 19.3136 64.8843C19.2272 64.8258 19.1275 64.7905 19.0238 64.7816C18.2198 64.7104 17.6859 64.472 17.5172 64.1252C17.3484 63.7784 17.4497 63.1964 17.735 62.5772C21.2914 63.8373 25.0257 64.2274 28.1279 64.2614C27.6638 65.7077 26.826 67.0029 25.7008 68.0138L25.6977 68.0045ZM43.3199 64.1159C43.1511 64.4689 42.6172 64.7011 41.8163 64.7723C41.7165 64.7835 41.6209 64.8193 41.538 64.8765C41.4551 64.9338 41.3873 65.0107 41.3407 65.1005C41.2913 65.1953 41.2634 65.3002 41.2592 65.4073C41.255 65.5144 41.2744 65.6211 41.3162 65.7197C41.5893 66.3636 41.755 67.2367 41.5218 67.5773C41.4388 67.671 41.3378 67.7468 41.2249 67.8C41.112 67.8533 40.9896 67.8828 40.8651 67.8869C40.0642 67.9984 39.0609 67.5773 38.1833 66.7971C38.0947 66.7135 37.9817 66.661 37.8611 66.6476C37.7405 66.6342 37.6188 66.6606 37.5144 66.7228C37.4086 66.7912 37.3239 66.8879 37.2697 67.0023C37.2155 67.1166 37.1939 67.2439 37.2075 67.3699C37.321 68.6826 37.1369 69.0139 37.1032 69.0634C36.9406 69.1098 36.2256 68.9488 35.1608 67.986C33.9958 66.9468 33.1396 65.6017 32.6877 64.1004C35.3603 63.9952 39.2941 63.7444 43.1204 62.5276C43.3905 63.2026 43.4887 63.7784 43.323 64.1252L43.3199 64.1159ZM47.5176 59.026C42.4086 62.4502 35.348 62.6979 31.7518 62.8218L30.6533 62.8651C24.5163 63.1747 13.4699 62.3667 8.64623 53.6203C5.60538 48.1063 7.08438 42.8832 7.87912 40.0751C7.90366 39.9823 7.92821 39.8956 7.95276 39.8089C10.9108 37.7376 12.5555 34.979 12.2179 32.5703C11.9602 30.7746 11.1532 29.8644 10.518 29.4186C10.4099 29.3423 10.2972 29.273 10.1805 29.2111C10.6443 28.1651 11.1912 27.1587 11.816 26.2018C11.8145 26.2141 11.8145 26.2266 11.816 26.2389C12.3437 29.6446 15.6147 32.5301 20.3678 33.979C19.8716 34.0048 19.3855 34.1301 18.9379 34.3475C18.3903 34.6083 17.8753 34.9335 17.4036 35.3165C16.946 35.6842 16.5125 36.0813 16.1057 36.5054C15.3015 37.3423 14.5542 38.2328 13.8688 39.1711C13.522 39.6355 13.1876 40.0999 12.8592 40.586C12.5309 41.0721 12.221 41.5489 11.9111 42.038C10.6864 44.0024 9.57783 46.0379 8.591 48.1341C8.57465 48.1682 8.57 48.2067 8.57778 48.2437C8.58556 48.2807 8.60532 48.3141 8.63396 48.3385C8.64929 48.3505 8.66697 48.3592 8.68584 48.3638C8.7047 48.3685 8.72434 48.3691 8.74345 48.3656C8.76256 48.3621 8.78073 48.3546 8.79676 48.3435C8.81279 48.3324 8.82632 48.318 8.83648 48.3013C10.0823 46.3787 11.3588 44.4839 12.6997 42.6603C13.9896 40.8457 15.4265 39.1422 16.9955 37.5673C17.3787 37.2022 17.7802 36.857 18.1984 36.5333C18.5923 36.2282 19.0196 35.9695 19.4718 35.7623C19.8537 35.5787 20.2779 35.5027 20.6992 35.5425C20.8028 35.5584 20.9053 35.5811 21.006 35.6106L21.1625 35.6633L21.3159 35.7252C21.5208 35.8137 21.7152 35.9248 21.8959 36.0565C21.9868 36.1215 22.0739 36.1918 22.1567 36.267C22.1988 36.3028 22.2387 36.341 22.2764 36.3816L22.3531 36.4651L22.4543 36.6045L22.5402 36.7438C22.5936 36.8444 22.6417 36.9478 22.6845 37.0534C22.8627 37.5081 22.9573 37.9918 22.9637 38.4807C22.9776 39.0158 22.9385 39.5509 22.8471 40.0782C22.8021 40.3486 22.7469 40.618 22.6814 40.8863C22.617 41.1526 22.5464 41.4219 22.4635 41.6727V41.7222V41.747C22.2257 42.4099 21.9385 43.0536 21.6044 43.6727C20.9266 44.94 20.0523 46.0897 19.0146 47.0784C18.984 47.1086 18.9649 47.1486 18.9604 47.1916C18.9559 47.2345 18.9664 47.2777 18.99 47.3137C19.0011 47.3324 19.016 47.3485 19.0337 47.3609C19.0515 47.3733 19.0716 47.3817 19.0929 47.3855C19.1142 47.3893 19.136 47.3885 19.1569 47.383C19.1778 47.3776 19.1973 47.3677 19.214 47.3539C20.3693 46.4326 21.3702 45.3298 22.1782 44.0876C22.4937 43.6046 22.7805 43.1032 23.0373 42.586C23.3597 42.7126 23.6577 42.8949 23.918 43.1247C24.2062 43.3827 24.4033 43.7283 24.4795 44.1093C24.5584 44.541 24.55 44.9843 24.455 45.4127C24.3467 45.8756 24.1861 46.3243 23.9763 46.7502C23.5684 47.6331 23.0418 48.4551 22.4114 49.193C21.8602 49.8487 21.2546 50.4556 20.601 51.0073C20.5625 51.0291 20.5265 51.055 20.4936 51.0847L18.3058 53.1373C18.27 53.1735 18.2458 53.2198 18.2365 53.2701C18.2272 53.3203 18.2332 53.3723 18.2536 53.4191C18.2648 53.4455 18.2812 53.4693 18.3019 53.489C18.3226 53.5088 18.347 53.524 18.3737 53.5339C18.4005 53.5438 18.4289 53.548 18.4573 53.5464C18.4857 53.5447 18.5135 53.5372 18.539 53.5244L20.7176 52.3479C20.7591 52.3451 20.8003 52.3379 20.8403 52.3262C20.9016 52.3048 20.9641 52.2872 21.0275 52.2735C21.0961 52.2554 21.1658 52.2419 21.2361 52.2333C21.3687 52.218 21.5025 52.218 21.635 52.2333C21.7518 52.2436 21.8665 52.2707 21.9756 52.3138C22.071 52.3539 22.1568 52.4141 22.2273 52.4903L22.1996 52.4531L22.2426 52.5057L22.2702 52.5491C22.2914 52.581 22.3109 52.6141 22.3285 52.6482C22.3634 52.7227 22.3942 52.7992 22.4206 52.8773C22.4455 52.9593 22.4639 53.0431 22.4758 53.1281C22.4758 53.1714 22.4758 53.2147 22.4758 53.2581C22.4758 53.3014 22.4758 53.3572 22.4758 53.3788C22.4304 53.7141 22.2773 54.0251 22.0401 54.2643C21.7778 54.5732 21.4871 54.8562 21.1717 55.1095C20.8434 55.3727 20.4936 55.6204 20.1376 55.8526C19.416 56.3176 18.6714 56.7454 17.9069 57.1343C17.1428 57.5275 16.3726 57.9022 15.584 58.2427C15.5391 58.2653 15.5035 58.3031 15.4833 58.3495C15.4631 58.3959 15.4597 58.4479 15.4736 58.4966C15.4796 58.5212 15.4905 58.5443 15.5056 58.5645C15.5208 58.5846 15.5399 58.6015 15.5617 58.6139C15.5835 58.6264 15.6077 58.6342 15.6326 58.637C15.6576 58.6397 15.6828 58.6372 15.7068 58.6297C16.523 58.3511 17.3331 58.0477 18.1309 57.7009C18.9373 57.3611 19.7259 56.9798 20.4936 56.5585C20.8771 56.3417 21.2607 56.1126 21.635 55.8526C22.0208 55.5854 22.3795 55.2806 22.7059 54.9423C22.8844 54.7531 23.0427 54.5455 23.1785 54.3231C23.3397 54.0517 23.4373 53.7467 23.4639 53.4315C23.4639 53.3386 23.4639 53.2798 23.4639 53.2024C23.4639 53.125 23.4639 53.0599 23.4639 52.9856C23.4513 52.8393 23.4266 52.6944 23.3902 52.5522C23.3541 52.409 23.3059 52.2691 23.246 52.1342C23.2178 52.0634 23.1839 51.9951 23.1447 51.9299C23.1263 51.8958 23.1079 51.8618 23.0864 51.8277L23.0496 51.7751L23.0281 51.7472L23.0128 51.7039C22.8538 51.5041 22.6539 51.3415 22.4267 51.2271C22.3653 51.1961 22.3009 51.1683 22.2395 51.1435C22.5924 50.7936 22.9361 50.4252 23.2613 50.0382C23.9627 49.2104 24.55 48.2908 25.0073 47.3044C25.2436 46.781 25.4216 46.2327 25.5381 45.6697C25.669 45.0581 25.6752 44.4261 25.5565 43.8121C25.4906 43.4858 25.3736 43.1723 25.2098 42.8832C25.0524 42.6075 24.8525 42.3587 24.6176 42.1464C24.3516 41.8985 24.0519 41.69 23.7277 41.5272C23.8655 41.1357 23.9813 40.7367 24.0745 40.3321C24.2192 39.7036 24.2954 39.0609 24.3015 38.4157C24.2995 37.735 24.1747 37.0605 23.9333 36.4249C23.8653 36.2598 23.7885 36.0986 23.7032 35.9419L23.5682 35.7128L23.4209 35.5023L23.3933 35.4682L23.3687 35.4373L23.3196 35.3815L23.2306 35.2825C23.1693 35.2174 23.1079 35.1586 23.0465 35.0998C22.9242 34.9899 22.7961 34.8865 22.663 34.7902C22.4959 34.666 22.3195 34.5552 22.1352 34.4589L22.6354 34.558L22.8962 34.6075L23.1079 34.431C23.4659 34.1256 23.8116 33.816 24.1451 33.5022C24.4854 33.7385 24.7947 34.0173 25.0656 34.332C25.1423 34.4125 25.2037 34.5084 25.2742 34.5951L25.3755 34.7283C25.4093 34.7747 25.4369 34.8242 25.4676 34.8707C25.5289 34.9698 25.5995 35.0564 25.6517 35.1586L25.8174 35.4682C25.9125 35.6788 26.0137 35.8893 26.0905 36.1122L26.1549 36.2763L26.2071 36.4466C26.2408 36.5611 26.2807 36.6726 26.3083 36.7902C26.4288 37.2613 26.5088 37.7419 26.5477 38.2268L26.5722 38.5983V38.9698C26.5722 39.0968 26.5722 39.2206 26.5722 39.3476C26.5722 39.4745 26.5722 39.6014 26.5507 39.7253C26.5101 40.2375 26.4414 40.7471 26.3451 41.2516C26.3389 41.2814 26.3418 41.3124 26.3532 41.3406C26.3647 41.3688 26.3844 41.3928 26.4096 41.4095C26.4254 41.4197 26.4432 41.4263 26.4617 41.429C26.4803 41.4317 26.4992 41.4303 26.5172 41.4251C26.5352 41.4198 26.5519 41.4107 26.5661 41.3984C26.5804 41.3861 26.5919 41.3709 26.5998 41.3538C26.9822 40.621 27.2404 39.8288 27.3639 39.0101C28.124 39.3892 28.9533 39.6063 29.8002 39.6479C29.8923 39.6479 29.9874 39.6479 30.0825 39.6479C30.8909 39.6449 31.6907 39.4807 32.436 39.1649C32.4759 39.3785 32.5189 39.5891 32.5711 39.7841C32.7174 40.3217 32.9233 40.841 33.1847 41.3321C33.208 41.3808 33.2475 41.4196 33.2964 41.4417C33.3452 41.4638 33.4002 41.4677 33.4517 41.4529C33.5118 41.4304 33.5615 41.3864 33.5915 41.3294C33.6215 41.2723 33.6296 41.206 33.6143 41.1433C33.4797 40.6427 33.3772 40.1339 33.3075 39.62C33.251 39.1154 33.2356 38.607 33.2615 38.0999C33.2925 37.6045 33.3695 37.1132 33.4916 36.6323C33.6181 36.1687 33.794 35.7202 34.0163 35.2948C34.4491 34.5018 35.1046 33.8555 35.9003 33.4372C35.9955 33.3877 36.0906 33.3412 36.1888 33.2979C36.6306 33.6694 37.1093 34.0317 37.5819 34.3815L37.7874 34.5301C37.6558 34.6061 37.5288 34.6898 37.407 34.7809C37.2738 34.8772 37.1458 34.9806 37.0234 35.0905C36.962 35.1493 36.9007 35.2082 36.8393 35.2732L36.7503 35.3722L36.7012 35.428L36.6767 35.4589L36.649 35.493L36.5018 35.7035L36.3667 35.9326C36.2814 36.0893 36.2046 36.2505 36.1366 36.4156C35.8988 37.0623 35.7813 37.7476 35.7899 38.4373C35.7961 39.0826 35.8722 39.7252 36.0169 40.3538C36.1102 40.7584 36.2259 41.1574 36.3637 41.5489C36.0395 41.7117 35.7399 41.9201 35.4738 42.1681C35.2389 42.3804 35.039 42.6291 34.8816 42.9049C34.7179 43.194 34.6008 43.5075 34.5349 43.8337C34.4162 44.4478 34.4224 45.0798 34.5533 45.6914C34.6698 46.2544 34.8478 46.8026 35.0841 47.3261C35.5415 48.3125 36.1288 49.2321 36.8301 50.0599C37.1553 50.4469 37.499 50.8153 37.8519 51.1652C37.7905 51.1899 37.7261 51.2178 37.6647 51.2488C37.4352 51.3553 37.2311 51.5106 37.0664 51.7039L37.0387 51.7379L37.0173 51.7658L36.9804 51.8184C36.959 51.8525 36.9406 51.8865 36.9221 51.9206C36.8829 51.9858 36.8491 52.0542 36.8209 52.1249C36.761 52.2598 36.7127 52.3997 36.6767 52.5429C36.6402 52.6851 36.6156 52.8301 36.603 52.9763C36.603 53.0507 36.603 53.1219 36.603 53.1931C36.603 53.2643 36.603 53.3293 36.603 53.4222C36.6296 53.7374 36.7272 54.0424 36.8884 54.3138C37.0241 54.5362 37.1825 54.7438 37.3609 54.933C37.6904 55.2707 38.0522 55.5745 38.441 55.8402C38.8154 56.1003 39.1989 56.3294 39.5825 56.5461C40.3502 56.9674 41.1388 57.3487 41.9452 57.6885C42.743 58.0322 43.5531 58.3356 44.3693 58.6173C44.3921 58.6245 44.416 58.6271 44.4398 58.6249C44.4635 58.6227 44.4866 58.6158 44.5077 58.6046C44.5288 58.5934 44.5475 58.578 44.5627 58.5595C44.5779 58.541 44.5894 58.5196 44.5964 58.4966C44.6155 58.4471 44.6153 58.3922 44.596 58.3428C44.5766 58.2934 44.5395 58.2533 44.492 58.2303C43.7065 57.8898 42.9333 57.5151 42.1692 57.122C41.4046 56.733 40.6601 56.3052 39.9384 55.8402C39.5825 55.608 39.2327 55.3603 38.9044 55.0971C38.58 54.8421 38.281 54.5559 38.0114 54.2426C37.7742 54.0035 37.6211 53.6924 37.5757 53.3572C37.5757 53.3355 37.5757 53.2767 37.5757 53.2364C37.5757 53.1962 37.5757 53.1497 37.5757 53.1064C37.5876 53.0215 37.6061 52.9376 37.631 52.8556C37.6574 52.7776 37.6881 52.7011 37.723 52.6265C37.7406 52.5924 37.7601 52.5593 37.7813 52.5274L37.8089 52.4841L37.8519 52.4314L37.8243 52.4686C37.8948 52.3924 37.9805 52.3322 38.0759 52.2921C38.185 52.249 38.2997 52.2219 38.4165 52.2116C38.549 52.1964 38.6828 52.1964 38.8154 52.2116C38.8858 52.2203 38.9555 52.2337 39.024 52.2519C39.0874 52.2656 39.1499 52.2831 39.2112 52.3045C39.2502 52.3162 39.2903 52.3235 39.3309 52.3262L41.5126 53.5027C41.5549 53.5254 41.604 53.532 41.6508 53.5212C41.6976 53.5104 41.7389 53.4829 41.7672 53.4439C41.8041 53.396 41.8222 53.3361 41.8183 53.2756C41.8143 53.2152 41.7885 53.1582 41.7458 53.1157L39.5825 51.0847C39.5488 51.0551 39.5129 51.0282 39.4751 51.0042C38.8208 50.4544 38.2151 49.8484 37.6647 49.193C37.0343 48.4551 36.5077 47.6331 36.0998 46.7502C35.9033 46.3206 35.7561 45.8698 35.661 45.4065C35.5659 44.9781 35.5576 44.5348 35.6365 44.1031C35.7127 43.7221 35.9098 43.3765 36.198 43.1185C36.4583 42.8887 36.7563 42.7064 37.0786 42.5798C37.3354 43.097 37.6223 43.5984 37.9378 44.0814C38.7458 45.3236 39.7466 46.4265 40.9019 47.3477C40.9177 47.3605 40.9359 47.3699 40.9553 47.3755C40.9748 47.381 40.9952 47.3825 41.0152 47.3799C41.0353 47.3773 41.0546 47.3706 41.072 47.3603C41.0895 47.35 41.1047 47.3363 41.1167 47.3199C41.1469 47.2858 41.1636 47.2417 41.1636 47.196C41.1636 47.1503 41.1469 47.1063 41.1167 47.0722C40.079 46.0836 39.2047 44.9338 38.5269 43.6665C38.1918 43.0432 37.9035 42.3954 37.6647 41.7284C37.6643 41.7212 37.6643 41.714 37.6647 41.7068V41.6603C37.5819 41.4095 37.5113 41.1402 37.4468 40.8739C37.3824 40.6077 37.3272 40.3352 37.2812 40.0658C37.1897 39.5386 37.1507 39.0034 37.1645 38.4683C37.1709 37.9794 37.2655 37.4957 37.4438 37.041C37.4865 36.9354 37.5347 36.832 37.588 36.7314L37.6739 36.5921L37.7752 36.4528L37.8519 36.3692C37.8895 36.3287 37.9295 36.2904 37.9716 36.2546C38.0544 36.1794 38.1415 36.1091 38.2324 36.0441C38.413 35.9124 38.6075 35.8013 38.8123 35.7128L38.9657 35.6509L39.1222 35.5983C39.2229 35.5688 39.3254 35.546 39.4291 35.5301C39.8504 35.4903 40.2745 35.5663 40.6565 35.75C41.1087 35.9571 41.5359 36.2158 41.9299 36.5209C42.3501 36.8435 42.7536 37.1876 43.1388 37.5519C44.7079 39.1267 46.1448 40.8302 47.4347 42.6449C48.7756 44.4684 50.0521 46.3601 51.2979 48.2858C51.3164 48.3164 51.3459 48.3386 51.3801 48.3478C51.4144 48.357 51.4509 48.3526 51.482 48.3354C51.5167 48.313 51.542 48.2786 51.5533 48.2387C51.5646 48.1988 51.5611 48.1561 51.5434 48.1187C50.5476 46.0218 49.4297 43.9862 48.1957 42.0225C47.8888 41.5334 47.582 41.0473 47.2475 40.5705C46.9131 40.0937 46.5847 39.62 46.238 39.1556C45.5526 38.2174 44.8052 37.3268 44.0011 36.4899C43.5943 36.0658 43.1607 35.6687 42.7031 35.301C42.2314 34.9181 41.7164 34.5928 41.1689 34.332C40.6842 34.0962 40.1543 33.9704 39.6163 33.9635C44.1514 32.3598 47.3273 29.5145 48.1343 26.3349C50.5038 30.0949 51.7413 34.4679 51.6968 38.9234V39.0256L51.7858 39.3352C52.5621 42.0225 54.3541 48.2332 52.4639 53.0568C52.2715 52.9308 52.0656 52.827 51.8502 52.7472C51.3566 52.5811 50.8309 52.5351 50.3163 52.6132C49.8017 52.6912 49.3126 52.891 48.8892 53.1962C48.2571 53.6482 47.45 54.5615 47.2015 56.3572C47.0729 57.2627 47.183 58.1864 47.5206 59.0353L47.5176 59.026ZM52.7339 62.8868C49.8066 61.0942 48.0423 58.574 48.3215 56.5585C48.4688 55.5058 48.8523 54.7504 49.4691 54.3107C49.8439 54.0486 50.2866 53.9033 50.7425 53.8928C50.9645 53.8933 51.1847 53.9331 51.393 54.0104C51.6951 54.1355 51.9692 54.3205 52.199 54.5545C52.4289 54.7885 52.6097 55.0668 52.7309 55.3727L53.185 56.5306L53.7987 55.4656C53.9614 55.1836 54.1799 54.9385 54.4408 54.7457C54.7016 54.5528 54.999 54.4164 55.3145 54.3448C55.6479 54.2977 55.9877 54.3291 56.3071 54.4365C56.6265 54.5439 56.9169 54.7245 57.1556 54.964C57.7018 55.5027 57.9779 56.3139 57.9718 57.3789C57.9933 59.444 55.8945 61.6112 52.7524 62.8961L52.7339 62.8868Z"
          fill="black"
        />
        <path
          d="M37.0333 70.5897C36.2294 70.5897 35.3426 70.0262 34.7412 69.5525C33.0631 68.2439 31.8595 66.4136 31.3168 64.345L30.7031 64.3697C30.3226 64.3883 29.9237 64.4007 29.5064 64.41C28.9539 66.4515 27.7585 68.2565 26.1004 69.5525C25.4867 70.0262 24.6122 70.5897 23.8082 70.5897C23.5576 70.5941 23.3106 70.5299 23.0933 70.4039C22.6483 70.1439 22.3752 69.6268 22.2771 68.8559C21.5276 69.2916 20.6612 69.4779 19.8008 69.3884C19.4858 69.3561 19.1811 69.2566 18.9071 69.0965C18.6331 68.9363 18.3959 68.7193 18.2113 68.4596C17.7296 67.7413 17.7971 66.8001 17.9597 66.0911C17.6077 66.0131 17.277 65.8578 16.9912 65.6363C16.7053 65.4147 16.4713 65.1324 16.3058 64.8094C15.9714 64.1128 15.999 63.2149 16.3795 62.2056C15.3824 61.7846 14.42 61.2846 13.5012 60.7102C12.6513 62.3201 11.1661 63.8806 9.29438 65.1283L9.00595 65.3202L8.68376 65.218C4.7285 63.9641 2.07735 61.3759 1.93313 58.6204C1.83187 56.7628 2.47011 55.6358 3.01937 55.029C3.38746 54.6178 3.84507 54.2984 4.3562 54.0959C4.86734 53.8933 5.41807 53.8132 5.9651 53.8618C6.5352 53.929 7.07791 54.1457 7.53922 54.4903L7.48092 54.3819C4.57201 49.1186 5.40357 44.0009 6.31797 40.5766C2.5008 39.1091 0.0245477 36.4063 0 33.6787C0 31.821 0.671994 30.725 1.24887 30.1492C1.63637 29.7584 2.10874 29.464 2.62855 29.2894C3.14837 29.1147 3.70135 29.0646 4.24369 29.143C4.8829 29.2593 5.47528 29.5592 5.94975 30.0067C6.34976 29.4805 6.88907 29.0791 7.50547 28.8488C7.9587 28.6781 8.4452 28.6166 8.92617 28.6693C9.6371 27.0653 10.5276 25.5487 11.5804 24.149C11.6479 23.005 12.0328 21.9032 12.6912 20.9694C13.0563 20.4647 14.4218 18.8207 16.6618 18.8176C16.8475 18.8179 17.033 18.8303 17.2172 18.8548C19.4085 17.4138 21.8305 16.3663 24.3759 15.7588C24.4382 14.2745 24.8371 12.8245 25.5419 11.5203C26.7171 9.31589 28.4385 7.94744 30.0341 7.94434C31.6297 7.94125 33.3358 9.3066 34.508 11.4955C35.2332 12.8268 35.6379 14.3117 35.6893 15.83C37.9099 16.3882 40.0346 17.2806 41.9919 18.4771C42.2987 18.3837 42.6145 18.3235 42.934 18.2975C45.1617 18.1179 46.6407 19.6381 47.0426 20.1087C47.6901 20.8734 48.4603 22.245 48.4603 24.4432C49.2361 25.5177 49.9198 26.6571 50.5039 27.8488C51.0376 27.797 51.5756 27.8811 52.0688 28.0934C52.6736 28.3571 53.1933 28.786 53.5693 29.3318C54.0639 28.9098 54.6694 28.642 55.3122 28.5609C55.859 28.5112 56.4098 28.5905 56.921 28.7926C57.4323 28.9946 57.8899 29.3138 58.2579 29.725C58.8102 30.3442 59.4484 31.4464 59.3503 33.3133C59.2091 35.9202 56.8955 38.3537 53.2624 39.6912C54.3272 43.4714 55.4717 48.8926 53.738 53.4995C54.1432 53.1985 54.6114 52.9951 55.1066 52.9051C55.6487 52.8225 56.2025 52.8691 56.7236 53.0411C57.2447 53.2132 57.7186 53.5059 58.1075 53.8958C58.6875 54.4686 59.3779 55.5429 59.3717 57.416C59.3564 60.1746 56.8403 62.9208 52.9525 64.4069L52.6457 64.5276L52.3388 64.3543C50.6317 63.399 49.1683 62.056 48.0644 60.4316C46.931 61.1539 45.727 61.7567 44.4713 62.2304C44.8425 63.2273 44.864 64.1159 44.5326 64.8063C44.3671 65.1293 44.1331 65.4117 43.8473 65.6332C43.5615 65.8547 43.2308 66.01 42.8787 66.088C43.0414 66.797 43.1119 67.7382 42.6271 68.4565C42.4428 68.7164 42.2058 68.9337 41.9317 69.0939C41.6576 69.2541 41.3528 69.3534 41.0377 69.3853C40.1773 69.4738 39.3112 69.2875 38.5614 68.8528C38.4663 69.6144 38.1901 70.1315 37.7452 70.4008C37.5291 70.5275 37.2831 70.5927 37.0333 70.5897ZM31.5592 64.0261L31.5868 64.1499C32.0926 66.2001 33.2701 68.0178 34.9283 69.3079C35.3886 69.6702 36.2785 70.2801 37.0333 70.2801C37.2286 70.283 37.4213 70.2339 37.5918 70.1377C37.9907 69.9055 38.2055 69.3884 38.2791 68.5896L38.2975 68.342L38.5092 68.4658C39.2474 68.9458 40.1231 69.1637 40.9978 69.085C41.2696 69.0592 41.5329 68.9752 41.7699 68.8385C42.007 68.7018 42.2124 68.5157 42.3724 68.2924C42.8266 67.6175 42.7161 66.6856 42.5443 66.0261L42.5044 65.8713L42.6578 65.8342C43.4464 65.6391 43.9834 65.2521 44.2565 64.6824C44.5633 64.0385 44.5204 63.1839 44.1276 62.2056L44.0693 62.057L44.2166 62.0013C45.5551 61.5018 46.8335 60.8517 48.0276 60.0631L48.1596 59.9764L48.2424 60.1127C49.3195 61.7651 50.7778 63.1292 52.4922 64.088L52.6641 64.1902L52.8451 64.119C56.6101 62.6793 59.0526 60.0477 59.0649 57.416C59.0649 55.6544 58.4297 54.6513 57.8927 54.1187C57.5388 53.7637 57.1076 53.4968 56.6336 53.3394C56.1595 53.1819 55.6556 53.1381 55.1618 53.2116C54.5266 53.3324 53.9444 53.6494 53.4956 54.1187L53.3667 54.2488L53.2133 54.032L53.2317 53.9361C55.4993 48.6976 53.5631 41.8801 52.9249 39.6416L52.885 39.4992L53.0231 39.4528C56.5978 38.1679 58.9053 35.8118 59.0403 33.3009C59.1324 31.5393 58.5432 30.499 58.0277 29.9386C57.6929 29.5636 57.2765 29.272 56.8112 29.0867C56.3459 28.9014 55.8443 28.8274 55.3459 28.8705C54.7069 28.9535 54.11 29.2373 53.6398 29.6817L53.5048 29.8024L53.4066 29.6507C53.0583 29.0875 52.5491 28.6439 51.946 28.3782C51.469 28.1707 50.9448 28.099 50.4302 28.1708L50.3228 28.1739L50.2737 28.0748C49.6788 26.8508 48.9764 25.6831 48.1749 24.5856L48.1442 24.5453V24.4927C48.1442 22.3502 47.4201 21.0313 46.8002 20.3037C46.4228 19.8579 45.0297 18.4244 42.9493 18.5978C42.6303 18.6229 42.3152 18.6852 42.0104 18.7836L41.9429 18.8053L41.8815 18.7681C39.9036 17.5508 37.7505 16.6505 35.4991 16.0993L35.3825 16.0715V15.9476C35.3517 14.4428 34.9589 12.968 34.2379 11.6503C33.1179 9.56357 31.5101 8.26323 30.0372 8.26323C28.5643 8.26323 26.935 9.57286 25.8119 11.6689C25.1091 12.963 24.722 14.4075 24.6827 15.8826V16.0033L24.5631 16.0312C21.9912 16.6317 19.5449 17.6861 17.3368 19.1458L17.2908 19.1768H17.2325C17.0453 19.1515 16.8568 19.138 16.6679 19.1365C14.5721 19.1365 13.2926 20.6846 12.9366 21.1613C12.3056 22.0623 11.9397 23.1248 11.8811 24.2264V24.2698L11.8535 24.3069C10.7816 25.7287 9.87939 27.2729 9.16551 28.9077L9.11641 29.0129L9.00288 28.9974C8.53424 28.9309 8.05657 28.9831 7.61286 29.1491C6.99795 29.3809 6.46797 29.7968 6.09397 30.3411L5.98964 30.4897L5.86077 30.3411C5.41237 29.8708 4.82814 29.5555 4.19152 29.4402C3.69654 29.3695 3.19203 29.4167 2.71835 29.578C2.24468 29.7392 1.81499 30.0101 1.46366 30.369C0.92054 30.9046 0.306847 31.9108 0.306847 33.6756C0.331394 36.3041 2.7831 38.9388 6.55424 40.3444L6.68619 40.394L6.64936 40.5302C5.72882 43.9049 4.85431 48.9948 7.74787 54.2426C7.82152 54.3726 7.89516 54.5026 7.97187 54.6327L8.02097 54.7194L7.97801 54.7999C7.94426 54.8463 7.9105 54.8927 7.87982 54.9423L7.7847 55.094L7.64968 54.9732C7.17213 54.5321 6.56851 54.2547 5.92521 54.1807C5.42656 54.1381 4.92493 54.2127 4.45964 54.3986C3.99435 54.5844 3.57805 54.8765 3.24337 55.2519C2.73093 55.7999 2.14793 56.8402 2.23691 58.6018C2.37806 61.2272 4.94637 63.7072 8.77581 64.9208L8.96299 64.9797L9.12868 64.8682C11.0127 63.6143 12.504 62.0353 13.3079 60.4223L13.3846 60.2706L13.5258 60.3604C14.5192 60.9884 15.5643 61.529 16.6495 61.9765L16.7937 62.0353L16.7354 62.1808C16.3334 63.1654 16.2874 64.0385 16.5973 64.6762C16.8704 65.2459 17.4074 65.6329 18.1991 65.828L18.3494 65.8651L18.3095 66.0199C18.1377 66.6794 18.0272 67.6113 18.4814 68.2862C18.6414 68.5095 18.8468 68.6957 19.0839 68.8323C19.3209 68.969 19.5842 69.0531 19.856 69.0788C20.731 69.1607 21.6077 68.9425 22.3446 68.4596L22.5563 68.3327L22.5747 68.5834C22.633 69.3698 22.8815 69.8869 23.262 70.1315C23.4337 70.2276 23.6273 70.2767 23.8236 70.2739C24.5784 70.2739 25.4652 69.6547 25.9255 69.3017C27.5635 68.0261 28.7338 66.2363 29.2517 64.2149L29.2793 64.0973H29.399C29.8531 64.0973 30.2888 64.0725 30.7031 64.0539L31.4303 64.023L31.5592 64.0261ZM23.8266 69.2615C23.79 69.2667 23.7528 69.2667 23.7162 69.2615H23.6671L23.6364 69.2181C23.5566 69.1067 23.3909 68.7135 23.5014 67.4224C23.522 67.317 23.5098 67.2077 23.4664 67.1096C23.423 67.0115 23.3505 66.9293 23.259 66.8744C23.1821 66.8293 23.0928 66.8103 23.0044 66.8204C22.9159 66.8304 22.8331 66.8689 22.768 66.9302C21.8475 67.7537 20.8103 68.1686 19.9665 68.0602C19.8191 68.0515 19.6751 68.0121 19.5436 67.9444C19.4121 67.8767 19.296 67.7823 19.2025 67.667C18.9232 67.2521 19.1073 66.3357 19.3958 65.6577C19.4273 65.5805 19.4417 65.4972 19.438 65.4138C19.4343 65.3304 19.4126 65.2488 19.3743 65.1747C19.3404 65.1075 19.2903 65.0498 19.2287 65.0071C19.167 64.9644 19.0958 64.9379 19.0214 64.9301C18.15 64.8527 17.5884 64.5957 17.3921 64.1871C17.1619 63.7072 17.3921 63.0013 17.6069 62.4966L17.6652 62.3666L17.8002 62.413C20.8134 63.4812 24.293 64.0446 28.1409 64.088H28.3434L28.2882 64.283C27.8137 65.7625 26.9555 67.087 25.8027 68.119C24.8699 68.9705 24.1611 69.2491 23.8266 69.2491V69.2615ZM23.0503 66.5246C23.1775 66.5252 23.3023 66.5594 23.4124 66.6237C23.5465 66.7054 23.6548 66.8239 23.7249 66.9652C23.7949 67.1066 23.8238 67.2651 23.8082 67.4224C23.7223 68.4132 23.8082 68.8157 23.8604 68.9519C24.0537 68.9333 24.6674 68.7506 25.6002 67.9085C26.6545 66.9537 27.4534 65.7462 27.923 64.3976C24.4923 64.3906 21.0842 63.8368 17.8247 62.7567C17.5915 63.3202 17.5332 63.7877 17.659 64.0539C17.7848 64.3202 18.3034 64.5586 19.0398 64.6236C19.1658 64.6361 19.2866 64.6804 19.3911 64.7524C19.4957 64.8243 19.5807 64.9216 19.6382 65.0354C19.699 65.1498 19.7333 65.2767 19.7386 65.4065C19.744 65.5362 19.7201 65.6655 19.6689 65.7846C19.362 66.475 19.2792 67.246 19.451 67.4998C19.5209 67.5778 19.6054 67.6409 19.6997 67.6855C19.794 67.7302 19.8962 67.7555 20.0003 67.7599C20.7612 67.8621 21.7155 67.4689 22.5594 66.7041C22.6935 66.5805 22.8686 66.5121 23.0503 66.5122V66.5246ZM37.0364 69.2615C36.708 69.2615 35.9839 68.9797 35.0511 68.1407C33.8603 67.0787 32.9859 65.7033 32.5257 64.1685L32.4766 63.9796H32.6669C35.5727 63.8651 39.3776 63.5833 43.0475 62.4099L43.1764 62.3697L43.2347 62.4935C43.4617 63.0044 43.6857 63.7165 43.4556 64.1994C43.2592 64.6081 42.6977 64.8651 41.8262 64.9425C41.7521 64.9511 41.6812 64.9779 41.6197 65.0205C41.5582 65.0632 41.5079 65.1204 41.4734 65.1871C41.435 65.2612 41.4134 65.3429 41.4102 65.4265C41.4071 65.51 41.4223 65.5932 41.455 65.6701C41.7403 66.3481 41.9244 67.2645 41.6452 67.6794C41.5526 67.7949 41.437 67.8895 41.3059 67.9572C41.1749 68.0249 41.0312 68.0642 40.8842 68.0726C40.0373 68.1902 38.9879 67.763 38.0797 66.9425C38.0146 66.8813 37.9317 66.8428 37.8433 66.8327C37.7549 66.8227 37.6656 66.8417 37.5887 66.8868C37.5052 66.9385 37.4381 67.0132 37.3952 67.102C37.3523 67.1908 37.3353 67.2902 37.3463 67.3884C37.4598 68.6794 37.2911 69.0726 37.2143 69.1841L37.1837 69.2274H37.1315C37.1006 69.2381 37.0688 69.2453 37.0364 69.2491V69.2615ZM32.8817 64.2738C33.3443 65.67 34.1622 66.9191 35.2536 67.8961C36.1741 68.7352 36.7878 68.9178 36.9965 68.9395C37.0425 68.8002 37.1315 68.3977 37.0456 67.41C37.0307 67.2528 37.0599 67.0946 37.1299 66.9534C37.1999 66.8121 37.3078 66.6936 37.4414 66.6113C37.5745 66.5337 37.7286 66.5009 37.8814 66.5176C38.0342 66.5343 38.1778 66.5997 38.2914 66.7041C39.1352 67.4689 40.0926 67.8621 40.8474 67.7599C41.0583 67.75 41.2568 67.6566 41.3997 67.4998C41.5685 67.246 41.4703 66.475 41.1788 65.7846C41.1291 65.6651 41.106 65.536 41.1113 65.4066C41.1166 65.2771 41.1502 65.1503 41.2095 65.0354C41.2676 64.923 41.3523 64.8268 41.4562 64.7555C41.5601 64.6842 41.6798 64.6399 41.8048 64.6267C42.5412 64.5617 43.0322 64.3542 43.1856 64.057C43.3145 63.7877 43.2531 63.314 43.0137 62.7412C39.4328 63.862 35.7446 64.153 32.8817 64.2738ZM8.83411 63.8806L8.76354 63.8558C5.46187 62.7412 3.2403 60.6545 3.13904 58.5399C3.08074 57.4346 3.32622 56.5708 3.87547 55.9671C4.11861 55.6921 4.42174 55.478 4.76095 55.3415C5.10017 55.205 5.46617 55.15 5.83008 55.1807C6.17018 55.2362 6.49509 55.3626 6.78408 55.5518C7.07307 55.741 7.3198 55.989 7.50853 56.2798L7.99949 57.0383L8.30634 56.159C8.34857 56.0366 8.39986 55.9176 8.45976 55.803L8.57636 55.577L8.72058 55.7844C9.77111 57.2769 11.0551 58.5871 12.5224 59.6637L12.6267 59.7411L12.5684 59.8557C11.875 61.2675 10.577 62.6824 8.91082 63.8372L8.83411 63.8806ZM5.58461 55.4748C5.30324 55.4867 5.02703 55.555 4.77206 55.6757C4.51709 55.7963 4.28846 55.9669 4.09947 56.1776C3.61158 56.7163 3.39065 57.5058 3.44589 58.5244C3.55021 60.4625 5.69507 62.4719 8.78808 63.5369C10.3223 62.4533 11.5497 61.1437 12.2217 59.8216C10.8436 58.794 9.62703 57.5623 8.61318 56.1683L8.58557 56.2457L8.08847 57.7287L7.25078 56.4346C7.08735 56.1814 6.87326 55.9655 6.62226 55.8008C6.37125 55.636 6.08888 55.526 5.79326 55.4779C5.72385 55.4724 5.65415 55.4713 5.58461 55.4748ZM28.5981 63.0787C22.2464 63.0787 12.8876 61.6112 8.51499 53.7039C5.44653 48.131 6.93473 42.8677 7.7356 40.041L7.82459 39.7314L7.86754 39.7005C10.7918 37.654 12.4027 34.9356 12.0713 32.6105C11.8197 30.8582 11.0465 29.982 10.4328 29.5547C10.3344 29.4828 10.2319 29.4166 10.1259 29.3566L10.0001 29.2885L10.0584 29.1553C10.5289 28.1034 11.0798 27.09 11.7062 26.1243L11.9241 25.7899L11.9854 26.1862L11.8719 26.2358L11.9793 26.2203C12.4979 29.5361 15.6614 32.3783 20.4237 33.8242L21.2767 34.0842L22.1727 34.2762L22.6698 34.3753L22.8601 34.4124L23.0166 34.2793C23.3572 33.9914 23.7039 33.6818 24.0476 33.3505L24.1396 33.2669L24.2409 33.3381C24.5924 33.5825 24.912 33.8707 25.1921 34.1957C25.2467 34.2538 25.2969 34.3159 25.3425 34.3815L25.5082 34.5982L25.5695 34.6911L25.6063 34.7468C25.6278 34.787 25.6524 34.818 25.6738 34.8521C25.7183 34.9169 25.7593 34.984 25.7966 35.0533L26.0206 35.4775C26.1045 35.654 26.1792 35.8349 26.2446 36.0193L26.3643 36.3567L26.4011 36.4806C26.4256 36.558 26.4502 36.6323 26.4686 36.7128C26.5895 37.1911 26.6696 37.6789 26.7079 38.171L26.7355 38.5425V38.9264C26.7355 39.0286 26.7355 39.1339 26.7355 39.2361V39.3196C26.7355 39.3661 26.7355 39.4125 26.7355 39.4559C26.7401 39.5415 26.7401 39.6273 26.7355 39.7128C26.6959 40.2009 26.6313 40.6866 26.5422 41.168C26.8847 40.4865 27.1197 39.7553 27.2388 39.0008L27.2695 38.7933L27.4566 38.8862C28.1977 39.2552 29.0062 39.466 29.8316 39.5054C30.7121 39.5461 31.5904 39.3885 32.403 39.0441L32.5779 38.9698L32.6116 39.1587C32.6546 39.3878 32.6976 39.589 32.7436 39.7779C32.8844 40.3072 33.083 40.8191 33.3358 41.3042C33.3426 41.3206 33.355 41.334 33.3708 41.342C33.3866 41.3499 33.4046 41.3519 33.4217 41.3476C33.446 41.3372 33.4656 41.3183 33.4769 41.2943C33.4882 41.2703 33.4904 41.243 33.4831 41.2175C33.3457 40.7092 33.2431 40.192 33.1762 39.6695C33.1152 39.1559 33.0988 38.6379 33.1272 38.1215C33.1607 37.617 33.2387 37.1166 33.3604 36.6261C33.4909 36.1506 33.6719 35.6908 33.9004 35.2545C34.3424 34.4186 35.022 33.735 35.8519 33.2916L36.1588 33.1492L36.2447 33.1121L36.3184 33.174C36.7602 33.5455 37.2389 33.9078 37.7022 34.2483L38.1011 34.5363L37.8955 34.657C37.7693 34.7303 37.6474 34.8109 37.5304 34.8985C37.4008 34.9944 37.2769 35.0978 37.1591 35.2081C37.1008 35.2638 37.0394 35.3196 36.9842 35.3815L36.8032 35.592L36.6498 35.8087L36.5209 36.0316C36.4383 36.1804 36.3655 36.3345 36.303 36.493C36.0698 37.1202 35.9553 37.786 35.9655 38.4558C35.9709 39.0897 36.0461 39.7211 36.1895 40.3382C36.2805 40.7367 36.3942 41.1295 36.5301 41.5147L36.573 41.6448L36.4534 41.7067C36.1432 41.8591 35.856 42.055 35.6003 42.2888C35.3773 42.491 35.1868 42.7271 35.0357 42.9885C34.8811 43.2601 34.7703 43.5548 34.7074 43.8615C34.5972 44.4514 34.6034 45.0574 34.7258 45.6449C34.8386 46.1967 35.0136 46.7338 35.2475 47.2455C35.6958 48.2216 36.2761 49.1301 36.9719 49.9453C37.2788 50.3106 37.6163 50.679 37.9815 51.0413L38.1564 51.2084L37.9293 51.2951C37.8694 51.317 37.8109 51.3429 37.7544 51.3725C37.5482 51.4776 37.3663 51.6253 37.2205 51.806L37.1438 51.9143L37.0885 52.0072C37.0548 52.0691 37.021 52.1311 36.9934 52.1961C36.9392 52.3248 36.8941 52.4572 36.8584 52.5924C36.8256 52.7268 36.8021 52.8634 36.7878 53.0011C36.7878 53.0661 36.7878 53.1373 36.7878 53.2054V53.2673C36.7849 53.3178 36.7849 53.3685 36.7878 53.419C36.8127 53.7116 36.904 53.9945 37.0548 54.2457C37.1827 54.4621 37.3339 54.6635 37.5059 54.8463C37.8269 55.177 38.1806 55.4737 38.5614 55.7318C38.8928 55.9609 39.2641 56.19 39.6906 56.4284C40.4526 56.8487 41.2362 57.228 42.038 57.5646C42.7652 57.8742 43.5538 58.1838 44.4498 58.4934C44.4498 58.4934 44.4774 58.4934 44.4835 58.4656C44.4893 58.4531 44.4903 58.439 44.4863 58.4258C44.4823 58.4127 44.4737 58.4015 44.4621 58.3944C43.744 58.0848 42.9831 57.7194 42.13 57.2829C41.3612 56.8911 40.6126 56.4602 39.887 55.9918C39.4912 55.7318 39.1475 55.4872 38.8406 55.2395C38.5071 54.9785 38.1989 54.6862 37.9201 54.3664C37.8066 54.2333 37.4383 53.7472 37.4506 53.3726C37.4479 53.3469 37.4479 53.3209 37.4506 53.2952V53.2518C37.4506 53.2116 37.4506 53.1744 37.4506 53.1373V53.1032C37.4631 53.0108 37.4836 52.9196 37.512 52.8308C37.5372 52.7439 37.5711 52.6599 37.6132 52.58C37.6317 52.5402 37.6533 52.5019 37.6777 52.4654L37.7114 52.4128L37.7575 52.3571C37.8376 52.2765 37.9324 52.2124 38.0367 52.1682C38.1613 52.1178 38.2926 52.0864 38.4264 52.0753C38.5707 52.0639 38.7159 52.0691 38.859 52.0908C38.9334 52.0997 39.0072 52.1131 39.08 52.1311C39.1497 52.1459 39.2184 52.1656 39.2856 52.1899C39.3145 52.1986 39.3444 52.2038 39.3745 52.2054L39.4359 52.224L41.6145 53.4004C41.6256 53.4062 41.6384 53.4074 41.6504 53.404C41.6623 53.4005 41.6726 53.3926 41.679 53.3819C41.693 53.3655 41.7007 53.3447 41.7007 53.323C41.7007 53.3014 41.693 53.2805 41.679 53.2642L39.4911 51.2084C39.4658 51.1881 39.4391 51.1695 39.4114 51.1527C38.7469 50.587 38.131 49.9656 37.5703 49.2951C36.9329 48.5457 36.3993 47.7125 35.9839 46.8183C35.7833 46.3776 35.633 45.9154 35.5359 45.4405C35.4379 44.9916 35.4295 44.5274 35.5113 44.0752C35.5957 43.6614 35.8111 43.2865 36.125 43.007C36.3963 42.7648 36.708 42.573 37.0456 42.4405L37.1775 42.3847L37.242 42.5117C37.496 43.0235 37.7798 43.5197 38.0919 43.9978C38.8884 45.2285 39.8781 46.3203 41.0223 47.23C41.0261 47.224 41.0282 47.2171 41.0282 47.2099C41.0282 47.2028 41.0261 47.1958 41.0223 47.1898C39.9727 46.1903 39.0881 45.028 38.4018 43.747C38.0633 43.1166 37.772 42.4615 37.5304 41.7872L37.5059 41.716C37.4322 41.4807 37.3586 41.2113 37.2849 40.9141C37.2113 40.6169 37.1622 40.363 37.1192 40.0968C37.024 39.5595 36.9839 39.0138 36.9996 38.4682C37.0091 37.9599 37.1132 37.4579 37.3064 36.9883C37.3496 36.8818 37.3998 36.7784 37.4568 36.6787L37.6562 36.3691L37.7452 36.2731C37.7851 36.2298 37.828 36.1895 37.871 36.1493C37.9588 36.0698 38.051 35.9953 38.1472 35.9264C38.3394 35.7898 38.545 35.6736 38.7609 35.5796L39.0677 35.4589C39.1758 35.4282 39.2854 35.4034 39.396 35.3846C39.8415 35.3422 40.2901 35.4225 40.694 35.6168C41.1579 35.8274 41.5956 36.0923 41.9981 36.4063C42.4266 36.7301 42.8364 37.0785 43.2255 37.4496C44.8053 39.0289 46.2515 40.7387 47.5489 42.5612C48.7456 44.1897 49.973 45.9669 51.4152 48.2084C50.4072 46.1136 49.2802 44.0792 48.0399 42.1154C47.687 41.5581 47.3894 41.0968 47.0948 40.6664C46.7603 40.1773 46.4228 39.7036 46.0914 39.2577C45.4106 38.3242 44.6674 37.4387 43.8668 36.6075C43.4651 36.1876 43.0367 35.7946 42.5842 35.431C42.1235 35.0563 41.6209 34.7373 41.0867 34.4805C40.6194 34.2594 40.1115 34.1392 39.5955 34.1276H38.6749L39.5402 33.818C44.0202 32.2328 47.1684 29.4216 47.9632 26.2977L48.0491 25.954L48.2393 26.2636C50.6211 30.0503 51.8668 34.4511 51.8264 38.9357V39.01L51.9092 39.2949C52.6825 41.973 54.4929 48.2424 52.5812 53.1156L52.5137 53.2921L52.3572 53.1899C51.8429 52.8552 51.2389 52.6884 50.6273 52.7122C50.0157 52.736 49.4262 52.9493 48.939 53.323C48.3253 53.7565 47.5581 54.6358 47.3188 56.3788C47.2118 57.26 47.3378 58.1541 47.6839 58.9702L47.733 59.0848L47.6287 59.156C42.4829 62.6019 35.2567 62.8712 31.7832 62.9765H31.7065C31.326 62.9765 30.9854 63.0013 30.6877 63.0168C30.0249 63.0601 29.3284 63.0787 28.595 63.0787H28.5981ZM8.08847 39.9141L8.03017 40.1277C7.24158 42.9142 5.77485 48.0969 8.78502 53.5553C13.5688 62.2242 24.5385 63.023 30.6509 62.7195C30.9577 62.7041 31.2922 62.6917 31.6727 62.6793H31.7525C35.4346 62.5524 42.2712 62.3109 47.3341 58.9795C46.9997 58.1461 46.8824 57.24 46.9935 56.3479C47.2482 54.4903 48.0859 53.5614 48.7426 53.0847C49.1872 52.7621 49.7016 52.5509 50.2432 52.4685C50.7847 52.3861 51.3379 52.435 51.8571 52.611C52.0289 52.6743 52.1951 52.752 52.3542 52.8432C54.1185 48.0907 52.3542 42.007 51.6054 39.3909L51.5103 39.041V38.9388C51.5426 34.63 50.3764 30.3984 48.1442 26.7249C47.2237 29.6662 44.3363 32.2978 40.2491 33.8923C40.5728 33.9587 40.8879 34.0626 41.188 34.2019C41.7447 34.4691 42.2688 34.8005 42.7499 35.1895C43.2126 35.5624 43.6513 35.9646 44.0632 36.3939C44.8721 37.2361 45.6245 38.1319 46.3154 39.0751C46.6468 39.524 46.9874 40.0039 47.3249 40.493C47.6318 40.9296 47.9202 41.3909 48.2762 41.9513C49.5146 43.9209 50.6366 45.9627 51.6361 48.066C51.6732 48.138 51.6808 48.2218 51.6573 48.2994C51.6338 48.3769 51.581 48.4421 51.5103 48.4808C51.4444 48.5144 51.3687 48.5228 51.2972 48.5046C51.2256 48.4864 51.1629 48.4428 51.1206 48.3818C49.6815 46.1619 48.4572 44.3724 47.2636 42.7501C45.9743 40.9417 44.5373 39.2453 42.9677 37.6787C42.5889 37.3149 42.1893 36.9738 41.771 36.657C41.3924 36.3589 40.9804 36.1064 40.5436 35.9047C40.1903 35.7345 39.7985 35.6619 39.4083 35.6942C39.3131 35.7108 39.2189 35.7325 39.126 35.7592L38.8345 35.8676C38.6417 35.9522 38.4578 36.0559 38.2852 36.1772C38.199 36.2399 38.116 36.307 38.0367 36.3784L37.9262 36.4837L37.8495 36.5642L37.6838 36.818C37.6333 36.9071 37.5883 36.9991 37.5488 37.0936C37.3784 37.5307 37.2879 37.9954 37.2819 38.4651C37.2668 38.99 37.3059 39.515 37.3985 40.0317C37.4414 40.2949 37.4936 40.5612 37.5611 40.8305C37.6286 41.0999 37.7022 41.3816 37.7728 41.6076L37.7974 41.685C38.0334 42.3391 38.3175 42.9746 38.6473 43.586C39.3175 44.838 40.1814 45.9741 41.2064 46.9514C41.2677 47.0092 41.3049 47.0884 41.3106 47.1729C41.3163 47.2573 41.29 47.3408 41.2371 47.4065C41.1874 47.4712 41.1142 47.5135 41.0337 47.5239C40.9532 47.5344 40.8719 47.5122 40.8075 47.4622C39.6384 46.5299 38.6261 45.4134 37.8096 44.1557C37.518 43.7083 37.2506 43.2453 37.0088 42.7686C36.7522 42.8838 36.5143 43.0372 36.303 43.2238C36.0367 43.4592 35.8554 43.7772 35.7875 44.1278C35.7134 44.5381 35.7218 44.9592 35.8121 45.3662C35.9038 45.8189 36.0469 46.2593 36.2386 46.6789C36.6394 47.5474 37.1555 48.3567 37.7728 49.0846C38.3195 49.7315 38.919 50.3311 39.5648 50.8772C39.6057 50.9006 39.6438 50.9286 39.6783 50.9608L41.8661 53.0134C41.9378 53.0823 41.9816 53.1755 41.989 53.275C41.9963 53.3746 41.9668 53.4734 41.906 53.5522C41.8544 53.6195 41.7809 53.6664 41.6984 53.6845C41.6159 53.7027 41.5297 53.6909 41.455 53.6512L39.307 52.4902C39.2665 52.4859 39.2264 52.4776 39.1874 52.4654C39.1291 52.4438 39.0585 52.4252 39.0002 52.4097L38.8069 52.3757C38.6845 52.3621 38.561 52.3621 38.4387 52.3757C38.3334 52.3817 38.2298 52.4046 38.1318 52.4438C38.0571 52.4752 37.99 52.5228 37.9354 52.5831L37.9078 52.6202L37.8587 52.7038C37.8254 52.7705 37.7976 52.8399 37.7759 52.9113C37.7535 52.9853 37.736 53.0609 37.7237 53.1373C37.7237 53.193 37.7237 53.224 37.7237 53.2549V53.354C37.7686 53.6558 37.9072 53.9355 38.1195 54.1528C38.3837 54.4582 38.6766 54.7372 38.9941 54.9856C39.3009 55.224 39.6292 55.4655 40.0189 55.7225C40.6602 56.1404 41.3875 56.5584 42.2313 56.995C43.0751 57.4315 43.8361 57.7875 44.548 58.0971C44.6318 58.1352 44.6979 58.2043 44.7327 58.2902C44.7675 58.376 44.7684 58.472 44.7352 58.5585C44.7071 58.6428 44.6472 58.7125 44.5685 58.7525C44.4898 58.7925 44.3986 58.7995 44.3148 58.7721C43.4096 58.4625 42.6148 58.1529 41.8815 57.8433C41.0695 57.5024 40.2758 57.119 39.5034 56.6946C39.0677 56.4501 38.6903 56.2178 38.3497 55.9795C37.9507 55.7091 37.5806 55.3978 37.245 55.0506C37.0572 54.8506 36.8916 54.6305 36.751 54.3943C36.5772 54.1034 36.4722 53.776 36.4442 53.4376C36.4442 53.3664 36.4442 53.3138 36.4442 53.258V53.1992C36.4442 53.1187 36.4442 53.0444 36.4442 52.9701C36.4585 52.8146 36.4841 52.6605 36.5209 52.5088C36.5594 52.3561 36.6108 52.2069 36.6743 52.063C36.705 51.9918 36.7418 51.9205 36.7817 51.8462L36.8492 51.7379L36.9075 51.6481L36.9474 51.676L36.9106 51.645L36.9382 51.6078C37.1067 51.3969 37.3153 51.2221 37.5519 51.0939C37.245 50.7843 36.9382 50.4561 36.6804 50.1372C35.9674 49.2946 35.3726 48.357 34.913 47.3508C34.6688 46.8186 34.4866 46.2596 34.3699 45.6851C34.2382 45.0569 34.232 44.4086 34.3515 43.7779C34.4213 43.4388 34.5435 43.1128 34.7135 42.812C34.8777 42.5239 35.0847 42.2628 35.3272 42.038C35.5711 41.8156 35.8411 41.6243 36.1312 41.4683C36.0115 41.1092 35.9102 40.7531 35.8243 40.3847C35.6772 39.745 35.6 39.0909 35.5942 38.4342C35.5833 37.7251 35.7051 37.0203 35.9532 36.3567C36.0223 36.1851 36.1012 36.0176 36.1895 35.8552L36.3306 35.6199L36.6007 35.2514L36.6927 35.1493C36.7602 35.0812 36.8216 35.0192 36.886 34.9604C37.011 34.8418 37.1432 34.7312 37.2819 34.6291C37.3463 34.5827 37.4107 34.5363 37.4782 34.4929H37.4598C37.0057 34.1647 36.5577 33.818 36.1312 33.465L35.9379 33.5579C35.1622 33.9725 34.5274 34.6119 34.1152 35.3939C33.8978 35.8093 33.726 36.2474 33.6028 36.7004C33.4835 37.17 33.4085 37.65 33.3788 38.1339C33.3577 38.6334 33.3803 39.1338 33.4463 39.6293C33.5153 40.1361 33.6178 40.6378 33.7531 41.1308C33.7824 41.2347 33.7711 41.346 33.7214 41.4416C33.6717 41.5373 33.5875 41.61 33.4862 41.6448C33.4003 41.6689 33.3088 41.6624 33.2272 41.6263C33.1455 41.5902 33.0788 41.5267 33.0382 41.4466C32.7758 40.9408 32.57 40.407 32.4245 39.8553C32.3877 39.7097 32.3539 39.5457 32.3201 39.397C31.5148 39.7102 30.6539 39.8515 29.7917 39.8119C28.993 39.7722 28.2089 39.58 27.4812 39.2453C27.3473 40.002 27.0978 40.7331 26.7417 41.4126C26.7222 41.4484 26.6959 41.4799 26.6643 41.5054C26.6327 41.5309 26.5965 41.5499 26.5576 41.5612C26.5202 41.5707 26.4813 41.5723 26.4432 41.5659C26.4052 41.5595 26.3689 41.5453 26.3366 41.524C26.2862 41.4916 26.2463 41.445 26.2218 41.39C26.1973 41.335 26.1892 41.274 26.1986 41.2144C26.2941 40.7138 26.3637 40.2084 26.4072 39.7005C26.4072 39.6138 26.4072 39.5395 26.4072 39.4621C26.4072 39.3847 26.4072 39.3692 26.4072 39.3227V39.2546C26.4072 39.1556 26.4072 39.0596 26.4072 38.945V38.5673L26.3888 38.2051C26.3505 37.7297 26.2725 37.2585 26.1556 36.7964C26.1372 36.719 26.1157 36.6509 26.0942 36.5827C26.0727 36.5146 26.0666 36.4992 26.0543 36.4558L25.9408 36.1462C25.8785 35.9701 25.8068 35.7975 25.726 35.6292L25.6708 35.5115L25.5112 35.2205C25.4793 35.1613 25.4435 35.1044 25.4038 35.0502C25.3793 35.013 25.3547 34.9759 25.3332 34.9387L25.2934 34.8768C25.2934 34.8521 25.2627 34.8273 25.2443 34.8025L25.0816 34.5889C25.042 34.5318 24.9978 34.4779 24.9497 34.4279C24.7132 34.1499 24.4455 33.9005 24.1519 33.6848C23.845 33.9945 23.5136 34.27 23.1976 34.5363L22.9306 34.7623H22.8723C22.9613 34.8335 23.0503 34.9109 23.1424 34.9945C23.2344 35.0781 23.2712 35.1183 23.3326 35.1833L23.5321 35.4155L23.6916 35.6477L23.8358 35.8861C23.9264 36.05 24.0064 36.2196 24.0752 36.3939C24.323 37.0575 24.4448 37.7623 24.4342 38.4713C24.4286 39.127 24.3514 39.7801 24.2041 40.4187C24.1199 40.7859 24.0175 41.1486 23.8972 41.5055C24.1873 41.6614 24.4573 41.8527 24.7011 42.0751C24.9437 42.3 25.1506 42.561 25.3148 42.8491C25.4849 43.1489 25.6071 43.4739 25.6769 43.812C25.7964 44.4426 25.7901 45.091 25.6585 45.7192C25.5483 46.2877 25.3732 46.8414 25.1369 47.3694C24.678 48.376 24.0832 49.3138 23.3694 50.1558C23.1025 50.4654 22.811 50.7967 22.498 51.1125C22.7344 51.2395 22.9431 51.4132 23.1117 51.6233L23.1424 51.6636L23.2037 51.7534L23.2712 51.8648C23.3113 51.9359 23.3472 52.0093 23.3786 52.0846C23.4426 52.2274 23.4939 52.3755 23.5321 52.5274C23.5676 52.6772 23.5932 52.8292 23.6088 52.9825C23.6088 53.063 23.6088 53.1373 23.6088 53.2147V53.2518C23.6131 53.3137 23.6131 53.3758 23.6088 53.4376C23.5818 53.7753 23.4767 54.1019 23.3019 54.3912C23.1621 54.628 22.9964 54.8481 22.8079 55.0475C22.4732 55.3956 22.1029 55.7069 21.7033 55.9764C21.3596 56.2148 20.9822 56.447 20.5495 56.6915C19.7766 57.1147 18.9828 57.4981 18.1715 57.8402C17.4412 58.1498 16.6372 58.4594 15.7412 58.769C15.6993 58.7838 15.6548 58.7898 15.6104 58.7866C15.5661 58.7834 15.5229 58.7711 15.4835 58.7504C15.4411 58.7276 15.4038 58.6963 15.3738 58.6585C15.3437 58.6208 15.3215 58.5772 15.3086 58.5306C15.2836 58.4462 15.2898 58.3555 15.3259 58.2753C15.362 58.1951 15.4256 58.1307 15.505 58.0941C16.2168 57.7844 16.9748 57.4222 17.8216 56.9919C18.5883 56.6099 19.335 56.1883 20.0586 55.7287C20.4452 55.4748 20.7796 55.2333 21.0804 54.9949C21.3962 54.7456 21.688 54.4668 21.9518 54.1621C22.1624 53.9493 22.3019 53.6754 22.3507 53.3788V53.2518V53.1621C22.3382 53.0772 22.3197 52.9934 22.2955 52.9113C22.2742 52.8407 22.2465 52.7723 22.2126 52.7069C22.1981 52.677 22.1817 52.6481 22.1635 52.6202L22.1359 52.58C22.0799 52.5221 22.0132 52.4758 21.9395 52.4438C21.8415 52.4046 21.7379 52.3817 21.6327 52.3757C21.5103 52.3621 21.3868 52.3621 21.2645 52.3757L21.0712 52.4097C21.0128 52.4252 20.9423 52.4438 20.9024 52.4593C20.8572 52.473 20.811 52.4834 20.7643 52.4902L18.6164 53.6512C18.5739 53.6742 18.5273 53.6883 18.4793 53.6925C18.4313 53.6968 18.3829 53.6912 18.3371 53.676C18.2891 53.6584 18.245 53.6313 18.2076 53.5962C18.1702 53.5611 18.1401 53.5187 18.1193 53.4717C18.0851 53.3956 18.0751 53.3109 18.0904 53.2288C18.1058 53.1468 18.1459 53.0716 18.2052 53.0134L20.393 50.9608C20.4343 50.9229 20.4796 50.8896 20.528 50.8617C21.1654 50.3192 21.7575 49.7248 22.2985 49.0846C22.9156 48.3565 23.4317 47.5472 23.8328 46.6789C24.0266 46.2599 24.1708 45.8193 24.2624 45.3662C24.3526 44.9592 24.361 44.5381 24.2869 44.1278C24.219 43.7772 24.0377 43.4592 23.7714 43.2238C23.5601 43.0372 23.3222 42.8838 23.0657 42.7686C22.8231 43.2459 22.5558 43.7099 22.2648 44.1588C21.4483 45.4156 20.4359 46.5311 19.2669 47.4622C19.2338 47.4883 19.1958 47.5073 19.1551 47.5179C19.1145 47.5286 19.0721 47.5307 19.0306 47.5242C18.9875 47.5174 18.9464 47.5015 18.9099 47.4775C18.8734 47.4535 18.8424 47.4219 18.8189 47.3848C18.7761 47.318 18.7576 47.2383 18.7665 47.1592C18.7755 47.0802 18.8113 47.0067 18.868 46.9514C19.8938 45.9748 20.7578 44.8386 21.4271 43.586C21.7539 42.9782 22.036 42.347 22.2709 41.6974L22.2985 41.6076C22.3722 41.3816 22.4458 41.1184 22.5133 40.8305C22.5808 40.5426 22.6361 40.2918 22.676 40.0348C22.7683 39.5181 22.8074 38.9931 22.7926 38.4682C22.7867 37.9985 22.6963 37.5338 22.5256 37.0967C22.4858 36.9988 22.4396 36.9037 22.3875 36.8119L22.2126 36.5487L22.1451 36.4806C22.1144 36.4465 22.0745 36.4125 22.0346 36.3753C21.9562 36.3051 21.8742 36.239 21.7892 36.1772C21.6171 36.0535 21.4318 35.9496 21.2368 35.8676L20.93 35.7561C20.8413 35.7301 20.7511 35.7094 20.66 35.6942C20.2674 35.6616 19.8734 35.7353 19.5185 35.9078C19.0819 36.1085 18.6699 36.3599 18.2911 36.657C17.8751 36.9754 17.4766 37.3164 17.0975 37.6787C15.5279 39.2453 14.0909 40.9417 12.8016 42.7501C11.608 44.3724 10.3837 46.1557 8.94458 48.3818C8.92186 48.4163 8.89249 48.4459 8.85823 48.4687C8.82397 48.4916 8.78551 48.5073 8.74513 48.5149C8.70579 48.5216 8.66549 48.5198 8.62688 48.5097C8.58827 48.4996 8.55223 48.4813 8.52113 48.4561C8.46241 48.4126 8.42091 48.3496 8.40405 48.2781C8.38719 48.2066 8.39606 48.1314 8.42907 48.066C9.43417 45.9626 10.5612 43.9209 11.8044 41.9513C12.1511 41.4064 12.461 40.9296 12.7556 40.493C13.0931 40.0008 13.4337 39.524 13.7651 39.0751C14.4562 38.132 15.2086 37.2363 16.0174 36.3939C16.4286 35.9639 16.8673 35.5616 17.3307 35.1895C17.8117 34.8005 18.3359 34.4691 18.8925 34.2019C19.1512 34.0821 19.4203 33.9867 19.6965 33.9171C15.3423 32.4371 12.4027 29.756 11.7369 26.6259C11.2295 27.4387 10.7764 28.2848 10.3806 29.1584C10.488 29.2204 10.5678 29.273 10.6108 29.3039C11.2705 29.7684 12.1082 30.7095 12.3751 32.561C12.7219 34.9852 11.0802 37.8026 8.08847 39.9141ZM22.3292 52.3416L22.3722 52.3942L22.4059 52.4438C22.4312 52.4824 22.4538 52.5227 22.4734 52.5645C22.5156 52.6444 22.5495 52.7284 22.5747 52.8153C22.6031 52.9041 22.6236 52.9953 22.6361 53.0877V53.1218C22.6361 53.159 22.6361 53.1961 22.6361 53.2333V53.2797C22.6389 53.3127 22.6389 53.3458 22.6361 53.3788C22.6361 53.7472 22.2801 54.2178 22.1635 54.3509C21.8858 54.6717 21.5774 54.9641 21.243 55.224C20.9361 55.4686 20.5955 55.7163 20.1966 55.9764C19.481 56.4483 18.7416 56.8823 17.9812 57.2767C17.1282 57.7132 16.3672 58.0755 15.6492 58.3882C15.6381 58.3951 15.6297 58.4056 15.6253 58.418C15.6208 58.4303 15.6206 58.4438 15.6246 58.4563C15.6286 58.4677 15.6361 58.4775 15.6461 58.4842C16.5666 58.1745 17.3491 57.8649 18.0733 57.5553C18.8751 57.2187 19.6586 56.8394 20.4206 56.4191C20.8085 56.2086 21.1854 55.9782 21.5498 55.7287C21.9314 55.4704 22.2852 55.1726 22.6054 54.8401C22.7778 54.659 22.9292 54.4585 23.0564 54.2426C23.2085 53.9931 23.3 53.7109 23.3234 53.419C23.3263 53.3664 23.3263 53.3137 23.3234 53.2611V53.1992C23.3234 53.1342 23.3234 53.0661 23.3234 52.9949C23.3084 52.8583 23.2848 52.7228 23.2528 52.5893C23.2176 52.454 23.1725 52.3215 23.1178 52.193C23.0902 52.128 23.0564 52.0661 23.0227 52.001L22.9675 51.9082L22.9184 51.8369L22.8908 51.7998C22.744 51.6209 22.5622 51.4744 22.3568 51.3694C22.3003 51.3398 22.2419 51.3139 22.1819 51.292L21.9549 51.2054L22.1298 51.0382C22.4949 50.6759 22.8355 50.3075 23.1393 49.9422C23.8313 49.1238 24.4084 48.2133 24.8546 47.2362C25.0884 46.7245 25.2634 46.1875 25.3762 45.6356C25.4986 45.0481 25.5049 44.4421 25.3946 43.8523C25.3318 43.5455 25.2209 43.2508 25.0663 42.9792C24.9152 42.7178 24.7248 42.4817 24.5017 42.2795C24.246 42.0458 23.9588 41.8498 23.6487 41.6974L23.529 41.6355L23.572 41.5055C23.7091 41.1196 23.8228 40.7257 23.9126 40.3259C24.0563 39.7098 24.1314 39.0795 24.1365 38.4466C24.1468 37.7767 24.0323 37.1109 23.799 36.4837C23.7357 36.3231 23.6618 36.1669 23.5781 36.0162L23.4461 35.7902L23.2037 35.4806L23.1178 35.3846C23.0626 35.3227 23.0012 35.2669 22.9429 35.2112C22.8258 35.1014 22.7028 34.9981 22.5747 34.9016C22.4128 34.7841 22.2414 34.6805 22.0623 34.592L21.1908 34.1276L20.3777 34.1554C19.9097 34.177 19.4502 34.2894 19.0245 34.4867C18.4907 34.7442 17.9882 35.0632 17.5271 35.4372C17.0746 35.8008 16.6461 36.1938 16.2445 36.6137C15.4439 37.4449 14.7006 38.3304 14.0198 39.2639C13.6884 39.7097 13.3509 40.1927 13.0164 40.6726C12.7096 41.1061 12.4027 41.5798 12.0713 42.1216C10.8332 44.0791 9.71219 46.1096 8.71444 48.2022C10.1351 45.9916 11.3625 44.199 12.5592 42.5674C13.8568 40.7487 15.3008 39.0412 16.8766 37.462C17.2662 37.0916 17.676 36.7432 18.1039 36.4187C18.5066 36.1058 18.9443 35.8418 19.408 35.6323C19.8134 35.4356 20.2643 35.3543 20.7121 35.397C20.8158 35.4156 20.9182 35.4404 21.019 35.4713L21.3442 35.5889C21.5601 35.6842 21.7657 35.8014 21.9579 35.9388C22.0529 36.0069 22.1441 36.0803 22.231 36.1586C22.2771 36.2019 22.32 36.2422 22.3568 36.2824L22.4397 36.3691L22.6422 36.6787C22.7023 36.7782 22.7556 36.8816 22.8018 36.9883C22.9872 37.4596 23.085 37.9612 23.0902 38.4682C23.1057 39.0138 23.0656 39.5595 22.9705 40.0968C22.9276 40.363 22.8723 40.6386 22.8018 40.9141C22.7312 41.1897 22.6575 41.4807 22.5808 41.716V41.7624C22.582 41.7717 22.582 41.781 22.5808 41.7903C22.339 42.4635 22.0477 43.1175 21.7094 43.747C21.0239 45.0276 20.1392 46.1889 19.0889 47.1867C19.0851 47.1927 19.0831 47.1997 19.0831 47.2068C19.0831 47.214 19.0851 47.2209 19.0889 47.2269C20.2338 46.3191 21.2237 45.2283 22.0193 43.9978C22.3314 43.5197 22.6152 43.0235 22.8693 42.5117L22.9337 42.3847L23.0657 42.4405C23.4025 42.5746 23.7139 42.7662 23.9862 43.007C24.2998 43.2868 24.5151 43.6615 24.5999 44.0752C24.6817 44.5274 24.6734 44.9916 24.5753 45.4405C24.4797 45.9158 24.3293 46.3782 24.1273 46.8183C23.712 47.7125 23.1783 48.5457 22.5409 49.2951C21.9788 49.9566 21.3629 50.5696 20.6999 51.128L20.5986 51.1992L18.4108 53.2518C18.4005 53.2669 18.395 53.2847 18.395 53.3029C18.395 53.3212 18.4005 53.339 18.4108 53.354C18.4139 53.3625 18.4187 53.3703 18.4251 53.3767C18.4315 53.3831 18.4392 53.3881 18.4476 53.3912C18.4595 53.3957 18.4726 53.3957 18.4844 53.3912L20.7244 52.1961C20.7537 52.1957 20.7827 52.1905 20.8103 52.1806C20.8786 52.1567 20.9483 52.1371 21.019 52.1218C21.0918 52.1038 21.1655 52.0904 21.2399 52.0815C21.3841 52.0597 21.5303 52.0545 21.6756 52.0661C21.8075 52.0768 21.9369 52.1081 22.0592 52.1589C22.1648 52.2023 22.2608 52.2665 22.3415 52.3478L22.3292 52.3416ZM52.7377 63.0663L52.6733 63.0291C49.66 61.1715 47.8987 58.6359 48.1902 56.546C48.3406 55.45 48.7487 54.6574 49.3992 54.193C49.7985 53.9117 50.2716 53.7565 50.7586 53.7472C50.9991 53.7478 51.2377 53.7897 51.4643 53.871C51.7872 54.0045 52.0801 54.2021 52.3258 54.4521C52.5714 54.702 52.7647 54.9993 52.8942 55.3262L53.2317 56.1869L53.6859 55.3974C53.8593 55.096 54.0929 54.8342 54.3718 54.6285C54.6506 54.4228 54.9687 54.2777 55.306 54.2023C55.6666 54.15 56.0344 54.1832 56.3801 54.2993C56.7257 54.4154 57.0398 54.6111 57.2975 54.8711C57.8743 55.4407 58.1658 56.2891 58.1597 57.3974C58.1597 59.512 56.0486 61.7319 52.8083 63.0384L52.7377 63.0663ZM50.7586 54.0568C50.3355 54.068 49.9249 54.2036 49.5772 54.4469C48.9973 54.8618 48.6321 55.5801 48.494 56.5863C48.2271 58.512 49.9423 60.9703 52.7653 62.7226C55.8031 61.4842 57.8436 59.3387 57.8528 57.3943C57.8528 56.3757 57.5982 55.6017 57.0827 55.094C56.8601 54.8677 56.5884 54.6968 56.2892 54.5947C55.9899 54.4926 55.6711 54.4622 55.3582 54.5057C55.0648 54.5734 54.7884 54.7012 54.5461 54.8812C54.3039 55.0613 54.1008 55.2896 53.9498 55.5522L53.1796 56.8959L52.6088 55.4407C52.4958 55.1547 52.327 54.8944 52.1125 54.6753C51.898 54.4562 51.6421 54.2828 51.36 54.1652C51.1674 54.0937 50.9638 54.0571 50.7586 54.0568ZM6.6555 39.3196L6.58493 39.2918C3.33849 37.9853 1.22739 35.7809 1.22739 33.6632C1.22739 32.5579 1.50355 31.7065 2.07735 31.1337C2.50765 30.7063 3.079 30.4538 3.68216 30.4247C3.8025 30.4242 3.92265 30.4346 4.04117 30.4557C4.37794 30.5302 4.69588 30.674 4.97515 30.878C5.25443 31.082 5.48905 31.3419 5.66439 31.6415L6.13693 32.4279L6.46832 31.5795C6.59607 31.2524 6.78766 30.9544 7.03171 30.7034C7.27575 30.4524 7.56729 30.2534 7.88902 30.1182C8.23349 30.0014 8.60048 29.9685 8.95995 30.0224C9.31942 30.0762 9.66115 30.2151 9.95717 30.4278C10.6108 30.8891 11.0219 31.6662 11.1846 32.7715C11.4914 34.8613 9.73317 37.4156 6.72914 39.2732L6.6555 39.3196ZM1.53423 33.6601C1.53423 35.6044 3.59931 37.7283 6.64323 38.9636C9.46008 37.1958 11.1631 34.7282 10.89 32.8056C10.7458 31.7994 10.3775 31.0811 9.79761 30.6724C9.54243 30.4879 9.2477 30.3668 8.93738 30.3189C8.62706 30.271 8.30992 30.2977 8.01176 30.3968C7.73313 30.5185 7.48117 30.6947 7.27049 30.9152C7.0598 31.1358 6.89458 31.3963 6.78438 31.6817L6.18909 33.1276L5.41277 31.7901C5.25881 31.5287 5.05279 31.3024 4.80772 31.1255C4.56265 30.9486 4.28387 30.8248 3.989 30.7622C3.88777 30.7435 3.78507 30.7342 3.68216 30.7343C3.14926 30.7535 2.64309 30.9746 2.26453 31.3535C1.75209 31.8613 1.49741 32.6384 1.50662 33.657L1.53423 33.6601ZM30.071 38.8243H29.8193C28.9566 38.7826 28.1156 38.5365 27.3646 38.106L27.2848 38.0596V37.9667C27.2916 37.5347 27.2629 37.1028 27.1989 36.6756L27.1621 36.4248L29.8347 37.332C29.8857 37.3474 29.9401 37.3474 29.9912 37.332L32.5472 36.5982L32.5165 36.8335C32.4617 37.2574 32.4401 37.6849 32.4521 38.1122V38.2206L32.357 38.2887C31.6424 38.632 30.8624 38.8148 30.071 38.8243ZM27.6162 37.8738C28.3051 38.2472 29.0687 38.4589 29.85 38.493C30.6462 38.5294 31.4397 38.3767 32.1667 38.0472C32.1605 37.7009 32.1748 37.3545 32.2097 37.01L30.1016 37.6292C29.9906 37.6632 29.8721 37.6632 29.761 37.6292L27.561 36.8831C27.6006 37.2117 27.6191 37.5427 27.6162 37.8738ZM52.707 38.493V38.2763C52.6435 35.221 52.0192 32.204 50.866 29.3783L50.7678 29.1399L51.0255 29.1646C51.2371 29.1857 51.4442 29.24 51.6392 29.3256C51.9562 29.4793 52.2395 29.6954 52.4724 29.9613C52.7053 30.2272 52.8832 30.5374 52.9955 30.8736L53.3023 31.7529L53.7933 30.9913C53.9826 30.701 54.2294 30.4534 54.5183 30.2643C54.8072 30.0751 55.1319 29.9484 55.4717 29.8922C55.8293 29.8636 56.1887 29.9169 56.5229 30.0483C56.8571 30.1797 57.1576 30.3856 57.4018 30.6507C57.951 31.2514 58.1996 32.1152 58.1413 33.2204C58.0339 35.2267 55.9934 37.2453 52.9065 38.4063L52.707 38.493ZM51.2495 29.5145C52.3233 32.2326 52.9173 35.1193 53.0047 38.0441C55.8491 36.9326 57.7393 35.0471 57.8375 33.2112C57.8927 32.1926 57.6687 31.4031 57.1809 30.8644C56.9692 30.6272 56.7064 30.4422 56.4128 30.3236C56.1191 30.205 55.8024 30.1559 55.4871 30.1801C55.1912 30.2286 54.9087 30.3391 54.6576 30.5044C54.4066 30.6697 54.1927 30.8862 54.0295 31.1399L53.1918 32.434L52.6917 30.9603C52.5931 30.6676 52.4375 30.3977 52.2341 30.1664C52.0307 29.9351 51.7836 29.7472 51.5073 29.6136C51.4224 29.5719 51.3341 29.5377 51.2434 29.5114L51.2495 29.5145ZM29.9513 36.6354L26.9872 35.6292L26.9657 35.5549C26.8859 35.3134 26.8092 35.1028 26.7233 34.9078C26.6711 34.7932 26.6159 34.6818 26.5576 34.5703L26.487 34.4279L30.0341 32.7034L33.3327 34.4496L33.2622 34.5858L33.1701 34.7685C33.0158 35.0859 32.8865 35.4151 32.7835 35.753L32.7589 35.8304L29.9513 36.6354ZM27.2326 35.397L29.9605 36.3258L32.5165 35.5951C32.6189 35.2703 32.745 34.9536 32.8939 34.6477L32.9216 34.5951L30.028 33.0656L26.9043 34.5858C26.9381 34.6539 26.9718 34.7251 27.0025 34.7963C27.0792 34.9852 27.1559 35.1709 27.2296 35.3908L27.2326 35.397ZM33.704 33.9016L30.1661 32.0439C30.1279 32.0248 30.0859 32.0149 30.0433 32.0149C30.0008 32.0149 29.9588 32.0248 29.9206 32.0439L26.128 33.9016L26.0513 33.7468C25.9868 33.657 25.9193 33.5703 25.8518 33.4836L25.772 33.3876L25.8181 33.2483C26.2792 32.6677 26.8431 32.1785 27.4812 31.8055C27.8953 31.5665 28.3434 31.3931 28.8098 31.2916C30.6325 30.8891 32.5932 31.6229 34.0569 33.2514L34.149 33.3567L34.0538 33.4619C33.9587 33.5641 33.8697 33.6725 33.7807 33.7715L33.704 33.9016ZM30.3072 31.7529L33.6242 33.5084C33.6611 33.465 33.6979 33.4186 33.7378 33.3752C32.36 31.9015 30.5527 31.2452 28.8773 31.6136C28.4466 31.7104 28.0328 31.8722 27.6499 32.0935C27.0821 32.4265 26.5764 32.8572 26.1556 33.366L26.2415 33.4774L29.804 31.7436C29.8843 31.7023 29.9732 31.6808 30.0633 31.6808C30.1534 31.6808 30.2423 31.7023 30.3226 31.7436L30.3072 31.7529ZM22.6361 33.3474H22.5624C17.2816 32.2792 13.3877 29.3566 12.8753 26.0717C12.6022 24.3255 12.8753 22.8951 13.6455 21.8177C13.9278 21.4307 14.9772 20.1706 16.671 20.1675C17.2279 20.1845 17.7748 20.3224 18.2741 20.5719C18.7734 20.8214 19.2136 21.1766 19.5645 21.6134L20.1199 22.2914L20.3255 21.3626C20.4502 20.7976 20.6857 20.2635 21.0183 19.7919C21.3508 19.3202 21.7736 18.9205 22.2617 18.6164C22.7771 18.3331 23.3516 18.1769 23.9383 18.1608C24.525 18.1447 25.1071 18.269 25.637 18.5235C26.7908 19.0777 27.6315 20.2109 28.1348 21.8982C29.0768 25.0624 26.8828 29.6383 22.6729 33.2824L22.6361 33.3474ZM16.6679 20.4555C15.1122 20.4555 14.1426 21.6227 13.8848 21.9787C13.1484 22.988 12.909 24.341 13.1699 26.0036C13.6608 29.146 17.4227 31.9573 22.5379 33.0099C26.622 29.4495 28.7546 25.0314 27.8494 21.9973C27.3738 20.3966 26.5883 19.3254 25.5143 18.8145C25.0287 18.5784 24.4943 18.4623 23.9555 18.4757C23.4166 18.4892 22.8886 18.6319 22.4151 18.892C21.9638 19.175 21.573 19.5462 21.2658 19.9838C20.9586 20.4214 20.7411 20.9165 20.6262 21.44L20.2795 22.988L19.3313 21.7868C19.0083 21.3848 18.6031 21.0577 18.1435 20.828C17.6839 20.5983 17.1806 20.4712 16.6679 20.4555ZM37.9937 33.2638L37.9324 33.2204C33.4831 29.9355 30.9915 25.5546 31.6972 22.3193C32.0839 20.5979 32.8418 19.3966 33.9556 18.7526C34.5418 18.4173 35.2027 18.2373 35.8765 18.2294C36.3819 18.2334 36.88 18.3519 37.334 18.5762C37.8422 18.8391 38.2924 19.2031 38.6573 19.6464C39.0223 20.0896 39.2944 20.6029 39.4574 21.1552L39.7244 22.0468L40.2399 21.3069C40.5589 20.8437 40.9722 20.4544 41.4521 20.1651C41.932 19.8757 42.4675 19.6929 43.023 19.6288C44.7137 19.4895 45.849 20.6598 46.1559 21.022C47.012 22.0282 47.3832 23.4338 47.2175 25.1986C46.9322 28.5175 43.2531 31.756 38.0643 33.2483L37.9937 33.2638ZM35.8765 18.539C35.2568 18.5471 34.6491 18.7121 34.1091 19.0189C33.0719 19.6195 32.3631 20.7558 31.998 22.3874C31.2983 25.4896 33.7531 29.7219 38.049 32.9232C43.0813 31.4464 46.6407 28.3318 46.9107 25.1552C47.0549 23.4772 46.7205 22.149 45.9196 21.2078C45.6373 20.8734 44.5909 19.7929 43.0444 19.9229C42.5336 19.9821 42.0413 20.1509 41.6004 20.4179C41.1596 20.6849 40.7804 21.0439 40.4884 21.471L39.6108 22.731L39.1598 21.2295C39.0096 20.7187 38.7588 20.2437 38.4224 19.833C38.086 19.4223 37.671 19.0843 37.2021 18.8393C36.7874 18.6422 36.3349 18.5397 35.8765 18.539ZM34.6184 32.9387L34.5233 32.8303C32.9124 31.0037 30.7337 30.1801 28.6932 30.6291C28.1733 30.7447 27.6737 30.9388 27.2112 31.2049C26.5066 31.6114 25.8824 32.1457 25.3701 32.7808L25.2719 32.8985L25.1154 32.7653L24.9834 32.657L24.8484 32.5517L24.965 32.4279C28.414 28.7621 29.9175 24.7063 28.9878 21.5917C28.9356 21.4214 28.8835 21.2573 28.8282 21.1025L28.7392 20.8517L28.997 20.8951C29.3817 20.9641 29.7723 20.9942 30.163 20.9849C30.4141 20.9751 30.6642 20.9482 30.9117 20.9044L31.1664 20.861L31.0836 21.1056C30.9739 21.4251 30.8828 21.7507 30.8105 22.0809C30.1231 25.1769 31.7862 28.9758 35.2628 32.2731L35.4162 32.4155L35.2352 32.5207C35.0561 32.6227 34.8839 32.7365 34.7197 32.8613L34.6184 32.9387ZM29.804 30.1987C31.5469 30.1987 33.2928 31.0223 34.6614 32.5207C34.7412 32.4619 34.8271 32.4062 34.9191 32.3505C31.461 29.0067 29.8193 25.1522 30.522 22.0035C30.5803 21.7434 30.6478 21.4895 30.7276 21.2388C30.4208 21.2759 30.2275 21.2852 30.1814 21.2852C29.8574 21.292 29.5333 21.2744 29.2118 21.2326C29.2404 21.3151 29.268 21.4018 29.2946 21.4926C30.1661 24.4246 28.9878 28.1213 26.1341 31.5795C26.4226 31.3384 26.7305 31.122 27.0547 30.9325C27.545 30.6485 28.0745 30.4398 28.6257 30.3133C29.0134 30.2331 29.4083 30.1947 29.804 30.1987ZM19.6781 20.344L19.5216 20.2109C19.2718 20.0071 19.0049 19.8258 18.7238 19.6691L18.4844 19.539L18.7207 19.3997C19.273 19.0901 19.856 18.7805 20.4452 18.4957L21.0865 18.1861L20.6262 18.7248C20.2672 19.1514 19.9744 19.6306 19.7578 20.1458L19.6781 20.344ZM19.1043 19.5328C19.2608 19.6319 19.4111 19.7341 19.5584 19.8424C19.6865 19.5662 19.8352 19.3002 20.0033 19.0468C19.7088 19.1954 19.408 19.3687 19.1135 19.5328H19.1043ZM40.0128 20.0592L39.9207 19.8765C39.7068 19.4563 39.4397 19.0661 39.126 18.7155L38.6228 18.1551L39.304 18.4647C39.7796 18.6845 40.2521 18.926 40.7063 19.1799L40.918 19.2975L40.7216 19.44C40.5247 19.5834 40.3381 19.7406 40.1631 19.9105L40.0128 20.0592ZM39.7765 19.0437C39.8901 19.2077 39.9974 19.378 40.0834 19.5545L40.338 19.3409C40.1693 19.2387 39.979 19.1396 39.7857 19.0437H39.7765ZM30.0127 19.9725C29.3845 19.9711 28.7615 19.859 28.1716 19.6412L28.1225 19.6226L28.0949 19.5793C27.5906 18.7311 26.8558 18.0466 25.9776 17.6071L25.8702 17.5576L25.8457 17.4987C25.3056 16.0869 25.5818 14.059 26.5698 12.2076C27.5303 10.4212 28.8865 9.28802 30.0372 9.28802C31.1879 9.28802 32.5227 10.4243 33.4647 12.1828C34.4558 14.0405 34.7412 16.0715 34.2103 17.4894L34.1858 17.5514L34.1213 17.5761C33.141 17.9716 32.3208 18.688 31.7924 19.6102L31.7617 19.6567L31.7095 19.6752C31.2056 19.8401 30.6827 19.9389 30.1538 19.9694L30.0127 19.9725ZM28.3342 19.3687C28.9133 19.5748 29.5246 19.6734 30.1385 19.6598C30.619 19.6322 31.0943 19.5438 31.553 19.3966C32.0113 18.6514 32.6434 18.0306 33.3941 17.5885C33.5735 17.4863 33.759 17.3953 33.9495 17.3161C34.422 15.9817 34.1367 14.0807 33.1977 12.3314C32.3048 10.6596 31.0651 9.59763 30.0372 9.59763C29.0093 9.59763 27.7481 10.6812 26.8583 12.3531C25.9377 14.1024 25.6493 16.0002 26.128 17.3284C27.0411 17.7803 27.809 18.4833 28.3434 19.3564L28.3342 19.3687Z"
          fill="black"
        />
        <path
          d="M30.0031 20.7434C28.6378 20.7232 27.2994 20.3564 26.1116 19.6767C24.9237 18.9971 23.9247 18.0266 23.2065 16.8548C21.1383 13.3284 22.4179 8.51095 24.1424 5.45825C25.8669 2.40555 28.0731 0.696533 30.2302 0.696533H30.3192C32.3659 0.742974 34.4401 2.38388 36.0081 5.20128C37.6958 8.22921 38.9293 13.059 36.8428 16.7031C36.1735 17.8516 35.237 18.8183 34.1142 19.5196C32.9915 20.2209 31.7163 20.6356 30.399 20.7279C30.2578 20.7434 30.132 20.7434 30.0031 20.7434Z"
          fill="black"
        />
        <path
          d="M30.004 21.3627C28.5336 21.3423 27.0919 20.9487 25.8119 20.2183C24.5318 19.4878 23.4547 18.444 22.6796 17.183C20.4764 13.4275 21.8051 8.3624 23.6001 5.16419C25.3952 1.96598 27.8469 0.0773926 30.2311 0.0773926H30.3262C32.603 0.130025 34.8645 1.88548 36.5429 4.89793C38.3134 8.06828 39.5838 13.1427 37.3775 17.0282C36.6541 18.267 35.6422 19.3092 34.4295 20.0645C33.2169 20.8197 31.8401 21.2653 30.4183 21.3627C30.2812 21.3627 30.1431 21.3627 30.004 21.3627ZM30.2249 1.31581C28.2979 1.31581 26.2758 2.93814 24.6772 5.76482C23.0325 8.66891 21.7867 13.2418 23.7351 16.5391C24.3888 17.6413 25.3174 18.5513 26.4284 19.1785C27.5394 19.8056 28.794 20.1279 30.0669 20.1131C31.3399 20.0984 32.5868 19.7472 33.6832 19.0946C34.7797 18.4419 35.6874 17.5106 36.3158 16.3935C38.2735 12.9879 37.086 8.39027 35.4782 5.50476C34.0176 2.88241 32.1335 1.35915 30.3109 1.31581H30.2249Z"
          fill="black"
        />
        <path
          d="M30.0044 20.8084C28.6268 20.7893 27.2761 20.4208 26.0766 19.737C24.8771 19.0531 23.8673 18.0758 23.1402 16.895C21.0567 13.3408 22.3424 8.49238 24.0608 5.4211C25.7791 2.34983 28.0436 0.619141 30.2314 0.619141H30.3204C32.3978 0.665581 34.4935 2.32196 36.0769 5.16104C37.7737 8.20754 39.0134 13.0683 36.9115 16.7402C36.2326 17.9025 35.2826 18.8798 34.144 19.5872C33.0055 20.2946 31.7129 20.7106 30.3787 20.7992C30.258 20.8053 30.1332 20.8084 30.0044 20.8084ZM30.2314 0.773943C28.1019 0.773943 25.908 2.49534 24.2111 5.49851C22.5142 8.50167 21.2224 13.3129 23.2722 16.8145C23.9853 17.9727 24.9756 18.9313 26.152 19.6022C27.3284 20.2731 28.6532 20.6346 30.0044 20.6536H30.3849C31.6913 20.5649 32.9566 20.1559 34.071 19.4621C35.1853 18.7682 36.1151 17.8106 36.7795 16.6721C38.8477 13.0559 37.6203 8.25708 35.9418 5.24773C34.3861 2.46129 32.3364 0.829672 30.3204 0.783231L30.2314 0.773943Z"
          fill="black"
        />
        <path
          d="M30.0025 21.4277C28.5188 21.4068 27.0641 21.0096 25.7724 20.2727C24.4806 19.5358 23.3933 18.4829 22.6106 17.2109C20.3921 13.4275 21.7269 8.32836 23.5312 5.11466C25.3354 1.90097 27.8178 0 30.2296 0H30.3278C32.6292 0.0526327 34.9305 1.82357 36.609 4.85769C38.3887 8.04662 39.6774 13.152 37.4405 17.0499C36.7108 18.2994 35.69 19.3504 34.4665 20.1117C33.2431 20.8729 31.854 21.3215 30.4199 21.4184C30.2818 21.4246 30.1406 21.4277 30.0025 21.4277ZM30.2265 1.39322C28.3241 1.39322 26.3235 3.00316 24.7401 5.80508C23.1077 8.69679 21.8834 13.2356 23.8012 16.4988C24.4577 17.5659 25.3699 18.4491 26.4536 19.067C27.5374 19.6849 28.7579 20.0176 30.0025 20.0345C30.1192 20.0345 30.2358 20.0345 30.3493 20.0345C31.5539 19.9533 32.7207 19.5763 33.748 18.9363C34.7753 18.2964 35.6321 17.4128 36.2438 16.3626C38.1861 12.9569 37.0048 8.42124 35.4061 5.55121C33.9578 2.94743 32.0983 1.43347 30.3033 1.39322H30.2265Z"
          fill="black"
        />
        <path
          d="M36.0175 13.3872C35.9215 14.2318 35.6597 15.0485 35.2473 15.7898C34.7266 16.7195 33.9733 17.4951 33.0626 18.0392C32.152 18.5834 31.1158 18.877 30.0575 18.8908C28.9992 18.9046 27.9558 18.638 27.0315 18.1178C26.1072 17.5976 25.3343 16.8418 24.79 15.926C24.3453 15.1427 24.08 14.2689 24.0137 13.3687C24.5138 13.8485 30.1659 19.1954 36.0175 13.3872Z"
          fill="#5F2CCD"
        />
        <path
          d="M36.0277 13.3129C36.0292 13.3367 36.0292 13.3604 36.0277 13.3842C30.167 19.1954 24.5149 13.8486 24.0147 13.3532C24.0132 13.3409 24.0132 13.3284 24.0147 13.316C23.5974 8.60386 27.3102 2.47679 30.2774 2.55419C33.1771 2.61921 36.6015 8.63792 36.0277 13.3129Z"
          fill="#894CF4"
        />
      </svg>
