<svg width="31" height="36" viewBox="0 0 31 36" fill="none" xmlns="http://www.w3.org/2000/svg">
<path d="M2.64801 18.782C2.11148 18.6718 1.62333 18.3953 1.25292 17.9918C1.18269 17.9186 1.11697 17.8412 1.05613 17.76C1.00409 17.697 0.955433 17.6313 0.910352 17.5632L0.900146 17.5486C0.900146 17.5486 0.911809 17.537 0.919098 17.5326L1.1363 17.3416L1.29666 17.2031C1.36372 17.3008 1.43223 17.3985 1.50512 17.4947C1.80808 17.9082 2.14977 18.2919 2.52556 18.6406L2.64801 18.782Z" fill="#E9E0FF"/>
<path d="M6.0371 19.0083C5.9336 19.1264 5.83301 19.2488 5.74555 19.3786C5.07351 20.2824 4.62452 21.4283 4.35046 22.596C4.33151 22.6748 4.31402 22.7564 4.29652 22.8351L4.2353 22.857L4.15658 22.8803C4.12305 22.8905 4.07786 22.927 4.02392 23.0494C3.89418 22.9765 3.75569 22.9036 3.61575 22.8351C3.4758 22.7666 3.29212 22.6748 3.1201 22.5975C2.75833 22.436 2.38799 22.2943 2.01074 22.1733C2.17183 22.1793 2.3331 22.168 2.4918 22.1397C2.64794 22.115 2.8006 22.072 2.94663 22.0114C4.19448 21.5158 4.93648 19.9544 4.9875 18.587C4.99398 18.4163 4.98862 18.2453 4.97147 18.0753C4.96089 17.9448 4.94092 17.8152 4.91171 17.6875C5.10694 17.854 5.29192 18.0322 5.46566 18.2211C5.69207 18.4554 5.88443 18.7204 6.0371 19.0083Z" fill="#E9E0FF"/>
<path d="M3.96135 22.9295C3.69604 22.8712 3.43072 22.8012 3.16687 22.7225C2.9006 22.6428 2.63879 22.5489 2.38259 22.4411C2.2543 22.3857 2.12456 22.3245 1.99773 22.2545C1.86519 22.181 1.74019 22.0945 1.62454 21.9965C1.55972 21.9397 1.50109 21.8761 1.44961 21.807C1.42169 21.7658 1.39637 21.723 1.37381 21.6787C1.35025 21.6264 1.33265 21.5716 1.32133 21.5154C1.32133 21.5008 1.32133 21.4833 1.32133 21.4717V21.4338C1.32133 21.409 1.32133 21.3828 1.32133 21.358C1.32081 21.3064 1.32324 21.2548 1.32862 21.2034C1.33502 21.1517 1.34525 21.1006 1.35923 21.0504C1.36652 21.0256 1.37527 20.9993 1.38401 20.9746L1.40005 20.9367L1.4088 20.9177V20.906L1.41608 20.8929C1.45834 20.8193 1.51483 20.7549 1.58227 20.7034C1.64137 20.66 1.70743 20.627 1.77761 20.6057C1.84091 20.5853 1.90655 20.573 1.97295 20.5693H2.06917C2.10235 20.5703 2.13544 20.5732 2.16829 20.578L2.06479 20.9585C1.78312 20.7762 1.52039 20.5662 1.28051 20.3317C1.02414 20.0828 0.803389 19.7998 0.624516 19.4905C0.527533 19.3224 0.449783 19.1439 0.392731 18.9584C0.327589 18.7537 0.301863 18.5385 0.316924 18.3242C0.326742 18.2109 0.352257 18.0995 0.392731 17.9933C0.432629 17.894 0.486104 17.8008 0.551627 17.7163C0.66808 17.5717 0.810457 17.4501 0.971465 17.3577L0.901491 17.6492C0.804665 17.462 0.723718 17.2669 0.659501 17.0661C0.588397 16.856 0.539537 16.6391 0.513724 16.4188C0.486099 16.1816 0.499911 15.9414 0.554541 15.7088C0.570411 15.6496 0.58939 15.5912 0.611396 15.5339C0.621547 15.5051 0.633225 15.4769 0.646381 15.4494L0.665333 15.41L0.674079 15.3925L0.684285 15.375L0.691572 15.3633C0.721201 15.3125 0.754323 15.2638 0.790699 15.2176C0.824228 15.1738 0.860673 15.133 0.897118 15.0936C0.971152 15.0178 1.05328 14.9504 1.14202 14.8925C1.18456 14.8639 1.22887 14.8381 1.27468 14.8152L1.34465 14.7846C1.36971 14.7731 1.39553 14.7634 1.42192 14.7554C1.61888 14.7011 1.8276 14.7072 2.02106 14.7729C2.20144 14.8321 2.3738 14.9134 2.53419 15.0149C2.69312 15.1149 2.84553 15.225 2.99047 15.3444C3.28023 15.5858 3.55345 15.8463 3.80828 16.1243C3.93656 16.2701 4.06339 16.4042 4.1873 16.5471C4.31121 16.69 4.43075 16.8387 4.55029 16.9845C5.02998 17.586 5.47718 18.2128 5.88998 18.8622C5.90977 18.8939 5.91849 18.9312 5.9148 18.9684C5.91111 19.0056 5.8952 19.0405 5.86957 19.0677C5.85848 19.0789 5.84501 19.0875 5.83014 19.0928C5.81528 19.0981 5.7994 19.1 5.78371 19.0983C5.76803 19.0966 5.75292 19.0914 5.73951 19.0831C5.72611 19.0748 5.71476 19.0635 5.7063 19.0502C5.4818 18.747 5.25439 18.4438 5.02114 18.1507C4.7879 17.8577 4.5532 17.5676 4.30975 17.276C3.84546 16.7177 3.3317 16.2025 2.77473 15.7365C2.64154 15.6307 2.5018 15.5333 2.35635 15.445C2.21977 15.3595 2.0728 15.2919 1.91902 15.2438C1.78903 15.1988 1.64884 15.1922 1.51521 15.2248L1.47148 15.2409L1.42192 15.2628C1.38984 15.2802 1.35777 15.2977 1.3257 15.3181C1.26204 15.3599 1.20335 15.4088 1.15077 15.4639C1.12303 15.4912 1.09675 15.5199 1.07205 15.5499C1.04909 15.5789 1.02768 15.6091 1.00791 15.6403L0.999163 15.6549L0.98604 15.6812C0.977293 15.6986 0.970008 15.7161 0.962719 15.7351C0.947696 15.7712 0.935034 15.8082 0.924816 15.8459C0.883065 16.0135 0.870246 16.1871 0.886912 16.359C0.924296 16.7317 1.0228 17.0957 1.17847 17.4364V17.448C1.20006 17.4945 1.20503 17.5469 1.19256 17.5965C1.18008 17.6461 1.15091 17.69 1.10995 17.7207H1.10266C0.979918 17.7898 0.871153 17.8813 0.781953 17.9904C0.696547 18.0971 0.645694 18.2272 0.636176 18.3636C0.62614 18.516 0.645442 18.6689 0.693031 18.814C0.740704 18.9665 0.805242 19.1132 0.885453 19.2514C1.04697 19.5292 1.24615 19.7833 1.47731 20.0066C1.70035 20.2246 1.94451 20.4199 2.20619 20.5897C2.24727 20.6206 2.27649 20.6647 2.28897 20.7146C2.30144 20.7645 2.2964 20.8171 2.27471 20.8638C2.26224 20.8987 2.23792 20.9282 2.20596 20.9471C2.17401 20.9661 2.13643 20.9732 2.09978 20.9673C2.07856 20.9632 2.05715 20.9603 2.03564 20.9585C2.01282 20.9571 1.98994 20.9571 1.96712 20.9585C1.92279 20.9583 1.87865 20.9642 1.83592 20.976C1.79748 20.9858 1.76099 21.002 1.72805 21.0241C1.69748 21.0447 1.67163 21.0715 1.65224 21.1028L1.65953 21.0897L1.65078 21.1043V21.1116C1.64998 21.1169 1.64998 21.1223 1.65078 21.1276C1.64505 21.1399 1.64018 21.1526 1.63621 21.1655C1.62766 21.1932 1.62133 21.2214 1.61726 21.2501C1.61726 21.2792 1.61725 21.3099 1.60996 21.3405C1.60268 21.3711 1.60996 21.3711 1.60996 21.3871V21.4105C1.60996 21.4105 1.60996 21.4207 1.60996 21.4265C1.61326 21.4491 1.61964 21.4712 1.62892 21.4921C1.64006 21.5174 1.65323 21.5418 1.66828 21.565C1.70385 21.6178 1.7449 21.6666 1.79073 21.7108C1.88924 21.8003 1.99671 21.8794 2.11144 21.9469C2.22716 22.0171 2.34636 22.0813 2.46859 22.1394C2.71414 22.2536 2.96574 22.3543 3.22226 22.4411C3.47883 22.5296 3.73734 22.6083 3.9978 22.6773C4.02622 22.6881 4.04979 22.7088 4.06424 22.7356C4.07869 22.7623 4.08305 22.7934 4.07651 22.8231C4.07679 22.8379 4.07393 22.8526 4.06812 22.8662C4.06231 22.8799 4.05368 22.8921 4.0428 22.9021C4.03192 22.9122 4.01904 22.9198 4.005 22.9245C3.99096 22.9293 3.97609 22.931 3.96135 22.9295Z" fill="#020202"/>
<path d="M6.15343 18.7C5.73297 18.043 5.27901 17.408 4.79334 16.7975C4.66068 16.6328 4.54114 16.487 4.4216 16.3485C4.30206 16.21 4.16212 16.057 4.03676 15.9112C3.77231 15.6233 3.48887 15.3535 3.18833 15.1035C3.03281 14.9744 2.86867 14.8561 2.69706 14.7493C2.51525 14.6333 2.31927 14.5412 2.11396 14.4752C1.85894 14.3891 1.5836 14.3835 1.3253 14.4592C1.28611 14.471 1.24766 14.4851 1.21014 14.5015L1.1285 14.5394C1.08477 14.5627 1.025 14.5948 0.968148 14.6312C0.862042 14.7027 0.764251 14.7858 0.676594 14.879C0.62703 14.933 0.584755 14.9796 0.549769 15.0248C0.505484 15.0821 0.464597 15.142 0.427317 15.2041L0.395245 15.2639L0.371921 15.312C0.357343 15.3441 0.342763 15.3776 0.328185 15.4141C0.301501 15.4821 0.279106 15.5517 0.261129 15.6225C0.19783 15.8878 0.18155 16.1622 0.213024 16.4331C0.237825 16.6752 0.287654 16.9141 0.361715 17.146C0.386497 17.2262 0.412735 17.3034 0.441891 17.3778C0.3919 17.4262 0.345611 17.4784 0.303405 17.5338C0.218711 17.6398 0.150857 17.7584 0.102232 17.8851C0.0487423 18.0167 0.0162745 18.156 0.00601912 18.2977C-0.0137942 18.5487 0.0154173 18.8013 0.092027 19.0412C0.15572 19.247 0.242271 19.445 0.350055 19.6316C0.541559 19.9654 0.779072 20.2707 1.05561 20.5384C1.09789 20.5806 1.14162 20.62 1.18535 20.6608L1.10663 20.8183L1.08477 20.8707C1.07311 20.9028 1.06144 20.9378 1.0527 20.9699C1.03344 21.0336 1.02026 21.099 1.01334 21.1652C1.00587 21.2296 1.00246 21.2943 1.00313 21.3591V21.3912C1.00313 21.4174 1.00313 21.4408 1.00313 21.4626V21.4962C1.00313 21.5122 1.00314 21.5326 1.01042 21.553V21.5676C1.02705 21.6474 1.05247 21.7252 1.08623 21.7994C1.11699 21.8603 1.15155 21.9192 1.18973 21.9758C1.25408 22.0633 1.32791 22.1435 1.40985 22.2149C1.5418 22.3265 1.68493 22.4242 1.83698 22.5064C1.97138 22.5807 2.10958 22.6478 2.25099 22.7076C2.51789 22.8201 2.79093 22.9175 3.06879 22.9992C3.33848 23.0808 3.61254 23.1523 3.8866 23.2135C3.91536 23.2197 3.94466 23.2231 3.97407 23.2237C4.05241 23.2233 4.12891 23.1999 4.19419 23.1566C4.24262 23.1249 4.28404 23.0835 4.31588 23.0351C4.34772 22.9867 4.36931 22.9323 4.37933 22.8753C4.39648 22.7805 4.38053 22.6827 4.33414 22.5983C4.30834 22.5472 4.272 22.5023 4.22752 22.4663C4.18304 22.4304 4.13143 22.4043 4.07611 22.3898C3.82391 22.3213 3.57027 22.244 3.32536 22.1609C3.17959 22.1114 3.0513 22.0633 2.9303 22.0152C2.80931 21.967 2.70581 21.9218 2.60377 21.8694C2.49155 21.8166 2.38207 21.7582 2.27577 21.6944C2.17824 21.6374 2.08689 21.5705 2.00317 21.4947C1.97575 21.4689 1.95086 21.4406 1.92882 21.4101C1.92153 21.3999 1.91716 21.3897 1.91278 21.3854V21.3445C1.91058 21.33 1.91058 21.3153 1.91278 21.3008C1.91196 21.2901 1.91196 21.2794 1.91278 21.2687C1.92871 21.2661 1.94496 21.2661 1.96089 21.2687H2.13582L2.28159 21.26C2.3398 21.2387 2.39321 21.2061 2.43874 21.1641C2.48428 21.122 2.52104 21.0714 2.54691 21.0151C2.55067 21.0102 2.55362 21.0048 2.55566 20.999C2.59363 20.9143 2.60825 20.821 2.598 20.7287C2.58775 20.6364 2.553 20.5485 2.49735 20.4742L2.39821 20.3838L2.29472 20.3066C2.07864 20.1603 1.87617 19.9949 1.68974 19.8124C1.47889 19.6082 1.29693 19.3762 1.14891 19.1228C1.08004 19.0011 1.02386 18.8726 0.981267 18.7394C0.948073 18.6378 0.9323 18.5313 0.934618 18.4245L0.997301 18.2466L1.08331 18.1096C1.13151 18.0678 1.18321 18.0303 1.23784 17.9973L1.25241 17.9871L1.27428 17.9726C1.35096 17.9211 1.41204 17.8496 1.45086 17.7658C1.48967 17.6819 1.50473 17.5891 1.4944 17.4973C1.48882 17.4385 1.47406 17.381 1.45067 17.3267C1.41277 17.2364 1.37487 17.1474 1.34571 17.0585L1.26991 16.8238C1.22508 16.6661 1.19531 16.5045 1.18098 16.3412C1.16814 16.2026 1.17799 16.0627 1.21014 15.9272C1.21712 15.9009 1.22589 15.8751 1.23638 15.85C1.23638 15.8383 1.24658 15.8281 1.25679 15.8062V15.7916C1.26845 15.7741 1.28448 15.7552 1.30052 15.7333C1.31696 15.7125 1.33448 15.6926 1.353 15.6736C1.39259 15.6349 1.43552 15.5997 1.48128 15.5686C1.50169 15.5555 1.5221 15.5467 1.54396 15.5351L1.57895 15.519H1.59207C1.66475 15.5037 1.74036 15.5103 1.80928 15.538C1.93469 15.5792 2.05463 15.6355 2.16643 15.7056C2.30022 15.7892 2.42919 15.8802 2.55275 15.9782C3.09557 16.4326 3.59616 16.9352 4.04841 17.4798C4.25687 17.7218 4.47554 17.9842 4.75252 18.337L4.96244 18.6053C5.13737 18.8312 5.30063 19.0499 5.43329 19.2292C5.46739 19.2761 5.51098 19.3152 5.56121 19.3441C5.61145 19.373 5.6672 19.391 5.72485 19.3969H5.74526C5.80455 19.4024 5.86433 19.3949 5.92046 19.375C5.97659 19.3551 6.02772 19.3233 6.07034 19.2817C6.14974 19.2096 6.20149 19.112 6.21666 19.0058C6.23182 18.8996 6.20946 18.7915 6.15343 18.7Z" fill="black"/>
<path d="M4.98234 18.5919C4.92841 19.9594 4.1864 21.5207 2.94147 22.0164C2.82484 21.9698 2.71697 21.9231 2.61493 21.8706C2.50271 21.8179 2.39323 21.7595 2.28693 21.6957C2.1894 21.6387 2.09804 21.5718 2.01432 21.496C1.98691 21.4702 1.96201 21.4419 1.93997 21.4114C1.93269 21.4012 1.92831 21.391 1.92394 21.3866V21.3429C1.92174 21.3284 1.92174 21.3136 1.92394 21.2991C1.92312 21.2885 1.92312 21.2777 1.92394 21.2671C1.93987 21.2644 1.95612 21.2644 1.97205 21.2671H2.14698L2.29276 21.2583C2.35096 21.237 2.40437 21.2044 2.44991 21.1624C2.49544 21.1204 2.5322 21.0697 2.55807 21.0134C2.56183 21.0086 2.56479 21.0032 2.56682 20.9974C2.6048 20.9126 2.61941 20.8193 2.60916 20.727C2.59891 20.6347 2.56415 20.5469 2.5085 20.4726L2.40938 20.3822L2.30588 20.3049C2.08981 20.1587 1.88733 19.9932 1.7009 19.8107C1.49005 19.6066 1.30809 19.3746 1.16007 19.1211C1.0912 18.9994 1.03502 18.8709 0.992425 18.7377C0.959231 18.6361 0.943462 18.5297 0.94578 18.4228L1.00846 18.245L1.09447 18.1079C1.14267 18.0662 1.19437 18.0286 1.24899 17.9957C1.6194 18.3992 2.10755 18.6757 2.64408 18.7858L2.53329 18.6401C2.1575 18.2914 1.81581 17.9077 1.51285 17.4942C1.50726 17.4354 1.49251 17.3778 1.46912 17.3236C1.43122 17.2332 1.39331 17.1443 1.36416 17.0554L1.28835 16.8207C1.24353 16.663 1.21376 16.5014 1.19943 16.3381C1.18659 16.1994 1.19644 16.0596 1.22859 15.9241C1.23557 15.8978 1.24434 15.872 1.25483 15.8468C1.25483 15.8352 1.26503 15.825 1.27523 15.8031V15.7885C1.28689 15.771 1.30293 15.7521 1.31897 15.7302C1.33541 15.7094 1.35293 15.6894 1.37145 15.6704C1.41104 15.6317 1.45397 15.5966 1.49973 15.5655C1.52014 15.5524 1.54055 15.5436 1.56241 15.5319L1.5974 15.5159H1.61052C1.6832 15.5005 1.75881 15.5071 1.82773 15.5349C1.95314 15.576 2.07307 15.6323 2.18488 15.7025C2.31866 15.7861 2.44763 15.8771 2.57119 15.9751C3.11401 16.4295 3.6146 16.9321 4.06686 17.4767C4.27532 17.7187 4.49399 17.9811 4.77097 18.3339L4.98234 18.5919Z" fill="white"/>
<path d="M29.5178 22.3528C29.2506 21.7435 28.8339 21.2115 28.3064 20.8061C28.1708 20.7093 28.0098 20.6546 27.8433 20.6489C27.6768 20.6432 27.5124 20.6867 27.3705 20.774C26.7874 21.0904 26.2043 22.0861 26.3005 23.9157C26.3384 24.6037 26.5279 25.009 26.8836 25.1461C27.0115 25.186 27.1467 25.1972 27.2794 25.1791C27.4122 25.1609 27.5393 25.1138 27.6519 25.0411C27.7029 25.5892 27.8866 26.4669 28.5265 26.8765C28.626 26.9465 28.7438 26.9857 28.8653 26.9893C28.9868 26.993 29.1068 26.9608 29.2102 26.8969C29.2292 26.8853 29.2481 26.8736 29.2656 26.8605C29.579 26.6374 29.7583 26.184 29.8487 25.8327C30.1516 24.67 30.0344 23.4377 29.5178 22.3528ZM28.9566 26.48C28.9304 26.4977 28.8992 26.5064 28.8676 26.5048C28.8361 26.5032 28.8059 26.4915 28.7816 26.4712C28.0702 26.0106 28.114 24.6023 28.1125 24.5892C28.1147 24.544 28.104 24.4992 28.0818 24.4599C28.0595 24.4205 28.0266 24.3883 27.9867 24.367C27.9469 24.3456 27.9018 24.336 27.8568 24.3392C27.8117 24.3424 27.7684 24.3583 27.732 24.3851C27.7209 24.3897 27.711 24.3966 27.7029 24.4055C27.5411 24.5615 27.2218 24.7597 27.0556 24.6971C26.8895 24.6344 26.8078 24.3384 26.7845 23.8923C26.7014 22.3878 27.1344 21.4563 27.6023 21.2012C27.6643 21.1599 27.7371 21.1379 27.8115 21.1379C27.8859 21.1379 27.9587 21.1599 28.0207 21.2012C28.9507 21.8732 29.4449 23.2086 29.512 24.1635C29.6067 25.407 29.251 26.3007 28.9624 26.48H28.9566Z" fill="black"/>
<path d="M28.5089 20.5334C28.322 20.3998 28.1002 20.3234 27.8707 20.3136C27.6411 20.3038 27.4136 20.3609 27.2159 20.478C26.8894 20.6544 25.8369 21.4299 25.971 23.9331C26.0191 24.7669 26.2756 25.2655 26.764 25.4565C26.9595 25.5326 27.1734 25.5478 27.3777 25.5002C27.4929 26.1067 27.7582 26.7788 28.3442 27.1563C28.4953 27.2607 28.6735 27.3187 28.8571 27.3234C29.0407 27.3281 29.2216 27.2791 29.3778 27.1826C29.406 27.1673 29.4333 27.1502 29.4594 27.1315C29.7757 26.9056 30.0163 26.4988 30.1752 25.9201C30.3294 25.3273 30.3836 24.7128 30.3355 24.1022C30.2539 22.9607 29.6489 21.3585 28.5089 20.5334ZM28.1154 24.0541C28.032 24.0151 27.9404 23.9971 27.8486 24.0016C27.7386 24.0079 27.6326 24.0447 27.5424 24.108C27.5191 24.1255 27.4973 24.1444 27.4783 24.1605C27.3971 24.2369 27.3047 24.3003 27.2042 24.3485C27.1557 24.1931 27.1287 24.0317 27.1241 23.8689C27.0453 22.4242 27.4652 21.6545 27.7684 21.4912C27.7878 21.4788 27.8097 21.4709 27.8325 21.4679C28.6343 22.051 29.1183 23.2741 29.1824 24.1853C29.2539 25.1737 29.025 25.8603 28.8646 26.1023C28.506 25.7408 28.4448 24.8938 28.455 24.6007C28.4583 24.4863 28.4278 24.3735 28.3674 24.2763C28.307 24.1791 28.2194 24.1018 28.1154 24.0541Z" fill="black"/>
<path d="M29.1803 24.1862C29.2518 25.1746 29.0229 25.8612 28.8625 26.1032C28.5039 25.7417 28.4427 24.8947 28.4529 24.6016C28.4562 24.4872 28.4257 24.3744 28.3653 24.2772C28.3049 24.18 28.2172 24.1027 28.1132 24.055C28.0299 24.016 27.9383 23.998 27.8465 24.0025C27.7365 24.0088 27.6305 24.0456 27.5403 24.1089C27.517 24.1264 27.4951 24.1453 27.4762 24.1614C27.395 24.2378 27.3026 24.3012 27.2021 24.3494C27.1536 24.194 27.1266 24.0326 27.122 23.8698C27.0432 22.4251 27.4631 21.6554 27.7663 21.4921C27.7857 21.4797 27.8076 21.4718 27.8304 21.4688C28.6322 22.0504 29.1162 23.275 29.1803 24.1862Z" fill="white"/>
<path d="M10.7332 35.9946C10.5685 36.0042 10.4035 35.9794 10.2489 35.9216C10.0943 35.8639 9.95338 35.7745 9.83525 35.6593C9.69153 35.5104 9.59822 35.3202 9.56848 35.1155C8.78566 35.0907 8.16465 34.7087 7.97368 34.1271C7.87755 33.8167 7.89776 33.4819 8.03054 33.1853C7.81721 32.9885 7.6739 32.7274 7.62235 32.4418C7.41098 31.1881 9.11949 30.0889 10.4359 29.8512C10.6928 29.8051 10.9533 29.7817 11.2143 29.7812C12.2216 29.7812 13.0526 30.1384 13.6152 30.8134C13.761 30.984 14.4549 31.8937 14.2683 33.0964C13.9986 34.8385 11.9621 35.9946 10.7332 35.9946Z" fill="black"/>
<path d="M8.34213 32.3268C8.39607 32.6504 8.75614 32.856 9.03749 32.9726C8.98501 33.028 8.53894 33.5164 8.66576 33.9041C8.79259 34.2919 9.56083 34.5864 10.4763 34.2278C10.2329 34.7876 10.2518 35.0456 10.3611 35.1608C10.7854 35.5981 13.2854 34.6914 13.5493 32.9901C13.6951 32.0716 13.112 31.3573 13.0566 31.2859C12.2169 30.2785 10.8072 30.5322 10.5667 30.5759C9.434 30.7785 8.23717 31.6678 8.34213 32.3268Z" fill="#7C3AED"/>
<path d="M21.3168 35.9994C20.0879 35.9994 18.0529 34.8434 17.7818 33.1013C17.5952 31.8986 18.292 30.9889 18.4378 30.8212C19.0019 30.1462 19.8314 29.7891 20.8387 29.7891C21.0993 29.7894 21.3593 29.8128 21.6157 29.859C22.935 30.0967 24.642 31.1959 24.4306 32.4496C24.3798 32.7355 24.2364 32.9968 24.0225 33.1931C24.155 33.4892 24.1757 33.8232 24.0808 34.1334C23.8884 34.7166 23.2673 35.0985 22.4772 35.1233C22.4475 35.328 22.3542 35.5182 22.2105 35.6671C22.0926 35.7812 21.9523 35.8697 21.7985 35.927C21.6447 35.9842 21.4807 36.0088 21.3168 35.9994Z" fill="black"/>
<path d="M23.7122 32.3268C23.6582 32.6504 23.2982 32.856 23.0183 32.9726C23.0693 33.028 23.5154 33.5164 23.3885 33.9041C23.2617 34.2919 22.4935 34.5864 21.578 34.2278C21.8214 34.7876 21.8025 35.0456 21.6931 35.1608C21.2689 35.5981 18.7689 34.6914 18.505 32.9901C18.3592 32.0716 18.9423 31.3573 18.9992 31.2859C19.8374 30.2785 21.2471 30.5322 21.4876 30.5759C22.6203 30.7785 23.8229 31.6678 23.7122 32.3268Z" fill="#7C3AED"/>
<path d="M26.5912 25.1358C26.5655 25.3954 26.5251 25.6534 26.4702 25.9085C26.46 25.9653 26.4469 26.0236 26.4323 26.0805L26.4148 26.1505L26.3973 26.2219C26.3755 26.2992 26.3536 26.3677 26.3303 26.4508C26.3069 26.5339 26.2822 26.5966 26.2545 26.6753C26.2472 26.6986 26.2384 26.7219 26.2297 26.7453L26.2034 26.8138L26.1758 26.8838C25.9014 27.564 25.5097 28.1907 25.0183 28.7352L24.9614 28.7979C24.9468 28.8139 24.9323 28.83 24.9148 28.846L24.9031 28.8591C24.8492 28.916 24.7938 28.9714 24.7384 29.0268C24.2503 29.4956 23.6969 29.8914 23.0955 30.2018C23.0255 30.2382 22.9497 30.2747 22.8826 30.3082C22.7689 30.3651 22.6538 30.419 22.5386 30.4686C22.3462 30.5517 22.1508 30.6289 21.9555 30.6989C20.9964 31.0307 20.0026 31.2518 18.9933 31.3579H18.9408C18.6289 31.3943 18.33 31.4191 18.0472 31.438C17.7936 31.457 17.553 31.4687 17.3315 31.4789L17.1128 31.4876L16.8927 31.4964C16.6784 31.5036 16.4889 31.5109 16.3271 31.5197C16.1652 31.5284 15.9889 31.5357 15.7964 31.5401H15.5719H15.3489C14.9495 31.5401 14.5034 31.5241 14.0282 31.4832C13.7366 31.4585 13.4451 31.4264 13.1316 31.3797C12.8503 31.3389 12.5646 31.2893 12.273 31.2267H12.2613C11.5963 31.0873 10.9458 30.8862 10.3181 30.626L10.117 30.54C9.87594 30.4331 9.63882 30.3145 9.40557 30.1843C9.04434 29.9849 8.69882 29.7583 8.37201 29.5064C8.30641 29.4554 8.23936 29.4029 8.17521 29.349C7.90476 29.1247 7.65093 28.881 7.41571 28.62C7.2022 28.3866 7.00448 28.1392 6.82386 27.8795C6.68974 27.6885 6.56146 27.4873 6.44192 27.2759C6.39528 27.1943 6.35008 27.1097 6.30489 27.0237C6.28594 26.9873 6.26699 26.9508 6.25096 26.9158C6.19556 26.8079 6.14454 26.7001 6.09643 26.5936C5.72422 25.7689 5.53143 24.8744 5.53082 23.9695C5.53082 23.9112 5.53082 23.8529 5.53082 23.7946C5.53009 23.7834 5.53009 23.7722 5.53082 23.7611C5.54222 23.3838 5.58316 23.008 5.65327 22.6371C5.65197 22.6279 5.65197 22.6186 5.65327 22.6094C5.68679 22.9272 5.576 23.2537 5.65327 23.5876C5.95023 24.7968 6.53939 25.9146 7.36906 26.8429C7.5947 27.0963 7.83829 27.3331 8.09795 27.5514C8.3198 27.7396 8.55195 27.9153 8.79331 28.0777C9.04937 28.2495 9.3146 28.4071 9.58779 28.5501L9.66943 28.5923L9.75251 28.6346L9.80062 28.6579L9.85456 28.6856L9.94786 28.7294L10.0412 28.7717C10.416 28.9414 10.8011 29.0875 11.1942 29.209C12.5643 29.6171 13.988 29.8166 15.4174 29.8009C15.7585 29.8009 16.0647 29.7907 16.3256 29.7776C16.5865 29.7644 16.9204 29.7557 17.3081 29.7367C18.3971 29.6901 19.9103 29.5778 21.4059 29.1303C21.7266 29.0341 22.0459 28.9233 22.3593 28.795L22.4584 28.7527L22.5561 28.7119L22.6071 28.6886L22.6552 28.6667L22.7427 28.6273L22.8287 28.5865C23.0109 28.499 23.1917 28.4057 23.3681 28.3022C23.6741 28.1277 23.9664 27.9303 24.2427 27.7118C24.2719 27.6899 24.3025 27.6652 24.3317 27.6404C24.3608 27.6156 24.3929 27.5908 24.4235 27.5646C24.5387 27.4669 24.648 27.3663 24.7573 27.2599C24.974 27.0484 25.1743 26.8208 25.3565 26.5791C25.4454 26.4639 25.53 26.3444 25.6101 26.219C25.6305 26.1898 25.6495 26.1592 25.6684 26.1286C25.6874 26.098 25.7034 26.0732 25.7195 26.044C25.8955 25.7539 26.0481 25.4502 26.1758 25.1358C26.3296 24.7532 26.4425 24.3555 26.5125 23.9491C26.5475 23.7552 26.5737 23.5599 26.5927 23.366C26.6456 23.9548 26.6451 24.5471 26.5912 25.1358Z" fill="#E9E0FF"/>
<path d="M13.717 9.87891H13.7073C13.7097 9.88406 13.713 9.88875 13.717 9.8928C13.717 9.8928 13.717 9.88446 13.717 9.87891Z" fill="white"/>
<path d="M16.9516 31.2386H16.835C16.6367 31.2386 16.4589 31.2517 16.3043 31.259C16.0536 31.2721 15.7825 31.2794 15.4997 31.2809C15.0026 31.2809 14.4617 31.2707 13.8961 31.224C13.9398 31.3013 13.985 31.3887 14.0288 31.4835C14.504 31.5243 14.9501 31.5389 15.3495 31.5404H15.5711H15.7956C15.988 31.5404 16.1658 31.5272 16.3262 31.52C16.4866 31.5127 16.6775 31.5039 16.8918 31.4966L17.1119 31.4879L17.3306 31.4791C17.5522 31.4689 17.7927 31.4573 18.0464 31.4383C18.0916 31.3421 18.1397 31.2546 18.1921 31.1788C17.7227 31.2094 17.3044 31.2255 16.9516 31.2386ZM27.4781 20.6634C27.4781 20.6387 27.465 20.6153 27.4577 20.592C27.4504 20.5687 27.4446 20.5454 27.4388 20.522C27.4213 20.4666 27.4067 20.4141 27.3921 20.3646C27.3921 20.3383 27.3921 20.3121 27.3921 20.2859C27.3921 20.1998 27.3921 20.1138 27.3921 20.0278C27.3921 20.0016 27.3921 19.9753 27.3921 19.9491C27.3921 19.9229 27.3921 19.8966 27.3921 19.8704C27.3518 18.9752 27.2144 18.087 26.9825 17.2215C26.9067 16.9416 26.8217 16.666 26.7274 16.3949L26.653 16.1893C26.602 16.0436 26.5481 15.9153 26.4912 15.7797C26.4475 15.6733 26.4023 15.5668 26.3542 15.4619L26.3148 15.3729C26.3017 15.3438 26.2886 15.3161 26.274 15.2869C25.8608 14.4104 25.3345 13.5919 24.7084 12.8523C24.6763 12.8115 24.6413 12.7722 24.6063 12.7313C24.5713 12.6905 24.532 12.6453 24.4926 12.6016C24.3469 12.4369 24.2011 12.275 24.0363 12.1191C23.5924 11.6771 23.1121 11.2733 22.6004 10.912L22.4765 10.826L22.3643 10.7501C21.5867 10.2313 20.7473 9.81156 19.8657 9.50078C20.4663 7.7849 19.8977 5.75705 19.1586 4.43188C18.3554 3.0032 17.2636 2.16931 16.1746 2.14453H16.1279C14.9807 2.14453 13.8232 3.01923 12.9515 4.55288C12.2065 5.85619 11.6395 7.81698 12.1628 9.47308C11.0712 9.84656 10.0443 10.3876 9.11899 11.0767L8.94115 11.2108C8.86097 11.2735 8.78079 11.3377 8.70207 11.4033C8.43093 11.6248 8.16853 11.8625 7.91779 12.1118L7.86385 12.1672C7.78805 12.2415 7.71808 12.3129 7.64373 12.396C7.56938 12.4791 7.53731 12.5083 7.48629 12.5666C6.66249 13.4847 5.99651 14.533 5.51539 15.6689C5.50373 15.6951 5.49206 15.7228 5.48186 15.7505C5.47165 15.7782 5.45707 15.8088 5.44541 15.838C5.40459 15.9371 5.36523 16.0363 5.32733 16.1383C5.28943 16.2404 5.23987 16.3774 5.19905 16.4999L5.15095 16.6456C5.12908 16.7098 5.10867 16.7754 5.08972 16.841C4.74766 17.9727 4.56899 19.1474 4.55909 20.3296C4.55837 20.3432 4.55837 20.3568 4.55909 20.3704C4.55637 20.3818 4.55296 20.393 4.54889 20.4039C4.54889 20.4273 4.53577 20.4521 4.52848 20.4768C4.50953 20.5468 4.48912 20.6226 4.46579 20.6999L4.40019 20.9288C4.40019 20.9521 4.38707 20.9769 4.37978 21.0017C4.37249 21.0264 4.36812 21.0483 4.36083 21.0716C3.97598 22.4755 3.45702 24.916 4.71216 27.5124C4.72528 27.5401 4.73839 27.5678 4.75297 27.5955L4.79525 27.6815C4.83898 27.766 4.88418 27.8506 4.93228 27.9366L4.97164 28.0051C5.15522 28.3307 5.36076 28.6434 5.58682 28.941L5.6393 29.011L5.69323 29.0795C6.17126 29.6845 6.72993 30.2211 7.35364 30.6744C7.37259 30.689 7.39153 30.7036 7.41194 30.7167L7.47171 30.7604C7.53148 30.8027 7.59417 30.845 7.65539 30.8858C7.71662 30.9266 7.7793 30.9689 7.84198 31.0083L7.90321 31.0476L7.96444 31.0841L8.06065 31.1424C8.2764 31.2716 8.49604 31.3917 8.71956 31.5025C8.94309 31.6133 9.18605 31.7231 9.44845 31.8319L9.51696 31.8596L9.58694 31.8873L9.79394 31.9675C9.86245 31.9938 9.92952 32.0185 9.99803 32.0419L10.0709 32.0681L10.1409 32.0914C11.2545 32.4606 12.4078 32.6969 13.5769 32.7956C13.8232 32.8189 14.0667 32.8364 14.3057 32.8495C14.4996 32.8597 14.6906 32.867 14.8772 32.8714H15.0375C15.1192 32.8714 15.1979 32.8714 15.2766 32.8714H15.6702C15.9239 32.8714 16.1658 32.8582 16.3991 32.8466C16.5143 32.8466 16.644 32.8364 16.7854 32.832H16.8612H16.937L17.1717 32.8247L17.4064 32.8145H17.4837H17.5638L17.7708 32.8043C17.9997 32.7926 18.2432 32.7781 18.4997 32.7591C19.7971 32.6792 21.0815 32.4553 22.3293 32.0914L22.3993 32.0696L22.4707 32.0477L22.6675 31.985L22.876 31.9121L22.9459 31.8859L23.0144 31.8611C23.1719 31.8013 23.3293 31.7386 23.4853 31.6716C23.7113 31.5754 23.9358 31.4689 24.1544 31.3538C24.3731 31.2386 24.6297 31.0928 24.8585 30.9441L24.9212 30.9047L24.981 30.8639C25.0422 30.8231 25.1034 30.7808 25.1647 30.7356C25.2259 30.6904 25.2857 30.6496 25.3454 30.6044L25.4066 30.5578L25.465 30.5126C26.0634 30.0442 26.5831 29.4832 27.0044 28.8507C27.1486 28.6348 27.2805 28.4109 27.3994 28.18C27.4388 28.1013 27.4781 28.0226 27.5175 27.941L27.605 27.7471C27.6341 27.6786 27.6633 27.61 27.691 27.5415C27.7289 27.4438 27.7639 27.3447 27.7974 27.25C27.8076 27.2222 27.8163 27.1931 27.8251 27.1654C27.8338 27.1377 27.8426 27.11 27.8499 27.0823C28.5554 24.7264 27.8819 22.0717 27.4781 20.6634ZM16.1498 3.34871C17.5274 3.37932 19.1543 6.21336 18.8817 8.41615C18.8825 8.42682 18.8825 8.43755 18.8817 8.44822C18.8513 8.6917 18.7931 8.93089 18.7082 9.1611C18.7052 9.17209 18.7013 9.18282 18.6965 9.19318C18.679 9.24128 18.6586 9.28794 18.6382 9.33896C18.6178 9.38998 18.5974 9.42643 18.5741 9.47016C18.5551 9.50661 18.5362 9.5416 18.5158 9.57659C18.4681 9.65981 18.4155 9.74013 18.3583 9.81713C18.3398 9.84441 18.3199 9.87068 18.2986 9.89585C18.2371 9.97867 18.1693 10.0566 18.0959 10.1291C18.0639 10.1626 18.0318 10.1947 17.9968 10.2268C17.9047 10.3124 17.8073 10.3923 17.7053 10.4659C17.6586 10.5009 17.6105 10.5329 17.5595 10.565C17.5085 10.5971 17.4705 10.6204 17.4254 10.6466C17.3418 10.6945 17.2556 10.7378 17.1673 10.7764C16.8529 10.9204 16.5141 11.004 16.1688 11.0228C15.7171 11.0426 15.2673 10.9542 14.8568 10.7647C14.7722 10.7268 14.6891 10.6845 14.6089 10.6393C14.5608 10.6131 14.5156 10.5854 14.4632 10.5548C14.3932 10.5096 14.3174 10.4615 14.2591 10.409C14.2124 10.3726 14.1658 10.3361 14.1221 10.2968C14.0783 10.2574 14.0506 10.2341 14.0171 10.202C13.9168 10.1069 13.8242 10.0041 13.7401 9.8944C13.7359 9.89015 13.7325 9.88522 13.7299 9.87982C13.6696 9.80215 13.6141 9.72084 13.5637 9.63636C13.5462 9.6072 13.5287 9.57659 13.5142 9.54597C13.4894 9.50224 13.4675 9.4585 13.4471 9.41331C13.4267 9.36812 13.4048 9.31855 13.3859 9.26752C13.3669 9.2165 13.3538 9.18443 13.3407 9.14069C13.2642 8.91062 13.2153 8.67231 13.1949 8.43073C13.1942 8.42492 13.1942 8.41904 13.1949 8.41323C12.9763 6.19732 14.7431 3.31809 16.1498 3.34871ZM26.465 25.9452C26.4143 26.2599 26.3333 26.5689 26.223 26.868C26.2158 26.8914 26.207 26.9143 26.1968 26.9365C26.1895 26.9598 26.1793 26.9832 26.1705 27.0065L26.1312 27.0998C26.1122 27.1435 26.0918 27.1873 26.0714 27.231C26.0364 27.3083 25.9985 27.3768 25.9591 27.457C25.9475 27.4817 25.9344 27.5051 25.9212 27.5284L25.8819 27.5998C25.6227 28.0588 25.297 28.4768 24.9154 28.8404L24.9037 28.8536L24.7915 28.9571C24.7681 28.9804 24.7448 29.0023 24.72 29.0227C24.6953 29.0431 24.6734 29.065 24.6486 29.0839C24.583 29.1408 24.5174 29.1947 24.4489 29.2472C24.3804 29.2997 24.3221 29.3449 24.2565 29.393L24.1909 29.4396L24.1253 29.4848C23.6895 29.7806 23.2238 30.0298 22.736 30.2283C22.4619 30.3449 22.1806 30.447 21.8963 30.5359C21.8162 30.5607 21.7345 30.5855 21.6543 30.6073C20.8463 30.8375 20.0202 30.9985 19.1849 31.0884C18.8365 31.1278 18.4997 31.157 18.1849 31.1788C17.7227 31.2094 17.3102 31.2255 16.9516 31.2386H16.835C16.6367 31.2386 16.4589 31.2517 16.3043 31.259C16.0536 31.2721 15.7825 31.2794 15.4997 31.2809C15.0026 31.2809 14.4617 31.2707 13.8961 31.224C13.5696 31.1978 13.2362 31.1599 12.8961 31.1103C12.1145 31.0013 11.3452 30.8177 10.5986 30.5622L10.5374 30.5417C10.1966 30.4221 9.86314 30.2824 9.53883 30.1233C9.07043 29.8986 8.62514 29.6286 8.20934 29.3172C7.92556 29.1031 7.6585 28.8677 7.41049 28.613C7.09299 28.2899 6.8092 27.9353 6.56353 27.5546C6.48335 27.4293 6.40462 27.2995 6.33028 27.1654C5.8547 26.3158 5.58134 25.3679 5.53142 24.3955C5.52365 24.2497 5.52073 24.1039 5.52268 23.9582C5.52268 23.8998 5.52268 23.8415 5.52268 23.7832C5.52195 23.772 5.52195 23.7608 5.52268 23.7497C5.53706 23.3726 5.57798 22.997 5.64512 22.6257C5.64383 22.6165 5.64383 22.6072 5.64512 22.598C5.7372 22.1091 5.85496 21.6254 5.99791 21.1489C6.04893 20.9696 6.09412 20.8121 6.12765 20.6766L6.15098 20.5803V20.4827C6.15098 20.4608 6.15098 20.4375 6.15098 20.4156C6.15098 20.3937 6.15098 20.3485 6.15098 20.3165C6.15098 20.2086 6.15097 20.1007 6.15972 19.9943C6.16847 19.8879 6.17139 19.7669 6.18013 19.6546L6.18888 19.5336C6.18888 19.4928 6.19617 19.452 6.19908 19.4112C6.27695 18.5768 6.4536 17.7547 6.72534 16.962C6.737 16.9314 6.7472 16.9022 6.7574 16.8731C6.76761 16.8439 6.77782 16.8133 6.78948 16.7841C6.82009 16.701 6.8507 16.6179 6.88277 16.5363L6.97899 16.3016C6.99065 16.2768 7.00085 16.2535 7.01105 16.2287C7.02126 16.2039 7.03293 16.1791 7.04459 16.1558C7.18192 15.8434 7.33619 15.5388 7.5067 15.2432L7.55335 15.163C7.56938 15.1368 7.58396 15.1105 7.60146 15.0843C7.64956 15.0027 7.69913 14.9225 7.74723 14.8438C7.79534 14.765 7.85219 14.6834 7.90613 14.6047L7.96152 14.5245L8.01984 14.4414C8.07377 14.367 8.12771 14.2956 8.18457 14.2198C8.83102 13.3626 9.61998 12.6229 10.517 12.033L10.5826 11.9893C10.6045 11.9747 10.6263 11.9602 10.6496 11.947C10.7196 11.9018 10.7954 11.8596 10.861 11.8173C10.9266 11.775 11.0068 11.7327 11.0753 11.6934L11.1322 11.6613C11.242 11.6001 11.3528 11.5418 11.4645 11.4864C11.5972 11.4193 11.7313 11.3551 11.8683 11.2954L12.0374 11.2225C12.1103 11.1904 12.1847 11.1598 12.2605 11.1306C12.4937 11.0393 12.7313 10.9572 12.9733 10.8843C13.4776 11.422 14.1116 11.8211 14.8145 12.0432L14.9063 12.0709L14.9953 12.0972C15.0798 12.1191 15.1673 12.1395 15.2533 12.157C15.5014 12.2068 15.7539 12.2322 16.007 12.2328C16.0726 12.2328 16.1396 12.2328 16.2052 12.2328C16.4658 12.2194 16.7242 12.1789 16.9764 12.1118C17.0055 12.1118 17.0347 12.0972 17.0638 12.087C17.093 12.0768 17.1236 12.0709 17.1542 12.0607C17.8592 11.8412 18.4951 11.4423 18.9998 10.9032C19.1995 10.9644 19.3977 11.033 19.5902 11.1073C19.6776 11.1408 19.7636 11.1744 19.8482 11.2108C19.9109 11.2356 19.9735 11.2633 20.0348 11.291C20.4154 11.4602 20.7841 11.655 21.1383 11.8741L21.2024 11.915C21.2246 11.9267 21.2461 11.9398 21.2666 11.9543C22.2103 12.5494 23.0401 13.3082 23.7171 14.195C23.7929 14.2941 23.8629 14.3947 23.9387 14.4968C23.9576 14.5216 23.9751 14.5464 23.9926 14.5726L24.0422 14.6455C24.0932 14.7198 24.1428 14.7913 24.188 14.8715C24.2331 14.9516 24.2827 15.0172 24.3337 15.0974C24.3483 15.1222 24.3643 15.147 24.3789 15.1732L24.4226 15.2505C24.5865 15.5343 24.7359 15.8263 24.8702 16.1252C25.4017 17.3117 25.7082 18.5865 25.774 19.885C25.7842 20.0832 25.79 20.2829 25.79 20.4856V20.5993L25.8513 20.8078C26.1718 21.8324 26.3934 22.8854 26.5131 23.9523C26.5799 24.6032 26.5657 25.2599 26.4708 25.9073C26.4695 25.92 26.4675 25.9326 26.465 25.9452Z" fill="black"/>
<path d="M25.8526 20.8092L25.7914 20.6008V20.487C25.7914 20.2844 25.7914 20.0847 25.7753 19.8864C25.7131 18.5877 25.4101 17.3118 24.8817 16.1237C24.7474 15.8248 24.598 15.5329 24.4342 15.249L24.3905 15.1718C24.3759 15.1455 24.3598 15.1207 24.3453 15.096C24.3001 15.0187 24.2534 14.9502 24.1995 14.87C24.1455 14.7898 24.1018 14.7242 24.0537 14.644L24.0041 14.5711C23.9866 14.5449 23.9692 14.5201 23.9502 14.4953C23.8788 14.3933 23.8044 14.2927 23.7286 14.1936C23.0516 13.3068 22.2218 12.548 21.2781 11.9529C21.2576 11.9384 21.2362 11.9252 21.214 11.9135L21.1498 11.8727C20.7956 11.6536 20.4269 11.4587 20.0463 11.2895C19.9851 11.2618 19.9224 11.2341 19.8597 11.2094C19.7752 11.1729 19.6892 11.1394 19.6017 11.1059C19.4093 11.0315 19.211 10.9601 19.0113 10.9018C18.5067 11.4408 17.8707 11.8397 17.1657 12.0593C17.1351 12.0695 17.106 12.0782 17.0754 12.0855C17.0448 12.0928 17.0171 12.103 16.9879 12.1103C16.7358 12.1774 16.4773 12.218 16.2167 12.2313C16.1511 12.2313 16.0841 12.2313 16.0185 12.2313C15.7654 12.2308 15.513 12.2054 15.2648 12.1555C15.1788 12.138 15.0913 12.1176 15.0068 12.0957L14.9179 12.0695L14.826 12.0418C14.1232 11.8196 13.4892 11.4205 12.9849 10.8828C12.7429 10.9557 12.5053 11.0378 12.272 11.1292C12.1962 11.1583 12.1219 11.189 12.049 11.221L11.8799 11.2939C11.7428 11.3537 11.6087 11.4178 11.4761 11.4849C11.3643 11.5403 11.2535 11.5986 11.1437 11.6598L11.0868 11.6919C11.0154 11.7313 10.9411 11.7721 10.8726 11.8158C10.804 11.8596 10.7268 11.9004 10.6612 11.9456C10.6379 11.9587 10.616 11.9733 10.5941 11.9879L10.5285 12.0316C9.63151 12.6215 8.84254 13.3612 8.19609 14.2183C8.13924 14.2912 8.08531 14.3641 8.03137 14.4399L7.97306 14.523L7.91766 14.6032C7.86372 14.6819 7.81124 14.7621 7.75876 14.8423C7.70628 14.9225 7.65963 15.0012 7.61298 15.0828C7.59549 15.1091 7.58092 15.1353 7.56488 15.1616L7.51823 15.2417C7.34772 15.5373 7.19346 15.842 7.05612 16.1544C7.04446 16.1777 7.03279 16.2025 7.02259 16.2272C7.01238 16.252 7.00218 16.2754 6.99052 16.3001L6.8943 16.5348C6.86223 16.6165 6.83163 16.6996 6.80101 16.7827C6.78935 16.8118 6.77914 16.841 6.76894 16.8716C6.75873 16.9022 6.74853 16.9299 6.73687 16.9605C6.46513 17.7532 6.28847 18.5754 6.21061 19.4097C6.21061 19.4505 6.20333 19.4913 6.20041 19.5322L6.19166 19.6532C6.18291 19.7654 6.17563 19.8791 6.17126 19.9928C6.16688 20.1065 6.16397 20.2071 6.16251 20.315C6.16251 20.3471 6.16251 20.3806 6.16251 20.4142C6.16251 20.4477 6.16251 20.4593 6.16251 20.4812V20.5789L6.13918 20.6751C6.10565 20.8107 6.06046 20.9667 6.00944 21.1474C5.86648 21.6239 5.74873 22.1076 5.65666 22.5965C5.69019 22.9143 5.5794 23.2409 5.65666 23.5747C5.95362 24.7839 6.54279 25.9017 7.37246 26.8301C7.59809 27.0835 7.84168 27.3202 8.10134 27.5386C8.32319 27.7268 8.55534 27.9025 8.7967 28.0649C9.05277 28.2366 9.31798 28.3943 9.59118 28.5372L9.67281 28.5795L9.75591 28.6218L9.80401 28.6451L9.85795 28.6728L9.95125 28.7165L10.0445 28.7588C10.4194 28.9285 10.8045 29.0746 11.1976 29.1962C12.5664 29.6095 13.9896 29.8145 15.4193 29.8041C15.7605 29.8041 16.0666 29.7939 16.3275 29.7808C16.5885 29.7676 16.9223 29.7589 17.3101 29.7399C18.399 29.6933 19.9122 29.581 21.4079 29.1335C21.7286 29.0373 22.0478 28.9265 22.3612 28.7982L22.4604 28.7559L22.558 28.7151L22.6091 28.6918L22.6572 28.6699L22.7446 28.6305L22.8306 28.5897C23.0129 28.5022 23.1936 28.4089 23.37 28.3054C23.676 28.1309 23.9684 27.9335 24.2447 27.715C24.2738 27.6931 24.3044 27.6684 24.3336 27.6436C24.3628 27.6188 24.3948 27.594 24.4254 27.5678C24.5406 27.4701 24.6499 27.3695 24.7593 27.2631C24.9759 27.0516 25.1762 26.824 25.3584 26.5823C25.4473 26.4671 25.5319 26.3475 25.6121 26.2222C25.6325 26.193 25.6514 26.1624 25.6704 26.1318C25.6893 26.1012 25.7054 26.0764 25.7214 26.0472C25.8975 25.7571 26.05 25.4534 26.1777 25.139C26.3315 24.7564 26.4444 24.3587 26.5144 23.9523C26.3946 22.8859 26.173 21.8334 25.8526 20.8092ZM12.2239 19.5774C11.8842 19.5555 11.6277 19.2027 11.6554 18.7857C11.6831 18.3688 11.979 18.0568 12.3172 18.0714C12.6554 18.086 12.9149 18.4475 12.8887 18.8645C12.8624 19.2814 12.565 19.5992 12.2239 19.5774ZM19.7533 19.5774C19.4136 19.5555 19.1571 19.2027 19.1848 18.7857C19.2125 18.3688 19.5084 18.0568 19.8466 18.0714C20.1848 18.086 20.4443 18.4475 20.418 18.8645C20.3918 19.2814 20.0944 19.5992 19.7533 19.5774Z" fill="white"/>
<path d="M13.717 9.87891H13.7073C13.7097 9.88406 13.713 9.88875 13.717 9.8928C13.717 9.8928 13.717 9.88446 13.717 9.87891Z" fill="black"/>
<path d="M13.717 9.87891H13.7073C13.7097 9.88406 13.713 9.88875 13.717 9.8928C13.717 9.8928 13.717 9.88446 13.717 9.87891Z" fill="black"/>
<path d="M13.7207 9.8967C13.7167 9.89266 13.7134 9.88796 13.7109 9.88281H13.7207C13.7207 9.88281 13.7207 9.89115 13.7207 9.8967Z" fill="black"/>
<path d="M18.8772 8.4501C18.8468 8.69358 18.7886 8.93277 18.7037 9.16298C18.7007 9.17397 18.6968 9.1847 18.6921 9.19505C18.6746 9.24316 18.6542 9.28981 18.6337 9.34084C18.6133 9.39186 18.5929 9.42831 18.5696 9.47204C18.5507 9.50849 18.5317 9.54347 18.5113 9.57846C18.4636 9.66168 18.411 9.742 18.3538 9.81901C18.3353 9.84628 18.3154 9.87256 18.2941 9.89773C18.2326 9.98054 18.1649 10.0585 18.0915 10.131C18.0594 10.1645 18.0273 10.1966 17.9923 10.2287C17.9002 10.3143 17.8028 10.3942 17.7008 10.4677C17.6541 10.5027 17.606 10.5348 17.555 10.5669C17.504 10.599 17.4661 10.6223 17.4209 10.6485C17.3373 10.6964 17.2511 10.7397 17.1629 10.7783C16.8484 10.9223 16.5096 11.0059 16.1643 11.0246C15.7126 11.0445 15.2628 10.956 14.8523 10.7666C14.7677 10.7287 14.6846 10.6864 14.6045 10.6412C14.5564 10.615 14.5112 10.5873 14.4587 10.5567C14.3887 10.5115 14.3129 10.4634 14.2546 10.4109C14.208 10.3744 14.1613 10.338 14.1176 10.2986C14.0738 10.2593 14.0461 10.2359 14.0126 10.2039C13.9123 10.1088 13.8197 10.006 13.7356 9.89627C13.7356 9.89627 13.7356 9.88461 13.7356 9.87878H13.7254C13.6651 9.80111 13.6096 9.7198 13.5592 9.63532C13.5418 9.60616 13.5243 9.57555 13.5097 9.54493C13.4849 9.5012 13.463 9.45746 13.4426 9.41227C13.4222 9.36708 13.4003 9.31751 13.3814 9.26648C13.3624 9.21546 13.3493 9.18339 13.3362 9.13965C13.2598 8.90958 13.2108 8.67127 13.1904 8.42969C13.2283 8.46759 13.3362 8.56381 13.482 8.68918L13.5447 8.73729L13.6088 8.78686C13.6671 8.83059 13.7298 8.87579 13.7969 8.92098C13.8421 8.95451 13.8902 8.98512 13.9426 9.0172C13.9587 9.02886 13.9762 9.03906 13.9937 9.04927C14.0148 9.06404 14.0367 9.07767 14.0593 9.09009L14.1249 9.12945C14.2546 9.20526 14.396 9.27523 14.5462 9.34813C14.8513 9.48819 15.1725 9.59051 15.5025 9.65281C15.8908 9.72622 16.2891 9.73017 16.6789 9.66448C16.9457 9.61874 17.2065 9.54243 17.4559 9.43705C17.6331 9.36055 17.8046 9.27139 17.969 9.17027L18.0361 9.12945C18.0584 9.11682 18.0803 9.10224 18.1017 9.08571L18.1658 9.04344C18.2095 9.01428 18.2518 8.98366 18.2955 8.95013C18.3582 8.90348 18.4209 8.85537 18.4836 8.80435L18.5463 8.75187C18.5667 8.73632 18.5871 8.71882 18.6075 8.69939C18.6921 8.62649 18.7854 8.54048 18.8772 8.4501Z" fill="#5F2CCD"/>
<path d="M13.7207 9.8967C13.7167 9.89266 13.7134 9.88796 13.7109 9.88281H13.7207C13.7207 9.88281 13.7207 9.89115 13.7207 9.8967Z" fill="#5F2CCD"/>
<path d="M18.8788 8.41932C18.8796 8.43 18.8796 8.44072 18.8788 8.45139C18.787 8.54178 18.6937 8.62779 18.6018 8.70651C18.5814 8.72498 18.561 8.74247 18.5406 8.759L18.4779 8.81148C18.4153 8.8625 18.3526 8.91061 18.2899 8.95726C18.2462 8.99079 18.2039 9.02141 18.1601 9.05056L18.096 9.09284C18.0736 9.10936 18.0518 9.12394 18.0304 9.13658L17.9633 9.1774C17.7989 9.27852 17.6274 9.36768 17.4502 9.44418C17.2008 9.54955 16.9401 9.62586 16.6732 9.6716C16.2835 9.7373 15.8852 9.73335 15.4968 9.65994C15.1668 9.59763 14.8457 9.49532 14.5405 9.35525C14.3947 9.28528 14.2489 9.20947 14.1192 9.13658L14.0536 9.09721C14.031 9.0848 14.0091 9.07117 13.988 9.05639C13.9705 9.04619 13.953 9.03598 13.937 9.02432C13.8874 8.99225 13.8393 8.96164 13.7912 8.92811C13.7241 8.88291 13.6615 8.83772 13.6032 8.79398L13.539 8.74442L13.4763 8.69631C13.3218 8.57093 13.2198 8.47472 13.1848 8.43681C13.1841 8.431 13.1841 8.42513 13.1848 8.41932C12.988 6.20049 14.7548 3.31689 16.1615 3.35188C17.5289 3.38249 19.1558 6.21653 18.8788 8.41932Z" fill="#7C3AED"/>
<path fill-rule="evenodd" clip-rule="evenodd" d="M12.886 18.8639C12.8583 19.2779 12.5623 19.5928 12.2212 19.5767C11.8801 19.5607 11.625 19.2021 11.6527 18.7851C11.6804 18.3682 11.9763 18.0562 12.3145 18.0708C12.6527 18.0854 12.9122 18.4411 12.886 18.8639Z" fill="black"/>
<path fill-rule="evenodd" clip-rule="evenodd" d="M20.4167 18.8639C20.389 19.2779 20.0931 19.5928 19.752 19.5767C19.4109 19.5607 19.1558 19.2021 19.1835 18.7851C19.2112 18.3682 19.5071 18.0562 19.8453 18.0708C20.1835 18.0854 20.443 18.4411 20.4167 18.8639Z" fill="black"/>
<path d="M18.2587 8.27531C18.2284 8.51879 18.1702 8.75798 18.0853 8.98819C18.0823 8.99918 18.0784 9.00991 18.0736 9.02026C18.0561 9.06837 18.0357 9.11502 18.0153 9.16604C17.9949 9.21707 17.9745 9.25352 17.9512 9.29725C17.9322 9.3337 17.9133 9.36868 17.8928 9.40367C17.8452 9.48689 17.7926 9.56722 17.7354 9.64422C17.7169 9.67149 17.6969 9.69777 17.6756 9.72294C17.6141 9.80575 17.5464 9.88373 17.473 9.95619C17.4409 9.98972 17.4089 10.0218 17.3739 10.0539C17.2817 10.1395 17.1844 10.2194 17.0823 10.293C17.0357 10.3279 16.9876 10.36 16.9365 10.3921C16.8855 10.4242 16.8476 10.4475 16.8024 10.4737C16.7188 10.5216 16.6327 10.5649 16.5444 10.6035C16.2279 10.7494 15.8866 10.834 15.5385 10.8528C15.0869 10.8726 14.637 10.7842 14.2265 10.5947C14.142 10.5568 14.0589 10.5145 13.9787 10.4694C13.9306 10.4431 13.8854 10.4154 13.833 10.3848C13.763 10.3396 13.6872 10.2915 13.6289 10.239C13.5822 10.2026 13.5356 10.1661 13.4918 10.1268C13.4481 10.0874 13.4204 10.0641 13.3869 10.032C13.2866 9.93695 13.194 9.83409 13.1099 9.7244C13.1099 9.7244 13.1099 9.71273 13.1099 9.7069H13.0997C13.0394 9.62924 12.9839 9.54793 12.9335 9.46344C12.916 9.43429 12.8985 9.40367 12.8839 9.37306C12.8592 9.32932 12.8373 9.28559 12.8169 9.2404C12.7965 9.1952 12.7746 9.14564 12.7557 9.09461C12.7367 9.04359 12.7236 9.01152 12.7105 8.96778C12.634 8.73771 12.5851 8.49939 12.5647 8.25781C12.6026 8.29572 12.7105 8.39193 12.8563 8.51731L12.9189 8.56542L12.9831 8.61498C13.0414 8.65872 13.1041 8.70391 13.1711 8.74911C13.2163 8.78264 13.2644 8.81325 13.3169 8.84532C13.3329 8.85698 13.3504 8.86719 13.3679 8.87739C13.389 8.89217 13.4109 8.90579 13.4335 8.91821L13.4991 8.95757C13.6289 9.03338 13.7703 9.10336 13.9204 9.17625C14.2256 9.31632 14.5468 9.41863 14.8767 9.48094C15.2651 9.55435 15.6634 9.5583 16.0531 9.4926C16.32 9.44686 16.5807 9.37055 16.8301 9.26518C17.0074 9.18868 17.1788 9.09952 17.3433 8.99839L17.4103 8.95757C17.4327 8.94397 17.4545 8.92939 17.4759 8.91384L17.5401 8.87156C17.5838 8.84241 17.6261 8.81179 17.6698 8.77826C17.7325 8.73161 17.7952 8.6835 17.8579 8.63248L17.9205 8.58C17.9409 8.56347 17.9614 8.54598 17.9818 8.52751C18.0736 8.45171 18.1669 8.36569 18.2587 8.27531Z" fill="#5F2CCD"/>
<path d="M18.2636 8.23963C18.2644 8.25031 18.2644 8.26103 18.2636 8.27171C18.1718 8.36209 18.0785 8.4481 17.9866 8.52683C17.9662 8.54626 17.9458 8.56376 17.9254 8.57931L17.8627 8.63179C17.8 8.68282 17.7373 8.73092 17.6747 8.77757C17.6309 8.8111 17.5886 8.84172 17.5449 8.87088L17.4808 8.91315C17.4584 8.92968 17.4365 8.94425 17.4152 8.95689L17.3481 8.99771C17.1837 9.09883 17.0122 9.18799 16.835 9.26449C16.5856 9.36987 16.3248 9.44618 16.058 9.49192C15.6682 9.55761 15.2699 9.55366 14.8816 9.48025C14.5516 9.41795 14.2305 9.31563 13.9253 9.17557C13.7795 9.10559 13.6337 9.02978 13.504 8.95689L13.4384 8.91753C13.4158 8.90511 13.3939 8.89148 13.3728 8.87671C13.3553 8.8665 13.3378 8.8563 13.3218 8.84464C13.2722 8.81256 13.2241 8.78195 13.176 8.74842C13.1089 8.70322 13.0462 8.65803 12.9879 8.6143L12.9238 8.56473L12.8611 8.51662C12.7066 8.39125 12.6045 8.29503 12.5695 8.25713C12.5688 8.25132 12.5688 8.24544 12.5695 8.23963C12.3727 6.0208 14.1396 3.1372 15.5463 3.17219C16.9093 3.2028 18.5362 6.0383 18.2636 8.23963Z" fill="#7C3AED"/>
<path fill-rule="evenodd" clip-rule="evenodd" d="M9.61219 8.05393C9.19089 5.9663 10.1151 1.55489 12.4301 0.970294C15.4695 0.202014 14.1969 4.53033 14.1969 4.53033C14.1969 4.53033 16.1226 0.216593 18.9259 1.7998C21.0805 3.0171 18.6125 6.56547 18.6125 6.56547C18.6125 6.56547 20.4332 4.67029 22.1446 6.17332C23.4391 7.30897 21.1592 9.10211 20.7466 10.6605C20.3341 12.219 10.5991 12.9508 9.61219 8.05393Z" fill="#7C3AED"/>
<mask id="mask0_5960_74809" style="mask-type:luminance" maskUnits="userSpaceOnUse" x="9" y="0" width="14" height="12">
<path d="M9.60853 8.05393C9.18723 5.9663 10.1115 1.55489 12.4264 0.970294C15.4658 0.202014 14.1932 4.53033 14.1932 4.53033C14.1932 4.53033 16.1189 0.216593 18.9222 1.7998C21.0768 3.0171 18.6088 6.56547 18.6088 6.56547C18.6088 6.56547 20.4295 4.67029 22.141 6.17332C23.4355 7.30897 21.1555 9.10211 20.743 10.6605C20.3304 12.219 10.5954 12.9508 9.60853 8.05393Z" fill="white"/>
</mask>
<g mask="url(#mask0_5960_74809)">
<path fill-rule="evenodd" clip-rule="evenodd" d="M7.48828 5.84168C7.48828 5.84168 11.003 7.74853 15.6984 6.89278C20.3939 6.03703 18.9055 0.855878 17.6839 -0.434308C16.4623 -1.72449 26.5311 4.38384 26.5311 4.38384L24.5937 12.5244L18.6971 16.0815L7.95039 14.2388L7.48828 5.84168Z" fill="#5F2CCD"/>
</g>
<path d="M18.2706 12.6046C17.5715 12.6903 16.8668 12.7224 16.1627 12.7008C14.9659 12.6644 13.2136 12.4632 11.6582 11.7066C10.0546 10.9281 9.05607 9.7254 8.75285 8.22529C8.27616 5.86359 9.25433 0.867581 12.2165 0.11971C12.3757 0.0784724 12.5374 0.0473091 12.7005 0.0264076C13.5139 -0.0770988 14.1699 0.124083 14.6495 0.622664C14.9183 0.910373 15.1099 1.26144 15.2064 1.64315C15.6359 1.23938 16.1455 0.930433 16.7021 0.736375C16.8994 0.671287 17.1025 0.624918 17.3085 0.597881C18.0212 0.514714 18.7414 0.668403 19.3581 1.03523C19.6751 1.20475 19.9514 1.44119 20.1679 1.72817C20.3844 2.01515 20.5359 2.3458 20.6118 2.69717C20.7445 3.2803 20.6964 3.96111 20.466 4.7221C20.876 4.69193 21.2879 4.74651 21.6758 4.88245C22.0638 5.01839 22.4197 5.23278 22.7212 5.51225C23.3655 6.07789 23.5652 6.83597 23.3043 7.69901C23.1235 8.29235 22.7445 8.86528 22.3801 9.43092C22.0492 9.93824 21.7066 10.4616 21.5987 10.8742C21.4908 11.2867 21.1774 11.6468 20.6745 11.9253C20.2981 12.1225 19.8985 12.2719 19.485 12.3699C19.0854 12.4732 18.6799 12.5516 18.2706 12.6046ZM12.9177 1.76561C12.8264 1.77851 12.7359 1.79652 12.6466 1.81955C12.5375 1.84734 12.4326 1.8895 12.3346 1.94492C11.7427 2.27294 11.1932 3.10244 10.8287 4.21915C10.4249 5.46268 10.2806 6.93364 10.4716 7.87978C10.6494 8.76323 11.2267 9.4834 12.1844 10.0053C13.0693 10.4922 14.2472 10.8057 15.5913 10.9135C16.413 10.9791 17.2393 10.9625 18.0578 10.864C18.3129 10.8319 18.5578 10.7911 18.7867 10.7415C19.5316 10.5826 19.8363 10.4018 19.9325 10.3319C20.1264 9.68458 20.5243 9.07375 20.9107 8.48186C21.6978 7.27623 21.7503 6.98904 21.5696 6.83159C21.4333 6.69981 21.2691 6.60035 21.0892 6.54054C20.9093 6.48074 20.7182 6.46213 20.5302 6.48609C19.8363 6.57356 19.2517 7.16835 19.2459 7.17418C19.0957 7.34378 18.8856 7.44851 18.6598 7.46633C18.434 7.48416 18.2101 7.41369 18.0352 7.26976C17.8603 7.12583 17.7481 6.91966 17.7221 6.69465C17.6961 6.46963 17.7585 6.24331 17.896 6.06331C18.31 5.46706 19.103 3.95236 18.9048 3.08787C18.8808 2.97542 18.8318 2.86982 18.7614 2.77895C18.691 2.68808 18.601 2.61428 18.498 2.56305C18.2088 2.38244 17.8679 2.30296 17.5286 2.33708C17.4355 2.3491 17.3437 2.37009 17.2546 2.39977C16.17 2.75548 15.2589 4.31682 15.0009 4.8883C14.9103 5.09136 14.7458 5.25231 14.5408 5.33842C14.3358 5.42454 14.1057 5.42935 13.8973 5.35189C13.6892 5.276 13.5175 5.12392 13.4172 4.92638C13.3168 4.72885 13.2951 4.50057 13.3565 4.28767C13.4588 3.91037 13.529 3.5251 13.5664 3.13598C13.6335 2.38956 13.511 1.96971 13.3856 1.84433C13.3128 1.76269 13.1466 1.73791 12.9177 1.76561Z" fill="black"/>
<path d="M20.4665 11.563C20.1215 11.7434 19.7551 11.8796 19.3761 11.9683C18.3259 12.2156 17.2471 12.3195 16.169 12.2773C15.013 12.2423 13.322 12.0499 11.835 11.3254C10.3481 10.6008 9.43116 9.50452 9.15564 8.13853C8.70082 5.85847 9.6921 1.18173 12.3161 0.519873C13.201 0.296824 13.8832 0.426571 14.3453 0.907657C14.6981 1.27357 14.8891 1.82318 14.9153 2.54335C15.4109 1.96022 16.0567 1.37708 16.8293 1.12633C17.2127 1.00096 17.6187 0.960148 18.0193 1.00671C18.4199 1.05326 18.8057 1.18609 19.1501 1.39603C19.4157 1.53778 19.6472 1.73559 19.8287 1.97574C20.0102 2.21589 20.1373 2.49264 20.2012 2.78681C20.3848 3.59154 20.1385 4.5158 19.8207 5.2768C20.2657 5.11649 20.7465 5.08257 21.2097 5.17881C21.6728 5.27505 22.1003 5.49768 22.4447 5.82203C22.9622 6.27833 23.1152 6.86875 22.898 7.58018C22.7333 8.11666 22.3718 8.67064 22.0234 9.20712C21.675 9.74361 21.3149 10.2932 21.1881 10.7714C21.1079 11.0761 20.8659 11.3414 20.4665 11.563ZM12.1309 1.57389C11.44 1.95584 10.8335 2.84221 10.4297 4.08428C10.0041 5.39634 9.85538 6.94602 10.0595 7.9563C10.2636 8.96658 10.9093 9.77714 11.9808 10.3676C12.9167 10.8822 14.1529 11.2131 15.5567 11.3254C16.6661 11.4199 17.7833 11.3596 18.876 11.146C19.9635 10.9143 20.2828 10.6052 20.309 10.5352C20.4738 9.91563 20.8747 9.30043 21.2639 8.70563C22.0263 7.53936 22.3339 6.93727 21.847 6.51887C20.4883 5.32636 19.0087 6.82064 18.946 6.88479C18.8679 6.97588 18.7572 7.03267 18.6377 7.04294C18.5182 7.05322 18.3994 7.01615 18.3069 6.93972C18.2144 6.86329 18.1556 6.7536 18.1432 6.63427C18.1308 6.51494 18.1657 6.3955 18.2405 6.30165C18.6224 5.75059 19.5612 4.07991 19.3119 2.99382C19.2754 2.82459 19.202 2.6655 19.0969 2.52791C18.9918 2.39032 18.8577 2.27762 18.704 2.19784C18.4719 2.05094 18.2103 1.95679 17.9377 1.92203C17.6652 1.88727 17.3883 1.91275 17.1267 1.99666C15.634 2.48795 14.631 4.68929 14.6208 4.71115C14.572 4.81529 14.4859 4.89731 14.3795 4.941C14.2731 4.98469 14.1542 4.98687 14.0463 4.94711C13.9384 4.90736 13.8493 4.82855 13.7967 4.72628C13.7441 4.62401 13.7318 4.50572 13.7622 4.3948C13.8727 3.99093 13.9483 3.5783 13.9881 3.16147C14.0567 2.38736 13.9517 1.81297 13.6966 1.54327C13.4794 1.31731 13.0945 1.27212 12.5522 1.40915C12.4051 1.4449 12.2633 1.50031 12.1309 1.57389Z" fill="black"/>
<path fill-rule="evenodd" clip-rule="evenodd" d="M14.2374 19.223C14.1427 20.6721 13.1047 21.7931 11.9123 21.7159C10.7198 21.6386 9.8262 20.4038 9.92095 18.946C10.0157 17.4881 11.0536 16.3758 12.2403 16.4487C13.4269 16.5216 14.3263 17.7666 14.2374 19.223Z" fill="black"/>
<path fill-rule="evenodd" clip-rule="evenodd" d="M12.0945 16.8456C11.6572 16.6065 11.0187 16.9214 10.6761 17.5498C10.3335 18.1781 10.421 18.8837 10.8583 19.1228C11.2957 19.3618 11.9356 19.047 12.2767 18.4186C12.6179 17.7903 12.5377 17.0862 12.0945 16.8456Z" fill="white"/>
<path fill-rule="evenodd" clip-rule="evenodd" d="M13.5286 19.9831C13.323 19.7396 13.0737 19.9831 12.753 20.2499C12.4323 20.5166 12.1597 20.7193 12.3653 20.9627C12.5708 21.2062 12.9979 21.1843 13.3186 20.9146C13.6393 20.6449 13.7326 20.2265 13.5286 19.9831Z" fill="#7C3AED"/>
<path fill-rule="evenodd" clip-rule="evenodd" d="M22.1197 19.223C22.025 20.6721 20.9871 21.7931 19.7873 21.7159C18.5876 21.6386 17.7012 20.4038 17.796 18.946C17.8908 17.4881 18.9287 16.3758 20.1153 16.4487C21.3019 16.5216 22.2087 17.7666 22.1197 19.223Z" fill="black"/>
<path fill-rule="evenodd" clip-rule="evenodd" d="M19.9777 16.8456C19.5403 16.6065 18.9018 16.9214 18.5593 17.5498C18.2167 18.1781 18.2998 18.8837 18.7415 19.1228C19.1832 19.3618 19.8188 19.047 20.1599 18.4186C20.501 17.7903 20.4194 17.0862 19.9777 16.8456Z" fill="white"/>
<path fill-rule="evenodd" clip-rule="evenodd" d="M21.4092 19.9831C21.2051 19.7396 20.9558 19.9831 20.6351 20.2499C20.3144 20.5166 20.0418 20.7193 20.2473 20.9627C20.4529 21.2062 20.88 21.1843 21.2007 20.9146C21.5214 20.6449 21.6147 20.2265 21.4092 19.9831Z" fill="#7C3AED"/>
<path fill-rule="evenodd" clip-rule="evenodd" d="M15.7584 24.616C14.77 24.6422 13.9449 23.992 13.9187 23.1582C13.8924 22.3243 15.0295 21.7193 15.7394 21.7863C16.7599 21.884 17.5179 22.5342 17.5033 23.0634C17.4815 23.8973 16.7482 24.5897 15.7584 24.616Z" fill="#7C3AED"/>
<mask id="mask1_5960_74809" style="mask-type:luminance" maskUnits="userSpaceOnUse" x="13" y="21" width="5" height="4">
<path d="M15.762 24.6082C14.7737 24.6344 13.9486 23.9842 13.9223 23.1503C13.8961 22.3165 15.0331 21.7115 15.7431 21.7785C16.7635 21.8762 17.5216 22.5264 17.507 23.0556C17.4851 23.8895 16.7519 24.5819 15.762 24.6082Z" fill="white"/>
</mask>
<g mask="url(#mask1_5960_74809)">
<path fill-rule="evenodd" clip-rule="evenodd" d="M16.7547 21.9844C16.7547 21.9844 17.0462 22.7235 16.4296 22.9174C16.4296 22.9174 17.2882 23.0705 16.9981 23.3547C16.708 23.639 16.6424 23.8008 16.0024 23.9641C15.9935 24.1007 15.9393 24.2304 15.8485 24.3328C15.7578 24.4352 15.6355 24.5045 15.501 24.5298C15.501 24.5298 16.7634 24.7339 17.2139 23.9714C17.6643 23.209 17.3727 22.5835 17.3727 22.5835L16.7547 21.9844Z" fill="#7C3AED"/>
<path fill-rule="evenodd" clip-rule="evenodd" d="M15.5783 21.509C15.5783 21.509 14.762 21.8152 14.4311 22.9902C14.2109 23.7759 14.9617 24.0427 15.3057 24.6025C15.5667 25.0268 13.2051 23.7118 13.2051 23.7118C13.2051 23.7118 13.4806 22.391 13.571 22.2613C13.6614 22.1315 14.6803 21.3399 14.7503 21.2539C14.8203 21.1679 15.8174 21.0469 15.8174 21.0469L15.5783 21.509Z" fill="#7C3AED"/>
</g>
<path d="M16.4742 24.7188C16.2461 24.8002 16.0065 24.8449 15.7643 24.8514C14.6462 24.8806 13.7132 24.1225 13.6826 23.1705C13.6828 22.9787 13.7246 22.7891 13.8051 22.6149C13.8857 22.4408 14.003 22.2861 14.1491 22.1617C14.5864 21.7564 15.2424 21.5086 15.7527 21.5567C16.2559 21.6002 16.7375 21.7812 17.1448 22.0801C17.5253 22.3717 17.7396 22.7347 17.7279 23.0743C17.7205 23.3104 17.6649 23.5424 17.5647 23.7563C17.4644 23.9701 17.3215 24.1612 17.1448 24.3179C16.9494 24.4936 16.7216 24.6298 16.4742 24.7188ZM15.1156 22.1209C14.8782 22.2052 14.6597 22.3355 14.4727 22.5043C14.377 22.5846 14.2991 22.6841 14.2441 22.7963C14.1891 22.9086 14.1582 23.0311 14.1535 23.156C14.1753 23.8528 14.8926 24.4024 15.757 24.3791C16.6011 24.3572 17.2527 23.796 17.2716 23.067C17.2716 22.8848 17.1259 22.653 16.8708 22.4591C16.5346 22.2132 16.1371 22.0649 15.722 22.0305C15.5158 22.0176 15.3091 22.0484 15.1156 22.1209Z" fill="black"/>
<path fill-rule="evenodd" clip-rule="evenodd" d="M15.6198 22.8303C16.1298 22.8652 16.6318 22.9752 17.1096 23.1569C17.1096 23.1569 16.3181 24.1263 15.5688 24.0957C14.8195 24.0651 14.2947 23.0752 14.2947 23.0752C14.7129 22.8968 15.1654 22.8132 15.6198 22.8303Z" fill="#DC3B34"/>
<mask id="mask2_5960_74809" style="mask-type:luminance" maskUnits="userSpaceOnUse" x="14" y="22" width="4" height="3">
<path d="M15.621 22.8303C16.131 22.8652 16.633 22.9752 17.1109 23.1569C17.1109 23.1569 16.3193 24.1263 15.57 24.0957C14.8207 24.0651 14.2959 23.0752 14.2959 23.0752C14.7141 22.8968 15.1666 22.8132 15.621 22.8303Z" fill="white"/>
</mask>
<g mask="url(#mask2_5960_74809)">
<path fill-rule="evenodd" clip-rule="evenodd" d="M16.026 23.1849C16.9007 23.1251 17.6558 23.5873 17.6995 24.2156C17.7433 24.8439 17.061 25.4037 16.1805 25.4635C15.3 25.5233 14.5507 25.0611 14.5085 24.4328C14.4662 23.8045 15.1455 23.2447 16.026 23.1849Z" fill="#FF7A74"/>
<path d="M16.809 25.4628C16.6091 25.533 16.4007 25.5761 16.1894 25.5911C15.7632 25.626 15.3364 25.5298 14.9663 25.3155C14.802 25.2336 14.662 25.1101 14.5602 24.9573C14.4584 24.8045 14.3983 24.6278 14.3859 24.4446C14.3736 24.2614 14.4093 24.0781 14.4896 23.913C14.57 23.748 14.6921 23.6067 14.8439 23.5034C15.1813 23.2405 15.5916 23.0878 16.0188 23.0661C16.4452 23.0298 16.8723 23.126 17.2419 23.3416C17.4062 23.4234 17.5463 23.5467 17.6482 23.6994C17.75 23.852 17.8101 24.0287 17.8225 24.2118C17.8349 24.3949 17.7991 24.5781 17.7187 24.7431C17.6384 24.9081 17.5162 25.0491 17.3644 25.1523C17.1987 25.2872 17.0107 25.3923 16.809 25.4628ZM15.4809 23.4218C14.9561 23.6113 14.6063 24.0049 14.6325 24.4233C14.648 24.5658 14.6979 24.7023 14.7779 24.8212C14.8579 24.94 14.9656 25.0376 15.0917 25.1056C15.4205 25.2871 15.7947 25.3699 16.1694 25.344C16.544 25.3182 16.9033 25.1848 17.204 24.9598C17.3199 24.8773 17.4139 24.7679 17.4779 24.6408C17.5419 24.5138 17.574 24.3731 17.5714 24.2309C17.5335 23.6711 16.8425 23.26 16.0305 23.3154C15.8431 23.3266 15.6581 23.3639 15.4809 23.4262V23.4218Z" fill="black"/>
</g>
<path d="M16.0324 24.1102C15.7994 24.1969 15.5466 24.2156 15.3035 24.1641C15.0407 24.1013 14.7988 23.9711 14.6017 23.7863C14.4046 23.6014 14.2591 23.3684 14.1795 23.1101C14.1734 23.0935 14.1708 23.0758 14.1719 23.0581C14.1729 23.0404 14.1777 23.0231 14.1857 23.0073C14.1938 22.9915 14.2051 22.9776 14.2188 22.9664C14.2326 22.9552 14.2485 22.9469 14.2655 22.9422C14.2826 22.9374 14.3005 22.9363 14.318 22.9388C14.3356 22.9413 14.3524 22.9474 14.3675 22.9568C14.3826 22.9661 14.3955 22.9785 14.4056 22.9931C14.4156 23.0077 14.4226 23.0242 14.4259 23.0416C14.4933 23.2555 14.6147 23.4484 14.7783 23.6016C14.942 23.7548 15.1425 23.8632 15.3603 23.9163C15.9711 24.0519 16.5163 23.5548 16.8414 23.2588C16.9216 23.1859 16.9872 23.1218 17.0484 23.0795C17.0615 23.0659 17.0774 23.0553 17.0951 23.0485C17.1127 23.0418 17.1316 23.039 17.1505 23.0404C17.1693 23.0418 17.1876 23.0473 17.2041 23.0566C17.2205 23.0659 17.2347 23.0787 17.2456 23.0941C17.2566 23.1095 17.264 23.1272 17.2673 23.1458C17.2706 23.1644 17.2698 23.1835 17.2649 23.2017C17.26 23.2199 17.2511 23.2369 17.2389 23.2513C17.2266 23.2657 17.2114 23.2772 17.1942 23.2851C17.1476 23.3201 17.0834 23.3798 17.0076 23.4469C16.7286 23.7291 16.3974 23.9544 16.0324 24.1102Z" fill="black"/>
<path d="M17.5001 23.3831C17.4704 23.394 17.4379 23.394 17.4082 23.3831C17.398 23.3831 16.3761 22.972 15.5904 22.9341C15.0604 22.9147 14.5325 23.0112 14.0437 23.2169C14.0284 23.225 14.0115 23.23 13.9942 23.2314C13.9769 23.2329 13.9595 23.2308 13.9431 23.2253C13.9266 23.2198 13.9114 23.2111 13.8984 23.1996C13.8854 23.188 13.8749 23.174 13.8675 23.1583C13.8601 23.1426 13.8559 23.1256 13.8553 23.1082C13.8547 23.0909 13.8576 23.0736 13.8638 23.0574C13.8701 23.0412 13.8796 23.0264 13.8917 23.014C13.9038 23.0016 13.9183 22.9917 13.9344 22.9851C14.4606 22.7604 15.0303 22.6558 15.6021 22.6789C16.4315 22.7183 17.4607 23.1279 17.5044 23.1454C17.5285 23.1548 17.5492 23.1712 17.5638 23.1926C17.5784 23.2139 17.5862 23.2391 17.5862 23.265C17.5862 23.2908 17.5784 23.3161 17.5638 23.3374C17.5492 23.3587 17.5285 23.3752 17.5044 23.3845L17.5001 23.3831Z" fill="black"/>
</svg>
