<svg xmlns="http://www.w3.org/2000/svg" width="134" height="36" viewBox="0 0 134 36" fill="none">
  <path d="M23.3084 7.44155C21.4864 5.58785 18.5415 4.42266 14.5267 4.05722C13.1271 3.91972 11.7141 4.05095 10.3637 4.44385C8.97529 4.85801 7.72155 5.63287 6.73026 6.68947C5.59571 7.92833 4.72369 9.38402 4.16675 10.9689C3.47159 12.9537 3.13793 15.047 3.18159 17.1496C3.13685 19.2271 3.40285 21.2997 3.97077 23.2986C4.2804 24.3278 4.73328 25.3084 5.31609 26.2115C10.6126 29.0821 14.9716 27.4244 20.1728 25.3059C22.4186 23.5528 24.5266 21.7521 25.999 18.1877C25.999 17.8487 25.999 17.5045 25.999 17.1284C26.0043 12.7325 25.1092 9.28995 23.3084 7.44155Z" fill="black"/>
  <path d="M32.2385 28.1919C32.163 27.5156 31.9955 26.8527 31.7406 26.2217C31.5023 25.6588 31.1691 25.1411 30.7555 24.6911C30.4021 24.3089 30.0196 23.9548 29.6114 23.6318L28.6051 22.8321C28.5774 22.8094 28.5556 22.7803 28.5415 22.7473C28.5107 22.6598 28.4894 22.5693 28.478 22.4772C28.9929 20.7496 29.2307 18.9512 29.1824 17.1492C29.1824 12.0541 28.049 8.23025 25.782 6.11703C22.6381 3.30149 18.6909 1.54189 14.4952 1.08557C12.733 0.851162 10.9418 0.968164 9.22512 1.42983C7.38402 1.94719 5.72042 2.96033 4.41588 4.35867C2.98575 5.97813 1.88315 7.85947 1.16911 9.89857C0.350716 12.2264 -0.0439315 14.6821 0.00387739 17.1492C-0.0377644 19.5367 0.272771 21.9174 0.925472 24.2144C1.52528 26.1892 2.51392 28.0241 3.83326 29.6113C5.08649 31.2077 6.77524 32.4071 8.69547 33.0645C10.586 33.6173 12.5747 33.7492 14.5216 33.4511C15.8747 33.2708 17.2035 32.9404 18.4834 32.466C18.8122 32.6888 19.1287 32.9292 19.4315 33.1863C19.9474 33.6165 20.4984 34.0027 21.0787 34.3409C21.7532 34.7398 22.4833 35.0361 23.245 35.2201C23.9243 35.3847 24.6282 35.4224 25.3212 35.3313C25.8005 35.272 26.2714 35.1582 26.7248 34.9923C26.7574 34.9841 26.7892 34.9735 26.8202 34.9605C28.2899 34.4104 29.622 33.5465 30.7237 32.4289C31.2936 31.893 31.728 31.2294 31.9914 30.4928C32.2547 29.7562 32.3394 28.9676 32.2385 28.1919ZM28.3138 30.7924C27.6487 31.4732 26.8293 31.9837 25.925 32.2806C25.45 32.4494 24.9351 32.4715 24.4473 32.3442C23.947 32.2138 23.4687 32.0104 23.0279 31.7404C22.557 31.4561 22.1089 31.1356 21.6878 30.7818C21.2535 30.4287 20.8404 30.1109 20.4484 29.8284C19.943 29.4439 19.3425 29.2041 18.7112 29.1346C17.3792 29.6867 15.9693 30.028 14.5322 30.1462C14.0661 30.1833 13.6106 30.1992 13.1763 30.1992C12.5324 30.1975 11.8897 30.1462 11.2537 30.0456C10.7564 29.9642 10.266 29.8456 9.78655 29.6907C8.41837 29.2289 7.18999 28.427 6.2167 27.3604C5.87697 27.0059 5.57026 26.6212 5.3004 26.2111C4.71758 25.308 4.26471 24.3274 3.95508 23.2981C3.39252 21.2984 3.13188 19.2259 3.18179 17.1492C3.13132 15.0479 3.4578 12.9545 4.14576 10.9684C4.7027 9.38358 5.57472 7.92788 6.70927 6.68902C7.70056 5.63243 8.9543 4.85756 10.3427 4.44341C11.6931 4.05051 13.1061 3.91927 14.5058 4.05678C18.5417 4.42222 21.4654 5.58741 23.2874 7.4411C25.1094 9.2948 26.0045 12.7374 26.0045 17.1492C26.0045 17.504 26.0045 17.8483 26.0045 18.2084C25.9834 19.5758 25.7511 20.9318 25.316 22.2283C25.2933 22.6337 25.3472 23.0398 25.4748 23.4252C25.6215 23.8839 25.8951 24.2916 26.264 24.601C26.6454 24.9347 27.0161 25.2472 27.3498 25.5332C27.6655 25.8033 27.9545 26.1031 28.2131 26.4282C28.7147 27.0419 29.0242 27.7899 29.103 28.5785C29.1545 28.9844 29.1099 29.3967 28.9728 29.7821C28.8357 30.1676 28.61 30.5155 28.3138 30.7977V30.7924Z" fill="black"/>
  <path d="M54.7909 9.31611C54.6571 8.88942 54.4796 8.47766 54.2612 8.08737C53.7424 7.21717 53.0651 6.4519 52.2644 5.83116L52.2327 5.80468C50.6951 4.6235 48.8309 3.9448 46.8938 3.86095C45.2086 3.71885 43.5143 3.98972 41.9574 4.6501C41.3579 4.91195 40.788 5.23685 40.2572 5.61932C39.3055 4.70234 38.1821 3.98234 36.9514 3.50064C35.7208 3.01893 34.4071 2.78501 33.0857 2.81229C31.3755 2.78727 29.6963 3.27019 28.2606 4.19991C27.3786 4.76731 26.6391 5.53029 26.0996 6.42965C26.0118 6.58057 25.9322 6.73615 25.8613 6.89571C25.3999 8.02633 25.128 9.22522 25.0562 10.4442C25.0562 10.6137 25.0562 10.7832 25.0191 10.9739C24.9232 12.6972 24.9604 14.4254 25.1304 16.143C25.2572 17.5829 25.4712 19.0137 25.7713 20.4277C25.8401 20.7402 25.9143 21.0527 25.9937 21.3493C26.4551 23.0084 27.1812 24.5822 28.1441 26.01C29.1504 27.6241 30.5289 28.9735 32.1642 29.9451C32.2383 29.9875 32.3072 30.0351 32.3813 30.0722C34.5313 31.1934 36.9478 31.7027 39.3674 31.5446C41.7071 31.4689 44.0141 30.9738 46.1787 30.0828C48.0701 29.3578 49.7646 28.1985 51.1257 26.6985C51.4117 26.3648 51.6553 25.9888 51.9308 25.6392C52.712 24.6171 53.4199 23.5411 54.0494 22.4191C54.1977 22.1331 54.3354 21.8365 54.4625 21.5293C54.8937 20.3124 55.1539 19.0415 55.2358 17.7531C55.3645 16.4241 55.4264 15.0896 55.4212 13.7544C55.4176 12.2529 55.2054 10.7592 54.7909 9.31611ZM30.9142 24.5853C30.6229 24.1669 30.3845 23.7485 30.1197 23.3248C29.6711 22.523 29.3275 21.6668 29.0975 20.7773C29.0551 20.6184 29.018 20.4595 28.9862 20.29C28.6572 18.8257 28.4254 17.3413 28.2924 15.8464C28.1365 14.2873 28.1029 12.7183 28.1918 11.1539C28.1918 10.8097 28.2447 10.4707 28.2818 10.1476C28.3559 9.29723 28.5595 8.46315 28.8856 7.67427C29.2096 6.9294 29.7674 6.31031 30.4746 5.91061C31.2875 5.47769 32.203 5.27445 33.1228 5.32273C34.2776 5.27802 35.4289 5.4765 36.502 5.90531C37.1684 6.17978 37.7381 6.6462 38.1386 7.24527C38.4572 7.79396 38.584 8.43316 38.4988 9.06189C38.4407 9.71791 38.2817 10.361 38.0274 10.9685C37.7832 11.5119 37.6054 12.0827 37.4977 12.6687C37.3818 13.2387 37.3621 13.824 37.4395 14.4005C37.502 14.9106 37.7288 15.3865 38.0857 15.7564C38.2991 15.9523 38.5498 16.1034 38.8227 16.2008C39.0956 16.2981 39.3853 16.3397 39.6746 16.3231C40.2714 16.3512 40.8659 16.233 41.4066 15.9788C41.8203 15.7762 42.1595 15.4481 42.3758 15.0414C42.5766 14.6082 42.6518 14.1275 42.593 13.6538C42.5115 13.0329 42.3328 12.4288 42.0634 11.8636C41.772 11.1478 41.6123 10.3853 41.592 9.6127C41.5358 8.95889 41.6938 8.30454 42.0422 7.74841C42.4585 7.19875 43.0392 6.79615 43.7 6.59912C44.7275 6.28195 45.8106 6.18628 46.8779 6.31842C48.0103 6.35072 49.1112 6.6993 50.0558 7.32472C50.348 7.54078 50.6146 7.78956 50.8503 8.06619C51.2421 8.53316 51.5373 9.07321 51.7189 9.65507C52.0709 10.901 52.2491 12.1896 52.2486 13.4843C52.2486 14.4217 52.2486 15.3062 52.1638 16.3072C52.1638 16.6726 52.1161 17.0593 52.0791 17.4724C51.9915 18.7829 51.7168 20.0742 51.2634 21.3069C51.1893 21.4764 51.1151 21.6405 51.0357 21.8047C50.8808 22.1273 50.7038 22.4387 50.506 22.7369C49.9646 23.5284 49.355 24.2709 48.684 24.956C47.5976 26.1485 46.2922 27.1213 44.8387 27.8213C43.1121 28.5594 41.2558 28.9464 39.378 28.96C37.2594 29.0236 35.5486 28.6687 34.198 27.8319C33.6316 27.4816 33.1058 27.0695 32.6302 26.6032C31.9986 25.9836 31.4243 25.3082 30.9142 24.5853Z" fill="black"/>
  <path d="M65.8448 21.9264C65.8448 21.6298 65.8077 21.312 65.7759 20.9625C65.7071 20.2104 65.6382 19.0611 65.5747 18.0283C65.5323 17.3451 65.4846 16.7731 65.4475 16.2435C65.4475 16.0793 65.4475 15.9151 65.4105 15.7562C65.3522 14.9512 65.294 14.2256 65.2516 13.3888C65.2516 13.071 65.2198 12.7374 65.2092 12.3931C65.194 11.1396 65.016 9.89335 64.6796 8.68571L64.6319 8.53212C64.3497 7.67299 63.8792 6.88768 63.2548 6.23353C62.9628 5.9197 62.6419 5.6342 62.2961 5.38083C60.9597 4.4735 59.388 3.97479 57.7729 3.94555C56.0654 3.79785 54.3583 4.23486 52.9319 5.18487C52.6673 5.36794 52.4176 5.5716 52.1851 5.79395C51.5304 6.40678 51.0668 7.19583 50.8503 8.06605C50.8503 8.06605 50.8503 8.06605 50.8503 8.09782C50.596 9.3808 50.5317 10.6942 50.6597 11.9959C50.7497 13.3464 50.8662 14.644 50.9986 16.1693V16.2064C51.0887 17.0856 51.1628 18.0601 51.1999 19.0823C51.5923 18.2034 51.9146 17.2949 52.1639 16.3653C52.1639 16.7308 52.1162 17.1174 52.0791 17.5305C51.9861 18.8213 51.7115 20.0926 51.2635 21.3067C51.2635 21.6722 51.3005 22.0164 51.3323 22.366C51.3747 22.8585 51.4435 23.3352 51.5283 23.8225C51.576 24.0873 51.6289 24.3521 51.6872 24.6381C51.7455 24.9241 51.8408 25.3107 51.9308 25.655C52.1755 26.7431 52.6746 27.7577 53.3874 28.6156C54.5526 29.8973 56.4594 30.4428 58.7633 30.321C61.4963 30.1727 63.0535 29.3041 63.901 28.5467L64.0546 28.4037C64.7259 27.7376 65.1942 26.8946 65.4052 25.9727C65.3357 25.8595 65.2755 25.7408 65.2251 25.6179C65.3087 25.6406 65.3936 25.6583 65.4793 25.6709C65.5747 25.2578 65.6488 24.8552 65.7018 24.4792C65.8317 23.6349 65.8796 22.78 65.8448 21.9264ZM62.5451 24.2144C62.4441 24.8634 62.2663 25.4981 62.0154 26.1052C61.8774 26.4365 61.6879 26.7439 61.454 27.0161C60.9243 27.6464 60.008 27.9483 58.758 28.0012C57.524 28.0542 56.6394 27.7841 56.0356 27.0638C55.8875 26.877 55.7547 26.6786 55.6384 26.4706C55.5004 26.2077 55.3818 25.9351 55.2835 25.655C55.0897 25.1374 54.9339 24.6064 54.8174 24.0661C54.6268 23.2175 54.5046 22.355 54.452 21.4868C54.452 21.2591 54.452 21.0207 54.4202 20.7559C54.4202 19.4213 54.2878 17.4775 54.1448 16.0581C54.0018 14.6387 53.9011 13.4471 53.8111 12.1071C53.7038 10.9968 53.7555 9.87678 53.9647 8.78105C54.0215 8.52977 54.1124 8.28743 54.2348 8.06075C54.4422 7.66666 54.7536 7.33694 55.1352 7.10742C55.9535 6.69733 56.8761 6.54235 57.7835 6.66254C58.2488 6.68446 58.7113 6.74647 59.1659 6.8479C59.5806 6.93534 59.9768 7.09488 60.3364 7.31927C60.7164 7.57001 61.0292 7.91007 61.2474 8.30968C61.3816 8.53068 61.4883 8.76722 61.5652 9.01408C61.854 10.0997 62.007 11.2169 62.0207 12.3401C62.0207 12.9757 62.0737 13.5742 62.1054 14.1462C62.1425 14.8347 62.1955 15.4914 62.2537 16.2647C62.312 17.0379 62.3809 18.219 62.455 19.2941C62.455 19.2941 62.455 19.3365 62.455 19.4107C62.4974 20.0621 62.5398 20.5864 62.5874 21.0525C62.5874 21.2008 62.5874 21.3438 62.6245 21.4815C62.7095 22.3923 62.6828 23.3101 62.5451 24.2144Z" fill="black"/>
  <path d="M86.3848 24.2359C86.2481 23.46 85.9602 22.7186 85.5373 22.0538C85.2666 21.6238 84.9638 21.2149 84.6316 20.8304C84.4092 20.5709 84.1708 20.3008 83.9166 20.073C83.3731 19.5045 82.7419 19.0271 82.0469 18.6589C82.3382 18.2776 82.6295 17.9121 82.9102 17.5626C83.5564 16.7681 84.1126 16.1273 84.5681 15.5341C84.9911 14.9969 85.3468 14.4099 85.6274 13.7863L85.7439 13.4844C85.9978 12.7594 86.1441 12.001 86.1782 11.2335C86.1782 11.1011 86.1782 10.974 86.1782 10.8469C86.1856 9.97267 86.0219 9.10543 85.6962 8.29409C85.4911 7.77737 85.2109 7.29373 84.8647 6.85881C84.622 6.55778 84.3506 6.28108 84.0543 6.03259C83.2901 5.40242 82.418 4.91611 81.4802 4.5973C80.5628 4.298 79.6101 4.11995 78.6465 4.06767C77.7803 4.02228 76.9122 4.02228 76.046 4.06767C74.6106 4.12063 73.8956 4.14711 72.4602 4.18419C71.4009 4.18419 70.3416 4.27952 69.2505 4.39074C68.0487 4.50909 66.8628 4.75408 65.7124 5.12163C64.847 5.40192 64.0224 5.79549 63.2602 6.2921C62.9483 6.49349 62.651 6.71648 62.3703 6.95944C61.9031 7.35444 61.5196 7.83883 61.2422 8.38414C61.3764 8.60514 61.4831 8.84168 61.56 9.08854C61.8488 10.1741 62.0018 11.2913 62.0155 12.4146C62.0155 13.0502 62.0684 13.6433 62.1002 14.2206C62.4249 14.5442 62.7963 14.8173 63.2019 15.031C63.8898 15.3931 64.6267 15.6536 65.3894 15.8042L65.5747 15.8413C66.3619 15.9918 67.162 16.0646 67.9635 16.0584H68.0747L67.7039 16.318C67.0405 16.7759 66.4104 17.2803 65.8184 17.8274L65.5536 18.0763C65.0239 18.6059 64.5896 19.1356 64.2453 19.5646L63.3184 20.6768C63.0589 20.9946 62.8311 21.2859 62.6405 21.556C62.7146 22.4518 62.6808 23.3534 62.5398 24.2412C62.4414 24.8907 62.2635 25.5258 62.0102 26.132C62.0762 26.3407 62.1577 26.5443 62.2538 26.741C62.4092 27.0601 62.6031 27.3589 62.8311 27.6308C63.0092 27.8389 63.2041 28.0319 63.4138 28.2081C63.5571 28.3289 63.7093 28.4387 63.8693 28.5365C64.4939 28.9132 65.1701 29.1969 65.8766 29.3786C66.8729 29.634 67.8877 29.8111 68.9116 29.9082C69.9973 30.03 71.3321 30.1094 73.0058 30.1677C74.6795 30.226 76.0354 30.2313 77.2695 30.1677C78.4288 30.1378 79.5854 30.0405 80.7334 29.8764C81.7256 29.7418 82.695 29.4727 83.6147 29.0767H83.6677C84.5071 28.7341 85.2286 28.1544 85.7439 27.4084C85.5552 27.2304 85.3897 27.0293 85.2513 26.8099C85.0299 26.4596 84.8688 26.0747 84.7746 25.6712C84.6984 25.3037 84.6418 24.9324 84.6051 24.559C85.1761 24.9103 85.7667 25.2286 86.3742 25.5123C86.4358 25.0893 86.4394 24.6598 86.3848 24.2359ZM82.6772 9.21036C82.904 9.78718 83.019 10.4019 83.0162 11.0217V11.0799C83.0137 11.7056 82.9081 12.3265 82.7037 12.9177C82.656 13.0555 82.603 13.1879 82.5448 13.3203C82.3386 13.7639 82.0808 14.1816 81.7768 14.5649C81.3637 15.0945 80.8605 15.6241 80.2567 16.2703C79.6529 16.9164 79.0597 17.5149 78.4559 18.1717C77.8521 18.8284 77.3171 19.4798 76.8669 19.93L76.2843 20.4967C83.3287 12.4993 81.7185 7.82803 81.7185 7.82803C82.1591 8.1953 82.4952 8.67205 82.6931 9.21036H82.6772ZM82.9261 25.8565C82.6775 26.283 82.333 26.6457 81.9198 26.9158C81.8721 26.9529 81.8192 26.9794 81.7715 27.0111C81.1625 27.3371 80.504 27.5608 79.8224 27.6732C78.8686 27.8397 77.9037 27.9353 76.9358 27.9592C75.8129 28.0015 74.51 27.9909 73.0322 27.9592C71.5545 27.9274 70.3098 27.8321 69.3776 27.7208C68.6134 27.6426 67.8581 27.4937 67.1213 27.2759C66.6541 27.1456 66.2229 26.9101 65.8607 26.5874C65.6767 26.3989 65.5183 26.187 65.3894 25.9572C65.3199 25.8439 65.2597 25.7253 65.2093 25.6023C65.2929 25.625 65.3778 25.6427 65.4635 25.6553C70.7283 26.7781 76.9993 27.5778 81.406 24.2518C81.9221 23.9055 82.337 23.4285 82.6084 22.8694C82.905 23.3249 83.1035 23.8372 83.191 24.3736C83.284 24.8818 83.1959 25.4066 82.942 25.8565H82.9261Z" fill="black"/>
  <path d="M115.282 8.14607C115.282 7.91833 115.24 7.70119 115.214 7.48934C115.155 7.04209 115.065 6.5996 114.943 6.16527C114.769 5.54583 114.459 4.97256 114.038 4.48636C113.854 4.27105 113.648 4.07576 113.423 3.90376C112.578 3.29066 111.586 2.91073 110.547 2.80214C109.372 2.66638 108.185 2.66638 107.009 2.80214C105.71 2.89458 104.428 3.15631 103.196 3.58069C102.194 3.93373 101.249 4.42964 100.389 5.05305C99.9338 5.39089 99.5228 5.78408 99.1651 6.22353C98.2456 5.46237 97.235 4.81835 96.1567 4.30628C94.6507 3.58418 92.9895 3.24577 91.321 3.32117C89.7122 3.38351 88.1598 3.9299 86.8666 4.88887C86.1055 5.4471 85.4308 6.11455 84.8645 6.86968C84.6516 7.15288 84.4553 7.4482 84.2766 7.75416C83.6793 8.7917 83.2519 9.91817 83.0107 11.0908C82.979 11.202 82.9578 11.3185 82.9313 11.4351C82.7936 12.0865 82.6665 12.7432 82.5393 13.3311C82.3857 14.0302 82.2427 14.6817 82.105 15.3543C81.8532 16.5407 81.6763 17.7418 81.5754 18.9505C81.4747 20.0521 81.4165 20.8465 81.3794 21.5245C81.3794 21.694 81.3794 21.8528 81.3794 22.0064C81.3505 22.7251 81.3629 23.4448 81.4165 24.162C81.4165 24.162 81.4165 24.2203 81.4165 24.2468C81.9228 23.8896 82.3353 23.4153 82.6188 22.8644C82.9155 23.3198 83.1139 23.8321 83.2014 24.3686C83.2935 24.8838 83.1997 25.415 82.9366 25.8674C82.688 26.2939 82.3434 26.6565 81.9302 26.9267C82.0808 27.3042 82.2802 27.6603 82.5235 27.9859C82.8391 28.4037 83.2158 28.7715 83.641 29.077C83.8211 29.2094 84.0012 29.3365 84.2025 29.4583C84.9476 29.8955 85.7448 30.2371 86.5753 30.4752C87.595 30.7788 88.648 30.9566 89.7108 31.0048C92.1313 31.1213 94.0699 30.7559 95.4787 29.9455C96.3781 29.4561 97.0662 28.6531 97.412 27.6893C98.1169 28.8939 99.2063 29.8266 100.505 30.3375C102.271 31.0446 104.145 31.4475 106.045 31.5291C107.14 31.6259 108.243 31.5598 109.319 31.3332C110.525 31.0751 111.584 30.3594 112.274 29.3365C112.379 29.1908 112.471 29.0367 112.549 28.8757C113.008 27.9362 113.329 26.9355 113.503 25.9045C113.731 24.708 113.897 23.5007 114.001 22.2871C114.032 21.934 114.064 21.5527 114.096 21.1431C114.25 19.2841 114.424 17.5258 114.578 16.3129C114.742 15.0153 114.875 14.0038 114.996 13.1352C115.118 12.2666 115.219 11.3874 115.288 10.6724C115.379 9.83269 115.378 8.9854 115.282 8.14607ZM93.339 28.1925C92.5604 28.7221 91.3739 28.9287 89.7903 28.8492C89.0931 28.8252 88.4022 28.7094 87.7352 28.505C87.2082 28.3438 86.7083 28.1045 86.2522 27.7953C86.0849 27.6773 85.9273 27.5463 85.7808 27.4033C85.5936 27.2239 85.4283 27.0231 85.2882 26.8049C85.0668 26.4546 84.9057 26.0697 84.8115 25.6662C84.7353 25.2987 84.6787 24.9274 84.6421 24.5539C85.213 24.9053 85.8037 25.2236 86.4111 25.5073C88.4344 26.4606 91.8083 27.3716 94.6472 25.2372C94.5677 26.503 94.1175 27.6258 93.339 28.1925ZM110.288 25.7933C110.245 25.9627 110.203 26.1269 110.155 26.2911C110.014 26.8765 109.793 27.4397 109.499 27.9647C109.202 28.4964 108.713 28.8944 108.132 29.077C107.482 29.2439 106.81 29.3083 106.141 29.2676C104.818 29.2801 103.508 28.9997 102.306 28.4467C101.265 27.831 100.443 26.9051 99.9543 25.7986C102.857 26.6989 105.039 26.8578 106.691 26.503L106.808 26.4765C106.964 26.4505 107.117 26.4151 107.269 26.3706C107.319 26.3579 107.369 26.3419 107.417 26.3229C108.805 25.7933 109.938 21.9323 110.759 18.3785C111.358 15.7674 111.697 13.9137 111.697 13.9137C111.612 14.5546 111.522 15.2484 111.421 16.0322C111.374 16.4136 111.321 16.832 111.268 17.2927C111.268 17.2927 111.268 17.5364 111.194 17.9654C111.098 18.8287 111.013 19.8773 110.929 20.8889C110.892 21.3497 110.855 21.7681 110.817 22.1706C110.817 22.4089 110.775 22.642 110.749 22.8591C110.701 23.3146 110.643 23.7436 110.584 24.1302C110.526 24.5169 110.468 24.9194 110.399 25.2636C110.362 25.449 110.32 25.6291 110.283 25.7933H110.288Z" fill="black"/>
  <path d="M132.316 21.4659C131.665 20.7432 130.841 20.1966 129.922 19.877C130.103 19.647 130.268 19.4045 130.415 19.1514C130.923 18.2372 131.181 17.2049 131.162 16.159C131.205 14.7958 130.795 13.4567 129.997 12.351L130.055 12.3139C130.834 11.8303 131.478 11.1558 131.925 10.3543C132.402 9.47423 132.641 8.48469 132.618 7.48372C132.618 4.69259 131.294 2.37283 128.911 1.35065C127.168 0.603871 124.843 0.43439 121.798 0.821018C119.933 1.05171 118.132 1.65123 116.501 2.58467C115.617 3.10888 114.796 3.73261 114.054 4.44367C113.545 4.92966 113.083 5.46154 112.672 6.03255C112.387 6.42244 112.132 6.83317 111.909 7.26128C111.411 8.19695 111.069 9.20775 110.897 10.2537C110.652 11.7786 110.592 13.3274 110.717 14.8667C110.775 15.7459 110.807 16.7098 110.781 17.8009C110.781 17.9545 110.781 18.1186 110.781 18.2775C111.385 15.6612 111.718 13.8128 111.718 13.8128C111.634 14.4536 111.543 15.1474 111.443 15.9313C111.395 16.3126 111.342 16.731 111.289 17.1918C111.289 17.1918 111.289 17.4354 111.215 17.8644C111.12 18.7277 111.035 19.7764 110.95 20.788C110.913 21.2487 110.876 21.6671 110.839 22.0697C110.897 22.9382 111.003 23.8028 111.157 24.6595C111.157 24.7602 111.194 24.8608 111.21 24.9561C111.402 26.1114 111.759 27.2332 112.269 28.2875C112.359 28.4623 112.454 28.6318 112.555 28.7906C113.175 29.7605 113.993 30.5888 114.954 31.2216C116.357 32.1724 117.969 32.7685 119.652 32.9588C121.408 33.188 123.182 33.2448 124.949 33.1283C126.384 33.034 127.797 32.7307 129.144 32.2279C130.391 31.7625 131.509 31.0073 132.406 30.0247C133.394 29.0053 133.961 27.6514 133.995 26.2325C134.06 24.4883 133.46 22.7845 132.316 21.4659ZM122.73 19.072C126.925 17.642 127.666 14.639 127.666 14.639C127.891 15.1265 128 15.6595 127.984 16.1961C128 16.6995 127.883 17.1982 127.645 17.642C127.425 18.0205 127.114 18.3374 126.739 18.5635C126.335 18.8026 125.886 18.9559 125.42 19.0137C125.183 19.0469 124.945 19.0664 124.705 19.072C124.418 19.0879 124.13 19.0879 123.842 19.072C123.474 19.0319 123.103 19.0319 122.735 19.072H122.73ZM129.435 7.56317C129.448 8.02407 129.347 8.481 129.139 8.89253C128.958 9.23829 128.692 9.5319 128.365 9.74523C128.04 9.9559 127.682 10.1116 127.306 10.206C127.043 10.2727 126.776 10.3222 126.506 10.3543C126.353 10.3543 126.188 10.3861 126.024 10.3914C125.679 10.4038 125.334 10.3897 124.991 10.349L124.525 10.3013L123.996 10.2378C123.727 10.1971 123.457 10.1741 123.185 10.1689C128.572 9.67638 128.953 5.63533 128.953 5.63533C129.294 6.21904 129.461 6.8878 129.435 7.56317ZM130.076 27.8426C129.47 28.4569 128.736 28.929 127.926 29.2249C126.801 29.6522 125.626 29.9318 124.43 30.0564C122.855 30.2204 121.268 30.2364 119.69 30.1041C118.665 30.072 117.668 29.7647 116.803 29.2143C116.074 28.7114 115.491 28.0243 115.113 27.2229C120.495 29.209 126.289 28.78 130.712 25.0515C130.793 25.4273 130.832 25.811 130.828 26.1955C130.8 26.8211 130.53 27.4115 130.076 27.8426Z" fill="black"/>
  <path d="M23.3084 7.44155C21.4864 5.58785 18.5415 4.42266 14.5267 4.05722C13.1271 3.91972 11.7141 4.05095 10.3637 4.44385C8.97529 4.85801 7.72155 5.63287 6.73026 6.68947C5.59571 7.92833 4.72369 9.38402 4.16675 10.9689C3.47159 12.9537 3.13793 15.047 3.18159 17.1496C3.13685 19.2271 3.40285 21.2997 3.97077 23.2986C4.2804 24.3278 4.73328 25.3084 5.31609 26.2115C10.6126 29.0821 14.9716 27.4244 20.1728 25.3059C22.4186 23.5528 24.5266 21.7521 25.999 18.1877C25.999 17.8487 25.999 17.5045 25.999 17.1284C26.0043 12.7325 25.1092 9.28995 23.3084 7.44155ZM15.9356 15.8202C15.8187 16.0435 15.6378 16.2268 15.416 16.3467C15.1943 16.4665 14.9418 16.5174 14.6909 16.4929C14.4368 16.5194 14.1803 16.4739 13.9508 16.3615C13.7213 16.2491 13.5281 16.0744 13.3933 15.8573C13.1703 15.4778 13.0481 15.0475 13.0384 14.6074C13.0447 14.1587 13.1515 13.7171 13.3509 13.3151C13.4807 13.0812 13.678 12.8919 13.917 12.7719C14.1561 12.6519 14.4258 12.6068 14.6909 12.6425C14.9552 12.6345 15.2162 12.7025 15.443 12.8384C15.6426 12.9562 15.8114 13.1196 15.9356 13.3151C16.0517 13.5074 16.1374 13.7164 16.1898 13.9348C16.2416 14.1427 16.2683 14.3561 16.2693 14.5703C16.2552 15.007 16.141 15.4346 15.9356 15.8202Z" fill="white"/>
  <path d="M28.3137 30.7979C27.6486 31.4788 26.8292 31.9893 25.9249 32.2862C25.4499 32.4549 24.935 32.4771 24.4472 32.3497C23.9469 32.2194 23.4686 32.016 23.0277 31.746C22.5569 31.4617 22.1088 31.1412 21.6877 30.7873C21.2534 30.4342 20.8403 30.1165 20.4483 29.834C19.9429 29.4495 19.3424 29.2096 18.7111 29.1402C17.3791 29.6923 15.9692 30.0336 14.5321 30.1518C14.066 30.1889 13.6105 30.2047 13.1762 30.2047C12.5323 30.2031 11.8896 30.1517 11.2536 30.0512C10.7563 29.9698 10.2659 29.8511 9.78645 29.6963C8.41827 29.2345 7.18988 28.4326 6.21659 27.3659C5.8766 27.0098 5.56989 26.6233 5.30029 26.2114C10.5968 29.0819 14.9558 27.4242 20.157 25.3057C22.4028 23.5526 24.5108 21.7519 25.9832 18.1875C25.9656 19.5552 25.7333 20.9117 25.2947 22.2074C25.2721 22.6128 25.326 23.0188 25.4536 23.4043C25.6002 23.863 25.8738 24.2706 26.2427 24.5801C26.6241 24.9138 26.9948 25.2262 27.3285 25.5122C27.6442 25.7824 27.9333 26.0821 28.1919 26.4073C28.6934 27.021 29.003 27.7689 29.0817 28.5576C29.1393 28.9651 29.0998 29.3805 28.9663 29.7698C28.8328 30.1592 28.6092 30.5115 28.3137 30.7979Z" fill="#E9E0FF"/>
  <path d="M52.2381 13.5001C52.2381 14.4375 52.2381 15.322 52.1534 16.323C51.9153 17.2561 51.5926 18.1655 51.1894 19.04C48.3876 25.3426 39.0551 28.4462 32.6516 26.5607C32.0226 25.9459 31.45 25.2759 30.9408 24.5587C30.6495 24.1403 30.4112 23.7219 30.1463 23.2982C29.6906 22.506 29.3382 21.6588 29.0976 20.7772C29.0553 20.6183 29.0182 20.4594 28.9864 20.2899C28.6574 18.8256 28.4256 17.3412 28.2926 15.8463C28.1367 14.2872 28.103 12.7182 28.1919 11.1538C28.1919 10.8096 28.2449 10.4706 28.282 10.1475C28.3561 9.29714 28.5597 8.46306 28.8858 7.67418C29.2098 6.92932 29.7676 6.31022 30.4747 5.91052C31.2877 5.4776 32.2032 5.27437 33.123 5.32264C34.2778 5.27794 35.429 5.47642 36.5022 5.90523C37.1685 6.17969 37.7382 6.64611 38.1388 7.24518C38.4574 7.79388 38.5841 8.43307 38.499 9.06181C38.4408 9.71782 38.2818 10.3609 38.0276 10.9685C37.7834 11.5118 37.6055 12.0827 37.4979 12.6686C37.382 13.2386 37.3623 13.824 37.4397 14.4005C37.5022 14.9106 37.729 15.3865 38.0858 15.7563C38.2993 15.9522 38.5499 16.1033 38.8229 16.2007C39.0958 16.298 39.3855 16.3396 39.6748 16.323C40.2715 16.3511 40.8661 16.2329 41.4067 15.9787C41.8205 15.7761 42.1597 15.448 42.376 15.0413C42.5767 14.6082 42.652 14.1274 42.5932 13.6537C42.5117 13.0329 42.333 12.4287 42.0635 11.8635C41.7722 11.1477 41.6125 10.3852 41.5921 9.61262C41.5359 8.95881 41.694 8.30446 42.0423 7.74833C42.4586 7.19866 43.0394 6.79606 43.7001 6.59904C44.7277 6.28187 45.8108 6.1862 46.8781 6.31834C48.0105 6.35063 49.1113 6.69921 50.056 7.32463C50.3482 7.5407 50.6148 7.78947 50.8504 8.06611C51.2422 8.53307 51.5375 9.07313 51.7191 9.65499C52.0689 10.9065 52.2436 12.2006 52.2381 13.5001Z" fill="white"/>
  <path d="M55.6439 26.471C55.5059 26.2081 55.3873 25.9355 55.289 25.6554C55.0951 25.1378 54.9393 24.6068 54.8229 24.0665C54.6323 23.2179 54.5101 22.3554 54.4574 21.4872C54.4574 21.2595 54.4574 21.0211 54.4257 20.7563C54.4257 19.4217 54.2932 17.4779 54.1502 16.0585C54.0072 14.6391 53.9066 13.4475 53.8166 12.1075C53.7093 10.9972 53.761 9.87718 53.9702 8.78145C54.027 8.53017 54.1178 8.28783 54.2403 8.06115C54.4476 7.66706 54.7591 7.33734 55.1407 7.10782C55.959 6.69773 56.8816 6.54275 57.7889 6.66294C58.2542 6.68486 58.7167 6.74687 59.1713 6.8483C59.5861 6.93574 59.9823 7.09528 60.3419 7.31967C60.7219 7.57041 61.0347 7.91047 61.2529 8.31008C61.3871 8.53108 61.4938 8.76762 61.5707 9.01448C61.8595 10.1001 62.0125 11.2173 62.0262 12.3405C62.0262 12.9761 62.0791 13.5746 62.1109 14.1466C62.148 14.8351 62.2009 15.4918 62.2592 16.2651C62.3175 17.0383 62.3863 18.2194 62.4605 19.2945C62.4605 19.2945 62.4605 19.3369 62.4605 19.4111C62.5028 20.6292 62.5346 28.5842 55.6439 26.471Z" fill="white"/>
  <path d="M81.5121 21.6038L81.3956 21.5138C81.032 21.2163 80.601 21.0126 80.1403 20.9206C79.6859 20.8204 79.2164 20.8096 78.7579 20.8888C78.313 20.9683 77.8999 21.0689 77.5185 21.1695C77.1372 21.2702 76.7982 21.3602 76.5122 21.4237C76.2813 21.4968 76.0334 21.4968 75.8025 21.4237C75.6383 21.3337 75.6648 21.1801 75.8766 20.9471C75.9825 20.8253 76.1256 20.677 76.2897 20.5075C83.3341 12.5101 81.724 7.83881 81.724 7.83881C81.2815 7.49484 80.7759 7.24111 80.2356 7.09203C79.6066 6.91929 78.9596 6.81977 78.3077 6.79544C77.598 6.76366 76.8512 6.76366 76.062 6.79544C74.6319 6.8537 73.9116 6.88017 72.4815 6.92255C71.5335 6.92255 70.5642 7.00729 69.5632 7.09203C68.6373 7.1696 67.7206 7.33271 66.8249 7.57929C66.0784 7.77739 65.3855 8.13924 64.7963 8.63854C64.7645 8.67032 64.7327 8.6968 64.7063 8.72858C64.4631 8.97338 64.2749 9.26726 64.1543 9.59057C64.0338 9.91388 63.9836 10.2592 64.0071 10.6035C63.9949 11.1995 64.1086 11.7915 64.3408 12.3406C64.5364 12.7723 64.8505 13.1396 65.2465 13.3999C65.6376 13.65 66.0697 13.8292 66.523 13.9295C67.0011 14.0352 67.4899 14.0849 67.9795 14.0778C68.7128 14.0831 69.4428 13.9796 70.1458 13.7706L72.4074 13.0556C72.9732 12.8582 73.5627 12.7371 74.1605 12.6955C74.5191 12.6643 74.8777 12.7558 75.1775 12.955C75.3364 13.0556 75.2834 13.3046 75.0239 13.6488C74.6852 14.079 74.2957 14.4667 73.8639 14.8034C73.3343 15.2218 72.7676 15.6561 72.1002 16.1487C71.4102 16.6446 70.7455 17.1749 70.1087 17.7375C69.4519 18.3254 68.8269 19.0669 68.239 19.6442C67.6511 20.2215 67.1797 20.6293 66.8355 20.9418C66.4912 21.2543 66.1098 21.6356 65.8397 21.9428C65.4601 22.337 65.1804 22.8165 65.024 23.341C64.84 24.096 64.9088 24.8905 65.22 25.6025C65.3036 25.6252 65.3885 25.6429 65.4742 25.6555C70.739 26.7783 77.0101 27.578 81.4168 24.252C81.9328 23.9057 82.3477 23.4287 82.6191 22.8696C82.3199 22.3914 81.9462 21.9641 81.5121 21.6038Z" fill="white"/>
  <path d="M82.942 25.8562C82.6933 26.2827 82.3488 26.6454 81.9356 26.9155C81.888 26.9526 81.835 26.9791 81.7873 27.0108C81.1783 27.3368 80.5198 27.5605 79.8382 27.6729C78.8844 27.8394 77.9195 27.935 76.9516 27.9589C75.8287 28.0012 74.5258 27.9906 73.0481 27.9589C71.5703 27.9271 70.3256 27.8318 69.3935 27.7205C68.6292 27.6423 67.8739 27.4934 67.1371 27.2756C66.6699 27.1453 66.2387 26.9098 65.8766 26.5871C65.6926 26.3986 65.5341 26.1867 65.4052 25.9569C65.3357 25.8436 65.2755 25.7249 65.2251 25.602C65.3087 25.6247 65.3936 25.6424 65.4793 25.655C70.7441 26.7778 77.0152 27.5775 81.4219 24.2515C81.9379 23.9052 82.3528 23.4282 82.6242 22.8691C82.9208 23.3246 83.1193 23.8368 83.2068 24.3733C83.295 24.8834 83.2013 25.4082 82.942 25.8562Z" fill="#E9E0FF"/>
  <path d="M112.105 8.63291C112.072 8.18286 112.001 7.73638 111.893 7.29825C111.893 7.23999 111.861 7.19232 111.851 7.13406C111.738 6.72345 111.492 6.36196 111.151 6.10659C110.708 5.80759 110.196 5.62542 109.663 5.57696C108.772 5.4848 107.874 5.4848 106.983 5.57696C106.047 5.62828 105.119 5.78643 104.218 6.04833C103.615 6.22335 103.044 6.49139 102.523 6.84277C102.187 7.06221 101.904 7.35472 101.696 7.69857C101.487 8.04242 101.359 8.42876 101.321 8.82887C101.306 9.24007 101.411 9.64678 101.623 9.99934C101.861 10.4442 102.116 10.9315 102.391 11.3764C102.666 11.8213 102.921 12.2397 103.133 12.6157C103.231 12.7569 103.3 12.9162 103.336 13.0844C103.373 13.2526 103.376 13.4263 103.344 13.5955C103.299 13.7939 103.183 13.9692 103.019 14.089C102.854 14.2087 102.652 14.2649 102.449 14.247C101.989 14.2186 101.547 14.0567 101.178 13.7809C100.602 13.3702 100.134 12.8248 99.8169 12.192C99.4885 11.5988 99.0966 10.8044 98.6252 10.0152C98.1708 9.25544 97.5967 8.57404 96.925 7.99735C96.2123 7.39195 95.4054 6.90714 94.5363 6.56207C93.5067 6.15336 92.4009 5.97267 91.2948 6.03244C90.4288 6.0458 89.5829 6.29481 88.8478 6.75273C88.1503 7.21689 87.5745 7.84171 87.1688 8.57465C86.7169 9.40529 86.3886 10.2974 86.1942 11.2228C86.1466 11.4188 86.0989 11.6306 86.0565 11.8319C85.9135 12.5098 85.7705 13.1506 85.6434 13.7756C85.5163 14.3688 85.3945 14.9514 85.2726 15.5657C85.0358 16.7566 84.859 17.9586 84.743 19.1672C84.69 19.8028 84.6477 20.3324 84.6159 20.8037C84.5841 21.3016 84.5576 21.7306 84.547 22.1278C84.5261 22.8043 84.542 23.4815 84.5947 24.1563C84.5947 24.2763 84.6053 24.3928 84.6265 24.5058C85.1974 24.8572 85.7881 25.1755 86.3955 25.4592C88.4188 26.4125 91.7927 27.3235 94.6316 25.1891C94.6734 24.5815 94.6143 23.9713 94.4568 23.383C94.3032 22.8057 94.1708 22.2867 94.0649 21.7941C93.9607 21.3754 93.9285 20.942 93.9695 20.5124C93.9969 20.3234 94.0817 20.1474 94.2124 20.0081C94.3432 19.8689 94.5135 19.7732 94.7004 19.7339C94.9511 19.6735 95.2136 19.683 95.4592 19.7615C95.7048 19.8399 95.9242 19.9843 96.0934 20.1788C96.6178 20.6604 97.0932 21.1926 97.5129 21.7677C98.006 22.4074 98.4606 23.0759 98.8741 23.7697C99.2612 24.4021 99.6148 25.0544 99.9334 25.724C102.836 26.6243 105.018 26.7832 106.671 26.4284L106.787 26.4019C106.943 26.3759 107.097 26.3405 107.248 26.296C107.298 26.2833 107.348 26.2674 107.396 26.2483C108.784 25.7187 109.917 21.8577 110.738 18.3039C111.337 15.6928 111.676 13.8391 111.676 13.8391C111.718 13.4896 111.761 13.1559 111.808 12.8381C111.93 11.9537 112.025 11.1539 112.089 10.4813C112.162 9.86763 112.168 9.24775 112.105 8.63291Z" fill="white"/>
  <path d="M94.6472 25.216C94.5678 26.503 94.1176 27.6258 93.339 28.1714C92.5604 28.7169 91.374 28.9075 89.7903 28.8281C89.0931 28.804 88.4022 28.6883 87.7353 28.4838C87.2083 28.3226 86.7084 28.0834 86.2522 27.7741C86.0849 27.6562 85.9273 27.5251 85.7808 27.3822C85.5936 27.2028 85.4283 27.0019 85.2883 26.7837C85.0668 26.4335 84.9057 26.0486 84.8116 25.645C84.7353 25.2776 84.6787 24.9063 84.6421 24.5328C85.213 24.8842 85.8037 25.2025 86.4111 25.4861C88.4556 26.4395 91.8083 27.3504 94.6472 25.216Z" fill="#E9E0FF"/>
  <path d="M129.938 23.4894C129.583 23.1475 129.157 22.8881 128.69 22.7297C128.223 22.5713 127.727 22.5179 127.237 22.5732C126.716 22.583 126.198 22.6326 125.685 22.7215C125.256 22.8009 124.864 22.8909 124.509 22.9863C124.154 23.0816 123.831 23.1505 123.529 23.2193C123.214 23.288 122.893 23.3182 122.571 23.3093C122.288 23.3078 122.01 23.2388 121.759 23.1079C121.508 22.9771 121.293 22.7883 121.13 22.5573C120.846 22.109 120.697 21.5888 120.701 21.0584C120.708 20.7718 120.78 20.4904 120.911 20.2355C121.042 19.9805 121.229 19.7585 121.458 19.5861C121.821 19.2857 122.266 19.1012 122.735 19.0564C126.93 17.6264 127.671 14.6235 127.671 14.6235C127.662 14.5939 127.65 14.5655 127.634 14.5387C127.528 14.3312 127.393 14.1403 127.231 13.972C126.987 13.7197 126.691 13.5232 126.364 13.3961C126.037 13.269 125.686 13.2143 125.335 13.2358C125.028 13.2472 124.722 13.2916 124.424 13.3682C123.953 13.5112 123.476 13.6225 123.005 13.7231C122.588 13.8128 122.165 13.8677 121.739 13.8873C121.353 13.9124 120.968 13.8298 120.627 13.6489C120.474 13.539 120.353 13.3902 120.276 13.218C120.2 13.0458 120.171 12.8563 120.192 12.6691C120.171 12.3354 120.222 12.001 120.343 11.6891C120.464 11.3772 120.651 11.0954 120.892 10.8631C121.317 10.5 121.84 10.2715 122.396 10.2064H122.422C122.559 10.1859 122.697 10.1735 122.835 10.1693H123.174C128.561 9.67674 128.942 5.63568 128.942 5.63568C128.843 5.4791 128.729 5.33196 128.603 5.19609C128.295 4.86805 127.922 4.60824 127.507 4.43342C126.225 3.86143 124.318 3.71313 121.787 3.98854C120.407 4.11157 119.065 4.50193 117.835 5.13783C116.831 5.67127 115.964 6.43099 115.304 7.35697C115.272 7.39934 115.245 7.44701 115.219 7.48938C114.606 8.43393 114.205 9.49993 114.043 10.6142C113.832 11.9681 113.777 13.3417 113.879 14.7082C113.948 15.6721 113.969 16.7049 113.948 17.886C113.927 19.067 113.948 20.2905 113.948 21.3868C113.948 21.6763 113.964 21.9623 113.995 22.2448C114.043 23.0075 114.133 23.7383 114.25 24.4533C114.404 25.4049 114.691 26.3301 115.102 27.2021C120.484 29.1882 126.278 28.7592 130.701 25.0306C130.587 24.4585 130.324 23.9267 129.938 23.4894Z" fill="white"/>
  <path d="M130.828 26.1957C130.8 26.8213 130.53 27.4117 130.076 27.8428C129.47 28.4571 128.736 28.9292 127.926 29.2251C126.801 29.6524 125.626 29.932 124.43 30.0566C122.855 30.2206 121.268 30.2366 119.689 30.1043C118.665 30.0722 117.668 29.7649 116.803 29.2145C116.074 28.7116 115.491 28.0245 115.113 27.2231C120.495 29.2092 126.289 28.7802 130.712 25.0517C130.793 25.4275 130.832 25.8112 130.828 26.1957Z" fill="#E9E0FF"/>
  <path d="M16.7779 14.5649C16.8083 15.1591 16.6027 15.7413 16.2059 16.1847C15.8091 16.628 15.2532 16.8968 14.6593 16.9323C14.0752 16.8704 13.5347 16.5946 13.1419 16.158C12.7491 15.7214 12.5317 15.1548 12.5317 14.5675C12.5317 13.9802 12.7491 13.4137 13.1419 12.9771C13.5347 12.5404 14.0752 12.2646 14.6593 12.2027C15.2523 12.2383 15.8073 12.5063 16.204 12.9485C16.6006 13.3907 16.8068 13.9715 16.7779 14.5649Z" fill="black"/>
  <path d="M107.269 26.3227C107.118 26.3673 106.964 26.4027 106.808 26.4286L107.269 26.3227Z" fill="#E9E0FF"/>
  <path d="M83.0322 11.0213V11.0795C83.0297 11.7052 82.9241 12.3261 82.7197 12.9174C82.672 13.0551 82.619 13.1875 82.5608 13.3199C82.3545 13.7635 82.0968 14.1812 81.7928 14.5645C81.3797 15.0941 80.8765 15.6238 80.2727 16.2699C79.6689 16.916 79.0757 17.5145 78.4719 18.1713C77.8681 18.828 77.3331 19.4794 76.8829 19.9296L76.3003 20.4963C83.3447 12.4989 81.7345 7.82764 81.7345 7.82764C82.1731 8.19556 82.5074 8.67225 82.7038 9.20996C82.927 9.7875 83.0384 10.4022 83.0322 11.0213Z" fill="#E9E0FF"/>
  <path d="M127.984 16.1958C128 16.6992 127.883 17.1979 127.645 17.6417C127.425 18.0202 127.114 18.3372 126.739 18.5633C126.335 18.8024 125.886 18.9556 125.42 19.0135C125.183 19.0467 124.944 19.0661 124.705 19.0717C124.418 19.0876 124.129 19.0876 123.842 19.0717C123.474 19.0317 123.103 19.0317 122.735 19.0717C126.93 17.6417 127.671 14.6387 127.671 14.6387C127.894 15.1267 128.001 15.6596 127.984 16.1958Z" fill="#E9E0FF"/>
  <path d="M107.64 26.2065L107.386 26.2913H107.418L107.64 26.2065Z" fill="#E9E0FF"/>
  <path d="M111.702 13.8554C111.618 14.4963 111.527 15.1901 111.427 15.9739C111.379 16.3552 111.326 16.7737 111.273 17.2344C111.273 17.2344 111.273 17.4781 111.199 17.9071C111.104 18.7704 111.019 19.819 110.934 20.8306C110.897 21.2914 110.86 21.7098 110.823 22.1123C110.823 22.3506 110.781 22.5837 110.754 22.8008C110.707 23.2563 110.648 23.6853 110.59 24.0719C110.532 24.4586 110.473 24.8611 110.405 25.2053C110.368 25.3907 110.325 25.5708 110.288 25.735C110.246 25.9044 110.203 26.0686 110.156 26.2328C110.015 26.8182 109.794 27.3814 109.499 27.9064C109.202 28.4381 108.713 28.836 108.132 29.0186C107.483 29.1856 106.811 29.25 106.141 29.2093C104.818 29.2218 103.508 28.9414 102.306 28.3884C101.265 27.7727 100.443 26.8468 99.9546 25.7402C102.857 26.6406 105.039 26.7995 106.692 26.4447L106.808 26.4182C106.964 26.3922 107.118 26.3568 107.269 26.3122L107.386 26.2805L107.64 26.1957L107.417 26.2646C108.805 25.735 109.939 21.874 110.759 18.3202C111.358 15.7091 111.697 13.8554 111.697 13.8554H111.702Z" fill="#E9E0FF"/>
  <path d="M62.5453 24.2146C62.4444 24.8636 62.2666 25.4984 62.0157 26.1054C61.8776 26.4367 61.6882 26.7441 61.4542 27.0163C60.9246 27.6466 60.0083 27.9485 58.7583 28.0014C57.5242 28.0544 56.6397 27.7843 56.0359 27.064C55.8878 26.8772 55.755 26.6789 55.6387 26.4708C62.5241 28.5893 62.5241 20.6449 62.4712 19.4586C62.5136 20.1153 62.5559 20.6343 62.6036 21.1004C62.6036 21.2487 62.6036 21.3917 62.6407 21.5294C62.7165 22.4251 62.6845 23.3266 62.5453 24.2146Z" fill="#E9E0FF"/>
  <path d="M52.148 16.35C52.148 16.7154 52.1004 17.102 52.0633 17.5152C51.9768 18.8106 51.7076 20.0873 51.2635 21.3073C51.1894 21.4768 51.1152 21.641 51.0358 21.8051C50.8809 22.1277 50.704 22.4391 50.5061 22.7373C49.9648 23.5288 49.3551 24.2713 48.6841 24.9564C47.5977 26.149 46.2923 27.1217 44.8389 27.8217C43.1122 28.5598 41.2559 28.9469 39.3781 28.9604C37.2595 29.024 35.5488 28.6691 34.1981 27.8323C33.6317 27.482 33.1059 27.0699 32.6304 26.6036C39.0498 28.489 48.3769 25.3854 51.1682 19.0829C51.5777 18.2038 51.9057 17.289 52.148 16.35Z" fill="#E9E0FF"/>
</svg>