<svg width="30" height="40" viewBox="0 0 30 40" fill="none" xmlns="http://www.w3.org/2000/svg">
<path d="M29.1184 24.6014C28.8336 23.9586 28.3933 23.3969 27.8371 22.9668C27.6934 22.8651 27.523 22.8077 27.347 22.8017C27.171 22.7957 26.9971 22.8414 26.8467 22.9332C26.2314 23.2673 25.6112 24.3153 25.7169 26.2551C25.7554 26.9762 25.9573 27.4089 26.3275 27.5555C26.4627 27.5981 26.6057 27.6103 26.7461 27.5912C26.8866 27.5721 27.0211 27.5221 27.14 27.445C27.1953 28.0219 27.3804 28.9521 28.0631 29.3848C28.168 29.4584 28.2923 29.4997 28.4204 29.5036C28.5486 29.5074 28.6751 29.4736 28.7842 29.4064L28.8443 29.368C29.1761 29.1276 29.3636 28.6468 29.4645 28.2815C29.787 27.0523 29.6644 25.7488 29.1184 24.6014ZM28.5246 28.9641C28.4978 28.9838 28.4654 28.9945 28.4321 28.9945C28.3988 28.9945 28.3664 28.9838 28.3395 28.9641C27.5871 28.4834 27.6328 26.9907 27.6328 26.9762C27.6364 26.9253 27.6236 26.8745 27.5964 26.8313C27.5692 26.7881 27.5289 26.7546 27.4814 26.7359C27.4422 26.7202 27.3998 26.7145 27.3579 26.7191C27.3159 26.7237 27.2758 26.7385 27.241 26.7623C27.2299 26.7673 27.22 26.7747 27.2121 26.7839C27.0415 26.9498 26.7025 27.1589 26.527 27.0892C26.3516 27.0195 26.265 26.7094 26.241 26.2383C26.152 24.647 26.6112 23.6639 27.1064 23.3947C27.172 23.3514 27.2489 23.3283 27.3275 23.3283C27.4061 23.3283 27.483 23.3514 27.5487 23.3947C28.5294 24.1158 29.0535 25.5172 29.1232 26.5195C29.2073 27.8296 28.8299 28.7814 28.5246 28.9641Z" fill="black"/>
<path d="M28.0447 22.6784C27.8474 22.5372 27.6133 22.4563 27.3709 22.4457C27.1285 22.435 26.8882 22.495 26.6793 22.6183C26.3331 22.8058 25.2202 23.6254 25.3644 26.2719C25.4125 27.1517 25.6841 27.6805 26.2009 27.8825C26.4077 27.963 26.634 27.9789 26.85 27.9281C26.9726 28.5699 27.2514 29.279 27.8716 29.6804C28.0537 29.803 28.27 29.8645 28.4894 29.8559C28.6593 29.8456 28.8242 29.7944 28.9702 29.7069L29.0543 29.654C29.3908 29.4136 29.6432 28.9834 29.8115 28.3728C29.9751 27.7458 30.0328 27.0959 29.9822 26.4498C29.8908 25.248 29.2514 23.5533 28.0447 22.6784ZM27.6288 26.3993C27.5409 26.3585 27.4444 26.3395 27.3476 26.3441C27.2319 26.3516 27.1205 26.3907 27.0254 26.457C27.0013 26.4743 26.978 26.4927 26.9557 26.5123C26.8695 26.5932 26.7714 26.6605 26.6649 26.7118C26.6156 26.5471 26.5881 26.3766 26.5831 26.2046C26.499 24.6783 26.9437 23.8634 27.2634 23.6903C27.2837 23.6773 27.3068 23.6691 27.3307 23.6663C28.1793 24.2817 28.6913 25.5749 28.7586 26.5388C28.8331 27.5844 28.5927 28.3103 28.4221 28.5651C28.0423 28.1829 27.9774 27.2887 27.9894 26.9786C27.9933 26.8576 27.9611 26.7381 27.8969 26.6353C27.8327 26.5326 27.7394 26.4513 27.6288 26.4018V26.3993Z" fill="black"/>
<path d="M28.7581 26.5412C28.8327 27.5868 28.5923 28.3127 28.4216 28.5675C28.0418 28.1853 27.9769 27.2911 27.9889 26.981C27.9933 26.8596 27.9613 26.7395 27.8971 26.6363C27.8329 26.5331 27.7393 26.4514 27.6283 26.4017C27.5404 26.3609 27.4439 26.3419 27.3471 26.3465C27.2314 26.354 27.12 26.3931 27.025 26.4594C27.0008 26.4767 26.9775 26.4951 26.9553 26.5147C26.869 26.5956 26.7709 26.6629 26.6644 26.7142C26.6151 26.5495 26.5876 26.379 26.5827 26.207C26.4985 24.6807 26.9432 23.8658 27.2629 23.6927C27.2833 23.6797 27.3063 23.6715 27.3303 23.6687C28.1788 24.2841 28.6908 25.5773 28.7581 26.5412Z" fill="white"/>
<path d="M0.370734 26.4787C0.322649 27.0841 0.375451 27.6933 0.526984 28.2815C0.627946 28.6516 0.817848 29.1324 1.14958 29.368L1.20727 29.4064C1.31665 29.4731 1.44304 29.5065 1.57106 29.5027C1.69909 29.4988 1.82324 29.4579 1.92843 29.3848C2.6015 28.9521 2.79621 28.0219 2.8491 27.445C2.968 27.5222 3.1025 27.5721 3.24297 27.5912C3.38343 27.6103 3.52639 27.5981 3.6616 27.5555C4.03419 27.4089 4.23371 26.9835 4.27458 26.2551C4.38035 24.3153 3.75775 23.2673 3.14237 22.9332C2.99251 22.8413 2.81897 22.7956 2.64332 22.8015C2.46767 22.8075 2.29764 22.865 2.15439 22.9668C1.59777 23.3958 1.15799 23.9579 0.875541 24.6014C0.596594 25.192 0.425629 25.8278 0.370734 26.4787ZM0.88035 26.5147C0.952465 25.5028 1.4741 24.0918 2.45727 23.3899C2.52301 23.3469 2.59986 23.3239 2.67842 23.3239C2.75699 23.3239 2.83384 23.3469 2.89958 23.3899C3.39477 23.6591 3.86112 24.6422 3.76496 26.2335C3.73852 26.7142 3.63275 27.0243 3.4765 27.0844C3.32025 27.1445 2.96448 26.945 2.79381 26.7791C2.78502 26.7698 2.77438 26.7624 2.76256 26.7575C2.7284 26.7323 2.68816 26.7165 2.64593 26.7119C2.60371 26.7072 2.56101 26.7138 2.52218 26.7311C2.47466 26.7498 2.43437 26.7833 2.40714 26.8265C2.37991 26.8697 2.36716 26.9205 2.37073 26.9714C2.37073 26.9859 2.414 28.4738 1.664 28.9593C1.63718 28.979 1.60475 28.9897 1.57145 28.9897C1.53816 28.9897 1.50573 28.979 1.47891 28.9593C1.164 28.7814 0.7866 27.8296 0.88035 26.5243V26.5147Z" fill="black"/>
<path d="M0.0183095 26.4522C-0.0330487 27.0981 0.0238243 27.7481 0.18658 28.3752C0.354849 28.9858 0.607253 29.416 0.943791 29.6564L1.02793 29.7093C1.17389 29.7968 1.3388 29.848 1.50869 29.8583C1.72803 29.8669 1.94441 29.8055 2.12648 29.6829C2.74667 29.2814 3.02792 28.5723 3.14812 27.9305C3.3641 27.9813 3.59042 27.9654 3.79715 27.8849C4.31398 27.6829 4.58561 27.1637 4.63609 26.2744C4.77792 23.6303 3.67456 22.8082 3.31879 22.6207C3.10984 22.4974 2.86957 22.4374 2.62718 22.4481C2.38479 22.4587 2.15071 22.5396 1.9534 22.6808C0.744271 23.5533 0.107252 25.248 0.0183095 26.4522ZM2.00629 26.9811C2.00629 27.2911 1.951 28.1829 1.57119 28.5675C1.40292 28.3127 1.16014 27.5868 1.23466 26.5412C1.30437 25.5797 1.81639 24.2841 2.67696 23.6687C2.70076 23.6722 2.72364 23.6804 2.74427 23.6928C3.06398 23.8658 3.50869 24.6807 3.42456 26.2071C3.41796 26.379 3.38969 26.5494 3.34042 26.7142C3.23418 26.6624 3.13617 26.5952 3.04956 26.5147C3.02811 26.4951 3.00564 26.4767 2.98225 26.4594C2.8863 26.3931 2.77414 26.3541 2.65773 26.3465C2.56089 26.3419 2.4644 26.3609 2.37648 26.4018C2.26354 26.4497 2.16774 26.5307 2.10167 26.6341C2.0356 26.7375 2.00235 26.8584 2.00629 26.9811Z" fill="black"/>
<path d="M1.23454 26.5412C1.16003 27.5868 1.40281 28.3127 1.57108 28.5675C1.95089 28.1853 2.01579 27.2911 2.00618 26.981C2.00125 26.8598 2.03273 26.7398 2.09656 26.6366C2.16039 26.5333 2.25365 26.4515 2.36435 26.4017C2.45227 26.3609 2.54876 26.3419 2.6456 26.3465C2.76201 26.354 2.87417 26.3931 2.97012 26.4594C2.99351 26.4767 3.01598 26.4951 3.03743 26.5147C3.12404 26.5952 3.22205 26.6624 3.32829 26.7142C3.37756 26.5494 3.40582 26.379 3.41243 26.207C3.49656 24.6807 3.05185 23.8658 2.73214 23.6927C2.7115 23.6804 2.68863 23.6722 2.66483 23.6687C1.81627 24.2841 1.30906 25.5773 1.23454 26.5412Z" fill="white"/>
<path d="M9.24231 39.0238C9.06621 39.0356 8.88958 39.0103 8.72392 38.9495C8.55825 38.8886 8.40726 38.7935 8.28077 38.6704C8.12931 38.513 8.03096 38.3121 7.99952 38.0959C7.1726 38.0695 6.51395 37.6656 6.31683 37.0503C6.21495 36.7221 6.23719 36.368 6.37933 36.0551C6.15214 35.8482 5.99997 35.5718 5.94664 35.2691C5.72308 33.9447 7.52837 32.7813 8.9226 32.5313C9.19302 32.4817 9.46738 32.4568 9.74231 32.4568C10.8096 32.4568 11.687 32.8341 12.2808 33.5481C12.5529 33.881 12.7546 34.2657 12.8736 34.6789C12.9926 35.0921 13.0264 35.5251 12.9731 35.9518C12.7038 37.8051 10.55 39.0238 9.24231 39.0238Z" fill="black"/>
<path d="M6.72333 35.1441C6.78102 35.4855 7.16083 35.7018 7.45891 35.8268C7.40362 35.8845 6.93006 36.4013 7.06708 36.8099C7.2041 37.2186 8.01179 37.531 8.99015 37.1537C8.73054 37.745 8.74977 38.0166 8.86756 38.1392C9.31708 38.6055 11.9589 37.644 12.2329 35.8436C12.271 35.5239 12.2445 35.1998 12.1549 34.8905C12.0652 34.5812 11.9144 34.2931 11.7113 34.0432C10.8243 32.9784 9.3339 33.2452 9.06708 33.2909C7.87717 33.5072 6.59833 34.4567 6.72333 35.1441Z" fill="#894CF4"/>
<path d="M20.4442 39.0238C19.1461 39.0238 16.9923 37.8027 16.7062 35.9614C16.6528 35.5347 16.6867 35.1017 16.8057 34.6885C16.9247 34.2753 17.1264 33.8906 17.3985 33.5577C17.9923 32.8365 18.8697 32.4664 19.937 32.4664C20.2119 32.4664 20.4862 32.4913 20.7567 32.5409C22.1509 32.7813 23.9562 33.9543 23.7326 35.2787C23.6793 35.5814 23.5271 35.8578 23.2999 36.0648C23.4421 36.3776 23.4643 36.7317 23.3624 37.0599C23.1605 37.6753 22.5019 38.0791 21.6798 38.1055C21.6483 38.3217 21.55 38.5226 21.3985 38.68C21.272 38.8005 21.1219 38.8932 20.9575 38.9524C20.7932 39.0116 20.6184 39.0359 20.4442 39.0238Z" fill="black"/>
<path d="M22.9718 35.1441C22.9141 35.4855 22.5343 35.7018 22.2386 35.8268C22.2915 35.8845 22.7651 36.4013 22.628 36.8099C22.491 37.2186 21.6833 37.531 20.705 37.1537C20.9646 37.745 20.9453 38.0166 20.8276 38.1392C20.378 38.6055 17.7362 37.644 17.4622 35.8436C17.4241 35.5239 17.4507 35.1998 17.5403 34.8905C17.6299 34.5812 17.7807 34.2931 17.9838 34.0432C18.8708 32.9784 20.3612 33.2452 20.628 33.2909C21.8179 33.5072 23.0896 34.4567 22.9718 35.1441Z" fill="#894CF4"/>
<path d="M26.0174 27.5387C25.9894 27.8132 25.9469 28.086 25.89 28.356C25.89 28.4161 25.8636 28.4786 25.8491 28.5387L25.8299 28.6108C25.8299 28.6372 25.8299 28.6637 25.8131 28.6877L25.741 28.9281C25.7169 29.0098 25.6905 29.0867 25.6616 29.1684C25.6616 29.1925 25.6448 29.2189 25.6352 29.243L25.6063 29.3151C25.6063 29.3391 25.5871 29.3655 25.5775 29.3896C25.2877 30.1086 24.8735 30.7709 24.3539 31.3462L24.2938 31.4135L24.2458 31.464L24.2313 31.4784C24.1761 31.5385 24.116 31.5962 24.0583 31.6539C23.5421 32.1501 22.9567 32.5687 22.3203 32.8966L22.0967 33.0096C21.9765 33.0697 21.8563 33.1274 21.7337 33.1779C21.5286 33.2676 21.3219 33.3477 21.1136 33.4182C20.1018 33.7683 19.0533 34.0014 17.9886 34.1129H17.9333C17.6015 34.1514 17.2866 34.1778 16.9886 34.197C16.6905 34.2163 16.4645 34.2307 16.2313 34.2403H15.991H15.7506C15.5246 34.2403 15.3227 34.2547 15.152 34.2643C14.9813 34.274 14.7939 34.2812 14.5919 34.286H14.1112C13.6881 34.286 13.2169 34.2692 12.7145 34.2259C12.4092 34.1994 12.0919 34.1658 11.753 34.1177C11.414 34.0696 11.1544 34.0216 10.8467 33.9543C10.1436 33.8065 9.45553 33.5941 8.79145 33.3197L8.57991 33.2283C8.32511 33.1154 8.0727 32.988 7.82751 32.8534C7.44505 32.6413 7.0794 32.4002 6.73376 32.1322L6.52463 31.9664C6.23903 31.7294 5.97072 31.4724 5.72174 31.1972C5.49618 30.9502 5.28739 30.6884 5.09674 30.4136C4.95492 30.2117 4.8203 30.0001 4.6929 29.7766C4.64482 29.69 4.59674 29.6011 4.54867 29.5098L4.49097 29.3944C4.43328 29.2814 4.3804 29.154 4.32751 29.0555C3.93385 28.1812 3.73064 27.2332 3.73136 26.2743C3.73136 26.2118 3.73136 26.1518 3.73136 26.0893C3.73017 26.0773 3.73017 26.0652 3.73136 26.0532C3.74237 25.6545 3.78579 25.2574 3.86117 24.8658C3.85999 24.8562 3.85999 24.8465 3.86117 24.8369C3.89723 25.1734 3.77944 25.5172 3.86117 25.8705C4.01402 26.493 4.24079 27.095 4.53665 27.6637C4.8452 28.2593 5.22807 28.8134 5.67607 29.3127C5.91224 29.5818 6.16859 29.8325 6.4429 30.0626C6.67717 30.2617 6.92278 30.4471 7.17847 30.6179C7.45468 30.8109 7.74204 30.9875 8.03905 31.1467L8.12559 31.1924L8.21453 31.2357L8.26501 31.2597L8.3203 31.2909L8.41886 31.3366C8.45251 31.351 8.48616 31.3679 8.51982 31.3799C8.91538 31.5619 9.32252 31.7177 9.73857 31.8462C11.1857 32.2789 12.6897 32.4912 14.2001 32.476C14.5607 32.476 14.8828 32.476 15.1616 32.4519C15.4405 32.4279 15.7914 32.4279 16.2001 32.4087C17.6633 32.3736 19.1166 32.158 20.527 31.7669C20.866 31.6659 21.2049 31.5481 21.5366 31.4135L21.64 31.3679C21.6761 31.3558 21.7097 31.339 21.7434 31.3246L21.7987 31.3005L21.8491 31.2789L21.9405 31.2357L22.0318 31.1924C22.2241 31.101 22.4164 31.0025 22.6015 30.8919C22.9246 30.7082 23.2332 30.5 23.5246 30.2693L23.6208 30.1924L23.7169 30.1131C23.8395 30.0097 23.9573 29.904 24.0703 29.791C24.2993 29.5666 24.5114 29.3255 24.7049 29.0699C24.7987 28.9473 24.8876 28.8295 24.9717 28.6877C24.9934 28.6588 25.015 28.6252 25.0342 28.5939L25.0895 28.5026C25.2756 28.1957 25.4364 27.8741 25.5703 27.5411C25.7335 27.1368 25.8528 26.7161 25.9261 26.2864C25.9645 26.082 25.991 25.8753 26.0126 25.6686C26.0708 26.2905 26.0724 26.9165 26.0174 27.5387Z" fill="#E9E0FF"/>
<path d="M12.4105 11.4169H12.3984L12.4105 11.4313V11.4169Z" fill="white"/>
<path d="M15.8254 33.9951H15.7028L15.1427 34.0168C14.8759 34.0312 14.5898 34.0384 14.2917 34.0408C13.7653 34.0408 13.1932 34.0408 12.5946 33.9807C12.6427 34.0624 12.6884 34.1538 12.7364 34.2547C13.2388 34.298 13.698 34.3124 14.1331 34.3148H14.6138C14.8158 34.3148 15.0057 34.3004 15.1739 34.2932C15.3422 34.286 15.5465 34.2764 15.7725 34.2692H16.0129H16.2533C16.4936 34.2692 16.734 34.2475 17.0105 34.2259C17.0585 34.1249 17.109 34.0336 17.1571 33.9519C16.6403 33.9759 16.198 33.9759 15.8254 33.9951ZM26.9552 22.8178C26.9552 22.7913 26.9431 22.7673 26.9335 22.7409C26.9239 22.7144 26.9335 22.6928 26.9143 22.6688C26.8951 22.6447 26.8807 22.5534 26.8662 22.5005C26.8518 22.4476 26.8662 22.4452 26.8662 22.4188C26.8662 22.3274 26.8662 22.2361 26.8662 22.1447C26.8686 22.1176 26.8686 22.0902 26.8662 22.063C26.8662 22.0342 26.8662 22.0053 26.8662 21.9789C26.8248 21.0324 26.6797 20.0934 26.4335 19.1785C26.3542 18.8829 26.2629 18.592 26.1643 18.306L26.0681 18.0872C26.0153 17.9406 25.9576 17.7988 25.8975 17.6546C25.8374 17.5103 25.8037 17.4286 25.7532 17.318L25.71 17.2243C25.6975 17.193 25.6831 17.1624 25.6667 17.133C25.2348 16.2067 24.6819 15.3418 24.0225 14.561C23.9888 14.5177 23.9528 14.4744 23.9143 14.4312L23.7941 14.2942C23.6403 14.1211 23.4792 13.9504 23.3133 13.7846C22.8431 13.3178 22.335 12.8909 21.7941 12.5082L21.6643 12.4168L21.5441 12.3375C20.7215 11.7886 19.8331 11.3452 18.8999 11.0179C19.5393 9.20064 18.9432 7.05892 18.1571 5.65995C17.3085 4.1504 16.1571 3.26823 15.0008 3.24179H14.9528C13.7509 3.24179 12.5153 4.16963 11.5874 5.78734C10.7989 7.16468 10.1956 9.2391 10.7533 10.989C9.59885 11.3866 8.51304 11.9607 7.53451 12.6909L7.34701 12.8327C7.26288 12.8976 7.17874 12.9673 7.10663 13.037C6.81692 13.272 6.53932 13.5215 6.2749 13.7846L6.2172 13.8423C6.13788 13.9216 6.06095 14.0033 5.97682 14.0826C5.89268 14.1619 5.86384 14.2004 5.80855 14.2629C4.94118 15.2345 4.24097 16.3433 3.73644 17.544C3.72647 17.5723 3.71844 17.6012 3.7124 17.6305C3.69798 17.6618 3.68596 17.693 3.67394 17.7243C3.63067 17.8276 3.5874 17.9334 3.54894 18.0416C3.51048 18.1497 3.45519 18.294 3.41192 18.4238L3.36144 18.5752L3.29653 18.7819C2.93554 19.9782 2.74694 21.2198 2.73644 22.4692C2.73525 22.4836 2.73525 22.4981 2.73644 22.5125C2.73753 22.5245 2.73753 22.5366 2.73644 22.5486L2.7148 22.6255C2.69557 22.7 2.67394 22.7769 2.6475 22.8659L2.57778 23.1062L2.55615 23.1832C2.55615 23.2072 2.55615 23.2336 2.53451 23.2577C2.12826 24.7408 1.57298 27.3224 2.90711 30.0674L2.95038 30.154C2.9648 30.1828 2.97923 30.2141 2.99605 30.2453C3.04172 30.3343 3.0898 30.4232 3.14028 30.5145L3.18115 30.5867C3.36825 30.9287 3.57784 31.2579 3.80855 31.5722L3.86384 31.6467L3.91913 31.7188C4.42605 32.3566 5.01718 32.9226 5.67634 33.4014L5.73643 33.4471L5.80134 33.4928C5.86384 33.5384 5.92874 33.5817 5.99365 33.625C6.05855 33.6682 6.12586 33.7139 6.19076 33.7548L6.25567 33.7956L6.32057 33.8341L6.42393 33.8966C6.66432 34.0336 6.88307 34.161 7.11864 34.2764C7.35422 34.3918 7.62586 34.5168 7.88307 34.6249C7.90711 34.6369 7.93115 34.6442 7.95518 34.6538L8.03932 34.697L8.25807 34.7812C8.33018 34.8076 8.39989 34.834 8.47441 34.8581L8.55134 34.8869L8.62345 34.911C9.79726 35.3022 11.0132 35.5531 12.246 35.6585C12.5081 35.6826 12.7653 35.7018 13.0153 35.7162L13.621 35.7379H14.4576C14.7268 35.7379 14.9816 35.7234 15.2244 35.7114L15.6331 35.697H15.7941H16.0345H16.2749H16.3566H16.4528H16.6715L17.4408 35.6489C18.8176 35.5519 20.1793 35.3019 21.5008 34.9038L21.573 34.8797L21.6499 34.8581L21.8686 34.786L22.0874 34.7091L22.1619 34.6802C22.1866 34.6732 22.2107 34.6644 22.234 34.6538C22.4023 34.5913 22.5682 34.524 22.7316 34.4543C22.972 34.3533 23.2124 34.2403 23.4408 34.1177C23.6691 33.9951 23.9432 33.8413 24.1835 33.6851L24.2508 33.6442C24.2705 33.6281 24.2914 33.6137 24.3133 33.6009L24.5081 33.4639C24.573 33.4207 24.6355 33.3726 24.7004 33.3269L24.7629 33.2764L24.8254 33.2284C25.4579 32.733 26.0073 32.1398 26.4528 31.4712C26.6063 31.2393 26.746 30.9985 26.871 30.7501C26.9119 30.6684 26.9552 30.5842 26.996 30.5097L27.0898 30.3054L27.1787 30.0891C27.2196 29.9857 27.2556 29.88 27.2917 29.7742C27.3035 29.7453 27.3131 29.7156 27.3206 29.6853C27.3206 29.654 27.3398 29.6252 27.347 29.5963C28.0946 27.1133 27.3806 24.3033 26.9552 22.8178ZM14.9792 4.51337C16.4215 4.54702 18.1547 7.54207 17.8638 9.87128C17.8638 9.8833 17.8638 9.89292 17.8638 9.90494C17.8315 10.1628 17.7694 10.4161 17.6787 10.6597C17.6801 10.6709 17.6801 10.6822 17.6787 10.6934C17.6595 10.7462 17.6379 10.7943 17.6162 10.8448C17.5946 10.8953 17.573 10.9361 17.5489 10.9818L17.4864 11.0948C17.4369 11.1787 17.3814 11.259 17.3206 11.3352C17.3013 11.364 17.2797 11.3928 17.2581 11.4193C17.1932 11.5049 17.1216 11.5853 17.0441 11.6597C17.0107 11.6959 16.9754 11.7304 16.9383 11.763C16.843 11.85 16.7418 11.9303 16.6355 12.0034C16.5874 12.0395 16.5345 12.0731 16.484 12.1068L16.3422 12.1933C16.2546 12.2447 16.1639 12.2904 16.0706 12.3303C15.7378 12.4812 15.38 12.5692 15.0153 12.5899C14.5364 12.6107 14.0594 12.5176 13.6234 12.3183C13.5345 12.2774 13.4456 12.2317 13.3614 12.1861C13.3109 12.1572 13.2629 12.1284 13.2148 12.0947C13.1403 12.0491 13.0682 11.9962 12.9984 11.9433L12.8518 11.8255C12.8134 11.7943 12.7773 11.7582 12.7412 11.7246C12.6353 11.624 12.5373 11.5156 12.448 11.4001L12.4359 11.3856C12.3728 11.3031 12.3143 11.2173 12.2605 11.1284C12.2436 11.0972 12.2244 11.0659 12.2076 11.0323C12.1835 10.9842 12.1595 10.9385 12.1379 10.8905C12.1162 10.8424 12.0922 10.7895 12.073 10.739C12.0537 10.6886 12.0393 10.6525 12.0249 10.6068C11.9449 10.3628 11.8933 10.1103 11.871 9.85446C11.8699 9.84891 11.8699 9.84318 11.871 9.83763C11.6235 7.53486 13.4912 4.48212 14.9792 4.51337ZM25.8831 28.4017C25.8283 28.7294 25.743 29.0513 25.6282 29.3631C25.6216 29.3883 25.6119 29.4125 25.5994 29.4353C25.5994 29.4617 25.5802 29.4857 25.573 29.5098L25.5297 29.6083C25.5105 29.6564 25.4888 29.7021 25.4672 29.7477C25.4311 29.8295 25.3903 29.9088 25.3494 29.9881C25.3372 30.0145 25.3236 30.0402 25.3085 30.065L25.2677 30.1396C24.9935 30.6249 24.6493 31.0672 24.246 31.452L24.2316 31.4664L24.1138 31.5746C24.0898 31.5986 24.0657 31.6227 24.0393 31.6443C24.0129 31.6659 23.9888 31.69 23.9624 31.7092C23.8927 31.7693 23.8254 31.827 23.7508 31.8823C23.6763 31.9375 23.6186 31.9856 23.5489 32.0361L23.4792 32.0842L23.4095 32.1323C22.9492 32.4457 22.4569 32.7092 21.9408 32.9183C21.6523 33.0409 21.3542 33.1586 21.0537 33.2428L20.7965 33.3197C19.9425 33.5632 19.0691 33.7329 18.1859 33.8269C17.8182 33.8701 17.4648 33.9014 17.1307 33.923C16.6499 33.9567 16.198 33.9735 15.8254 33.9855H15.7028L15.1427 34.0072C14.8759 34.0216 14.5898 34.0288 14.2917 34.0312C13.7653 34.0312 13.1932 34.0312 12.5946 33.9711C12.2509 33.9423 11.8975 33.9038 11.5393 33.8509C10.7126 33.7356 9.89884 33.5416 9.10903 33.2716L9.04412 33.25C8.68428 33.1226 8.33196 32.975 7.98884 32.8077C7.49341 32.5697 7.02243 32.2839 6.58259 31.9544C6.283 31.7284 6.00094 31.4801 5.73884 31.2116C5.40241 30.8705 5.1027 30.4951 4.84461 30.0915C4.75807 29.9593 4.67634 29.8223 4.60422 29.6804C4.10011 28.7869 3.80891 27.7891 3.75326 26.7647C3.75326 26.6109 3.75326 26.4594 3.75326 26.308C3.75326 26.2455 3.75326 26.1854 3.75326 26.1229C3.75207 26.1109 3.75207 26.0989 3.75326 26.0869C3.76759 25.6884 3.81098 25.2915 3.88307 24.8994C3.88189 24.8898 3.88189 24.8802 3.88307 24.8706C3.98131 24.354 4.10648 23.8429 4.25807 23.3394C4.31095 23.1495 4.35903 22.9812 4.39509 22.8394L4.41913 22.7385V22.6351C4.41913 22.6111 4.41913 22.587 4.41913 22.563C4.41672 22.5278 4.41672 22.4924 4.41913 22.4572C4.41913 22.3435 4.41913 22.2305 4.41913 22.1183C4.41913 21.9981 4.43355 21.8779 4.44076 21.7577C4.44076 21.7145 4.44076 21.6736 4.44076 21.6303C4.44076 21.5871 4.44076 21.5438 4.45278 21.5005C4.53476 20.6187 4.72116 19.7496 5.00807 18.9117L5.04172 18.818C5.05374 18.7843 5.06336 18.7531 5.07538 18.7218C5.10903 18.6353 5.14028 18.5464 5.17394 18.4598C5.20759 18.3733 5.24365 18.294 5.2773 18.2194L5.31096 18.1425C5.32052 18.1158 5.33259 18.0901 5.34701 18.0656C5.48857 17.7361 5.64909 17.4151 5.82778 17.1041L5.87586 17.0176L5.92634 16.9359L6.11624 16.669L6.28451 16.4287L6.3422 16.3445L6.4047 16.2556C6.4624 16.1763 6.52009 16.0994 6.58018 16.0152C7.26355 15.1115 8.09696 14.3318 9.04412 13.71L9.11384 13.6644L9.18595 13.6187C9.25807 13.5706 9.33258 13.5274 9.40951 13.4817C9.48643 13.436 9.55855 13.3928 9.63547 13.3519L9.69557 13.3182C9.81095 13.2533 9.93595 13.1908 10.0465 13.1332C10.186 13.0634 10.3278 12.9937 10.472 12.9312L10.6523 12.8543L10.8927 12.7582C11.1331 12.6596 11.3903 12.5731 11.6451 12.4962C12.1785 13.0648 12.8489 13.4869 13.5922 13.7221L13.6884 13.7509L13.7845 13.7798L14.0561 13.8423C14.3181 13.8948 14.5846 13.9214 14.8518 13.9216C14.9215 13.9216 14.9936 13.9216 15.0634 13.9216C15.3388 13.9091 15.6121 13.8664 15.8783 13.7942C15.9093 13.7876 15.9398 13.7788 15.9696 13.7677L16.0658 13.7413C16.8114 13.5094 17.484 13.0878 18.0177 12.5178C18.2292 12.5827 18.4384 12.6548 18.6403 12.7341C18.7332 12.7678 18.8246 12.8038 18.9143 12.8423L19.1114 12.9264C19.5133 13.1035 19.9028 13.3075 20.2773 13.537C20.3006 13.5492 20.323 13.5628 20.3446 13.5778C20.3687 13.5908 20.392 13.6053 20.4143 13.6211C21.4111 14.2503 22.2878 15.052 23.0032 15.9888C23.085 16.0945 23.1619 16.2003 23.2436 16.3085L23.3013 16.3878L23.3518 16.4647C23.4071 16.544 23.46 16.6234 23.5105 16.7051C23.5609 16.7868 23.609 16.8613 23.6571 16.9455C23.6739 16.9719 23.6907 16.9984 23.7052 17.0248C23.7196 17.0512 23.7364 17.0801 23.7508 17.1065C23.9273 17.4071 24.0878 17.7168 24.2316 18.0344C24.7908 19.2894 25.1112 20.6377 25.1763 22.0101C25.1883 22.2217 25.1931 22.4308 25.1931 22.6471V22.7673L25.2581 22.986C25.5867 24.0616 25.8129 25.1658 25.9335 26.284C26.0045 26.9722 25.99 27.6665 25.8903 28.3512L25.8831 28.4017Z" fill="black"/>
<path d="M25.2353 22.9644L25.1704 22.7457V22.6255C25.1704 22.4092 25.1704 22.2 25.1536 21.9885C25.0885 20.6161 24.7681 19.2678 24.2089 18.0127C24.0651 17.6952 23.9046 17.3855 23.7281 17.0849C23.7137 17.0584 23.6993 17.0296 23.6825 17.0032C23.6656 16.9767 23.6512 16.9503 23.6344 16.9238C23.5863 16.8421 23.5382 16.7628 23.4877 16.6835C23.4373 16.6041 23.3844 16.5224 23.3291 16.4431L23.2786 16.3662L23.2209 16.2868C23.144 16.1787 23.0671 16.0729 22.9805 15.9671C22.2651 15.0304 21.3884 14.2286 20.3916 13.5995C20.3692 13.5837 20.346 13.5692 20.3219 13.5562C20.3003 13.5412 20.2778 13.5275 20.2546 13.5153C19.8832 13.287 19.4969 13.0839 19.0983 12.9072L18.9012 12.8231C18.8115 12.7846 18.7201 12.7485 18.6272 12.7149C18.4252 12.6356 18.2161 12.5635 18.0046 12.4986C17.4709 13.0686 16.7983 13.4902 16.0526 13.7221L15.9565 13.7485C15.9267 13.7595 15.8962 13.7684 15.8652 13.7749C15.599 13.8472 15.3257 13.8899 15.0502 13.9023C14.9805 13.9023 14.9084 13.9023 14.8387 13.9023C14.5715 13.9021 14.305 13.8756 14.043 13.823L13.7714 13.7605L13.6752 13.7317L13.5791 13.7028C12.8358 13.4676 12.1653 13.0455 11.632 12.4769C11.3772 12.5538 11.1248 12.6404 10.8796 12.7389L10.6392 12.8351L10.4589 12.912C10.3147 12.9745 10.1728 13.0442 10.0334 13.1139C9.91564 13.1716 9.79304 13.2341 9.68246 13.299L9.62237 13.3327C9.54544 13.3735 9.47092 13.4168 9.39641 13.4625C9.32189 13.5081 9.24496 13.5514 9.17285 13.5995L9.10073 13.6451L9.03102 13.6908C8.08386 14.3126 7.25045 15.0923 6.56708 15.996C6.50699 16.0729 6.44929 16.1498 6.3916 16.2364L6.3291 16.3253L6.27141 16.4094L6.11756 16.669L5.9517 16.9094L5.90122 16.9911L5.85314 17.0777C5.67445 17.3886 5.51392 17.7097 5.37237 18.0392C5.35795 18.0636 5.34588 18.0894 5.33631 18.1161L5.30266 18.193C5.26901 18.2747 5.23535 18.3589 5.19929 18.4334C5.16324 18.5079 5.13439 18.6089 5.10074 18.6954C5.10074 18.7266 5.0791 18.7579 5.06708 18.7915L5.03343 18.8853C4.74652 19.7232 4.56012 20.5922 4.47814 21.4741C4.47814 21.5174 4.47814 21.5606 4.46612 21.6039C4.4541 21.6472 4.46612 21.688 4.46612 21.7313C4.46612 21.8515 4.44929 21.9717 4.44449 22.0919C4.43968 22.212 4.44449 22.3178 4.44449 22.4308C4.44208 22.466 4.44208 22.5013 4.44449 22.5365C4.44449 22.5606 4.44449 22.5846 4.44449 22.6087V22.712L4.42045 22.813C4.38439 22.9548 4.33631 23.1231 4.28343 23.313C4.13184 23.8165 4.00667 24.3276 3.90843 24.8441C3.94449 25.1807 3.8267 25.5244 3.90843 25.8777C4.06128 26.5003 4.28805 27.1023 4.58391 27.6709C4.89247 28.2665 5.27533 28.8206 5.72333 29.3199C5.9595 29.589 6.21585 29.8397 6.49016 30.0698C6.72444 30.269 6.97004 30.4544 7.22573 30.6251C7.48733 30.8142 7.7594 30.9883 8.04064 31.1467L8.12718 31.1924L8.21612 31.2357L8.2666 31.2597L8.32189 31.2909L8.42044 31.3366C8.4541 31.351 8.48775 31.3679 8.52141 31.3799C8.91697 31.5619 9.3241 31.7177 9.74015 31.8462C11.1873 32.2789 12.6913 32.4912 14.2017 32.476C14.5623 32.476 14.8844 32.476 15.1632 32.4519C15.4421 32.4279 15.793 32.4279 16.2017 32.4087C17.6649 32.3736 19.1182 32.158 20.5286 31.7669C20.8675 31.6659 21.2065 31.5481 21.5382 31.4135L21.6416 31.3679C21.6776 31.3558 21.7113 31.339 21.745 31.3246L21.8002 31.3006L21.8507 31.2789L21.9421 31.2357L22.0334 31.1924C22.2257 31.101 22.418 31.0025 22.6031 30.8919C22.9262 30.7082 23.2348 30.5 23.5262 30.2694L23.6224 30.1924L23.7185 30.1131C23.8411 30.0098 23.9589 29.904 24.0719 29.791C24.3009 29.5666 24.513 29.3256 24.7065 29.0699C24.8002 28.9473 24.8892 28.8295 24.9733 28.6877C24.995 28.6589 25.0166 28.6252 25.0358 28.594L25.0911 28.5026C25.2772 28.1957 25.438 27.8741 25.5719 27.5411C25.7351 27.1368 25.8543 26.7162 25.9276 26.2864C25.803 25.1596 25.5712 24.0472 25.2353 22.9644ZM10.8267 21.664C10.6368 21.6304 10.4675 21.5238 10.3552 21.367C10.2429 21.2103 10.1964 21.0157 10.2257 20.8251C10.2522 20.3876 10.5695 20.0487 10.9253 20.0703C11.1066 20.1192 11.2654 20.2292 11.375 20.3817C11.4845 20.5343 11.538 20.72 11.5264 20.9074C11.5149 21.0948 11.4389 21.2725 11.3114 21.4103C11.1839 21.5482 11.0127 21.6378 10.8267 21.664ZM18.7882 21.664C18.6216 21.687 18.452 21.6578 18.3026 21.5806C18.1533 21.5033 18.0314 21.3818 17.9539 21.2326C17.8763 21.0834 17.8468 20.9138 17.8694 20.7472C17.892 20.5806 17.9657 20.425 18.0802 20.3018C18.1947 20.1787 18.3445 20.094 18.5091 20.0594C18.6736 20.0247 18.8449 20.0419 18.9993 20.1084C19.1538 20.1749 19.2839 20.2876 19.3717 20.431C19.4596 20.5744 19.501 20.7414 19.4901 20.9092C19.4613 21.3467 19.1488 21.6856 18.7882 21.664Z" fill="white"/>
<path d="M12.4105 11.4169H12.3984L12.4105 11.4313V11.4169Z" fill="black"/>
<path d="M12.4105 11.4169H12.3984L12.4105 11.4313V11.4169Z" fill="black"/>
<path d="M12.4105 11.4361L12.3984 11.4217H12.4105V11.4361Z" fill="black"/>
<path d="M12.4105 11.4361L12.3984 11.4217H12.4105V11.4361Z" fill="#5F2CCD"/>
<path fill-rule="evenodd" clip-rule="evenodd" d="M11.5309 20.9092C11.5451 21.0076 11.5371 21.1079 11.5075 21.2029C11.478 21.2978 11.4276 21.3849 11.3601 21.4579C11.2926 21.5309 11.2097 21.5879 11.1174 21.6248C11.025 21.6617 10.9257 21.6775 10.8265 21.6711C10.7272 21.6647 10.6307 21.6362 10.5439 21.5878C10.4571 21.5394 10.3822 21.4722 10.3246 21.3911C10.267 21.3101 10.2283 21.2172 10.2112 21.1193C10.194 21.0214 10.199 20.9209 10.2256 20.8251C10.2521 20.3876 10.5694 20.0487 10.9252 20.0703C11.1154 20.1039 11.2851 20.2103 11.3982 20.3669C11.5113 20.5236 11.5589 20.7181 11.5309 20.9092Z" fill="black"/>
<path fill-rule="evenodd" clip-rule="evenodd" d="M19.4894 20.9092C19.4606 21.3467 19.1481 21.6856 18.7875 21.664C18.6209 21.687 18.4513 21.6578 18.3019 21.5806C18.1526 21.5033 18.0307 21.3818 17.9532 21.2326C17.8756 21.0834 17.8461 20.9138 17.8687 20.7472C17.8913 20.5806 17.965 20.425 18.0795 20.3019C18.194 20.1787 18.3438 20.094 18.5084 20.0594C18.6729 20.0247 18.8442 20.0419 18.9986 20.1084C19.1531 20.1749 19.2832 20.2876 19.371 20.431C19.4589 20.5744 19.5003 20.7414 19.4894 20.9092Z" fill="black"/>
<path d="M17.6555 9.71505C17.6237 9.97203 17.5624 10.2245 17.4728 10.4674C17.4745 10.4786 17.4745 10.4899 17.4728 10.5011C17.4536 10.554 17.4319 10.602 17.4103 10.6525C17.3887 10.703 17.367 10.7438 17.343 10.7895L17.2805 10.9025C17.2309 10.991 17.1755 11.0761 17.1146 11.1573L17.0521 11.239C16.9872 11.3246 16.9157 11.405 16.8382 11.4794C16.8047 11.5156 16.7694 11.5501 16.7324 11.5828C16.6375 11.6747 16.5363 11.7598 16.4295 11.8375C16.3815 11.8736 16.3286 11.9073 16.2781 11.9409L16.1363 12.0274C16.0487 12.0788 15.958 12.1246 15.8646 12.1645C15.5222 12.3291 15.1504 12.4238 14.7709 12.4433C14.2918 12.4667 13.8142 12.3735 13.3791 12.1717C13.2901 12.1308 13.2012 12.0875 13.117 12.0395L12.9704 11.9505C12.8959 11.9024 12.8238 11.852 12.7541 11.7967L12.6074 11.6789C12.5688 11.6472 12.5319 11.6135 12.4968 11.5779C12.3904 11.478 12.2923 11.3695 12.2036 11.2534V11.2342C12.1399 11.1521 12.0813 11.0662 12.0281 10.977C12.0113 10.9458 11.992 10.9145 11.9752 10.8809C11.9488 10.8328 11.9271 10.7871 11.9055 10.739C11.881 10.6898 11.8593 10.6393 11.8406 10.5876C11.8238 10.5467 11.8069 10.5011 11.7925 10.4554C11.7125 10.2114 11.6609 9.9589 11.6387 9.70303C11.6795 9.7439 11.7877 9.84485 11.9488 9.97946L12.0161 10.0299L12.0834 10.0828L12.2829 10.2246C12.3286 10.2583 12.3815 10.2919 12.4319 10.3256L12.4872 10.3593L12.5545 10.4025L12.6242 10.4434C13.0754 10.708 13.5679 10.8949 14.081 10.9962C14.4927 11.0711 14.9145 11.0711 15.3262 10.9962C15.6087 10.9488 15.8847 10.8681 16.1483 10.7559C16.3368 10.6784 16.5192 10.5868 16.694 10.4818L16.7637 10.4386C16.7878 10.4248 16.8111 10.4095 16.8334 10.3929L16.9007 10.3472C16.9484 10.3174 16.9942 10.2844 17.0377 10.2487C17.105 10.2006 17.1699 10.1501 17.2372 10.0948L17.3021 10.0396L17.367 9.98427C17.4584 9.90014 17.5569 9.8112 17.6555 9.71505Z" fill="#5F2CCD"/>
<path d="M17.6561 9.68141C17.6561 9.68141 17.6561 9.70304 17.6561 9.71506C17.5599 9.81121 17.4614 9.90014 17.3628 9.98428L17.2979 10.0396L17.233 10.0948C17.1657 10.1501 17.1008 10.2006 17.0335 10.2487C16.99 10.2844 16.9442 10.3174 16.8965 10.3472L16.8292 10.3929C16.8069 10.4095 16.7836 10.4248 16.7595 10.4386L16.6897 10.4818C16.516 10.5892 16.3344 10.6832 16.1465 10.7631C15.8829 10.8753 15.6069 10.956 15.3244 11.0035C14.9127 11.0783 14.4909 11.0783 14.0792 11.0035C13.566 10.9021 13.0736 10.7152 12.6224 10.4506L12.5527 10.4097L12.4854 10.3665L12.4301 10.3328C12.3797 10.2992 12.3268 10.2655 12.2811 10.2319L12.0816 10.09L12.0143 10.0372L11.947 9.98668C11.7859 9.85207 11.6777 9.74631 11.6369 9.71025C11.6357 9.7047 11.6357 9.69897 11.6369 9.69342C11.4301 7.34738 13.2979 4.30426 14.7859 4.3355C16.2739 4.36675 17.947 7.35219 17.6561 9.68141Z" fill="#894CF4"/>
<path fill-rule="evenodd" clip-rule="evenodd" d="M8.52017 9.4843C8.06585 7.28007 9.04181 2.61443 11.4913 2.00628C14.7029 1.19623 13.3567 5.77053 13.3567 5.77053C13.3567 5.77053 15.3928 1.20344 18.3567 2.88605C20.6355 4.17445 18.025 7.93389 18.025 7.93389C18.025 7.93389 19.948 5.92918 21.7605 7.51804C23.1283 8.71991 20.7173 10.614 20.2822 12.263C19.8471 13.912 9.55383 14.6619 8.52017 9.4843Z" fill="#894CF4"/>
<mask id="mask0_4436_83093" style="mask-type:luminance" maskUnits="userSpaceOnUse" x="8" y="1" width="15" height="13">
<path d="M8.52213 9.48433C8.0678 7.2801 9.04376 2.61446 11.4933 2.00631C14.7048 1.19626 13.3587 5.77056 13.3587 5.77056C13.3587 5.77056 15.3947 1.20347 18.3587 2.88608C20.6375 4.17448 18.0269 7.93392 18.0269 7.93392C18.0269 7.93392 19.95 5.92921 21.7625 7.51807C23.1303 8.71994 20.7192 10.6141 20.2841 12.263C19.849 13.912 9.55578 14.662 8.52213 9.48433Z" fill="white"/>
</mask>
<g mask="url(#mask0_4436_83093)">
<path fill-rule="evenodd" clip-rule="evenodd" d="M6.26953 7.14788C8.97535 8.41768 12.0117 8.8053 14.9498 8.256C19.9162 7.3522 18.3416 1.8765 17.0484 0.513581C15.7551 -0.849335 26.4017 5.6119 26.4017 5.6119L24.3537 14.2173L18.1181 17.9719L6.75992 16.0249L6.26953 7.14788Z" fill="#5F2CCD"/>
</g>
<path d="M17.6551 14.2966C16.9161 14.389 16.171 14.4228 15.4267 14.3975C14.1599 14.3615 12.3017 14.1572 10.6647 13.3471C8.98199 12.525 7.91228 11.2534 7.59256 9.66938C7.08776 7.1719 8.12141 1.8885 11.2536 1.09767C11.4222 1.05513 11.5932 1.02302 11.7656 1.00152C12.6262 0.890951 13.3185 1.10488 13.8257 1.6313C14.1097 1.93483 14.3123 2.30528 14.4147 2.70817C14.8682 2.28086 15.4062 1.95332 15.994 1.74668C16.2031 1.67849 16.4179 1.62941 16.6358 1.60005C17.3886 1.51439 18.1487 1.67822 18.7993 2.06638C19.1344 2.24558 19.4264 2.49558 19.6551 2.79902C19.8839 3.10245 20.0438 3.45204 20.1238 3.8235C20.26 4.53766 20.2078 5.27498 19.9724 5.96283C20.4094 5.93093 20.8482 5.99009 21.2612 6.13656C21.6741 6.28303 22.0522 6.51363 22.3714 6.81375C22.6995 7.09002 22.9343 7.46091 23.0436 7.87568C23.1529 8.29046 23.1313 8.72886 22.982 9.13095C22.7407 9.78389 22.4115 10.4009 22.0036 10.965C21.6551 11.4986 21.2825 12.0539 21.1791 12.489C21.1012 12.7314 20.9741 12.9552 20.8057 13.1463C20.6374 13.3373 20.4314 13.4916 20.2007 13.5995C19.8042 13.8115 19.3826 13.973 18.9459 14.0802C18.5206 14.1796 18.0895 14.2518 17.6551 14.2966ZM12.0036 2.84038C11.9071 2.85223 11.8115 2.8707 11.7176 2.89566C11.6026 2.92545 11.4919 2.96988 11.3882 3.02787C10.7608 3.37641 10.1863 4.25137 9.79689 5.4316C9.369 6.74404 9.21756 8.29925 9.41949 9.29921C9.60699 10.2343 10.2176 10.9818 11.2296 11.5467C12.3523 12.1125 13.58 12.4398 14.8353 12.5082C15.7036 12.5756 16.5765 12.5571 17.4411 12.4529C17.7103 12.4193 17.97 12.376 18.2079 12.3255C18.6333 12.261 19.0418 12.1131 19.4099 11.8904C19.6642 11.1941 20.0154 10.537 20.4531 9.9386C21.2849 8.66462 21.3401 8.36175 21.1478 8.19349C21.0046 8.0559 20.8327 7.95178 20.6444 7.8886C20.4561 7.82542 20.2561 7.80477 20.0589 7.82812C19.5459 7.93201 19.0741 8.18251 18.7007 8.54924C18.5511 8.7061 18.3512 8.80561 18.1358 8.83048C18.0103 8.84569 17.8831 8.83544 17.7616 8.80034C17.6402 8.76523 17.5271 8.70599 17.4291 8.62616C17.2503 8.47796 17.1335 8.26809 17.1019 8.03801C17.0703 7.80792 17.1262 7.57435 17.2584 7.38343C17.6959 6.75125 18.5325 5.15036 18.3233 4.23695C18.2967 4.11976 18.2445 4.00988 18.1706 3.91515C18.0966 3.82042 18.0027 3.74317 17.8954 3.6889C17.5893 3.49745 17.2283 3.41291 16.869 3.44852C16.771 3.46096 16.6744 3.48269 16.5805 3.51342C15.4315 3.89081 14.47 5.54217 14.1959 6.15753C14.0984 6.37017 13.9242 6.53813 13.7081 6.62778C13.492 6.71744 13.2501 6.72217 13.0306 6.64104C12.8112 6.5599 12.6306 6.39888 12.5248 6.19022C12.4191 5.98155 12.396 5.74065 12.4603 5.51573C12.5704 5.11765 12.6452 4.71065 12.6839 4.29944C12.7536 3.50862 12.6238 3.06873 12.4916 2.93172C12.4209 2.88371 12.3411 2.85081 12.2571 2.83509C12.1732 2.81938 12.0869 2.82117 12.0036 2.84038Z" fill="black"/>
<path d="M19.9867 13.2005C19.6222 13.3909 19.2354 13.5354 18.8353 13.6307C17.726 13.8906 16.5867 13.9997 15.4483 13.9552C14.2271 13.9192 12.4387 13.7149 10.8666 12.9505C9.29444 12.1861 8.32569 11.0275 8.03482 9.58524C7.55405 7.18151 8.59732 2.23222 11.3714 1.53274C12.3065 1.29236 13.0276 1.43418 13.518 1.94137C13.8906 2.32837 14.0925 2.90286 14.119 3.67206C14.644 2.9972 15.3441 2.47924 16.143 2.17453C16.5478 2.0411 16.9768 1.99736 17.4002 2.04634C17.8236 2.09532 18.2313 2.23585 18.5949 2.45817C18.8759 2.60818 19.1209 2.81741 19.3131 3.0714C19.5052 3.3254 19.64 3.61809 19.7079 3.92926C19.9002 4.78018 19.6406 5.75609 19.304 6.57336C19.7749 6.40337 20.2837 6.36729 20.7739 6.46914C21.264 6.57098 21.7163 6.80676 22.0805 7.15026C22.6286 7.631 22.8016 8.25597 22.5613 9.00834C22.3306 9.61987 22.0194 10.1979 21.6358 10.727C21.268 11.2919 20.8882 11.876 20.7536 12.3808C20.688 12.5623 20.5862 12.7285 20.4544 12.8694C20.3226 13.0103 20.1634 13.123 19.9867 13.2005ZM11.1646 2.64086C10.4435 3.04468 9.79444 3.98214 9.36655 5.29698C8.91703 6.67672 8.76078 8.32088 8.97473 9.38332C9.19107 10.4506 9.87376 11.3063 11.0084 11.9313C12.1841 12.5275 13.4709 12.8729 14.7872 12.9457C15.9579 13.0439 17.1365 12.98 18.2896 12.7558C19.4387 12.5154 19.7776 12.1837 19.804 12.1092C19.9771 11.4553 20.4026 10.8039 20.8137 10.1862C21.6189 8.94825 21.9435 8.31607 21.4314 7.86657C19.9891 6.60461 18.4314 8.18627 18.3641 8.25357C18.3239 8.3025 18.2744 8.34302 18.2185 8.37282C18.1626 8.40262 18.1013 8.42112 18.0383 8.42726C17.9752 8.4334 17.9116 8.42705 17.851 8.4086C17.7904 8.39014 17.734 8.35992 17.6851 8.31967C17.6361 8.27943 17.5956 8.22994 17.5658 8.17403C17.536 8.11812 17.5175 8.05689 17.5114 7.99384C17.5052 7.93078 17.5116 7.86713 17.53 7.80653C17.5485 7.74592 17.5787 7.68955 17.6189 7.64062C18.0228 7.05651 19.0156 5.29217 18.7512 4.14319C18.7127 3.96437 18.6352 3.79624 18.5243 3.65081C18.4133 3.50539 18.2716 3.38624 18.1093 3.30188C17.8615 3.14543 17.5822 3.04558 17.2913 3.00943C17.0005 2.97328 16.7052 3.00173 16.4266 3.09276C14.8497 3.61196 13.7824 5.94118 13.7824 5.96281C13.7381 6.08298 13.6479 6.18063 13.5316 6.23428C13.4153 6.28792 13.2824 6.29316 13.1622 6.24886C13.042 6.20455 12.9444 6.11432 12.8907 5.99802C12.8371 5.88172 12.8319 5.74887 12.8762 5.6287C12.9941 5.20225 13.0745 4.76632 13.1165 4.32587C13.1887 3.5062 13.0781 2.89806 12.804 2.61442C12.5637 2.37404 12.167 2.32597 11.6021 2.47259C11.4494 2.50878 11.3022 2.56538 11.1646 2.64086Z" fill="black"/>
<path fill-rule="evenodd" clip-rule="evenodd" d="M13.1128 21.3467C13.0118 22.8779 11.9109 24.0629 10.6561 23.9908C9.40127 23.9187 8.44935 22.6063 8.55031 21.0679C8.65128 19.5295 9.75224 18.3493 11.0022 18.4238C12.2522 18.4983 13.2066 19.8083 13.1128 21.3467Z" fill="black"/>
<path fill-rule="evenodd" clip-rule="evenodd" d="M10.8497 18.8324C10.3833 18.5776 9.71025 18.9117 9.34967 19.5752C8.98909 20.2386 9.07563 20.9861 9.54198 21.2385C10.0083 21.4909 10.6814 21.1592 11.042 20.4958C11.4026 19.8324 11.316 19.0728 10.8497 18.8324Z" fill="white"/>
<path fill-rule="evenodd" clip-rule="evenodd" d="M12.3665 22.1448C12.1502 21.8876 11.8857 22.1448 11.5492 22.426C11.2127 22.7072 10.9242 22.9188 11.1333 23.1808C11.3425 23.4428 11.8016 23.4211 12.1429 23.1279C12.4843 22.8346 12.5804 22.402 12.3665 22.1448Z" fill="#894CF4"/>
<path fill-rule="evenodd" clip-rule="evenodd" d="M21.4468 21.3467C21.3459 22.8779 20.2449 24.0629 18.9877 23.9908C17.7305 23.9187 16.7834 22.6063 16.8843 21.0679C16.9853 19.5295 18.0863 18.3493 19.3363 18.4238C20.5863 18.4983 21.5406 19.8083 21.4468 21.3467Z" fill="black"/>
<path fill-rule="evenodd" clip-rule="evenodd" d="M19.1822 18.8324C18.7158 18.5776 18.0451 18.9117 17.6846 19.5752C17.324 20.2386 17.4081 20.9861 17.8745 21.2385C18.3408 21.4909 19.0139 21.1592 19.3745 20.4958C19.735 19.8324 19.6509 19.0728 19.1822 18.8324Z" fill="white"/>
<path fill-rule="evenodd" clip-rule="evenodd" d="M20.6971 22.1448C20.4808 21.8876 20.2163 22.1448 19.8774 22.426C19.5385 22.7072 19.25 22.9236 19.4688 23.1808C19.6875 23.438 20.137 23.4211 20.476 23.1279C20.8149 22.8346 20.9135 22.402 20.6971 22.1448Z" fill="#894CF4"/>
<path d="M12.9609 25.2311C13.0379 25.0484 13.5018 23.962 14.4177 23.6687C15.4177 23.349 16.5547 24.099 17.0282 25.5677C16.3648 26.6662 15.2975 27.1782 14.384 26.8609C13.4056 26.5243 13.0186 25.4066 12.9609 25.2311Z" fill="#894CF4"/>
<path d="M14.9369 27.1902C14.721 27.1897 14.5067 27.1539 14.3023 27.0844C13.2758 26.7311 12.8456 25.6422 12.7374 25.3033L12.7109 25.2215L12.7446 25.1398C12.8768 24.8201 13.3816 23.7528 14.3456 23.4428C15.5066 23.0726 16.7494 23.9548 17.2518 25.4955L17.2855 25.5965L17.2302 25.6878C16.6556 26.6397 15.7879 27.1902 14.9369 27.1902ZM13.2157 25.2384C13.3287 25.546 13.6965 26.3777 14.4561 26.6373C15.247 26.9113 16.1653 26.4691 16.7686 25.5364C16.3359 24.3153 15.3696 23.6134 14.4898 23.8923C13.7831 24.1206 13.3672 24.8994 13.2157 25.2384Z" fill="#231F20"/>
<path d="M15.2521 26.0124C13.6463 26.0124 12.8651 25.4499 12.8242 25.4186L13.1055 25.0413L12.9636 25.2311L13.1031 25.0388C13.1031 25.0388 14.3579 25.9186 16.9781 25.3369L17.0814 25.7984C16.4812 25.9356 15.8678 26.0073 15.2521 26.0124Z" fill="#231F20"/>
</svg>
